<?xml version="1.0" encoding="UTF-8" standalone="no"?><!DOCTYPE svg PUBLIC "-//W3C//DTD SVG 1.1//EN" "http://www.w3.org/Graphics/SVG/1.1/DTD/svg11.dtd"><svg width="100%" height="100%" viewBox="0 0 1032 1536" version="1.1" xmlns="http://www.w3.org/2000/svg" xmlns:xlink="http://www.w3.org/1999/xlink" xml:space="preserve" xmlns:serif="http://www.serif.com/" style="fill-rule:evenodd;clip-rule:evenodd;stroke-linejoin:round;stroke-miterlimit:2;"><text x="107.877px" y="98.223px" style="font-family:'Arial-BoldMT', 'Arial', sans-serif;font-weight:700;font-size:72px;">The page is not available.</text><text x="127.448px" y="367.522px" style="font-family:'ArialMT', 'Arial', sans-serif;font-size:144px;">404</text><path d="M380.569,849.217l2.372,489.237l-4.685,-1.862l-25.284,-10.091l-11.656,-4.662l-37.16,-14.829l-11.478,-4.581l-148.594,-59.312l-9.915,-3.96l-7.919,-3.143l-2.372,-489.238l206.678,82.488l10.535,4.193l39.478,15.76Z" style="fill:#8ec33f;fill-rule:nonzero;"/><path d="M636.216,735.267l2.368,489.237l-30.134,13.428l-10.488,4.666l-94.778,42.269l-12.084,5.356l-55.562,24.784l-10.563,4.71l-35.306,15.715l-6.728,3.022l-2.372,-489.237l43.556,-19.428l10.203,-4.532l92.244,-41.112l11.322,-5.05l28.106,-12.522l11.106,-4.966l35.416,-15.803l11.069,-4.922l12.625,-5.615Z" style="fill:#80b041;fill-rule:nonzero;"/><path d="M892.872,837.707l2.369,489.238l-112.419,-44.872l-10.572,-4.234l-98.725,-39.4l-11.294,-4.504l-23.647,-9.431l-2.368,-489.237l36.431,14.518l10.497,4.232l209.728,83.69Z" style="fill:#8ec33f;fill-rule:nonzero;"/><path d="M577.106,761.607c-1.562,36.857 -5.772,73.647 -16.437,109.313c-20.156,67.169 -63.563,117.712 -113.228,131.95c-22.013,6.319 -44.129,5.75 -66.113,2.225c-16.981,-2.694 -33.859,-7.153 -50.487,-11.535c-30.707,-8.128 -62.469,-16.518 -93.485,-13.359c-39.387,3.959 -79.55,27.619 -110.256,64.925c-0.612,0.753 -1.191,1.459 -1.766,2.213l-0.084,-17.588c31.694,-35.441 71.828,-57.828 111.288,-61.834c32.753,-3.275 65.35,5.337 96.893,13.653c16.263,4.309 32.16,8.5 47.835,11.144c21.515,3.615 42.581,4.29 63.65,-1.757c55.1,-15.797 90.596,-74.328 105.437,-123.862c9.778,-32.528 13.963,-66.41 15.647,-100.522l11.106,-4.966Z" style="fill:#547434;fill-rule:nonzero;"/><path d="M893.691,1006.54l0.062,13.572c-36.865,-14.263 -79.45,-11.707 -112.909,11.065c-15.931,10.85 -30.288,25.731 -44.175,40.147c-19.769,20.538 -40.222,41.744 -66.053,52.45c-10.71,4.422 -21.538,6.8 -32.482,7.619c-31.89,2.522 -64.462,-8.063 -96.156,-18.341c-8.062,-2.647 -16.412,-5.328 -24.472,-7.734c-16.559,-4.916 -34.122,-8.785 -50.303,-3.747c-10.787,3.319 -21.191,10.644 -30.962,21.728c-44.71,50.659 -36.344,138.097 -0.703,191.706l-10.563,4.71c-36.825,-58.057 -44.378,-150.675 3.613,-205.06c11.14,-12.631 23.206,-21.062 35.875,-24.956c18.678,-5.787 37.912,-1.628 55.956,3.706c8.172,2.441 16.594,5.163 24.725,7.81c30.9,10.05 62.6,20.325 92.931,17.84c9.819,-0.797 19.488,-2.9 28.934,-6.843c23.769,-9.841 42.525,-29.288 62.366,-49.907c14.281,-14.837 29.072,-30.178 45.981,-41.665c35.666,-24.257 79.585,-27.91 118.335,-14.1Z" style="fill:#547434;fill-rule:nonzero;"/><path d="M893.016,867.639l0.081,16.768c-28.678,29.55 -68.406,52.503 -107.556,53.382c-16.132,0.362 -32.172,-3.01 -47.257,-11.241c-33.331,-18.194 -57.521,-58.366 -64.793,-107.572c-3.413,-23.169 -3.091,-46.59 -0.844,-69.191l10.497,4.232c-1.894,20.668 -2.006,41.909 1.065,62.797c6.71,45.278 28.713,82.178 58.916,98.637c48.347,26.388 107.913,-2.587 145.528,-43.041c1.478,-1.593 2.922,-3.184 4.363,-4.771Z" style="fill:#80b041;fill-rule:nonzero;"/><path d="M352.972,1326.5l-11.656,-4.662c-13.497,-84.735 -32.144,-184.897 -39.347,-204.744c-17.378,-47.997 -43.938,-67.244 -74.797,-54.21c-40.847,17.319 -75.331,60.163 -101.253,105.316l-0.106,-22.097c25.865,-41.256 58.784,-78.244 97.678,-94.7c36.612,-15.537 68.912,6.653 88.534,60.872c8.044,22.206 27.447,128.338 40.947,214.225Z" style="fill:#fef9d4;fill-rule:nonzero;"/><path d="M304.156,1307.01l-11.478,-4.581c-9.522,-87.775 -25.203,-188.619 -62.503,-187.781c-27.947,0.628 -61.831,63.178 -86.091,128.469l-9.915,-3.96c24.975,-67.559 61.331,-136.031 95.95,-136.809c47.194,-1.063 63.781,107.8 74.037,204.662Z" style="fill:#80b041;fill-rule:nonzero;"/><path d="M341.091,833.457c-5.647,9.803 -12.31,19.057 -19.916,27.51c-23.184,25.737 -54.025,43.653 -89.219,51.865c-17.637,4.128 -35.684,5.638 -53.187,7.097c-13.916,1.175 -28.338,2.403 -42.244,4.928c-3.766,0.7 -7.678,1.525 -11.772,2.56l-0.059,-12.544c3.512,-0.859 6.953,-1.55 10.25,-2.159c14.378,-2.616 29.019,-3.85 43.187,-5.029c17.141,-1.453 34.825,-2.915 51.772,-6.862c33.094,-7.756 62.053,-24.563 83.725,-48.584c6.385,-7.113 12.072,-14.825 16.928,-22.975l10.535,4.193Z" style="fill:#80b041;fill-rule:nonzero;"/><path d="M893.984,1067.55l0.066,13.284c-0.728,-0.35 -1.491,-0.703 -2.253,-1.056c-22.238,-10.038 -54.444,-5.297 -67.697,19.894c-3.087,5.931 -5.087,12.656 -7.225,19.803c-3.212,10.728 -6.528,21.878 -13.991,30.653c-10.959,12.875 -28.156,17.775 -52.64,14.922c-2.36,-0.278 -4.75,-0.594 -7.147,-0.91c-13.966,-1.818 -28.438,-3.706 -40.775,2.025c-19.784,9.219 -29.044,35.957 -29.478,58.354c-0.088,4.675 0.156,9.343 0.684,13.925l-11.297,-4.504c-0.234,-3.15 -0.287,-6.306 -0.228,-9.509c0.488,-26.453 11.9,-58.241 36.316,-69.616c14.937,-6.978 30.825,-4.915 46.172,-2.921c2.356,0.312 4.712,0.631 7.034,0.906c20.856,2.4 35.125,-1.241 43.597,-11.15c5.731,-6.728 8.512,-16.1 11.475,-25.966c2.212,-7.428 4.494,-15.15 8.194,-22.203c16.022,-30.497 52.384,-37.053 79.193,-25.931Z" style="fill:#80b041;fill-rule:nonzero;"/><path d="M894.603,1194.93l0.066,14.228c-8.91,-6.034 -17.666,-10.225 -26.525,-12.772c-23.016,-6.578 -46.766,-0.137 -60.5,16.447c-5.728,6.897 -9.819,15.516 -12.725,22.266c-4.803,11.137 -10.882,28.453 -12.097,46.975l-10.572,-4.234c1.831,-19.15 7.944,-36.547 12.891,-47.975c3.262,-7.579 7.859,-17.235 14.596,-25.382c16.476,-19.847 44.422,-27.69 71.213,-20.012c7.95,2.244 15.759,5.675 23.653,10.459Z" style="fill:#80b041;fill-rule:nonzero;"/><path d="M537.894,779.095c-1.81,23.003 -4.781,45.906 -8.878,68.594c-3.494,19.39 -10.504,46.24 -30.803,55.14c-3.832,1.685 -7.96,2.56 -12.166,2.653c-8.122,0.185 -16.619,-2.54 -24.219,-8.025c-8.694,-6.284 -16.316,-15.953 -23.309,-29.612c-6.185,-12.081 -10.816,-24.894 -14.394,-38.056l10.203,-4.532c3.359,12.632 7.769,24.875 13.625,36.307c6.113,11.956 12.566,20.259 19.806,25.468c8.513,6.163 18.747,7.778 26.666,4.319c15.231,-6.694 20.959,-29.456 23.922,-45.966c3.672,-20.256 6.4,-40.696 8.225,-61.24l11.322,-5.05Z" style="fill:#fef9d4;fill-rule:nonzero;"/><path d="M893.3,926.307l0.059,12.341c-22.243,2.959 -44.031,10.541 -63.681,17.912c-3.581,1.35 -7.2,2.747 -10.784,4.097c-28.766,10.978 -58.513,22.35 -89.388,24.066c-1.415,0.075 -2.828,0.109 -4.243,0.137c-37.044,0.835 -69.419,-14.143 -88.038,-40.706c-0.803,-1.128 -1.569,-2.259 -2.297,-3.434c-15.856,-25.022 -19.056,-56.85 -20.822,-84.735c-2.315,-36.518 -2.856,-73.415 -1.584,-110.181l11.069,-4.922c-1.485,38.041 -1.044,76.247 1.35,114.038c1.334,21.456 3.59,45.353 12.172,65.619c1.871,4.512 4.103,8.846 6.696,12.931c16.732,26.397 48.632,41.019 85.313,38.962c29.353,-1.603 58.375,-12.709 86.419,-23.425c3.618,-1.353 7.234,-2.747 10.818,-4.1c20.591,-7.759 43.394,-15.653 66.941,-18.6Z" style="fill:#a6deed;fill-rule:nonzero;"/><path d="M893.5,967.426l0.059,12.259c-19.328,-0.712 -41.356,1.75 -68.59,7.529c-43.856,9.309 -77.544,30.037 -110.11,50.037c-25.05,15.406 -49.553,30.472 -76.997,38.594c-37.79,11.181 -81.231,9.162 -139.537,-23.313c-35.006,-19.512 -83.309,-22.731 -116.747,4.182c-4.984,3.965 -9.637,8.618 -13.856,14.003c-16.213,20.662 -21.138,74.078 -12.538,136.003c5.188,37.278 14.61,74.79 27.653,110.744c2.169,6.018 4.447,11.996 6.835,17.968l-6.731,3.022l-4.685,-1.862c-46.14,-117.997 -47.118,-237.622 -18.584,-273.975c6.484,-8.263 13.85,-15.072 21.834,-20.46c36.494,-24.765 85.71,-20.743 121.769,-0.684c56.778,31.647 97.972,33.306 134.528,21.825c24.975,-7.9 47.822,-21.947 71.966,-36.797c33.325,-20.512 67.772,-41.706 113.331,-51.381c27.666,-5.872 50.384,-8.35 70.4,-7.694Z" style="fill:#a6deed;fill-rule:nonzero;"/><path d="M608.45,1237.93l-10.488,4.666c-9.574,-15.203 -19.759,-30.025 -30.303,-44.219c-14.378,-19.315 -36.468,-44.653 -62.012,-41.453c-19.928,2.497 -37.444,24.131 -39.894,49.238c-2.209,22.846 6.719,47.615 23.956,66.337c4.044,4.419 8.529,8.544 13.475,12.366l-12.084,5.356c-3.166,-2.797 -6.187,-5.725 -8.994,-8.775c-19.609,-21.294 -29.753,-49.891 -27.162,-76.434c2.969,-30.738 24.775,-57.182 49.665,-60.285c30.794,-3.809 55.438,24.219 71.385,45.672c11.347,15.247 22.228,31.156 32.456,47.531Z" style="fill:#fef9d4;fill-rule:nonzero;"/><path d="M123.891,746.776l0.262,54.097l256.678,102.447l-0.262,-54.1l-256.678,-102.444Z" style="fill:#fff;fill-rule:nonzero;"/><path d="M126,1181.93l0.259,54.097l256.679,102.444l-0.263,-54.1l-256.675,-102.441Z" style="fill:#fff;fill-rule:nonzero;"/><path d="M171.819,765.904l-47.928,-19.128l2.368,489.25l47.925,19.128l-2.365,-489.25Z" style="fill:#fff;fill-rule:nonzero;"/><path d="M380.569,849.22l0.262,54.1l255.631,-113.953l-0.262,-54.1l-255.631,113.953Z" style="fill:#f2f3ef;fill-rule:nonzero;"/><path d="M382.675,1284.37l0.263,54.1l255.634,-113.95l-0.263,-54.1l-255.634,113.95Z" style="fill:#f2f3ef;fill-rule:nonzero;"/><path d="M636.203,735.267l0.259,54.1l256.682,102.44l-0.263,-54.1l-256.678,-102.44Z" style="fill:#fff;fill-rule:nonzero;"/><path d="M638.309,1170.42l0.263,54.1l256.681,102.44l-0.262,-54.1l-256.682,-102.44Z" style="fill:#fff;fill-rule:nonzero;"/><path d="M892.881,837.707l-47.928,-19.128l2.372,489.253l47.928,19.128l-2.372,-489.253Z" style="fill:#fff;fill-rule:nonzero;"/><path d="M845.669,1509.88l49.584,-347.737c0,0 -38.725,-38.069 -44.681,-129.997l-40.706,-99.903c0,0 28.062,-16.831 51.065,20.091c23.01,36.925 32.785,59.925 32.785,59.925l-0.357,-112.494l66.891,52.753l70.778,178.866l-47.715,392.131l-137.644,-13.635Z" style="fill:#fdcc9a;fill-rule:nonzero;"/><path d="M893.359,899.77l65.685,51.8l71.984,179.819l-47.715,392.131l-24.51,1.422l62.3,-391.703l-73.04,-180.019l-54.672,-44l-0.032,-9.45Z" style="fill:#fef3f6;fill-rule:nonzero;"/><path d="M1012,1472.05l4.66,-75.835l-167.472,-26.25l-4.238,86.46l167.05,15.625Z" style="fill:#e79c4b;fill-rule:nonzero;"/><path d="M1016.66,1396.21l-13.163,-2.193l-5.347,78.031l13.85,-0.003l4.66,-75.835Z" style="fill:#fef3f6;fill-rule:nonzero;"/><path d="M1019.08,1576.18l9.682,-120.737l-192.657,-41.391l-11.297,162.128l194.272,0Z" style="fill:#c2a38c;fill-rule:nonzero;"/><path d="M1028.76,1455.44l-9.682,120.737l-14.031,0l7.609,-124.197l16.104,3.46Z" style="fill:#fef3f6;fill-rule:nonzero;"/><path d="M205.325,1511.8l-79.406,-343.594c0,0 47.637,-43.419 48.584,-135.637l35.15,-100.225c0,0 -28.884,-16.879 -49.812,20.165c-20.932,37.041 -34.603,72.778 -34.603,72.778l-0.619,-125.472l-62.622,51.938l-61.997,180.397l68.85,393.356l136.475,-13.706Z" style="fill:#fdcc9a;fill-rule:nonzero;"/><path d="M124.619,899.81l-62.622,51.938l-61.997,180.397l68.85,393.356l24.513,1.419l-83.369,-392.922l63.04,-180.594l51.66,-38.531l-0.075,-15.063Z" style="fill:#fef3f6;fill-rule:nonzero;"/><path d="M37.463,1473.87l-8.766,-76.069l160.991,-20.881l11.893,76.825l-164.118,20.125Z" style="fill:#e79c4b;fill-rule:nonzero;"/><path d="M28.697,1397.8l13.003,-2.203l9.566,78.272l-13.803,0l-8.766,-76.069Z" style="fill:#fef3f6;fill-rule:nonzero;"/><path d="M35.6,1576.18l-15.75,-118.962l189.803,-41.553l19.806,160.515l-193.859,0Z" style="fill:#c2a38c;fill-rule:nonzero;"/><path d="M19.85,1457.22l15.75,118.962l13.138,0l-13.022,-122.437l-15.866,3.475Z" style="fill:#fef3f6;fill-rule:nonzero;"/><path d="M164.919,1300l-112.466,-6.734l-7.256,59.668l129.29,6.404l-9.568,-59.338Z" style="fill:#5c2d29;fill-rule:nonzero;"/><path d="M5.497,1337.63c6.603,27.572 30.79,45.41 54.019,39.847c23.231,-5.562 36.706,-32.428 30.103,-59.997c-6.603,-27.572 -30.791,-45.412 -54.019,-39.847c-23.231,5.563 -36.706,32.425 -30.103,59.997Z" style="fill:#ede0dd;fill-rule:nonzero;"/><path d="M15.828,1335.16c4.981,20.797 23.225,34.257 40.753,30.06c17.522,-4.2 27.688,-24.463 22.703,-45.26c-4.978,-20.8 -23.225,-34.256 -40.75,-30.059c-17.522,4.197 -27.687,24.462 -22.706,45.259Z" style="fill:#361916;fill-rule:nonzero;"/><g id="location"><path d="M362.316,791.957c1.153,23.678 -24.907,73.632 -42.603,104.613c-7.363,12.887 -25.594,13.778 -34.172,1.669c-20.625,-29.116 -51.419,-76.294 -52.572,-99.979c-1.741,-35.715 25.803,-66.084 61.522,-67.821c35.715,-1.741 66.081,25.803 67.825,61.518Z" style="fill:#e9595f;fill-rule:nonzero;"/><path d="M340.938,792.998c1.165,23.912 -17.275,44.241 -41.188,45.406c-23.909,1.166 -44.241,-17.269 -45.406,-41.184c-1.163,-23.913 17.275,-44.241 41.187,-45.406c23.913,-1.166 44.241,17.272 45.407,41.184Z" style="fill:#5c2d29;fill-rule:nonzero;"/><path d="M332.016,793.432c0.925,18.988 -13.713,35.128 -32.7,36.057c-18.985,0.921 -35.125,-13.719 -36.05,-32.704c-0.925,-18.984 13.715,-35.125 32.7,-36.049c18.984,-0.926 35.125,13.712 36.05,32.696Z" style="fill:#fffffc;fill-rule:nonzero;"/></g><path d="M600.316,1042.62c-44.322,0 -80.253,-10.413 -80.253,-23.26c0,-12.84 35.931,-23.253 80.253,-23.253c13.415,0 26.062,0.953 37.175,2.641l0.2,41.2c-11.163,1.706 -23.878,2.672 -37.375,2.672Z" style="fill:#79a240;fill-rule:nonzero;"/><path d="M637.691,1039.94l-0.2,-41.2c25.606,3.884 43.078,11.659 43.078,20.612c0,8.935 -17.381,16.691 -42.878,20.588Z" style="fill:#86b140;fill-rule:nonzero;"/><path d="M766.778,1130.21l-26.037,0l13.018,-31.365l13.019,-31.366l13.022,31.366l13.019,31.365l-26.041,0Z" style="fill:#49642e;fill-rule:nonzero;"/><path d="M778.016,882.023l-26.038,0l13.019,-31.366l13.019,-31.365l13.018,31.365l13.019,31.366l-26.037,0Z" style="fill:#36471e;fill-rule:nonzero;"/><path d="M424.125,923.173l-26.037,0l13.018,-31.366l13.019,-31.365l13.019,31.365l13.019,31.366l-26.038,0Z" style="fill:#49642e;fill-rule:nonzero;"/><path d="M219.163,1152.89l-26.041,0l13.022,-31.363l13.019,-31.366l13.018,31.366l13.019,31.363l-26.037,0Z" style="fill:#49642e;fill-rule:nonzero;"/><path d="M291.472,1016.26l-26.038,0l13.019,-31.365l13.019,-31.366l13.019,31.366l13.018,31.365l-26.037,0Z" style="fill:#36471e;fill-rule:nonzero;"/><g id="flash-mesage-ballon"><path d="M511.4,722.363l59.732,107.489c0.57,1.027 1.662,1.666 2.837,1.66l73.785,-0.33c1.123,-0.005 2.153,-0.586 2.741,-1.543l67.703,-110.616c0.929,-1.523 0.45,-3.51 -1.07,-4.441c-1.522,-0.932 -3.509,-0.453 -4.441,1.069l-66.763,109.079l-70.075,0.315l-58.803,-105.818c-0.866,-1.559 -2.832,-2.121 -4.391,-1.255c-1.559,0.866 -2.121,2.832 -1.255,4.391Z" style="fill:#1651a4;fill-rule:nonzero;"/><path d="M613.891,828.105l-0.433,-97.264c-0.007,-1.781 -1.46,-3.222 -3.244,-3.215c-1.782,0.01 -3.222,1.461 -3.215,3.244l0.433,97.264c0.009,1.784 1.46,3.222 3.244,3.215c1.784,-0.007 3.222,-1.46 3.215,-3.244Z" style="fill:#1651a4;fill-rule:nonzero;"/><path d="M833.039,484.261c0.336,75.306 -43.298,161.878 -108.392,226.448c-31.857,31.599 -186.021,32.852 -218.39,0.975c-65.112,-64.127 -109.065,-150.559 -109.398,-225.476c-0.501,-112.16 155.674,-203.781 217.182,-204.057c61.508,-0.273 218.496,89.952 218.998,202.11Z" style="fill:#6a6964;fill-rule:nonzero;"/><path d="M614.041,282.151c-61.508,0.276 -217.685,91.896 -217.182,204.057c0.333,74.917 44.286,161.349 109.398,225.476c6.424,6.323 17.654,11.34 31.759,15.077c-39.641,-49.712 -93.398,-136.106 -93.862,-239.532c-0.73,-163.968 169.887,-205.078 169.887,-205.078Z" style="fill:#fff;fill-rule:nonzero;"/><path d="M614.041,282.151c61.508,-0.273 218.496,89.952 218.998,202.11c0.332,74.917 -42.845,161.74 -107.384,226.441c-6.366,6.386 -17.551,11.5 -31.622,15.363c39.195,-50.064 92.179,-136.934 91.718,-240.36c-0.733,-163.969 -171.71,-203.554 -171.71,-203.554Z" style="fill:#fff;fill-rule:nonzero;"/><path d="M569.802,732.572c24.602,2.903 52.508,3.193 78.086,0.933c87.605,-330.409 -33.847,-451.354 -33.847,-451.354c0,0 -140.087,141.943 -44.239,450.421Z" style="fill:#fff;fill-rule:nonzero;"/><path d="M536.432,726.342l-0.004,-0.001l0.004,0.001Zm3.868,1.016c0.066,0.016 0.125,0.032 0.192,0.048c-0.067,-0.016 -0.126,-0.032 -0.192,-0.048Zm1.528,0.375c0.166,0.039 0.322,0.077 0.488,0.116c-0.166,-0.039 -0.322,-0.077 -0.488,-0.116Zm0.783,0.185c18.487,4.358 41.221,6.691 64.407,7.042c-23.191,-0.35 -45.918,-2.681 -64.407,-7.042Zm-36.207,-16.092c-0.049,-0.046 -0.099,-0.095 -0.147,-0.142c-40.279,-39.667 -72.46,-87.873 -91.228,-136.607c18.768,48.734 50.949,96.94 91.228,136.607c0.048,0.047 0.098,0.096 0.147,0.142Z" style="fill:#f9c4d6;fill-rule:nonzero;"/><path d="M613.477,735.007c29.375,-0.022 58.918,-3.202 80.958,-9.456c-22.04,6.254 -51.583,9.434 -80.958,9.456Z" style="fill:#f9c4d6;fill-rule:nonzero;"/><path d="M607.018,734.96c2.15,0.033 4.305,0.048 6.459,0.047c-2.154,0.001 -4.309,-0.014 -6.459,-0.047Z" style="fill:#5a479d;fill-rule:nonzero;"/><path d="M536.432,726.342l-0.004,-0.001c-13.264,-3.662 -23.824,-8.492 -30.024,-14.515c-0.049,-0.046 -0.099,-0.095 -0.147,-0.142c6.183,6.087 16.816,10.96 30.18,14.65c0.523,0.144 1.047,0.287 1.579,0.427c-29.721,-37.271 -67.379,-95.171 -84.56,-165.401c7.473,-3.139 14.795,-6.571 21.912,-10.265c12.12,6.139 25.394,11.18 39.632,15.112c7.383,2.038 15.02,3.777 22.892,5.212c3.566,47.551 13.283,101.203 31.91,161.153c24.602,2.903 52.508,3.193 78.086,0.933c16.553,-62.436 25.642,-117.38 29.497,-165.454c42.956,-9.48 80.39,-26.755 106.896,-51.104c-8.749,89.251 -54.72,163.616 -89.846,208.604c-22.04,6.254 -51.583,9.434 -80.958,9.456c-2.154,0.001 -4.309,-0.014 -6.459,-0.047c-23.186,-0.351 -45.92,-2.684 -64.407,-7.042c-0.096,-0.021 -0.2,-0.045 -0.295,-0.069c-0.166,-0.039 -0.322,-0.077 -0.488,-0.116c-0.447,-0.107 -0.897,-0.217 -1.336,-0.327c-0.067,-0.016 -0.126,-0.032 -0.192,-0.048c-1.312,-0.327 -2.604,-0.667 -3.868,-1.016Z" style="fill:#6a6964;fill-rule:nonzero;"/><path d="M536.437,726.334c-13.364,-3.69 -23.997,-8.563 -30.18,-14.65c-40.279,-39.667 -72.46,-87.873 -91.228,-136.607c0.611,-0.376 0.99,-0.988 1.089,-1.648c2.387,-0.124 4.561,-0.462 6.487,-1.033c10.486,-3.115 20.806,-6.814 30.851,-11.036c17.181,70.23 54.839,128.13 84.56,165.401c-0.532,-0.14 -1.056,-0.283 -1.579,-0.427Z" style="fill:#ededed;fill-rule:nonzero;"/><path d="M694.435,725.551c35.126,-44.988 81.097,-119.353 89.846,-208.604c22.49,-20.658 37.117,-46.408 40.575,-76.8c5.124,14.079 8.066,28.716 8.181,43.753c-0.002,0.006 -0.001,0.004 -0.001,0.011c0,0.052 0,0.104 0.002,0.156c-0.002,0.007 0,0.017 0,0.024c-0.001,0.056 0,0.113 0.001,0.17c0.001,0.141 0,0.28 0,0.424c0.001,0.005 0,0.009 0.001,0.014c0,0.436 0.001,0.877 -0.002,1.313l0.001,0.007c-0.002,0.141 -0.002,0.28 -0.004,0.423c0.001,0.005 0.001,0.012 0,0.017c-0.001,0.07 0,0.144 -0.002,0.211l0,0.01c0,0.059 -0.001,0.113 0,0.172c-0.002,0.013 -0.001,0.037 -0.001,0.052c-0.001,0.049 0,0.096 -0.003,0.147c0.001,0.024 0.001,0.05 0.001,0.074c-0.002,0.051 -0.002,0.093 -0.001,0.143c0,0.024 -0.001,0.054 -0.001,0.078c-0.002,0.049 -0.001,0.089 -0.003,0.14c-0.001,0.028 0,0.052 -0.001,0.08c0.001,0.047 0,0.085 0,0.129c-0.001,0.029 -0.002,0.066 -0.003,0.094c0,0.035 -0.001,0.08 -0.001,0.117c0,0.034 -0.002,0.073 -0.001,0.104c-0.002,0.033 -0.001,0.073 -0.003,0.105c0,0.036 -0.001,0.08 -0.002,0.118c0,0.028 0.001,0.059 0,0.085c-0.002,0.051 -0.001,0.089 -0.003,0.14c0.001,0.024 0.001,0.04 -0.001,0.063c-0.001,0.057 -0.002,0.101 -0.003,0.157c0,0.024 0,0.043 -0.001,0.064c0.001,0.057 -0.001,0.106 -0.002,0.16c0,0.018 -0.001,0.028 -0.001,0.046c-0.002,0.059 -0.003,0.12 -0.004,0.178c0.001,0.005 0,0.015 -0.001,0.019c-1.513,74.143 -44.659,158.384 -108.351,221.564c-6.128,6.076 -16.776,11.03 -30.212,14.842Z" style="fill:#d8d8d8;fill-rule:nonzero;"/><path d="M569.802,732.572c-18.627,-59.95 -28.344,-113.602 -31.91,-161.153c23.135,4.224 48.285,5.848 74.733,4.8c22.454,-0.891 44.236,-3.64 64.76,-8.168c-3.855,48.074 -12.944,103.018 -29.497,165.454c-25.578,2.26 -53.484,1.97 -78.086,-0.933Z" style="fill:#e9e9e9;fill-rule:nonzero;"/><path d="M486.977,694.758c0,0 52.051,16.808 122.163,16.604c70.113,-0.201 141.442,-25.227 141.442,-25.227l-38.431,55.806c0,0 -54.269,20.149 -104.373,20.29c-50.106,0.146 -91.698,-22.138 -91.698,-22.138l-29.103,-45.335Z" style="fill:#494949;fill-rule:nonzero;"/><g id="message"><path d="M503.124,708.98c0,0 48.296,6.837 115.051,5.456c61.651,-1.276 114.638,-12.684 114.638,-12.684l-21.891,32.215c0,0 -45.596,18.855 -92.036,20.819c-21.798,0.921 -42.496,-0.909 -59.837,-4.954c-22.646,-5.283 -38.064,-11.944 -36.205,-13.052l-19.72,-27.8Z" style="fill:#3eb650;fill-rule:nonzero;"/><path d="M595.224,720.323l37.062,-2.254l-2.997,28.735l-37.062,2.254l2.997,-28.735Z" style="fill:#fff;"/></g><g id="basket"><path d="M663.037,924.211l-99.054,0.013l-9.17,-92.521l117.477,-0.015l-9.253,92.523Z" style="fill:#6a6964;fill-rule:nonzero;"/><g id="message1" serif:id="message"><path d="M657.007,893.489l-44.346,-1.009l0.999,-43.946l44.346,1.008l-0.999,43.947Z" style="fill:#fcc133;fill-rule:nonzero;"/><path d="M637.702,856.967c7.667,0.174 13.751,6.541 13.577,14.209c-0.175,7.667 -6.541,13.751 -14.209,13.577c-7.668,-0.175 -13.751,-6.541 -13.577,-14.209c0.174,-7.668 6.541,-13.751 14.209,-13.577Z" style="fill:#f8fafb;fill-opacity:0.97;"/><path d="M582.769,833.203l6.267,26.284l16.074,1.599l-12.491,13.014l6.29,23.844l-14.414,-15.535l-12.923,13.609l4.319,-23.095l-12.609,-11.958l15.414,-2.206l4.073,-25.556Z" style="fill:#fff;fill-rule:nonzero;stroke:#100c00;stroke-width:0.75px;"/></g><path d="M672.84,843.777l-118.188,-1.305c-2.918,-0.03 -5.33,-2.303 -5.389,-5.075l-0.19,-9.21c-0.06,-2.769 2.262,-4.99 5.179,-4.957l118.188,1.304c2.921,0.031 5.333,2.302 5.392,5.074l0.19,9.212c0.057,2.771 -2.262,4.99 -5.182,4.957Z" style="fill:#494949;fill-rule:nonzero;"/><path d="M664.155,924.223l-99.971,-2.288c-3.054,-0.068 -5.608,-2.38 -5.706,-5.16l-0.317,-9.248c-0.096,-2.781 2.304,-4.98 5.358,-4.91l99.969,2.289c3.054,0.07 5.611,2.381 5.706,5.163l0.321,9.246c0.095,2.782 -2.304,4.978 -5.36,4.908Z" style="fill:#494949;fill-rule:nonzero;"/></g><path d="M566.902,469.854c0.005,-0.01 0.006,-0.015 0.01,-0.023c-0.001,0.004 -0.009,0.016 -0.01,0.023Z" style="fill:#d8b23e;fill-rule:nonzero;"/><path d="M566.975,469.726c0.008,-0.012 0.016,-0.026 0.021,-0.037c-0.008,0.014 -0.013,0.022 -0.021,0.037Z" style="fill:#d8b23e;fill-rule:nonzero;"/><path d="M567.042,469.61c0.013,-0.022 0.026,-0.043 0.04,-0.067c-0.013,0.02 -0.027,0.047 -0.04,0.067Z" style="fill:#d8b23e;fill-rule:nonzero;"/><path d="M567.113,469.488c0.017,-0.028 0.032,-0.057 0.05,-0.085c-0.018,0.028 -0.033,0.057 -0.05,0.085Z" style="fill:#d8b23e;fill-rule:nonzero;"/><path d="M567.186,469.362c0.02,-0.032 0.039,-0.067 0.058,-0.099c-0.019,0.034 -0.036,0.063 -0.058,0.099Z" style="fill:#d8b23e;fill-rule:nonzero;"/><path d="M567.265,469.228c0.02,-0.037 0.04,-0.069 0.061,-0.108c-0.019,0.035 -0.042,0.074 -0.061,0.108Z" style="fill:#d8b23e;fill-rule:nonzero;"/><path d="M567.334,469.106c0.026,-0.04 0.05,-0.085 0.073,-0.126c-0.023,0.041 -0.047,0.086 -0.073,0.126Z" style="fill:#d8b23e;fill-rule:nonzero;"/><path d="M567.411,468.974c0.692,-1.202 1.366,-2.411 2.019,-3.624c-0.653,1.213 -1.327,2.422 -2.019,3.624Z" style="fill:#d8b23e;fill-rule:nonzero;"/><path d="M569.488,465.241c0.006,-0.012 0.014,-0.024 0.02,-0.037c-0.006,0.013 -0.014,0.025 -0.02,0.037Zm0.058,-0.109c0.007,-0.014 0.015,-0.026 0.021,-0.041c-0.006,0.015 -0.012,0.027 -0.021,0.041Zm0.06,-0.113c0.009,-0.014 0.009,-0.016 0.017,-0.028c-0.005,0.008 -0.012,0.018 -0.017,0.028Zm0.062,-0.115c0.005,-0.008 0.007,-0.014 0.011,-0.023c-0.004,0.009 -0.006,0.015 -0.011,0.023Zm0.061,-0.117c0.004,-0.006 0.003,-0.004 0.005,-0.008c-0.001,0.002 -0.002,0.004 -0.005,0.008Z" style="fill:#f1c5be;fill-rule:nonzero;"/></g><text x="142.166px" y="175.948px" style="font-family:'ArialMT', 'Arial', sans-serif;font-size:24px;fill:#231f20;">The link you followed may be broken, or the page may have been removed.</text></svg>