<?xml version="1.0" encoding="UTF-8" standalone="no"?><!DOCTYPE svg PUBLIC "-//W3C//DTD SVG 1.1//EN" "http://www.w3.org/Graphics/SVG/1.1/DTD/svg11.dtd"><svg width="100%" height="100%" viewBox="0 0 5305 4923" version="1.1" xmlns="http://www.w3.org/2000/svg" xmlns:xlink="http://www.w3.org/1999/xlink" xml:space="preserve" xmlns:serif="http://www.serif.com/" style="fill-rule:evenodd;clip-rule:evenodd;stroke-linejoin:round;stroke-miterlimit:2;"><text x="299.566px" y="416.112px" style="font-family:'ArialMT', 'Arial', sans-serif;font-size:450px;">A<tspan x="574.883px 699.908px " y="416.112px 416.112px "> S</tspan>mall bang!</text><path d="M3992.96,3692.41c0,0 -116.625,11.938 -381.374,-85.531c-318.563,-117.281 -791.157,-558.094 -791.157,-558.094c0,0 -20.625,-164.768 220,-82.656c0,0 276.531,190.125 393.125,194.281c116.594,4.157 237,0.875 227,-195.812c-10.031,-196.719 -39.5,-311.353 -84.031,-382.76c-31.063,-49.796 -312.25,-129.903 -428.094,-103.056c-118.406,27.447 -159.687,289.672 -196.781,347.907c-47.219,74.1 -121.312,90.115 -171.719,77.1c-36.687,-9.469 -63.094,-55.06 -50.281,-90.716c41.219,-114.913 131.031,-584.381 358.531,-620.322c243.062,-38.397 485.219,51.866 485.219,51.866c0,0 25.219,-33.96 -200.437,-157.322c-225.657,-123.363 -463.688,-253.153 -499.094,-331.547c-39.219,-86.888 6.094,-184.772 6.094,-184.772l295.687,157.725c0,0 -97.875,-158.134 -47.157,-245.941l362.845,179.447c0,0 -93.813,-174.3 -34.063,-220.337l658.531,608.628c0,0 102.5,237.872 217.406,554.419c142.372,392.184 474,401.868 474,401.868l-294.249,728.25l-520.001,-42.625Z" style="fill:#fdcc99;fill-rule:nonzero;"/><rect x="4431.77" y="2670.72" width="193.937" height="1128.01" style="fill:#e79c4b;fill-rule:nonzero;"/><rect x="4575.68" y="2599.24" width="626.625" height="1270.95" style="fill:#c4a38c;fill-rule:nonzero;"/><g id="pin"><path d="M3126.93,2900.79l-962,23.996l962,24l0,-47.996Z" style="fill:#fafbfc;fill-rule:nonzero;"/><path d="M3101.58,2924.78c0,42.719 34.626,77.344 77.344,77.344c42.719,0 77.344,-34.625 77.344,-77.344c0,-42.706 -34.625,-77.328 -77.344,-77.328c-42.718,0 -77.344,34.622 -77.344,77.328Z" style="fill:#e74c3c;fill-rule:nonzero;"/><path d="M3214.93,2928.78c-11.031,0 -20,-8.953 -20,-19.996c0,-11.044 8.969,-20.001 20,-20.001c11.063,0 20,8.957 20,20.001c0,11.043 -8.937,19.996 -20,19.996Z" style="fill:#f5c6c1;fill-rule:nonzero;"/></g><path d="M1969.37,2326.71l0,-0.587l0,0.587Zm0,-1.722l0,-0.674l0,0.674Zm0,-1.718l0,-0.688l0,0.688Zm0,-1.732c0,-0.2 0,-0.503 -0.032,-0.703c0.032,0.228 0.032,0.475 0.032,0.703Zm-0.032,-1.772l0,-0.615l0,0.615Zm0,-1.828l0,-0.518l0,0.518Zm-0.031,-3.94l0,-0.506l0,0.506Zm0,-1.741l0,-0.584l0,0.584Zm0,-1.697l0,-0.631l0,0.631Zm-0.031,-1.793l0,-0.544l0,0.544Zm0,-1.747l0,-0.525l0,0.525Zm-0.031,-1.972l0,-0.237l0,0.237Zm-0.032,-3.794l0,-0.047l0,0.047Zm-0.031,-1.712l0,-0.347l0,0.347Zm0,-1.775c0,-0.132 -0.031,-0.178 -0.031,-0.31c0,0.113 0.031,0.197 0.031,0.31Zm-0.031,-1.763l0,-0.328l0,0.328Zm-0.032,-1.878l0,-0.144l0,0.144Zm-0.156,-9.09l0,-0.016l0,0.016Z" style="fill:#087785;fill-rule:nonzero;"/><path d="M313.833,4922.88l-1.034,0l1.034,0c20.197,0 40.485,-1.156 60.954,-3.406c-20.469,2.25 -40.757,3.406 -60.954,3.406Zm-1.29,0c-0.328,0 -0.681,0 -1.01,-0.031c0.344,0.031 0.666,0.031 1.01,0.031Zm-1.2,-0.031l-0.9,0l0.9,0Zm-1.125,0l-1.01,0l1.01,0Zm-1.244,0l-0.934,0l0.934,0Zm-1.063,0c-0.328,0 -0.684,0 -1.012,-0.031c0.344,0.031 0.669,0.031 1.012,0.031Zm-1.3,-0.031l-0.962,0l0.962,0Zm-1.109,0c-0.309,0 -0.619,0 -0.931,-0.032c0.297,0.032 0.637,0.032 0.931,0.032Zm-1.231,-0.032l-0.975,0l0.975,0Zm-1.203,0c-0.282,0 -0.566,-0.031 -0.847,-0.031c0.294,0 0.553,0.031 0.847,0.031Zm-1.103,-0.031l-0.985,0l0.985,0Zm-1.26,-0.031l-0.825,0l0.825,0Zm-1.078,0c-0.312,-0.031 -0.65,-0.031 -0.962,-0.031c0.343,0 0.618,0 0.962,0.031Zm-1.287,-0.031c-0.297,-0.032 -0.585,-0.032 -0.879,-0.032c0.294,0 0.585,0 0.879,0.032Zm-1.169,-0.032c-0.266,0 -0.541,-0.031 -0.806,-0.031c0.293,0 0.512,0 0.806,0.031Zm-1.172,-0.031c-0.297,-0.031 -0.613,-0.031 -0.909,-0.031c0.293,0 0.615,0 0.909,0.031Zm-1.281,-0.031c-0.235,-0.031 -0.435,-0.031 -0.669,-0.031c0.194,0 0.475,0 0.669,0.031Zm-1.044,-0.031c-0.297,-0.032 -0.594,-0.032 -0.891,-0.032c0.294,0 0.594,0 0.891,0.032Zm-1.322,-0.063l-0.609,0l0.609,0Zm-1.084,-0.031c-0.266,0 -0.531,-0.031 -0.797,-0.031c0.297,0 0.5,0.031 0.797,0.031Zm-1.228,-0.031c-0.235,-0.032 -0.454,-0.032 -0.688,-0.032c0.197,0 0.491,0 0.688,0.032Zm-1.282,-0.063c-0.184,0 -0.371,0 -0.559,-0.031c0.197,0.031 0.366,0.031 0.559,0.031Zm-1.087,-0.031c-0.188,-0.031 -0.381,-0.031 -0.569,-0.031c0.147,0 0.422,0 0.569,0.031Zm-1.334,-0.063c-0.141,0 -0.263,0 -0.4,-0.031c0.096,0.031 0.303,0.031 0.4,0.031Zm-1.685,-0.062l-0.037,0l0.037,0Zm-0.656,-0.031c-0.109,-0.032 -0.222,-0.032 -0.331,-0.032c0.1,0 0.234,0 0.331,0.032Zm-1.456,-0.094l-0.21,0l0.21,0Zm-0.878,-0.031l-0.176,0l0.176,0Zm-1.435,-0.063c-0.047,0 -0.112,0 -0.159,-0.031c0.047,0.031 0.109,0.031 0.159,0.031Zm-2.294,-0.125l-0.121,0l0.121,0Z" style="fill:#c24335;fill-rule:nonzero;"/><g id="flash-mesage-ballon"><path d="M671.934,3703.74l235.082,423.036c2.242,4.042 6.54,6.555 11.165,6.533l290.388,-1.297c4.422,-0.022 8.476,-2.308 10.787,-6.076l266.453,-435.34c3.659,-5.993 1.774,-13.814 -4.209,-17.479c-5.991,-3.667 -13.812,-1.782 -17.479,4.209l-262.752,429.293l-275.789,1.238l-231.425,-416.461c-3.408,-6.135 -11.147,-8.346 -17.283,-4.938c-6.135,3.408 -8.346,11.146 -4.938,17.282Z" style="fill:#1651a4;fill-rule:nonzero;"/><path d="M1075.3,4119.9l-1.704,-382.792c-0.03,-7.012 -5.747,-12.682 -12.768,-12.654c-7.014,0.04 -12.681,5.748 -12.653,12.768l1.703,382.792c0.037,7.023 5.748,12.682 12.768,12.654c7.021,-0.028 12.682,-5.748 12.654,-12.768Z" style="fill:#1651a4;fill-rule:nonzero;"/><path d="M1937.78,2766.66c1.324,296.378 -170.403,637.092 -426.588,891.212c-125.378,124.363 -732.104,129.293 -859.499,3.84c-256.256,-252.379 -429.238,-592.544 -430.548,-887.389c-1.973,-441.419 612.673,-802.003 854.746,-803.088c242.071,-1.076 859.915,354.014 861.889,795.425Z" style="fill:#6a6964;fill-rule:nonzero;"/><path d="M1075.89,1971.24c-242.073,1.085 -856.727,361.667 -854.746,803.088c1.31,294.845 174.292,635.01 430.548,887.389c25.282,24.884 69.478,44.628 124.992,59.334c-156.011,-195.645 -367.579,-535.658 -369.403,-942.704c-2.875,-645.316 668.609,-807.107 668.609,-807.107Z" style="fill:#fff;fill-rule:nonzero;"/><path d="M1075.89,1971.24c242.071,-1.076 859.915,354.014 861.889,795.425c1.311,294.844 -168.619,636.546 -422.62,891.185c-25.056,25.132 -69.074,45.261 -124.45,60.463c154.254,-197.031 362.78,-538.92 360.963,-945.964c-2.882,-645.318 -675.782,-801.109 -675.782,-801.109Z" style="fill:#fff;fill-rule:nonzero;"/><path d="M901.779,3743.92c96.826,11.428 206.652,12.568 307.318,3.674c344.779,-1300.36 -133.208,-1776.36 -133.208,-1776.36c0,0 -551.331,558.633 -174.11,1772.68Z" style="fill:#fff;fill-rule:nonzero;"/><path d="M770.449,3719.4l-0.017,-0.004l0.017,0.004Zm15.223,3.999c0.26,0.063 0.493,0.127 0.754,0.19c-0.261,-0.063 -0.494,-0.127 -0.754,-0.19Zm6.012,1.475c0.653,0.152 1.27,0.304 1.923,0.457c-0.653,-0.153 -1.27,-0.305 -1.923,-0.457Zm3.082,0.73c72.761,17.149 162.23,26.333 253.481,27.715c-91.271,-1.379 -180.714,-10.555 -253.481,-27.715Zm-142.496,-63.333c-0.191,-0.182 -0.388,-0.376 -0.579,-0.558c-158.52,-156.116 -285.174,-345.836 -359.037,-537.632c73.863,191.796 200.517,381.516 359.037,537.632c0.191,0.182 0.388,0.376 0.579,0.558Z" style="fill:#f9c4d6;fill-rule:nonzero;"/><path d="M1073.67,3753.5c115.608,-0.083 231.876,-12.601 318.617,-37.214c-86.741,24.613 -203.009,37.131 -318.617,37.214Z" style="fill:#f9c4d6;fill-rule:nonzero;"/><path d="M1048.25,3753.32c8.462,0.128 16.943,0.188 25.423,0.182c-8.48,0.006 -16.961,-0.054 -25.423,-0.182Z" style="fill:#5a479d;fill-rule:nonzero;"/><path d="M770.449,3719.4l-0.017,-0.004c-52.199,-14.413 -93.761,-33.421 -118.162,-57.125c-0.191,-0.182 -0.388,-0.376 -0.579,-0.558c24.333,23.954 66.18,43.133 118.776,57.655c2.06,0.569 4.123,1.129 6.216,1.679c-116.969,-146.684 -265.176,-374.554 -332.795,-650.953c29.412,-12.352 58.226,-25.862 86.238,-40.401c47.699,24.163 99.939,44.004 155.973,59.475c29.057,8.023 59.115,14.866 90.097,20.517c14.035,187.141 52.275,398.294 125.583,634.232c96.826,11.428 206.652,12.568 307.318,3.674c65.146,-245.725 100.918,-461.963 116.087,-651.162c169.06,-37.311 316.385,-105.299 420.702,-201.126c-34.432,351.256 -215.354,643.93 -353.599,820.984c-86.741,24.613 -203.009,37.131 -318.617,37.214c-8.48,0.006 -16.961,-0.054 -25.423,-0.182c-91.251,-1.382 -180.72,-10.566 -253.481,-27.715c-0.376,-0.085 -0.785,-0.179 -1.159,-0.273c-0.653,-0.153 -1.27,-0.305 -1.923,-0.457c-1.758,-0.421 -3.531,-0.854 -5.258,-1.285c-0.261,-0.063 -0.494,-0.127 -0.754,-0.19c-5.165,-1.286 -10.249,-2.625 -15.223,-3.999Z" style="fill:#6a6964;fill-rule:nonzero;"/><path d="M770.467,3719.37c-52.596,-14.522 -94.443,-33.701 -118.776,-57.655c-158.52,-156.116 -285.174,-345.836 -359.037,-537.632c2.403,-1.48 3.894,-3.888 4.287,-6.488c9.392,-0.487 17.95,-1.816 25.529,-4.065c41.27,-12.26 81.885,-26.816 121.418,-43.434c67.619,276.399 215.826,504.269 332.795,650.953c-2.093,-0.55 -4.156,-1.11 -6.216,-1.679Z" style="fill:#ededed;fill-rule:nonzero;"/><path d="M1392.29,3716.29c138.245,-177.054 319.167,-469.728 353.599,-820.984c88.515,-81.303 146.079,-182.646 159.689,-302.257c20.165,55.411 31.746,113.015 32.197,172.194c-0.007,0.026 -0.005,0.017 -0.003,0.045c-0.001,0.204 -0.002,0.408 0.007,0.614c-0.007,0.026 0,0.065 0.002,0.093c-0.006,0.222 -0.003,0.445 0,0.669c0.004,0.557 0.002,1.104 0.003,1.67c0.004,0.02 -0.001,0.037 0.003,0.057c-0.001,1.716 0.003,3.451 -0.007,5.165l0.001,0.028c-0.004,0.555 -0.007,1.102 -0.014,1.666c0.004,0.019 0.006,0.048 0.001,0.065c-0.003,0.277 0.001,0.566 -0.008,0.833l-0.001,0.037c0.001,0.232 -0.002,0.444 -0.001,0.677c-0.006,0.053 -0.004,0.147 -0.001,0.203c-0.007,0.193 -0.003,0.38 -0.012,0.581c0.003,0.094 0.002,0.196 0.004,0.289c-0.009,0.202 -0.009,0.369 -0.007,0.564c0.002,0.093 -0.003,0.212 -0.001,0.306c-0.007,0.193 -0.004,0.351 -0.014,0.553c-0.002,0.11 0,0.204 -0.003,0.314c0.004,0.187 0,0.334 -0.002,0.51c-0.002,0.11 -0.006,0.258 -0.009,0.368c-0.001,0.139 -0.003,0.315 -0.006,0.462c0.001,0.131 -0.005,0.287 -0.002,0.408c-0.007,0.128 -0.004,0.286 -0.012,0.414c-0.001,0.139 -0.003,0.315 -0.007,0.462c-0.003,0.111 0.001,0.232 0.001,0.334c-0.01,0.202 -0.004,0.352 -0.014,0.553c0.002,0.094 0.003,0.159 -0.004,0.25c-0.005,0.221 -0.007,0.396 -0.013,0.617c0.002,0.094 0.001,0.168 -0.003,0.25c0.002,0.223 -0.004,0.416 -0.008,0.629c-0.001,0.073 -0.002,0.11 -0.004,0.184c-0.007,0.23 -0.009,0.471 -0.017,0.7c0.004,0.02 0.003,0.057 -0.002,0.074c-5.956,291.799 -175.762,623.34 -426.429,871.989c-24.118,23.916 -66.023,43.413 -118.903,58.414Z" style="fill:#d8d8d8;fill-rule:nonzero;"/><path d="M901.779,3743.92c-73.308,-235.938 -111.548,-447.091 -125.583,-634.232c91.051,16.623 190.029,23.015 294.119,18.888c88.371,-3.504 174.096,-14.325 254.869,-32.144c-15.169,189.199 -50.941,405.437 -116.087,651.162c-100.666,8.894 -210.492,7.754 -307.318,-3.674Z" style="fill:#e9e9e9;fill-rule:nonzero;"/><path d="M575.811,3595.1c0,0 204.855,66.148 480.787,65.347c275.938,-0.79 556.661,-99.285 556.661,-99.285l-151.246,219.632c0,0 -213.584,79.297 -410.774,79.853c-197.197,0.575 -360.886,-87.126 -360.886,-87.126l-114.542,-178.421Z" style="fill:#494949;fill-rule:nonzero;"/><g id="message"><path d="M639.361,3651.07c0,0 190.076,26.908 452.795,21.472c242.638,-5.02 451.171,-49.92 451.171,-49.92l-86.151,126.785c0,0 -179.45,74.208 -362.22,81.935c-85.789,3.627 -167.246,-3.575 -235.494,-19.495c-89.129,-20.791 -149.806,-47.008 -142.492,-51.368l-77.609,-109.409Z" style="fill:#3eb650;fill-rule:nonzero;"/><path d="M1001.83,3695.72l145.861,-8.87l-11.794,113.087l-145.86,8.871l11.793,-113.088Z" style="fill:#fff;"/></g><g id="basket"><path d="M1268.72,4498.14l-389.838,0.053l-36.09,-364.13l462.344,-0.058l-36.416,364.135Z" style="fill:#6a6964;fill-rule:nonzero;"/><g id="message1" serif:id="message"><path d="M1244.99,4377.23l-174.528,-3.968l3.932,-172.956l174.528,3.968l-3.932,172.956Z" style="fill:#fcc133;fill-rule:nonzero;"/><path d="M1169.01,4233.49c30.176,0.687 54.119,25.743 53.433,55.92c-0.686,30.177 -25.743,54.12 -55.92,53.434c-30.177,-0.686 -54.119,-25.743 -53.433,-55.92c0.686,-30.177 25.743,-54.12 55.92,-53.434Z" style="fill:#f8fafb;fill-opacity:0.97;"/><path d="M952.813,4139.97l24.665,103.446l63.26,6.29l-49.159,51.22l24.754,93.842l-56.725,-61.142l-50.863,53.562l16.999,-90.893l-49.624,-47.064l60.665,-8.68l16.028,-100.581Z" style="fill:#fff;fill-rule:nonzero;stroke:#100c00;stroke-width:0.75px;"/></g><path d="M1307.3,4181.58l-465.141,-5.134c-11.485,-0.119 -20.976,-9.066 -21.208,-19.975l-0.751,-36.246c-0.234,-10.9 8.904,-19.638 20.386,-19.511l465.141,5.134c11.494,0.122 20.988,9.06 21.22,19.969l0.748,36.255c0.223,10.905 -8.904,19.638 -20.395,19.508Z" style="fill:#494949;fill-rule:nonzero;"/><path d="M1273.12,4498.19l-393.444,-9.002c-12.022,-0.268 -22.072,-9.369 -22.458,-20.31l-1.25,-36.394c-0.374,-10.948 9.068,-19.602 21.088,-19.326l393.442,9.011c12.019,0.276 22.081,9.371 22.455,20.319l1.262,36.387c0.375,10.948 -9.066,19.594 -21.095,19.315Z" style="fill:#494949;fill-rule:nonzero;"/></g><path d="M890.365,2709.96c0.021,-0.04 0.025,-0.058 0.043,-0.09c-0.004,0.017 -0.035,0.065 -0.043,0.09Z" style="fill:#d8b23e;fill-rule:nonzero;"/><path d="M890.653,2709.46c0.032,-0.047 0.065,-0.102 0.086,-0.143c-0.034,0.056 -0.052,0.088 -0.086,0.143Z" style="fill:#d8b23e;fill-rule:nonzero;"/><path d="M890.918,2709c0.052,-0.088 0.102,-0.167 0.156,-0.263c-0.049,0.079 -0.106,0.184 -0.156,0.263Z" style="fill:#d8b23e;fill-rule:nonzero;"/><path d="M891.199,2708.53c0.067,-0.112 0.126,-0.225 0.194,-0.336c-0.068,0.111 -0.127,0.224 -0.194,0.336Z" style="fill:#d8b23e;fill-rule:nonzero;"/><path d="M891.484,2708.03c0.081,-0.126 0.156,-0.263 0.229,-0.391c-0.075,0.137 -0.143,0.248 -0.229,0.391Z" style="fill:#d8b23e;fill-rule:nonzero;"/><path d="M891.796,2707.5c0.078,-0.145 0.159,-0.271 0.239,-0.425c-0.075,0.136 -0.164,0.288 -0.239,0.425Z" style="fill:#d8b23e;fill-rule:nonzero;"/><path d="M892.069,2707.02c0.099,-0.158 0.194,-0.336 0.285,-0.496c-0.091,0.16 -0.186,0.338 -0.285,0.496Z" style="fill:#d8b23e;fill-rule:nonzero;"/><path d="M892.37,2706.5c2.725,-4.73 5.375,-9.49 7.945,-14.263c-2.57,4.773 -5.22,9.533 -7.945,14.263Z" style="fill:#d8b23e;fill-rule:nonzero;"/><path d="M900.545,2691.81c0.023,-0.049 0.054,-0.096 0.077,-0.145c-0.023,0.049 -0.054,0.096 -0.077,0.145Zm0.229,-0.428c0.026,-0.058 0.057,-0.105 0.083,-0.163c-0.026,0.058 -0.049,0.107 -0.083,0.163Zm0.235,-0.446c0.034,-0.055 0.036,-0.064 0.067,-0.111c-0.018,0.032 -0.047,0.071 -0.067,0.111Zm0.245,-0.451c0.018,-0.033 0.025,-0.058 0.044,-0.09c-0.019,0.032 -0.026,0.057 -0.044,0.09Zm0.239,-0.463c0.016,-0.024 0.014,-0.015 0.018,-0.032c-0.002,0.008 -0.004,0.017 -0.018,0.032Z" style="fill:#f1c5be;fill-rule:nonzero;"/></g><g><path d="M1001.14,3240.09l-184.192,84.214l-66.803,-203.661l-380.487,30.938l227.94,-269.219l-235.593,-94.871l243.409,-103.05l-163.989,-255.138l302.636,23.486l17.927,-337.094l288.831,215.83l84.654,-177.152l123.407,160.592l207.956,-150.634l80.023,164.792l328.101,-168.618l-8.016,328.025l346.162,-101.395l-238.874,250.631l610.34,151.61l-551.306,132.562l75.585,254.573l-254.468,-51.85l-7.041,293.873l-263.604,-180.099l-121.877,169.805l-156.727,-131.472l-227.787,372.27l-76.207,-408.948Z" style="fill:#231f20;fill-rule:nonzero;"/><path d="M1595.03,2210.09l163.299,-380.363l2.583,137.222l-165.882,243.141Z" style="fill:#231f20;fill-rule:nonzero;"/><path d="M986.64,2177.5l-93.1,-403.313l-26.92,134.581l120.02,268.732Z" style="fill:#231f20;fill-rule:nonzero;"/><path d="M421.951,3377.8l311.963,-214.031l-349.167,330.569l37.204,-116.538Z" style="fill:#231f20;fill-rule:nonzero;"/><path d="M1611.58,3301.45l306.71,628.804l3.099,-150.289l-309.809,-478.515Z" style="fill:#231f20;fill-rule:nonzero;"/><path d="M2092.41,2948.64l443.683,113.784l-67.376,22.031l-372.289,-133.691l-5.587,-2.038" style="fill:#231f20;fill-rule:nonzero;"/><path d="M2494.11,2790.1l-565.856,-149.007l241.649,-224.936l-328.532,87.026l19.783,-325.681l-322.992,175.229l-78.904,-169.193l-202.695,155.628l-121.503,-161.664l-71.873,182.021l-290.505,-221.157l-1.827,330.894l-296.168,-20.941l171.268,236.875l-254.238,99.654l250.832,76.14l-231.795,263.403l360.101,-41.633l52.261,217.13l199.853,-107.355l74.007,395.678l204.674,-360.837l166.256,147.218l112.425,-182.059l247.571,193.74l4.553,-303.515l244.921,72.886l-73.279,-262.962l490.013,-102.582Z" style="fill:#fff;fill-rule:nonzero;"/></g><text x="280.907px" y="1144.24px" style="font-family:'Data70Plain', 'Data 70';font-weight:500;font-size:450px;">500</text><text x="790.991px" y="2852.22px" style="font-family:'Data70Plain', 'Data 70';font-weight:500;font-size:450px;">Bang!</text><text x="1458.71px" y="1140.72px" style="font-family:'ArialMT', 'Arial', sans-serif;font-size:288px;">Internal Server Error</text></svg>