<?xml version="1.0" standalone="no"?>
<!DOCTYPE svg PUBLIC "-//W3C//DTD SVG 20010904//EN"
 "http://www.w3.org/TR/2001/REC-SVG-20010904/DTD/svg10.dtd">
<svg version="1.0" xmlns="http://www.w3.org/2000/svg"
 width="1936.000000pt" height="1936.000000pt" viewBox="0 0 1936.000000 1936.000000"
 preserveAspectRatio="xMidYMid meet">
<metadata>
Created by potrace 1.11, written by Peter Selinger 2001-2013
</metadata>
<g transform="translate(0.000000,1936.000000) scale(0.100000,-0.100000)"
fill="#000000" stroke="none">
<path d="M939 13556 c-2 -2 -44 -7 -94 -10 -135 -9 -206 -20 -226 -32 -8 -5
-9 -3 -4 5 5 10 3 11 -11 4 -11 -6 -50 -18 -89 -28 -123 -31 -223 -84 -295
-156 -36 -35 -73 -75 -82 -88 -19 -27 -77 -162 -83 -193 -2 -11 -6 -27 -9 -36
-11 -36 -19 -91 -33 -212 -10 -92 -11 -6107 -1 -6205 10 -93 24 -190 28 -190
1 0 3 -11 6 -25 2 -14 14 -54 25 -90 74 -232 245 -375 510 -425 13 -3 35 -7
49 -10 14 -3 45 -7 70 -10 25 -3 72 -8 105 -12 84 -9 4335 -9 4415 0 36 4 81
10 100 12 19 2 58 9 85 15 28 6 63 13 79 16 16 3 39 9 50 14 12 4 24 8 29 8
13 2 120 63 157 90 38 27 100 88 100 98 0 3 6 12 13 19 26 30 33 42 60 102 37
82 67 199 81 313 15 122 19 183 21 400 2 129 4 237 5 240 1 3 1 10 0 15 -2 6
-4 633 -6 1395 -3 1335 -4 1447 -19 1535 -4 22 -8 49 -10 60 -5 37 -18 80 -28
93 -5 6 -6 12 -3 12 4 0 -3 19 -16 42 -25 45 -96 128 -110 128 -5 0 -18 9 -30
20 -12 11 -28 20 -35 20 -7 0 -13 4 -13 10 0 5 -3 9 -7 8 -5 -2 -28 7 -53 19
-38 19 -91 42 -110 48 -52 18 -230 105 -230 113 0 4 -13 16 -30 27 -29 19 -85
116 -96 165 -3 14 -7 34 -9 46 -18 82 -22 275 -24 974 -3 863 -4 903 -27 1030
-1 8 -5 29 -8 47 -11 68 -48 171 -85 238 -40 72 -133 175 -157 175 -8 0 -14 4
-14 9 0 11 -105 62 -185 89 -54 19 -169 41 -301 59 -50 7 -3448 16 -3455 9z
m2696 -1048 c11 -3 43 -9 70 -13 52 -9 63 -11 68 -14 1 -2 12 -4 25 -7 41 -7
122 -54 161 -92 56 -55 111 -165 126 -254 2 -12 9 -50 14 -83 18 -105 23 -203
24 -490 1 -254 -5 -407 -18 -490 -41 -246 -109 -362 -250 -422 -79 -34 -125
-43 -280 -59 -31 -3 -432 -6 -450 -3 -5 1 -14 1 -19 0 -13 -3 -129 -3 -141 -1
-5 1 -14 2 -19 1 -26 -5 -287 -1 -296 4 -5 3 -10 3 -10 -2 0 -4 -46 -7 -102
-5 -153 4 -350 2 -359 -4 -4 -2 -10 0 -14 6 -4 6 -11 8 -16 5 -8 -6 -121 -9
-144 -5 -5 1 -14 1 -20 0 -36 -7 -426 5 -485 16 -19 3 -47 8 -62 9 -75 10
-208 59 -208 77 0 4 -6 8 -14 8 -31 0 -114 134 -130 211 -17 78 -33 193 -36
264 -11 211 0 794 15 870 3 11 7 38 10 60 3 22 10 58 16 80 10 40 12 47 43
116 14 33 65 91 111 128 23 19 137 60 184 67 20 3 42 7 49 9 7 3 52 7 100 11
48 4 88 7 89 8 5 5 1950 -2 1968 -6z m844 -2972 c200 -27 286 -66 349 -159 33
-48 68 -136 76 -193 4 -22 9 -50 11 -62 3 -12 7 -32 10 -43 4 -20 9 -89 21
-279 7 -113 7 -954 -1 -1120 -9 -222 -17 -318 -30 -380 -2 -14 -10 -50 -16
-80 -25 -122 -95 -224 -184 -268 -33 -17 -70 -33 -83 -37 -41 -12 -187 -31
-230 -31 -23 1 -42 -1 -42 -4 0 -7 -1906 -3 -1994 4 -163 13 -279 55 -345 125
-121 130 -151 341 -150 1046 1 673 13 980 43 1130 10 49 19 81 27 90 4 6 8 13
8 18 3 28 37 85 75 123 25 25 47 44 48 44 2 -1 24 8 51 20 65 29 164 49 277
56 52 4 96 8 98 9 6 5 1941 -3 1981 -9z"/>
<path d="M7699 13556 c-2 -2 -43 -6 -90 -9 -47 -4 -92 -8 -100 -11 -8 -3 -30
-7 -49 -10 -153 -21 -315 -93 -401 -177 -35 -35 -99 -121 -99 -135 0 -8 -4
-14 -10 -14 -5 0 -10 -8 -10 -18 0 -10 -4 -22 -9 -27 -28 -29 -65 -200 -91
-415 -5 -44 -2 -6019 3 -6095 4 -49 9 -101 12 -115 3 -14 7 -43 10 -65 5 -38
9 -60 17 -95 2 -8 7 -21 11 -27 5 -7 6 -13 3 -13 -11 0 44 -133 76 -184 17
-28 43 -63 58 -78 16 -14 26 -29 22 -32 -3 -3 0 -6 6 -6 7 0 20 -8 30 -17 55
-53 220 -122 332 -139 19 -3 42 -7 50 -9 16 -4 111 -15 168 -20 18 -1 35 -4
38 -8 3 -3 19 -1 35 3 16 5 29 5 29 0 0 -9 3901 -7 3992 3 32 3 72 8 90 11 18
2 56 8 83 11 93 13 109 16 122 27 7 6 13 8 13 5 0 -8 102 23 118 35 6 6 12 8
12 4 0 -18 144 72 201 126 55 52 135 180 145 233 1 6 9 35 17 65 39 137 42
209 42 1025 -1 701 -3 806 -20 905 -9 55 -45 161 -68 205 -44 83 -155 171
-238 189 -89 20 -124 24 -202 24 -98 0 -183 -17 -254 -50 -81 -38 -170 -139
-198 -223 -3 -11 -6 -21 -6 -22 0 -2 -6 -18 -15 -38 -8 -19 -14 -36 -13 -37 1
-4 -12 -97 -18 -123 -2 -11 -7 -150 -9 -310 -8 -444 -9 -455 -14 -455 -3 0 -5
-15 -6 -33 -2 -54 -14 -133 -30 -194 -47 -182 -143 -278 -317 -318 -151 -34
-264 -38 -1052 -38 -627 0 -792 3 -900 18 -22 3 -53 7 -70 9 -16 2 -37 6 -45
10 -8 3 -24 7 -35 9 -58 11 -141 53 -186 94 -61 56 -115 169 -134 278 -4 22
-9 49 -11 60 -3 22 -14 113 -21 190 -2 28 -6 543 -8 1145 -3 966 -8 1297 -20
1405 -4 28 -7 45 -20 105 -4 14 -8 36 -11 49 -12 57 -56 129 -108 175 -58 52
-101 79 -236 146 -244 121 -267 135 -323 195 -43 45 -76 123 -93 220 -3 17 -7
41 -10 55 -23 123 -23 740 1 944 7 66 23 152 32 181 4 11 8 26 9 34 6 31 66
138 97 171 55 59 166 110 272 126 17 2 36 6 43 9 41 15 312 19 1347 19 1176 0
1316 -3 1455 -30 14 -3 35 -7 47 -9 76 -11 183 -66 230 -118 83 -91 113 -219
128 -542 11 -231 20 -292 60 -410 52 -155 203 -274 353 -278 12 -1 22 -3 22
-6 0 -11 121 -4 244 13 44 7 146 62 189 102 69 64 141 232 153 354 24 251 24
1125 -1 1270 -2 14 -7 43 -9 65 -6 46 -11 67 -25 113 -5 17 -7 32 -3 32 3 0 1
5 -6 12 -7 7 -12 20 -12 29 0 40 -83 181 -141 239 -90 91 -262 164 -439 185
-19 3 -55 8 -80 12 -46 7 -4143 16 -4151 9z"/>
<path d="M14209 13556 c-2 -2 -38 -7 -79 -11 -87 -7 -112 -11 -160 -20 -19 -4
-44 -9 -55 -10 -11 -2 -21 -4 -22 -5 -2 -2 -6 -3 -10 -4 -51 -12 -153 -51
-153 -59 0 -6 -3 -7 -6 -4 -8 8 -84 -33 -84 -45 0 -4 -6 -8 -13 -8 -20 0 -118
-106 -151 -162 -27 -46 -89 -208 -80 -208 3 0 1 -8 -4 -17 -9 -16 -13 -39 -27
-148 -15 -115 -18 -334 -18 -1300 0 -1136 3 -1266 33 -1410 6 -27 13 -63 16
-78 16 -85 74 -206 133 -280 69 -86 197 -164 314 -193 9 -2 27 -7 40 -10 60
-16 141 -28 262 -40 33 -3 656 -8 1385 -9 729 -2 1348 -6 1375 -8 65 -7 166
-19 185 -22 126 -25 230 -77 279 -141 39 -51 77 -140 87 -204 12 -79 14 -93
21 -170 9 -100 9 -1355 -1 -1500 -9 -147 -10 -154 -31 -259 -14 -74 -53 -156
-94 -204 -46 -51 -142 -99 -231 -113 -14 -2 -34 -6 -45 -8 -11 -3 -58 -8 -105
-12 -118 -10 -1893 -9 -2010 1 -52 5 -105 9 -117 9 -13 1 -23 4 -23 8 0 3 -8
5 -17 4 -21 -3 -136 30 -178 52 -45 22 -125 92 -125 108 0 8 -4 14 -8 14 -8 0
-56 102 -54 114 0 3 -4 20 -9 38 -14 47 -18 69 -22 120 -2 24 -6 49 -9 54 -3
5 -7 171 -8 369 -1 198 -4 383 -6 410 -7 99 -26 187 -54 250 -10 22 -19 45
-20 50 -3 15 -41 67 -70 95 -33 34 -100 84 -100 76 0 -4 -10 0 -22 8 -32 20
-103 38 -168 42 -30 2 -57 4 -60 5 -30 9 -161 -10 -224 -32 -165 -59 -250
-164 -300 -369 -16 -65 -20 -214 -19 -830 0 -769 5 -874 47 -1069 21 -96 87
-261 108 -269 4 -2 8 -10 8 -17 0 -7 31 -44 69 -83 53 -53 91 -80 164 -116 52
-26 105 -48 118 -48 13 -1 29 -5 34 -9 13 -9 150 -32 198 -33 20 0 37 -3 37
-7 0 -9 4281 -5 4372 4 155 15 188 20 253 34 11 2 29 6 40 7 11 2 20 4 20 5 0
2 8 4 17 6 77 15 216 80 280 132 78 64 172 226 194 336 2 10 5 26 8 35 3 9 8
42 11 72 4 30 9 58 11 62 13 21 17 422 17 1678 0 1249 -3 1568 -17 1675 -31
241 -91 390 -197 492 -71 67 -220 137 -339 158 -191 33 -185 33 -514 40 -148
3 -273 8 -278 11 -4 3 -8 2 -8 -3 0 -4 -46 -7 -102 -5 -153 4 -350 2 -359 -4
-4 -2 -10 0 -14 6 -4 6 -11 8 -16 5 -8 -6 -121 -9 -144 -5 -5 1 -14 2 -19 1
-26 -5 -287 -1 -296 4 -5 3 -10 3 -10 -2 0 -4 -46 -7 -102 -5 -136 3 -311 2
-316 -3 -2 -2 -17 1 -33 5 -16 5 -29 6 -29 2 0 -7 -194 -6 -214 1 -6 2 -20 1
-31 -3 -11 -4 -32 -4 -47 1 -16 4 -28 5 -28 1 0 -7 -194 -6 -214 1 -6 2 -20 1
-31 -3 -11 -4 -32 -4 -47 1 -16 4 -28 5 -28 1 0 -7 -194 -6 -214 1 -6 2 -20 1
-31 -3 -11 -4 -32 -4 -47 1 -16 4 -28 5 -28 1 0 -4 -46 -6 -102 -4 -135 4
-188 3 -198 -3 -5 -3 -11 -1 -15 5 -4 6 -11 7 -17 4 -5 -4 -42 -6 -80 -5 -143
3 -321 12 -328 16 -4 3 -25 7 -46 10 -22 3 -50 8 -64 11 -14 3 -32 7 -41 9
-24 5 -112 48 -132 65 -46 38 -67 60 -67 70 0 5 -3 10 -8 10 -16 0 -66 138
-81 225 -6 33 -12 84 -15 113 -3 29 -8 57 -11 62 -3 6 -2 10 4 10 7 0 7 8 2
23 -10 24 -7 661 2 752 16 150 36 233 78 321 66 140 185 206 420 232 65 7
2703 9 2839 2 41 -2 79 -6 84 -8 4 -3 27 -6 50 -8 22 -1 51 -5 64 -8 12 -3 31
-8 41 -10 11 -3 28 -9 38 -14 10 -6 20 -10 23 -9 3 0 22 -8 43 -18 77 -36 149
-146 172 -260 10 -52 23 -139 23 -155 0 -8 3 -37 6 -65 3 -27 8 -93 11 -145 2
-52 5 -95 5 -95 1 0 3 -20 5 -45 12 -169 69 -320 154 -407 51 -53 145 -105
211 -118 96 -20 282 -13 340 12 8 3 17 7 20 7 25 6 103 54 135 84 53 50 113
138 121 177 1 6 8 24 15 40 6 17 13 35 15 42 1 6 7 35 14 65 6 29 14 87 17
128 8 95 8 1047 0 1120 -3 30 -8 81 -11 113 -3 32 -8 63 -11 68 -4 5 -13 34
-21 65 -16 62 -73 184 -86 184 -4 0 -8 5 -8 11 0 16 -81 99 -125 127 -56 37
-145 84 -145 77 0 -3 -10 0 -22 6 -23 12 -105 37 -148 44 -14 2 -36 7 -50 10
-14 3 -47 8 -75 11 -27 3 -66 8 -85 12 -38 7 -4344 14 -4351 8z"/>
</g>
</svg>
