<?xml version="1.0" encoding="UTF-8" standalone="no"?><!DOCTYPE svg PUBLIC "-//W3C//DTD SVG 1.1//EN" "http://www.w3.org/Graphics/SVG/1.1/DTD/svg11.dtd"><svg width="100%" height="100%" viewBox="0 0 300 300" version="1.1" xmlns="http://www.w3.org/2000/svg" xmlns:xlink="http://www.w3.org/1999/xlink" xml:space="preserve" xmlns:serif="http://www.serif.com/" style="fill-rule:evenodd;clip-rule:evenodd;stroke-linejoin:round;stroke-miterlimit:2;"><g id="ballon"><path d="M160.584,212.284l21.546,38.772c0.206,0.37 0.6,0.601 1.023,0.599l26.615,-0.119c0.405,-0.002 0.777,-0.212 0.989,-0.557l24.421,-39.9c0.335,-0.549 0.162,-1.266 -0.386,-1.602c-0.549,-0.336 -1.266,-0.163 -1.602,0.386l-24.082,39.345l-25.276,0.114l-21.211,-38.17c-0.312,-0.562 -1.022,-0.765 -1.584,-0.452c-0.562,0.312 -0.765,1.021 -0.453,1.584Z" style="fill:#1651a4;fill-rule:nonzero;"/><path d="M197.554,250.426l-0.156,-35.084c-0.003,-0.643 -0.527,-1.162 -1.171,-1.16c-0.643,0.004 -1.162,0.527 -1.159,1.17l0.156,35.084c0.003,0.644 0.526,1.162 1.17,1.16c0.643,-0.003 1.162,-0.527 1.16,-1.17Z" style="fill:#1651a4;fill-rule:nonzero;"/><path d="M276.602,126.398c0.121,27.164 -15.618,58.391 -39.098,81.682c-11.491,11.398 -67.099,11.85 -78.775,0.352c-23.486,-23.131 -39.341,-54.308 -39.461,-81.331c-0.181,-40.458 56.153,-73.506 78.34,-73.605c22.186,-0.099 78.813,32.446 78.994,72.902Z" style="fill:#6a6964;fill-rule:nonzero;"/><path d="M197.608,53.496c-22.187,0.099 -78.521,33.147 -78.34,73.605c0.12,27.023 15.975,58.2 39.461,81.331c2.317,2.28 6.368,4.09 11.456,5.438c-14.299,-17.932 -33.69,-49.094 -33.857,-86.401c-0.263,-59.145 61.28,-73.973 61.28,-73.973Z" style="fill:#fff;fill-rule:nonzero;"/><path d="M197.608,53.496c22.186,-0.099 78.813,32.446 78.994,72.902c0.12,27.023 -15.454,58.341 -38.734,81.679c-2.297,2.304 -6.331,4.149 -11.406,5.542c14.137,-18.058 33.249,-49.393 33.083,-86.7c-0.264,-59.145 -61.937,-73.423 -61.937,-73.423Z" style="fill:#fff;fill-rule:nonzero;"/><path d="M181.65,215.966c8.875,1.047 18.94,1.152 28.167,0.337c31.599,-119.182 -12.209,-162.807 -12.209,-162.807c0,0 -50.531,51.2 -15.958,162.47Z" style="fill:#fff;fill-rule:nonzero;"/><path d="M169.613,213.719l-0.001,-0.001l0.001,0.001Zm1.396,0.366c0.024,0.006 0.045,0.012 0.069,0.018c-0.024,-0.006 -0.045,-0.012 -0.069,-0.018Zm0.551,0.136c0.06,0.014 0.116,0.027 0.176,0.041c-0.06,-0.014 -0.116,-0.027 -0.176,-0.041Zm0.282,0.067c6.669,1.571 14.869,2.413 23.232,2.54c-8.365,-0.127 -16.563,-0.968 -23.232,-2.54Zm-13.06,-5.805c-0.017,-0.017 -0.035,-0.035 -0.053,-0.051c-14.529,-14.309 -26.137,-31.697 -32.907,-49.276c6.77,17.579 18.378,34.967 32.907,49.276c0.018,0.016 0.036,0.034 0.053,0.051Z" style="fill:#f9c4d6;fill-rule:nonzero;"/><path d="M197.404,216.844c10.596,-0.007 21.252,-1.155 29.202,-3.41c-7.95,2.255 -18.606,3.403 -29.202,3.41Z" style="fill:#f9c4d6;fill-rule:nonzero;"/><path d="M195.074,216.828c0.776,0.011 1.553,0.017 2.33,0.016c-0.777,0.001 -1.554,-0.005 -2.33,-0.016Z" style="fill:#5a479d;fill-rule:nonzero;"/><path d="M169.613,213.719l-0.001,-0.001c-4.784,-1.32 -8.593,-3.063 -10.83,-5.235c-0.017,-0.017 -0.035,-0.035 -0.053,-0.051c2.23,2.195 6.066,3.953 10.886,5.284c0.189,0.052 0.378,0.103 0.57,0.154c-10.721,-13.444 -24.304,-34.329 -30.502,-59.662c2.696,-1.132 5.337,-2.37 7.904,-3.702c4.372,2.214 9.16,4.033 14.296,5.451c2.663,0.735 5.418,1.362 8.257,1.88c1.286,17.152 4.791,36.505 11.51,58.129c8.875,1.047 18.94,1.152 28.167,0.337c5.97,-22.522 9.249,-42.34 10.639,-59.681c15.495,-3.42 28.998,-9.651 38.558,-18.434c-3.155,32.194 -19.737,59.018 -32.408,75.246c-7.95,2.255 -18.606,3.403 -29.202,3.41c-0.777,0.001 -1.554,-0.005 -2.33,-0.016c-8.363,-0.127 -16.563,-0.969 -23.232,-2.54c-0.034,-0.008 -0.072,-0.017 -0.106,-0.026c-0.06,-0.014 -0.116,-0.027 -0.176,-0.041c-0.161,-0.039 -0.324,-0.079 -0.482,-0.118c-0.024,-0.006 -0.045,-0.012 -0.069,-0.018c-0.474,-0.117 -0.94,-0.24 -1.396,-0.366Z" style="fill:#6a6964;fill-rule:nonzero;"/><path d="M169.615,213.716c-4.82,-1.331 -8.656,-3.089 -10.886,-5.284c-14.529,-14.309 -26.137,-31.697 -32.907,-49.276c0.221,-0.135 0.357,-0.356 0.393,-0.594c0.861,-0.045 1.646,-0.167 2.34,-0.373c3.783,-1.123 7.505,-2.457 11.128,-3.981c6.198,25.333 19.781,46.218 30.502,59.662c-0.192,-0.051 -0.381,-0.102 -0.57,-0.154Z" style="fill:#ededed;fill-rule:nonzero;"/><path d="M226.606,213.434c12.671,-16.228 29.253,-43.052 32.408,-75.246c8.113,-7.451 13.389,-16.74 14.636,-27.702c1.849,5.078 2.91,10.358 2.951,15.782c0,0.002 0,0.001 0,0.004c0,0.019 0,0.037 0.001,0.056c-0.001,0.003 0,0.006 0,0.009c-0.001,0.02 0,0.041 0,0.061c0,0.051 0,0.101 0,0.153c0,0.002 0,0.004 0,0.005c0,0.158 0.001,0.317 0,0.474l0,0.002c-0.001,0.051 -0.001,0.101 -0.001,0.153c0,0.002 0,0.004 0,0.006c-0.001,0.025 0,0.052 -0.001,0.076l0,0.004c0,0.021 0,0.04 0,0.062c-0.001,0.005 -0.001,0.013 0,0.018c-0.001,0.018 -0.001,0.035 -0.001,0.054c0,0.008 0,0.018 0,0.026c-0.001,0.019 -0.001,0.034 -0.001,0.052c0,0.008 0,0.019 0,0.028c0,0.017 0,0.032 -0.001,0.05c0,0.011 0,0.019 0,0.029c0,0.017 0,0.031 0,0.047c-0.001,0.01 -0.001,0.024 -0.001,0.034c0,0.013 -0.001,0.029 -0.001,0.042c0,0.012 0,0.026 0,0.038c-0.001,0.011 -0.001,0.026 -0.001,0.037c0,0.013 -0.001,0.029 -0.001,0.043c0,0.01 0,0.021 0,0.03c-0.001,0.019 0,0.033 -0.001,0.051c0,0.009 0,0.015 0,0.023c-0.001,0.02 -0.001,0.036 -0.002,0.057c0.001,0.008 0,0.015 0,0.022c0,0.021 0,0.039 -0.001,0.058c0,0.007 0,0.01 0,0.017c-0.001,0.021 -0.001,0.043 -0.002,0.064c0.001,0.002 0.001,0.005 0,0.007c-0.546,26.744 -16.109,57.131 -39.083,79.92c-2.21,2.192 -6.051,3.979 -10.898,5.354Z" style="fill:#d8d8d8;fill-rule:nonzero;"/><path d="M181.65,215.966c-6.719,-21.624 -10.224,-40.977 -11.51,-58.129c8.345,1.524 17.417,2.109 26.957,1.731c8.099,-0.321 15.956,-1.313 23.359,-2.946c-1.39,17.341 -4.669,37.159 -10.639,59.681c-9.227,0.815 -19.292,0.71 -28.167,-0.337Z" style="fill:#e9e9e9;fill-rule:nonzero;"/><path d="M151.774,202.326c0,0 18.775,6.063 44.065,5.989c25.29,-0.072 51.019,-9.099 51.019,-9.099l-13.862,20.129c0,0 -19.575,7.268 -37.648,7.319c-18.074,0.053 -33.076,-7.985 -33.076,-7.985l-10.498,-16.353Z" style="fill:#494949;fill-rule:nonzero;"/><g id="message"><path d="M157.599,207.456c0,0 17.42,2.466 41.5,1.968c22.238,-0.46 41.351,-4.575 41.351,-4.575l-7.896,11.62c0,0 -16.448,6.801 -33.199,7.51c-7.863,0.332 -15.328,-0.328 -21.583,-1.787c-8.17,-1.906 -13.73,-4.309 -13.06,-4.708l-7.113,-10.028Z" style="fill:#3eb650;fill-rule:nonzero;"/><path d="M190.822,211.547l13.368,-0.813l-1.081,10.365l-13.368,0.813l1.081,-10.365Z" style="fill:#fff;"/></g><g id="basket"><path d="M215.28,285.092l-35.729,0.005l-3.308,-33.374l42.375,-0.005l-3.338,33.374Z" style="fill:#6a6964;fill-rule:nonzero;"/><g id="message1" serif:id="message"><path d="M213.465,258.158l-15.996,-0.364l-0.361,15.852l15.996,0.364l0.361,-15.852Z" style="fill:#fcc133;"/><path d="M206.142,260.835c2.766,0.063 4.96,2.36 4.897,5.126c-0.063,2.765 -2.359,4.96 -5.125,4.897c-2.766,-0.063 -4.96,-2.36 -4.897,-5.125c0.063,-2.766 2.359,-4.96 5.125,-4.898Z" style="fill:#f8fafb;fill-opacity:0.97;"/><path d="M186.329,252.263l2.26,9.481l5.798,0.576l-4.505,4.695l2.268,8.6l-5.199,-5.603l-4.661,4.909l1.558,-8.331l-4.549,-4.313l5.56,-0.796l1.47,-9.218Z" style="fill:#fff;fill-rule:nonzero;stroke:#100c00;stroke-width:1px;"/></g><path d="M218.817,256.079l-42.632,-0.471c-1.052,-0.011 -1.922,-0.831 -1.943,-1.831l-0.069,-3.322c-0.022,-0.999 0.816,-1.8 1.868,-1.788l42.632,0.471c1.053,0.011 1.923,0.83 1.944,1.83l0.069,3.323c0.02,0.999 -0.816,1.8 -1.869,1.788Z" style="fill:#494949;fill-rule:nonzero;"/><path d="M215.683,285.096l-36.06,-0.825c-1.102,-0.025 -2.023,-0.859 -2.058,-1.862l-0.115,-3.335c-0.034,-1.004 0.831,-1.797 1.933,-1.772l36.06,0.826c1.101,0.026 2.024,0.859 2.058,1.863l0.116,3.335c0.034,1.003 -0.831,1.795 -1.934,1.77Z" style="fill:#494949;fill-rule:nonzero;"/></g><path d="M180.604,121.201c0.002,-0.003 0.002,-0.005 0.004,-0.008c0,0.002 -0.003,0.006 -0.004,0.008Z" style="fill:#d8b23e;fill-rule:nonzero;"/><path d="M180.63,121.155c0.003,-0.004 0.006,-0.009 0.008,-0.013c-0.003,0.005 -0.004,0.008 -0.008,0.013Z" style="fill:#d8b23e;fill-rule:nonzero;"/><path d="M180.655,121.113c0.004,-0.008 0.009,-0.015 0.014,-0.024c-0.005,0.008 -0.01,0.017 -0.014,0.024Z" style="fill:#d8b23e;fill-rule:nonzero;"/><path d="M180.68,121.07c0.007,-0.011 0.012,-0.021 0.018,-0.031c-0.006,0.01 -0.011,0.02 -0.018,0.031Z" style="fill:#d8b23e;fill-rule:nonzero;"/><path d="M180.707,121.024c0.007,-0.012 0.014,-0.024 0.021,-0.036c-0.007,0.013 -0.014,0.023 -0.021,0.036Z" style="fill:#d8b23e;fill-rule:nonzero;"/><path d="M180.735,120.976c0.007,-0.014 0.015,-0.025 0.022,-0.039c-0.007,0.012 -0.015,0.026 -0.022,0.039Z" style="fill:#d8b23e;fill-rule:nonzero;"/><path d="M180.76,120.932c0.009,-0.015 0.018,-0.031 0.026,-0.046c-0.008,0.015 -0.017,0.031 -0.026,0.046Z" style="fill:#d8b23e;fill-rule:nonzero;"/><path d="M180.788,120.884c0.25,-0.433 0.492,-0.87 0.728,-1.307c-0.236,0.437 -0.478,0.874 -0.728,1.307Z" style="fill:#d8b23e;fill-rule:nonzero;"/><path d="M181.537,119.538c0.002,-0.005 0.005,-0.009 0.007,-0.014c-0.002,0.005 -0.005,0.009 -0.007,0.014Zm0.021,-0.04c0.002,-0.005 0.005,-0.009 0.008,-0.015c-0.003,0.006 -0.005,0.01 -0.008,0.015Zm0.022,-0.041c0.003,-0.005 0.003,-0.005 0.006,-0.01c-0.002,0.003 -0.005,0.007 -0.006,0.01Zm0.022,-0.041c0.002,-0.003 0.002,-0.005 0.004,-0.008c-0.002,0.003 -0.002,0.005 -0.004,0.008Zm0.022,-0.042c0.001,-0.002 0.001,-0.002 0.002,-0.003c-0.001,0.001 -0.001,0.001 -0.002,0.003Z" style="fill:#f1c5be;fill-rule:nonzero;"/><g><ellipse cx="75.908" cy="225.962" rx="15.868" ry="5.926" style="fill:#ecf1f4;"/><ellipse cx="28.467" cy="240.689" rx="15.868" ry="5.926" style="fill:#edf0f3;"/><path d="M86.196,235.533c-6.891,0.749 -7.317,-11.424 -40.165,-11.56c-6.289,-0.025 -11.455,5.059 -11.53,11.347c-0.075,6.288 4.97,11.414 11.259,11.44c32.848,0.135 35.477,-9.302 40.436,-11.227Z" style="fill:#eaeff2;fill-opacity:0.97;stroke:#cbdde8;stroke-width:1px;stroke-linecap:round;stroke-miterlimit:1.5;"/><path d="M75.908,244.42c5.788,-1.071 6.02,-22.046 33.711,-22.16c6.263,-0.026 11.409,5.037 11.483,11.3c0.075,6.263 -4.95,11.369 -11.213,11.394c-27.691,0.114 -30.117,-0.435 -33.981,-0.534Z" style="fill:#f2f5f7;stroke:#cbdde8;stroke-width:1px;stroke-linecap:round;stroke-miterlimit:1.5;"/><path d="M51.987,235.298c6.574,0.748 6.974,-11.377 38.311,-11.506c6.263,-0.025 11.409,5.038 11.483,11.301c0.075,6.263 -4.95,11.368 -11.213,11.394c-31.337,0.129 -33.931,-9.27 -38.581,-11.189Z" style="fill:#edf1f4;stroke:#cbdde8;stroke-width:1px;stroke-linecap:round;stroke-miterlimit:1.5;"/><ellipse cx="130.533" cy="240.927" rx="15.868" ry="5.926" style="fill:#f3f6f8;"/><path id="_-Tear-" serif:id="(Tear)" d="M75.741,246.168c9.406,-0.979 25.118,-18.511 52.145,-18.427c5.129,0.016 9.257,4.193 9.211,9.323c-0.046,5.129 -4.248,9.281 -9.378,9.265c-27.026,-0.083 -44.261,-0.137 -51.978,-0.161Z" style="fill:#eef1f2;fill-opacity:0.93;"/><path d="M75.908,246.249c-10.034,-0.947 -23.253,-16.418 -48.648,-16.523c-4.698,-0.019 -8.558,3.779 -8.614,8.477c-0.056,4.698 3.713,8.528 8.411,8.548c25.396,0.104 40.555,-0.391 48.851,-0.502Z" style="fill:#f3f6f8;fill-opacity:0.87;"/></g><g><ellipse cx="265.623" cy="219.671" rx="7.06" ry="2.828" style="fill:#ecf1f4;"/><ellipse cx="244.516" cy="226.7" rx="7.06" ry="2.828" style="fill:#edf1f4;"/><path d="M270.2,224.239c-3.003,0.358 -3.187,-5.452 -17.501,-5.516c-3.002,-0.013 -5.465,2.413 -5.499,5.414c-0.033,3.001 2.377,5.449 5.378,5.462c14.314,0.063 15.542,-4.441 17.622,-5.36Z" style="fill:#eaeff2;fill-opacity:0.97;stroke:#cbdde8;stroke-width:1px;stroke-linecap:round;stroke-miterlimit:1.5;"/><path d="M265.623,228.481c2.512,-0.511 2.61,-10.522 14.631,-10.576c2.989,-0.013 5.443,2.403 5.476,5.392c0.034,2.99 -2.366,5.427 -5.356,5.44c-12.021,0.053 -13.157,-0.208 -14.751,-0.256Z" style="fill:#f2f5f7;stroke:#cbdde8;stroke-width:1px;stroke-linecap:round;stroke-miterlimit:1.5;"/><path d="M254.98,224.127c2.862,0.357 3.035,-5.43 16.678,-5.49c2.989,-0.013 5.443,2.403 5.476,5.392c0.034,2.989 -2.367,5.427 -5.356,5.44c-13.643,0.06 -14.854,-4.426 -16.798,-5.342Z" style="fill:#edf1f4;stroke:#cbdde8;stroke-width:1px;stroke-linecap:round;stroke-miterlimit:1.5;"/><ellipse cx="289.926" cy="226.813" rx="7.06" ry="2.828" style="fill:#f3f6f8;"/><path id="_-Tear-1" serif:id="(Tear)" d="M265.549,229.315c4.13,-0.467 11.031,-8.836 22.899,-8.796c2.448,0.008 4.419,2.002 4.399,4.45c-0.021,2.449 -2.025,4.43 -4.473,4.422c-11.868,-0.04 -19.501,-0.065 -22.825,-0.076Z" style="fill:#eef1f2;fill-opacity:0.93;"/><path d="M265.623,229.354c-4.408,-0.452 -10.213,-7.836 -21.369,-7.885c-2.242,-0.01 -4.083,1.802 -4.108,4.044c-0.025,2.243 1.776,4.071 4.018,4.081c11.156,0.049 17.881,-0.187 21.459,-0.24Z" style="fill:#f3f6f8;fill-opacity:0.87;"/></g></g><text id="Title" x="2.823px" y="51.326px" style="font-family:'Data70Plain', 'Data 70';font-weight:500;font-size:67.596px;fill:#fff;">BCS.io</text></svg>