<?xml version="1.0" encoding="UTF-8" standalone="no"?>
<!DOCTYPE svg PUBLIC "-//W3C//DTD SVG 1.1//EN" "http://www.w3.org/Graphics/SVG/1.1/DTD/svg11.dtd">
<svg width="100%" height="100%" viewBox="0 0 450 120" version="1.1" xmlns="http://www.w3.org/2000/svg" xmlns:xlink="http://www.w3.org/1999/xlink" xml:space="preserve" xmlns:serif="http://www.serif.com/" style="fill-rule:evenodd;clip-rule:evenodd;stroke-linejoin:round;stroke-miterlimit:2;">
    <g transform="matrix(1,0,0,0.8,0,0)">
        <rect x="0" y="0" width="450" height="150" style="fill:white;"/>
    </g>
    <g transform="matrix(1,0,0,0.475911,0.0595,-0.12904)">
        <path d="M451.912,252.419L451.912,62.83L455.048,62.83L454.891,62.587L454.894,62.587L454.548,62.052L454.547,62.049L452.305,58.568L452.309,58.568L451.987,58.067L451.984,58.071L451.342,57.072L451.15,57.072L451.154,57.065L450.548,57.065L450.544,57.072L448.201,57.072L448.2,57.065L447.591,57.065L447.594,57.072L445.672,57.072L445.678,57.065L445.069,57.065L445.069,57.072L442.721,57.072L442.718,57.065L442.115,57.065L442.12,57.072L440.198,57.072L440.198,57.065L439.592,57.065L439.588,57.072L437.246,57.072L437.244,57.065L436.641,57.065L436.641,57.072L434.721,57.072L434.725,57.065L434.117,57.065L434.115,57.072L431.775,57.072L431.771,57.065L431.163,57.065L431.168,57.072L429.244,57.072L429.247,57.065L428.645,57.065L428.637,57.072L426.301,57.072L426.299,57.065L425.691,57.065L425.695,57.072L423.85,57.072L423.85,32.883L424.318,33.172L424.323,33.172L425.967,34.18L425.998,34.102L426.231,33.573L426.227,33.569L427.331,30.986L427.142,30.864L427.149,30.866L426.276,30.309L426.278,30.313L424.296,29.044L424.078,28.907L423.134,28.3L422.71,28.031L418.189,25.143L417.971,24.999L417.318,24.584L417.108,24.448L414.2,22.59L413.841,22.36L412.573,21.548L412.24,21.338L407.881,18.55L407.624,18.383L406.441,17.629L405.594,17.09L405.594,17.087L405.593,17.09L405.588,17.081L405.58,17.102L404.559,17.756L404.299,17.921L404.299,17.923L403.307,18.558L403.04,18.726L403.043,18.726L398.565,21.589L398.505,21.626L394.168,24.397L393.851,24.6L393.192,25.02L393.172,25.036L388.076,28.289L388.029,28.321L388.03,28.321L384.812,30.378L384.817,30.374L384.411,30.632L383.854,30.99L384.371,32.199L384.376,32.216L384.941,33.54L385.167,34.076L385.217,34.186L387.035,33.076L387.317,32.902L387.317,32.9L387.331,32.89L387.331,57.072L385.456,57.072L385.458,57.065L384.848,57.065L384.846,57.072L382.51,57.072L382.508,57.065L381.899,57.065L381.903,57.072L379.982,57.072L379.99,57.065L379.38,57.065L379.376,57.072L377.038,57.072L377.035,57.065L376.433,57.065L376.433,57.072L374.514,57.072L374.516,57.065L373.908,57.065L373.903,57.072L371.569,57.072L371.562,57.065L370.959,57.065L370.962,57.072L369.043,57.072L369.043,57.065L368.441,57.065L368.437,57.072L366.098,57.072L366.093,57.065L365.49,57.065L365.494,57.072L363.573,57.072L363.58,57.065L362.966,57.065L362.962,57.072L360.629,57.072L360.624,57.065L360.016,57.065L360.021,57.072L359.843,57.072L359.242,58.011L359.242,43.632L362.102,44.755L363.941,41.99L334.59,29.983L334.589,29.983L334.579,29.977L334.57,29.997L324.32,34.186L324.32,29.327L325.061,29.327L325.061,26.91L313.245,26.91L313.245,29.327L313.988,29.327L313.988,38.412L305.231,41.995L307.068,44.755L309.93,43.634L309.93,56.263L298.171,56.263L298.171,58.994L299.016,58.994L299.016,61.032L289.055,52.641L289.04,52.62L289.034,52.626L289.03,52.626L268.141,70.231L268.141,52.843L272.397,52.843L271.929,52.096L271.929,52.094L271.768,51.833L271.764,51.838L271.465,51.354L271.287,51.075L270.955,50.544L270.955,50.541L270.788,50.279L270.126,49.222L270.131,49.226L269.312,47.92L268.933,47.324L268.15,47.324L268.15,47.32L267.772,47.32L267.772,47.324L266.512,47.324L266.512,47.32L266.136,47.32L266.136,47.324L264.732,47.324L264.736,47.32L264.358,47.32L264.355,47.324L263.097,47.324L263.097,47.32L262.715,47.32L262.718,47.324L261.314,47.324L261.314,47.32L260.936,47.32L260.936,47.324L259.673,47.324L259.673,47.32L259.297,47.32L259.3,47.324L257.895,47.324L257.895,47.32L257.521,47.32L257.515,47.324L256.255,47.324L256.255,47.32L255.878,47.32L255.878,47.324L254.473,47.324L254.475,47.32L254.1,47.32L254.098,47.324L252.837,47.324L252.836,47.32L252.458,47.32L252.458,47.324L251.057,47.324L251.057,47.32L250.676,47.32L250.676,47.324L249.418,47.324L249.418,47.32L249.043,47.32L249.043,47.324L247.637,47.324L247.637,47.32L247.262,47.32L247.262,47.324L245.999,47.324L245.999,47.32L245.623,47.32L245.623,47.324L244.216,47.324L244.221,47.32L243.843,47.32L243.843,47.324L242.58,47.324L242.58,47.32L242.205,47.32L242.205,47.324L240.801,47.324L240.801,47.32L240.425,47.32L240.419,47.324L239.163,47.324L239.161,47.32L238.784,47.32L238.784,47.324L238.345,47.324L238.345,42.913L238.98,42.913L238.98,40.131L226.016,40.131L226.016,42.913L226.65,42.913L226.65,47.324L225.493,47.324L225.493,47.32L225.118,47.32L225.118,47.324L224.268,47.324L223.642,48.319L223.048,49.278L222.429,50.253L222.429,50.251L222.268,50.518L221.949,51.019L221.772,51.303L221.773,51.306L221.46,51.804L221.46,51.803L221.297,52.064L221.297,52.067L220.81,52.843L225.063,52.843L225.063,71.906L223.064,71.906L223.063,71.902L222.454,71.902L222.458,71.906L220.535,71.906L220.538,71.902L219.935,71.902L219.931,71.906L217.588,71.906L217.587,71.902L216.983,71.902L216.989,71.906L215.065,71.906L215.069,71.902L214.463,71.902L214.46,71.906L212.125,71.906L212.121,71.902L211.511,71.902L211.515,71.906L209.595,71.906L209.599,71.902L208.993,71.902L208.989,71.906L206.65,71.906L206.648,71.902L206.041,71.902L206.042,71.906L204.126,71.906L204.13,71.902L203.522,71.902L203.517,71.906L201.181,71.906L201.178,71.902L200.572,71.902L200.574,71.906L198.695,71.906L198.695,47.726L198.712,47.733L199.01,47.917L200.811,49.021L200.912,48.787L201.088,48.377L201.088,48.373L201.548,47.292L201.662,47.033L201.662,47.031L202.176,45.828L201.941,45.678L201.948,45.681L201.212,45.208L201.219,45.212L199.148,43.892L199.148,43.888L198.695,43.604L198,43.159L197.728,42.984L180.451,31.936L180.439,31.915L180.434,31.924L180.431,31.924L179.587,32.462L179.169,32.734L178.411,33.221L178.406,33.221L177.918,33.535L176.577,34.393L176.577,34.39L175.613,35.008L173.79,36.173L173.373,36.436L173.375,36.436L172.188,37.197L172.186,37.197L171.089,37.899L169.196,39.109L168.711,39.419L168.06,39.833L167.64,40.104L162.022,43.695L161.735,43.879L161.735,43.88L159.746,45.149L159.75,45.146L158.879,45.705L158.881,45.702L158.7,45.819L159.296,47.224L159.421,47.525L160.059,49.015L162.178,47.72L162.178,71.906L160.333,71.906L160.34,71.902L159.732,71.902L159.728,71.906L157.39,71.906L157.381,71.902L156.781,71.902L156.782,71.906L154.86,71.906L154.865,71.902L154.257,71.902L154.253,71.906L151.915,71.906L151.915,71.902L151.303,71.902L151.307,71.906L149.384,71.906L149.389,71.902L148.785,71.902L148.781,71.906L146.439,71.906L146.439,71.902L145.831,71.902L145.833,71.906L143.911,71.906L143.914,71.902L143.307,71.902L143.302,71.906L140.961,71.906L140.96,71.902L140.352,71.902L140.354,71.906L138.433,71.906L138.437,71.902L137.831,71.902L137.826,71.906L135.486,71.906L135.48,71.902L134.877,71.902L134.88,71.906L134.688,71.906L134.11,72.803L134.11,67.674L138.368,67.674L137.878,66.899L137.715,66.635L137.404,66.143L137.404,66.138L137.225,65.855L136.904,65.353L136.91,65.351L136.745,65.089L136.128,64.107L135.329,62.835L134.905,62.16L132.526,62.16L132.526,57.744L133.157,57.744L133.157,54.963L120.196,54.963L120.196,57.744L120.828,57.744L120.828,62.16L118.372,62.16L118.374,62.16L104.697,62.16L104.703,62.16L91.039,62.16L91.039,58.472L93.897,59.593L95.734,56.831L86.986,53.252L86.986,44.163L87.723,44.163L87.723,41.748L75.909,41.748L75.909,44.163L76.652,44.163L76.652,49.023L66.399,44.83L66.386,44.81L66.381,44.817L66.378,44.817L37.027,56.827L38.87,59.59L41.728,58.466L41.728,84.884L21.057,67.463L21.053,67.459L21.053,67.463L21.048,67.453L21.032,67.476L11.072,75.869L11.072,73.831L11.915,73.831L11.915,71.098L-1.453,71.098L-1.453,73.831L-0.611,73.831L-0.611,85.717L-5.167,89.561L-3.088,92.681L0.145,89.909L0.145,252.393L451.912,252.419Z" style="fill:url(#_Linear1);"/>
    </g>
    <g transform="matrix(1,0,0,1,11.736,97.272)">
        <text x="0px" y="0px" style="font-family:'HelveticaNeue', 'Helvetica Neue';font-size:48px;fill:white;">Lettings Application</text>
    </g>
    <rect x="276.212" y="14.621" width="120.763" height="120.763" style="fill:none;"/>
    <defs>
        <linearGradient id="_Linear1" x1="0" y1="0" x2="1" y2="0" gradientUnits="userSpaceOnUse" gradientTransform="matrix(-9.01012e-14,-235.339,235.339,-9.01012e-14,224.941,252.419)"><stop offset="0" style="stop-color:rgb(0,124,150);stop-opacity:1"/><stop offset="0.2" style="stop-color:rgb(0,128,155);stop-opacity:1"/><stop offset="0.7" style="stop-color:rgb(96,192,218);stop-opacity:1"/><stop offset="1" style="stop-color:rgb(120,208,233);stop-opacity:1"/></linearGradient>
    </defs>
</svg>
