<svg viewBox="0 0 450 150" xmlns="http://www.w3.org/2000/svg" fill-rule="evenodd" clip-rule="evenodd" stroke-linejoin="round" stroke-miterlimit="2"><path fill="#fff" d="M0 0h450v150H0z"/><path d="M451.912 252.419V62.83h3.136l-.157-.243h.003l-.346-.535-.001-.003-2.242-3.481h.004l-.322-.501-.003.004-.642-.999h-.192l.004-.007h-.606l-.004.007h-2.343l-.001-.007h-.609l.003.007h-1.922l.006-.007h-.609v.007h-2.348l-.003-.007h-.603l.005.007h-1.922v-.007h-.606l-.004.007h-2.342l-.002-.007h-.603v.007h-1.92l.004-.007h-.608l-.002.007h-2.34l-.004-.007h-.608l.005.007h-1.924l.003-.007h-.602l-.008.007h-2.336l-.002-.007h-.608l.004.007h-1.845V32.883l.468.289h.005l1.644 1.008.031-.078.233-.529-.004-.004 1.104-2.583-.189-.122.007.002-.873-.557.002.004-1.982-1.269-.218-.137-.944-.607-.424-.269-4.521-2.888-.218-.144-.653-.415-.21-.136-2.908-1.858-.359-.23-1.268-.812-.333-.21-4.359-2.788-.257-.167-1.183-.754-.847-.539v-.003l-.001.003-.005-.009-.008.021-1.021.654-.26.165v.002l-.992.635-.267.168h.003l-4.478 2.863-.06.037-4.337 2.771-.317.203-.659.42-.02.016-5.096 3.253-.047.032h.001l-3.218 2.057.005-.004-.406.258-.557.358.517 1.209.005.017.565 1.324.226.536.05.11 1.818-1.11.282-.174V32.9l.014-.01v24.182h-1.875l.002-.007h-.61l-.002.007h-2.336l-.002-.007h-.609l.004.007h-1.921l.008-.007h-.61l-.004.007h-2.338l-.003-.007h-.602v.007h-1.919l.002-.007h-.608l-.005.007h-2.334l-.007-.007h-.603l.003.007h-1.919v-.007h-.602l-.004.007h-2.339l-.005-.007h-.603l.004.007h-1.921l.007-.007h-.614l-.004.007h-2.333l-.005-.007h-.608l.005.007h-.178l-.601.939V43.632l2.86 1.123 1.839-2.765-29.351-12.007h-.001l-.01-.006-.009.02-10.25 4.189v-4.859h.741V26.91h-11.816v2.417h.743v9.085l-8.757 3.583 1.837 2.76 2.862-1.121v12.629h-11.759v2.731h.845v2.038l-9.961-8.391-.015-.021-.006.006h-.004l-20.889 17.605V52.843h4.256l-.468-.747v-.002l-.161-.261-.004.005-.299-.484-.178-.279-.332-.531v-.003l-.167-.262-.662-1.057.005.004-.819-1.306-.379-.596h-.783v-.004h-.378v.004h-1.26v-.004h-.376v.004h-1.404l.004-.004h-.378l-.003.004h-1.258v-.004h-.382l.003.004h-1.404v-.004h-.378v.004h-1.263v-.004h-.376l.003.004h-1.405v-.004h-.374l-.006.004h-1.26v-.004h-.377v.004h-1.405l.002-.004h-.375l-.002.004h-1.261l-.001-.004h-.378v.004h-1.401v-.004h-.381v.004h-1.258v-.004h-.375v.004h-1.406v-.004h-.375v.004h-1.263v-.004h-.376v.004h-1.407l.005-.004h-.378v.004h-1.263v-.004h-.375v.004h-1.404v-.004h-.376l-.006.004h-1.256l-.002-.004h-.377v.004h-.439v-4.411h.635v-2.782h-12.964v2.782h.634v4.411h-1.157v-.004h-.375v.004h-.85l-.626.995-.594.959-.619.975v-.002l-.161.267-.319.501-.177.284.001.003-.313.498v-.001l-.163.261v.003l-.487.776h4.253v19.063h-1.999l-.001-.004h-.609l.004.004h-1.923l.003-.004h-.603l-.004.004h-2.343l-.001-.004h-.604l.006.004h-1.924l.004-.004h-.606l-.003.004h-2.335l-.004-.004h-.61l.004.004h-1.92l.004-.004h-.606l-.004.004h-2.339l-.002-.004h-.607l.001.004h-1.916l.004-.004h-.608l-.005.004h-2.336l-.003-.004h-.606l.002.004h-1.879v-24.18l.017.007.298.184 1.801 1.104.101-.234.176-.41v-.004l.46-1.081.114-.259v-.002l.514-1.203-.235-.15.007.003-.736-.473.007.004-2.071-1.32v-.004l-.453-.284-.695-.445-.272-.175-17.277-11.048-.012-.021-.005.009h-.003l-.844.538-.418.272-.758.487h-.005l-.488.314-1.341.858v-.003l-.964.618-1.823 1.165-.417.263h.002l-1.187.761h-.002l-1.097.702-1.893 1.21-.485.31-.651.414-.42.271-5.618 3.591-.287.184v.001l-1.989 1.269.004-.003-.871.559.002-.003-.181.117.596 1.405.125.301.638 1.49 2.119-1.295v24.186h-1.845l.007-.004h-.608l-.004.004h-2.338l-.009-.004h-.6l.001.004h-1.922l.005-.004h-.608l-.004.004h-2.338v-.004h-.612l.004.004h-1.923l.005-.004h-.604l-.004.004h-2.342v-.004h-.608l.002.004h-1.922l.003-.004h-.607l-.005.004h-2.341l-.001-.004h-.608l.002.004h-1.921l.004-.004h-.606l-.005.004h-2.34l-.006-.004h-.603l.003.004h-.192l-.578.897v-5.129h4.258l-.49-.775-.163-.264-.311-.492v-.005l-.179-.283-.321-.502.006-.002-.165-.262-.617-.982-.799-1.272-.424-.675h-2.379v-4.416h.631v-2.781h-12.961v2.781h.632v4.416h-2.456.002-13.677.006-13.664v-3.688l2.858 1.121 1.837-2.762-8.748-3.579v-9.089h.737v-2.415H75.909v2.415h.743v4.86L66.399 44.83l-.013-.02-.005.007h-.003l-29.351 12.01 1.843 2.763 2.858-1.124v26.418L21.057 67.463l-.004-.004v.004l-.005-.01-.016.023-9.96 8.393v-2.038h.843v-2.733H-1.453v2.733h.842v11.886l-4.556 3.844 2.079 3.12 3.233-2.772v162.484l451.767.026z" fill="url(#_Linear1)"/><text font-family="'HelveticaNeue','Helvetica Neue'" font-size="48" fill="#fff" transform="translate(15.618 130.827)">Lettings Application</text><path fill="none" d="M276.212 14.621h120.763v120.763H276.212z"/><defs><linearGradient id="_Linear1" x1="0" y1="0" x2="1" y2="0" gradientUnits="userSpaceOnUse" gradientTransform="rotate(-90 238.68 13.739) scale(235.339)"><stop offset="0" stop-color="#007c96"/><stop offset=".2" stop-color="#00809b"/><stop offset=".7" stop-color="#60c0da"/><stop offset="1" stop-color="#78d0e9"/></linearGradient></defs></svg>