<svg viewBox="0 0 215 101" xmlns="http://www.w3.org/2000/svg" fill-rule="evenodd" clip-rule="evenodd" stroke-linejoin="round" stroke-miterlimit="2"><path d="M148.396 37.3v62h-14v-62h14z"/><path d="M134.438 88.1h38v12h-38z"/><text x="86.688" y="99.162" font-family="'Georgia-Bold','Georgia',serif" font-weight="700" font-size="54.906">&amp;</text><path d="M77.888 37.1v62h-14v-62h14z"/><path d="M64.282 37.1h30v12h-30zM65.782 60.9h22v12h-22z"/><g><path d="M203.076 58.6l11.2 15.6h-22.4l11.2-15.6zM153.686 42.308l24.994.546-.24 10.996-24.995-.546.241-10.996z"/><path d="M206.676 63.693L162.826 0 148 10.207 191.849 73.9l14.827-10.207z"/><path d="M51.638 0h111v18h-111z"/><g><path d="M58.284 42.359l-24.994.545.24 10.996 24.994-.546-.24-10.995z"/><path d="M7.6 63.693L51.449 0l14.827 10.207L22.426 73.9 7.6 63.693z"/><path d="M11.2 58.6L0 74.2h22.4L11.2 58.6z"/></g></g></svg>
