<?xml version="1.0" encoding="UTF-8" standalone="no"?><!DOCTYPE svg PUBLIC "-//W3C//DTD SVG 1.1//EN" "http://www.w3.org/Graphics/SVG/1.1/DTD/svg11.dtd"><svg width="100%" height="100%" viewBox="0 0 858 254" version="1.1" xmlns="http://www.w3.org/2000/svg" xmlns:xlink="http://www.w3.org/1999/xlink" xml:space="preserve" xmlns:serif="http://www.serif.com/" style="fill-rule:evenodd;clip-rule:evenodd;stroke-linejoin:round;stroke-miterlimit:2;"><path d="M146.63,145.88l7.85,0l0,12.23l-7.85,0l0,-12.23Zm35.78,-51.54l7.85,0l0,11.36l-7.85,0l0,-11.36Zm49.75,24.46l5.23,0l0,83.85l-5.23,0l0,-83.85Zm286.77,-34.51l3.86,10.05l-10.77,-1.54c2.08,-3.01 4.39,-5.86 6.91,-8.51Zm107.72,4.59l0,4.34l-7.86,1.12l3.66,-10.26c1.47,1.54 2.87,3.14 4.2,4.8Zm-118.26,37.78l-8.82,0c0.18,-1.81 0.45,-3.6 0.76,-5.37l8.06,5.37Zm3.05,-10.48l-10.74,3.07c0.8,-3.85 1.92,-7.61 3.32,-11.25l7.42,8.18Zm-6.86,-9.62l11.39,-0.76c-1.47,3.03 -2.69,6.17 -3.65,9.43l-7.78,-8.57c0.01,-0.03 0.02,-0.07 0.04,-0.1Zm5.78,-11.23l6.18,9.29c-0.04,0.07 -0.07,0.15 -0.11,0.22l-11.46,0.76c1.52,-3.57 3.33,-7 5.39,-10.27Zm6.96,7.84l-5.88,-8.83l10.61,1.52c-1.76,2.32 -3.34,4.76 -4.73,7.31Zm13.24,-16.34c-1.17,1.01 -2.32,2.05 -3.41,3.14c-1.14,1.15 -2.22,2.35 -3.26,3.58l-3.72,-9.69l10.39,2.97Zm-0.6,-11.99l1.5,11.21c-0.12,0.1 -0.22,0.2 -0.34,0.29l-10.52,-3.76c2.89,-2.84 6.02,-5.43 9.36,-7.74Zm10.1,5.21c-2.54,1.48 -4.97,3.13 -7.27,4.94l-2.13,-10.64c0.02,-0.01 0.05,-0.03 0.07,-0.05l9.33,5.75Zm1.93,-1.08c-0.16,0.08 -0.31,0.15 -0.47,0.24l-9.4,-5.8c3.14,-2.01 6.44,-3.78 9.87,-5.28l0,10.84Zm22.94,-7.04c-0.21,0.02 -0.42,0.04 -0.63,0.06l-6.55,-8.74c3.74,-0.7 7.55,-1.1 11.4,-1.19l-4.22,9.87Zm12.33,0.03c-0.22,-0.02 -0.44,-0.03 -0.66,-0.05l-4.93,-9.87c3.95,0.05 7.78,0.4 11.51,1.04l-5.92,8.88Zm11.86,2.29l-3.04,-10.62c3.63,0.77 7.14,1.82 10.52,3.13l-7.48,7.49Zm11.04,4.89c-0.2,-0.11 -0.41,-0.21 -0.61,-0.32l-0.75,-11.19c3.76,1.6 7.34,3.53 10.74,5.74l-9.38,5.77Zm14.27,10.83c-1.13,-1.13 -2.3,-2.2 -3.5,-3.24l10.48,-3.74l-3.75,10.5c-1.04,-1.21 -2.11,-2.39 -3.23,-3.52Zm12.22,9.99l-1.93,3.58c-1.55,-2.72 -3.29,-5.33 -5.21,-7.79l7.14,-1.53l0,5.74Zm-108.23,94.26c0.54,0.35 1.14,0.57 1.75,0.57c2.41,0 4.06,-1.48 4.31,-3.07c1.7,1.4 3.46,2.72 5.29,3.95c1.23,0.82 2.49,1.6 3.77,2.34c-1.26,0.72 -2.03,2.05 -2.03,3.77c0,1.75 1.75,3.5 4.37,3.5c1.74,0 3.49,-1.75 3.49,-3.5c0,-0.26 -0.03,-0.51 -0.06,-0.75c0.18,0.08 0.36,0.16 0.55,0.24l-13.04,30.21l-8.4,0l0,-37.26Zm-8.34,-67.59l-9.11,-6.08l10.75,-3.08c-0.76,2.99 -1.31,6.05 -1.64,9.16Zm32.78,-48.11l0,-10.38l8.85,6.64c-3.05,1.01 -6.01,2.27 -8.85,3.74Zm11.8,-4.65l2.16,-10.1l6.29,8.38c-2.87,0.37 -5.69,0.95 -8.45,1.72Zm16.13,-2.24c-1.52,0 -3.02,0.08 -4.52,0.19l4.52,-9.8l4.51,9.79c-1.48,-0.11 -2.98,-0.18 -4.51,-0.18Zm7.71,0.49l6.25,-8.35l2.92,10.21c-2.96,-0.85 -6.01,-1.47 -9.17,-1.86Zm11.81,2.68l7.53,-7.54l0.74,11.05c-2.65,-1.37 -5.4,-2.54 -8.27,-3.51Zm11.22,5.14l8.53,-5.69l-1.5,10.52c-2.24,-1.77 -4.58,-3.38 -7.03,-4.83Zm-27.67,50.64l26.81,-48.14c2.7,1.59 5.26,3.38 7.65,5.33l0,0.46l0.25,-0.26c1.43,1.19 2.81,2.45 4.11,3.75l-38.82,38.86Zm52.79,-24.88l0,1.51c-0.25,-0.51 -0.52,-1.01 -0.77,-1.51l0.77,0Zm0,-0.88l-0.88,0l0.88,-1.62l0,1.62Zm-0.95,85.61c-0.27,-1.64 -1.31,-2.81 -2.82,-3.27c0.38,-0.37 0.77,-0.72 1.15,-1.1c0.89,-0.9 1.76,-1.82 2.62,-2.77l0,7.14l-0.95,0Zm-21.65,14.2c0.69,0.4 1.54,0.65 2.52,0.65c1.75,0 3.49,-1.75 3.49,-3.5c0,-1.67 -0.71,-2.97 -1.67,-3.71c1.4,-0.81 2.79,-1.65 4.14,-2.55l0.15,0.15l0,-0.25c0.89,-0.6 1.76,-1.22 2.62,-1.85l0,37.13l-11.25,-26.07Zm-59.98,-1.61c2.1,0.8 4.25,1.5 6.43,2.11c-0.89,0.67 -1.53,1.71 -1.53,2.77c0,1.74 1.75,3.49 3.49,3.49c2.62,0 4.36,-1.75 4.36,-3.49c0,-0.47 -0.13,-0.93 -0.36,-1.37c0.12,0.03 0.24,0.04 0.36,0.07l0,0.42l0.37,-0.36c3.56,0.64 7.19,1.04 10.86,1.17c-0.46,0.72 -0.75,1.62 -0.75,2.69c0,1.74 1.74,3.49 3.49,3.49c2.62,0 4.36,-1.75 4.36,-3.49c0,-1.07 -0.3,-1.99 -0.82,-2.71c3.71,-0.16 7.33,-0.57 10.86,-1.23l0.44,0.44l0.28,-0.56c0.04,-0.01 0.08,-0.01 0.12,-0.02c-0.25,0.46 -0.4,0.96 -0.4,1.46c0,1.74 1.74,3.49 3.49,3.49c2.62,0 4.36,-1.75 4.36,-3.49c0,-1.08 -0.67,-2.16 -1.79,-2.83c2.25,-0.63 4.46,-1.36 6.62,-2.19l12.25,28.6l-78.67,0l12.18,-28.46Zm-11.03,-20.52c2.46,1.92 5.07,3.66 7.8,5.2l-9.01,6.01c-0.08,-0.06 -0.18,-0.12 -0.26,-0.17l1.47,-11.04Zm-14.62,4.43l0.58,-0.29c0.14,0.14 0.27,0.28 0.41,0.41c-0.35,0.1 -0.68,0.27 -0.99,0.49l0,-0.61Zm107.66,-25.47c0.19,-0.36 0.39,-0.72 0.57,-1.09l0,1.06l-0.57,0.03Zm-0.31,1.01l0.88,-0.05l0,1.47l-0.88,-1.42Zm0.88,9.9l-7.01,-0.93c1.93,-2.45 3.68,-5.02 5.22,-7.72l1.79,2.68l0,5.97Zm-4.2,10.85l-3.66,-10.26l7.86,1.04l0,4.46c-1.33,1.65 -2.73,3.23 -4.2,4.76Zm-11.54,9.81l-9.93,-5.35c2.94,-1.69 5.73,-3.62 8.37,-5.78l1.58,11.12c0,0 -0.01,0.01 -0.02,0.01Zm-9.51,5.46l-1.43,-3.3l0.48,-7.2c0.05,-0.03 0.11,-0.06 0.16,-0.09l9.35,5.76c-2.73,1.8 -5.59,3.42 -8.56,4.83Zm-14.52,5l2.24,-10.44l8.01,7.28c-3.3,1.3 -6.72,2.36 -10.25,3.16Zm-14.39,1.74l4.41,-9.56l6.39,8.53c-3.5,0.6 -7.11,0.95 -10.8,1.03Zm-7.81,-9.56l5.16,9.58c-3.68,-0.05 -7.31,-0.39 -10.88,-0.99l5.72,-8.59Zm-9.9,-2.21c2.95,0.82 5.96,1.41 9.02,1.78l-5.88,8.83c-0.11,-0.02 -0.22,-0.03 -0.33,-0.05l-2.81,-10.56Zm-9.96,-3.7l-1.53,3.56l-0.3,-4.47c0.61,0.31 1.22,0.62 1.83,0.91Zm-15.06,-13.3l36.63,-36.66l-2.33,5.39l-23.29,39.97c-4.03,-2.39 -7.72,-5.29 -11.01,-8.7Zm-5.75,-2.55c1,1.17 2.04,2.31 3.14,3.41c1.14,1.14 2.33,2.22 3.55,3.27l-9.66,3.72l2.97,-10.4Zm-5.3,12.44l-0.29,0.58l0,-0.87c0.1,0.1 0.2,0.19 0.29,0.29Zm-0.29,-12.35l4.84,-0.96c0.08,0.1 0.18,0.2 0.26,0.3l-3.76,10.54c-0.45,-0.46 -0.9,-0.93 -1.34,-1.4l0,-8.48Zm4.27,-1.67l-4.27,0.57l0,-6.66c1.29,2.11 2.72,4.14 4.27,6.09Zm-4.27,-25.38l0,-3.69l-6.18,0c-0.15,-0.9 -0.27,-1.81 -0.38,-2.73l0.28,-0.59l0.17,-0.18l-0.07,-0.03l2.46,-5.21l52.65,0l-48.93,12.43Zm108.23,-14.17l-49.36,0l49.36,-13.28l0,13.28Zm-3.21,28.82l-0.29,0l0.19,0.19c-0.16,0.3 -0.33,0.59 -0.5,0.89l-47.46,-26.92l51.27,13.78l0,4.81c-0.9,2.51 -1.98,4.93 -3.21,7.25Zm-10.32,13.55l-38.3,-38.34l47.43,26.9c-2.49,4.2 -5.54,8.04 -9.13,11.44Zm1.31,2.17c1.13,-1.13 2.2,-2.3 3.24,-3.5l3.74,10.49l-10.25,-3.94c1.11,-0.98 2.21,-1.99 3.27,-3.05Zm-13.61,7.83l-21.81,-38.53l-2.95,-6.82l36.19,36.22c-3.39,3.59 -7.23,6.64 -11.43,9.13Zm-3.29,4.38c0.4,-0.19 0.79,-0.41 1.19,-0.61l0,3.37l-1.19,-2.76Zm-4.15,1.83l2.68,6.26l-5.66,-5.15c1.01,-0.34 2,-0.71 2.98,-1.11Zm-5.56,1.92l-2.19,10.25l-6.86,-8.38c3.12,-0.4 6.14,-1.03 9.05,-1.87Zm-19.72,-46.37l2.69,-6.27l0,52.41c-5.06,0 -9.96,-0.58 -14.62,-1.69l11.93,-44.45Zm3.56,46.12l0,-52.39l2.69,6.27l11.87,44.24c-4.63,1.18 -9.51,1.81 -14.56,1.88Zm16.72,-2.47l-0.14,-0.13l0,0.17c-0.39,0.12 -0.8,0.22 -1.2,0.33l-10.35,-38.55l15.76,36.8c-1.33,0.51 -2.69,0.98 -4.07,1.38Zm10.34,-4.5l0,0.28c-0.7,0.37 -1.39,0.73 -2.11,1.07l-13.22,-30.63l16.4,28.97c-0.29,0.16 -0.59,0.33 -0.89,0.49l-0.18,-0.18Zm27.93,-38.23l-52.42,-13.31l52.42,0l0,13.31Zm-108.23,0.77l49.44,-13.29l-48.62,27.57c-0.28,-0.48 -0.55,-0.97 -0.82,-1.47l0,-12.81Zm10.48,26.98c-3.54,-3.54 -6.67,-7.59 -9.27,-12.03l48.09,-26.83l-38.82,38.86Zm13.77,10.66c-0.29,-0.15 -0.58,-0.32 -0.87,-0.48l18.32,-31.43l-14.42,33.41c-0.96,-0.44 -1.91,-0.91 -2.84,-1.4l0,-0.28l-0.19,0.18Zm9.24,6.35l-5.52,5.03l2.6,-6.08c0.96,0.38 1.94,0.73 2.92,1.05Zm1.97,-1.84c-1.35,-0.38 -2.69,-0.81 -4,-1.28l15.88,-37.09l-10.41,38.77c-0.38,-0.1 -0.76,-0.21 -1.14,-0.31l0,-0.41l-0.33,0.32Zm17.77,14.5l-5.26,-9.77c1.46,0.11 2.93,0.19 4.4,0.19c1.84,0 3.64,-0.1 5.42,-0.25l-4.54,9.83l-0.02,0Zm-26.48,-4.77l8.16,-7.43l3.07,10.74c-3.85,-0.79 -7.6,-1.92 -11.23,-3.31Zm67.11,-8.43l-2.22,-10.36l10.26,3.67c-2.53,2.43 -5.21,4.66 -8.04,6.69Zm11.16,-86.35c1.23,2.32 2.31,4.74 3.21,7.24l0,5.69l-51.47,13.84l47.67,-27.83c0.17,0.29 0.33,0.58 0.49,0.87l-0.19,0.19l0.29,0Zm-23.44,-23.64l-27.55,48.66l14.54,-54.17c4.61,1.33 8.97,3.2 13.01,5.51Zm-44.6,-5.74l14.64,54.55l-28.45,-48.82c4.27,-2.44 8.9,-4.4 13.81,-5.73Zm-42.11,42.74l51,13.72l-48.76,0l2.89,-6.12l-6.55,0c0.31,-2.59 0.79,-5.13 1.42,-7.6Zm8.18,66.5l10.04,-3.87l-1.44,10.84c-3.05,-2.1 -5.92,-4.43 -8.6,-6.97Zm11.71,9l8.81,-5.88l0.44,6.63l-1.47,3.4c-2.68,-1.23 -5.28,-2.61 -7.78,-4.15Zm89.07,-90.96l-47.27,27.6l38.59,-38.62c3.4,3.3 6.3,6.99 8.68,11.02Zm-45.35,-28.48l0,-0.55c3.18,0.33 6.28,0.93 9.28,1.75l-14.52,54.08l0,-56.13c1.67,0.03 3.32,0.11 4.95,0.28l0.29,0.57Zm-11.93,-0.57c1.91,-0.19 3.85,-0.3 5.82,-0.3l0,56.15l-14.58,-54.3c2.75,-0.7 5.57,-1.23 8.47,-1.53l0,0.55l0.29,-0.57Zm-31.96,13.42l0.25,0.26l0,-0.46c2.39,-1.96 4.96,-3.74 7.67,-5.34l27.51,47.99l-39.1,-39.13c1.18,-1.15 2.39,-2.26 3.67,-3.32Zm-8.06,8.12l0.46,0l-0.26,-0.25c1.06,-1.28 2.17,-2.5 3.32,-3.67l39.1,39.13l-47.95,-27.54c1.59,-2.71 3.37,-5.28 5.33,-7.67Zm-5.72,8.33l48.57,28.36l-0.26,0l-54.03,-14.53c0.11,-0.4 0.23,-0.8 0.34,-1.2l0.21,0l-0.16,-0.16c1.31,-4.41 3.12,-8.58 5.33,-12.47Zm101.09,-22.48l-10.26,3.67l1.46,-10.91c3.11,2.17 6.04,4.59 8.8,7.24Zm-64.7,-18.26l-2.1,10.52c-0.32,0.1 -0.64,0.18 -0.96,0.28l-8.61,-7.19c3.76,-1.52 7.67,-2.73 11.67,-3.61Zm259.54,177.41l0,-45.42l0,-113.56l0,-20.09l-5.23,0l0,-13.97l-17.46,0l0,-28.83l-62.84,0l0,16.6l7.86,5.24l0,82.98l-26.19,0l0,66.39l-5.23,0l0,-134.52l-27.06,0l0,-9.61l-12.22,0l-12.22,0l0,9.61l-27.92,0l0,28.11c-0.86,-0.95 -1.73,-1.89 -2.62,-2.78c-0.29,-0.29 -0.59,-0.55 -0.88,-0.83l0,-0.05l-0.02,0.03c-0.08,-0.08 -0.16,-0.16 -0.25,-0.24c1.78,-0.51 2.89,-1.89 2.89,-3.28c0,-2.62 -1.74,-4.37 -4.36,-4.37c-1.5,0 -3,1.3 -3.39,3.34c-3.04,-2.46 -6.24,-4.66 -9.59,-6.59c0.94,-0.67 1.63,-1.76 1.63,-2.86c0,-2.62 -1.74,-4.37 -3.49,-4.37c-2.5,0 -4.19,1.61 -4.33,4.04c-3.17,-1.44 -6.45,-2.66 -9.84,-3.64c0.68,-0.76 1.08,-1.79 1.08,-3.02c0,-1.75 -1.74,-3.49 -4.36,-3.49c-1.75,0 -3.49,1.74 -3.49,3.49c0,0.51 0.08,0.98 0.2,1.42c-0.29,-0.05 -0.59,-0.09 -0.88,-0.15l-0.2,-0.4l-0.16,0.34c-3.29,-0.58 -6.66,-0.97 -10.1,-1.12c0.42,-0.56 0.66,-1.19 0.66,-1.84c0,-2.62 -1.74,-4.36 -4.36,-4.36c-1.75,0 -3.49,1.74 -3.49,4.36c0,0.64 0.23,1.27 0.61,1.82c-3.81,0.14 -7.58,0.57 -11.27,1.26c0.11,-0.41 0.18,-0.85 0.18,-1.33c0,-1.75 -1.74,-3.49 -4.36,-3.49c-1.74,0 -3.49,1.74 -3.49,3.49c0,1.19 0.37,2.19 0.93,2.94c-3.63,1.04 -7.16,2.34 -10.54,3.91c-0.07,-2.54 -1.77,-4.23 -3.48,-4.23c-2.62,0 -4.37,1.75 -4.37,4.37c0,1.14 0.75,2.26 1.99,2.92c-3.22,1.87 -6.27,3.99 -9.12,6.35c-0.46,-1.93 -2.02,-3.16 -4.21,-3.16c-1.75,0 -3.49,1.75 -3.49,4.37c0,1.49 1.27,2.97 2.73,3.38c-0.33,0.33 -0.67,0.65 -0.99,0.99c-2.41,2.26 -4.63,4.72 -6.67,7.33c-0.71,-1.3 -2.05,-2.09 -3.8,-2.09c-1.75,0 -3.49,1.75 -3.49,4.37c0,1.67 1.59,3.32 3.26,3.46c-1.99,3.17 -3.74,6.51 -5.21,9.99c-0.77,-0.73 -1.9,-1.22 -3.29,-1.22c-1.74,0 -3.49,1.74 -3.49,3.49c0,2.62 1.75,4.37 3.49,4.37c0.31,0 0.6,-0.03 0.88,-0.08c-0.91,2.88 -1.64,5.82 -2.2,8.81l-0.42,0l0.39,0.2c-0.09,0.51 -0.18,1.03 -0.27,1.54c-0.72,-0.54 -1.65,-0.86 -2.74,-0.86c-1.75,0 -3.49,1.74 -3.49,4.36c0,0.61 0.22,1.22 0.57,1.75l-16.28,0l-42.77,0l7.86,16.6l-7.86,0l0,97.83l-6.98,0l0,-20.09l-5.73,0l0.49,-34.94l-6.11,0l0,-117.05l-4.36,0l0,-5.24c0,0 3.49,-2.62 2.62,-4.37c-0.87,-1.75 -2.62,-0.87 -2.62,-0.87l-22.69,10.48l0,-9.61l-12.22,0l-13.09,0l0,9.61l-22.69,-10.48c0,0 -1.75,-0.88 -2.62,0.87c-0.87,1.75 3.49,4.37 3.49,4.37l0,5.24l-5.24,0l0,151.99l-7.85,0l0,-87.35l-28.8,0l0,15.72l-37.53,0l0,53.28l-8.73,0l0,-82.98l3.49,0l0,-35.81l-12.22,0l0,-13.1l4.37,0c-0.88,-1.75 -2.62,-3.5 -4.37,-4.37l0,-18.34l3.49,0.87c-0.87,-1.75 -1.74,-2.62 -3.49,-3.5l0,-16.59l2.62,0c-1.74,-3.5 -5.24,-6.12 -9.6,-6.99l-0.87,-21.84l-0.87,0l-0.88,0l-0.87,21.84c-4.36,0.87 -7.86,3.49 -9.6,6.99l2.62,0l0,16.59c-1.75,0.88 -2.62,1.75 -3.49,3.5l3.49,-0.87l0,18.34c-1.75,0.87 -3.49,2.62 -4.37,4.37l4.37,0l0,13.1l-12.22,0l0,35.81l3.49,0l0,82.98l-12.22,0l0,-140.63l-39.27,0l0,20.09c-9.6,-13.1 -23.57,-19.21 -41.9,-20.09l0,135.39l-12.21,0l0,20.09l-5.24,0l0,-36.68l-24.44,0l-25.31,0l0,36.68l-13.96,0l0,23.59l-42.77,0l0,12.23l857.93,0l0,-12.23l-42.77,0Z" style="fill:#030404;"/></svg>