<svg viewBox="0 0 858 254" xmlns="http://www.w3.org/2000/svg" fill-rule="evenodd" clip-rule="evenodd" stroke-linejoin="round" stroke-miterlimit="2"><path d="M146.63 145.88h7.85v12.23h-7.85v-12.23zm35.78-51.54h7.85v11.36h-7.85V94.34zm49.75 24.46h5.23v83.85h-5.23V118.8zm286.77-34.51l3.86 10.05-10.77-1.54c2.08-3.01 4.39-5.86 6.91-8.51zm107.72 4.59v4.34l-7.86 1.12 3.66-10.26c1.47 1.54 2.87 3.14 4.2 4.8zm-118.26 37.78h-8.82c.18-1.81.45-3.6.76-5.37l8.06 5.37zm3.05-10.48l-10.74 3.07c.8-3.85 1.92-7.61 3.32-11.25l7.42 8.18zm-6.86-9.62l11.39-.76a61.114 61.114 0 00-3.65 9.43l-7.78-8.57c.01-.03.02-.07.04-.1zm5.78-11.23l6.18 9.29c-.04.07-.07.15-.11.22l-11.46.76c1.52-3.57 3.33-7 5.39-10.27zm6.96 7.84l-5.88-8.83 10.61 1.52a58.094 58.094 0 00-4.73 7.31zm13.24-16.34a63.384 63.384 0 00-3.41 3.14 61.171 61.171 0 00-3.26 3.58l-3.72-9.69 10.39 2.97zm-.6-11.99l1.5 11.21c-.12.1-.22.2-.34.29l-10.52-3.76a70.86 70.86 0 019.36-7.74zm10.1 5.21a63.22 63.22 0 00-7.27 4.94l-2.13-10.64c.02-.01.05-.03.07-.05l9.33 5.75zm1.93-1.08c-.16.08-.31.15-.47.24l-9.4-5.8c3.14-2.01 6.44-3.78 9.87-5.28v10.84zm22.94-7.04l-.63.06-6.55-8.74c3.74-.7 7.55-1.1 11.4-1.19l-4.22 9.87zm12.33.03c-.22-.02-.44-.03-.66-.05l-4.93-9.87c3.95.05 7.78.4 11.51 1.04l-5.92 8.88zm11.86 2.29l-3.04-10.62a68.3 68.3 0 0110.52 3.13l-7.48 7.49zm11.04 4.89c-.2-.11-.41-.21-.61-.32l-.75-11.19c3.76 1.6 7.34 3.53 10.74 5.74l-9.38 5.77zm14.27 10.83a66.77 66.77 0 00-3.5-3.24l10.48-3.74-3.75 10.5a67.327 67.327 0 00-3.23-3.52zm12.22 9.99l-1.93 3.58a64.84 64.84 0 00-5.21-7.79l7.14-1.53v5.74zm-108.23 94.26c.54.35 1.14.57 1.75.57 2.41 0 4.06-1.48 4.31-3.07 1.7 1.4 3.46 2.72 5.29 3.95 1.23.82 2.49 1.6 3.77 2.34-1.26.72-2.03 2.05-2.03 3.77 0 1.75 1.75 3.5 4.37 3.5 1.74 0 3.49-1.75 3.49-3.5 0-.26-.03-.51-.06-.75.18.08.36.16.55.24l-13.04 30.21h-8.4v-37.26zm-8.34-67.59l-9.11-6.08 10.75-3.08c-.76 2.99-1.31 6.05-1.64 9.16zm32.78-48.11V68.14l8.85 6.64a60.97 60.97 0 00-8.85 3.74zm11.8-4.65l2.16-10.1 6.29 8.38c-2.87.37-5.69.95-8.45 1.72zm16.13-2.24c-1.52 0-3.02.08-4.52.19l4.52-9.8 4.51 9.79a60.7 60.7 0 00-4.51-.18zm7.71.49l6.25-8.35 2.92 10.21c-2.96-.85-6.01-1.47-9.17-1.86zm11.81 2.68l7.53-7.54.74 11.05c-2.65-1.37-5.4-2.54-8.27-3.51zm11.22 5.14l8.53-5.69-1.5 10.52a63.443 63.443 0 00-7.03-4.83zm-27.67 50.64l26.81-48.14c2.7 1.59 5.26 3.38 7.65 5.33v.46l.25-.26c1.43 1.19 2.81 2.45 4.11 3.75l-38.82 38.86zm52.79-24.88v1.51c-.25-.51-.52-1.01-.77-1.51h.77zm0-.88h-.88l.88-1.62v1.62zm-.95 85.61c-.27-1.64-1.31-2.81-2.82-3.27.38-.37.77-.72 1.15-1.1.89-.9 1.76-1.82 2.62-2.77v7.14h-.95zm-21.65 14.2c.69.4 1.54.65 2.52.65 1.75 0 3.49-1.75 3.49-3.5 0-1.67-.71-2.97-1.67-3.71 1.4-.81 2.79-1.65 4.14-2.55l.15.15v-.25c.89-.6 1.76-1.22 2.62-1.85v37.13l-11.25-26.07zm-59.98-1.61c2.1.8 4.25 1.5 6.43 2.11-.89.67-1.53 1.71-1.53 2.77 0 1.74 1.75 3.49 3.49 3.49 2.62 0 4.36-1.75 4.36-3.49 0-.47-.13-.93-.36-1.37.12.03.24.04.36.07v.42l.37-.36c3.56.64 7.19 1.04 10.86 1.17-.46.72-.75 1.62-.75 2.69 0 1.74 1.74 3.49 3.49 3.49 2.62 0 4.36-1.75 4.36-3.49 0-1.07-.3-1.99-.82-2.71 3.71-.16 7.33-.57 10.86-1.23l.44.44.28-.56c.04-.01.08-.01.12-.02-.25.46-.4.96-.4 1.46 0 1.74 1.74 3.49 3.49 3.49 2.62 0 4.36-1.75 4.36-3.49 0-1.08-.67-2.16-1.79-2.83 2.25-.63 4.46-1.36 6.62-2.19l12.25 28.6h-78.67l12.18-28.46zm-11.03-20.52c2.46 1.92 5.07 3.66 7.8 5.2l-9.01 6.01c-.08-.06-.18-.12-.26-.17l1.47-11.04zm-14.62 4.43l.58-.29c.14.14.27.28.41.41-.35.1-.68.27-.99.49v-.61zm107.66-25.47c.19-.36.39-.72.57-1.09v1.06l-.57.03zm-.31 1.01l.88-.05v1.47l-.88-1.42zm.88 9.9l-7.01-.93c1.93-2.45 3.68-5.02 5.22-7.72l1.79 2.68v5.97zm-4.2 10.85l-3.66-10.26 7.86 1.04v4.46a72.89 72.89 0 01-4.2 4.76zm-11.54 9.81l-9.93-5.35c2.94-1.69 5.73-3.62 8.37-5.78l1.58 11.12s-.01.01-.02.01zm-9.51 5.46l-1.43-3.3.48-7.2c.05-.03.11-.06.16-.09l9.35 5.76c-2.73 1.8-5.59 3.42-8.56 4.83zm-14.52 5l2.24-10.44 8.01 7.28c-3.3 1.3-6.72 2.36-10.25 3.16zm-14.39 1.74l4.41-9.56 6.39 8.53c-3.5.6-7.11.95-10.8 1.03zm-7.81-9.56l5.16 9.58a71.44 71.44 0 01-10.88-.99l5.72-8.59zm-9.9-2.21c2.95.82 5.96 1.41 9.02 1.78l-5.88 8.83c-.11-.02-.22-.03-.33-.05l-2.81-10.56zm-9.96-3.7l-1.53 3.56-.3-4.47c.61.31 1.22.62 1.83.91zm-15.06-13.3l36.63-36.66-2.33 5.39-23.29 39.97a52.366 52.366 0 01-11.01-8.7zm-5.75-2.55c1 1.17 2.04 2.31 3.14 3.41 1.14 1.14 2.33 2.22 3.55 3.27l-9.66 3.72 2.97-10.4zm-5.3 12.44l-.29.58v-.87c.1.1.2.19.29.29zm-.29-12.35l4.84-.96c.08.1.18.2.26.3l-3.76 10.54c-.45-.46-.9-.93-1.34-1.4V174zm4.27-1.67l-4.27.57v-6.66c1.29 2.11 2.72 4.14 4.27 6.09zm-4.27-25.38v-3.69h-6.18c-.15-.9-.27-1.81-.38-2.73l.28-.59.17-.18-.07-.03 2.46-5.21h52.65l-48.93 12.43zm108.23-14.17h-49.36l49.36-13.28v13.28zm-3.21 28.82h-.29l.19.19c-.16.3-.33.59-.5.89l-47.46-26.92 51.27 13.78v4.81a55.41 55.41 0 01-3.21 7.25zm-10.32 13.55l-38.3-38.34 47.43 26.9c-2.49 4.2-5.54 8.04-9.13 11.44zm1.31 2.17c1.13-1.13 2.2-2.3 3.24-3.5l3.74 10.49-10.25-3.94a71.99 71.99 0 003.27-3.05zm-13.61 7.83l-21.81-38.53-2.95-6.82 36.19 36.22a52.515 52.515 0 01-11.43 9.13zm-3.29 4.38c.4-.19.79-.41 1.19-.61v3.37l-1.19-2.76zm-4.15 1.83l2.68 6.26-5.66-5.15c1.01-.34 2-.71 2.98-1.11zm-5.56 1.92l-2.19 10.25-6.86-8.38c3.12-.4 6.14-1.03 9.05-1.87zm-19.72-46.37l2.69-6.27v52.41c-5.06 0-9.96-.58-14.62-1.69l11.93-44.45zm3.56 46.12v-52.39l2.69 6.27 11.87 44.24c-4.63 1.18-9.51 1.81-14.56 1.88zm16.72-2.47l-.14-.13v.17c-.39.12-.8.22-1.2.33l-10.35-38.55 15.76 36.8c-1.33.51-2.69.98-4.07 1.38zm10.34-4.5v.28c-.7.37-1.39.73-2.11 1.07l-13.22-30.63 16.4 28.97c-.29.16-.59.33-.89.49l-.18-.18zm27.93-38.23l-52.42-13.31h52.42v13.31zm-108.23.77l49.44-13.29-48.62 27.57c-.28-.48-.55-.97-.82-1.47V148.6zm10.48 26.98a59.66 59.66 0 01-9.27-12.03l48.09-26.83-38.82 38.86zm13.77 10.66c-.29-.15-.58-.32-.87-.48l18.32-31.43-14.42 33.41c-.96-.44-1.91-.91-2.84-1.4v-.28l-.19.18zm9.24 6.35l-5.52 5.03 2.6-6.08c.96.38 1.94.73 2.92 1.05zm1.97-1.84c-1.35-.38-2.69-.81-4-1.28l15.88-37.09-10.41 38.77c-.38-.1-.76-.21-1.14-.31v-.41l-.33.32zm17.77 14.5l-5.26-9.77c1.46.11 2.93.19 4.4.19 1.84 0 3.64-.1 5.42-.25l-4.54 9.83h-.02zm-26.48-4.77l8.16-7.43 3.07 10.74c-3.85-.79-7.6-1.92-11.23-3.31zm67.11-8.43l-2.22-10.36 10.26 3.67a73.118 73.118 0 01-8.04 6.69zm11.16-86.35c1.23 2.32 2.31 4.74 3.21 7.24v5.69l-51.47 13.84 47.67-27.83c.17.29.33.58.49.87l-.19.19h.29zM600 82.06l-27.55 48.66 14.54-54.17A59.37 59.37 0 01600 82.06zm-44.6-5.74l14.64 54.55-28.45-48.82c4.27-2.44 8.9-4.4 13.81-5.73zm-42.11 42.74l51 13.72h-48.76l2.89-6.12h-6.55c.31-2.59.79-5.13 1.42-7.6zm8.18 66.5l10.04-3.87-1.44 10.84c-3.05-2.1-5.92-4.43-8.6-6.97zm11.71 9l8.81-5.88.44 6.63-1.47 3.4a72.413 72.413 0 01-7.78-4.15zm89.07-90.96l-47.27 27.6 38.59-38.62c3.4 3.3 6.3 6.99 8.68 11.02zM576.9 75.12v-.55c3.18.33 6.28.93 9.28 1.75l-14.52 54.08V74.27c1.67.03 3.32.11 4.95.28l.29.57zm-11.93-.57c1.91-.19 3.85-.3 5.82-.3v56.15l-14.58-54.3c2.75-.7 5.57-1.23 8.47-1.53v.55l.29-.57zm-31.96 13.42l.25.26v-.46c2.39-1.96 4.96-3.74 7.67-5.34l27.51 47.99-39.1-39.13c1.18-1.15 2.39-2.26 3.67-3.32zm-8.06 8.12h.46l-.26-.25c1.06-1.28 2.17-2.5 3.32-3.67l39.1 39.13-47.95-27.54c1.59-2.71 3.37-5.28 5.33-7.67zm-5.72 8.33l48.57 28.36h-.26l-54.03-14.53c.11-.4.23-.8.34-1.2h.21l-.16-.16c1.31-4.41 3.12-8.58 5.33-12.47zm101.09-22.48l-10.26 3.67 1.46-10.91a73.1 73.1 0 018.8 7.24zm-64.7-18.26l-2.1 10.52c-.32.1-.64.18-.96.28l-8.61-7.19c3.76-1.52 7.67-2.73 11.67-3.61zm259.54 177.41V62.02h-5.23V48.05h-17.46V19.22h-62.84v16.6l7.86 5.24v82.98H711.3v66.39h-5.23V55.91h-27.06V46.3h-24.44v9.61h-27.92v28.11c-.86-.95-1.73-1.89-2.62-2.78-.29-.29-.59-.55-.88-.83v-.05l-.02.03a5.78 5.78 0 00-.25-.24c1.78-.51 2.89-1.89 2.89-3.28 0-2.62-1.74-4.37-4.36-4.37-1.5 0-3 1.3-3.39 3.34a73.814 73.814 0 00-9.59-6.59c.94-.67 1.63-1.76 1.63-2.86 0-2.62-1.74-4.37-3.49-4.37-2.5 0-4.19 1.61-4.33 4.04a72.357 72.357 0 00-9.84-3.64c.68-.76 1.08-1.79 1.08-3.02 0-1.75-1.74-3.49-4.36-3.49-1.75 0-3.49 1.74-3.49 3.49 0 .51.08.98.2 1.42-.29-.05-.59-.09-.88-.15l-.2-.4-.16.34a77.62 77.62 0 00-10.1-1.12c.42-.56.66-1.19.66-1.84 0-2.62-1.74-4.36-4.36-4.36-1.75 0-3.49 1.74-3.49 4.36 0 .64.23 1.27.61 1.82-3.81.14-7.58.57-11.27 1.26.11-.41.18-.85.18-1.33 0-1.75-1.74-3.49-4.36-3.49-1.74 0-3.49 1.74-3.49 3.49 0 1.19.37 2.19.93 2.94a72.26 72.26 0 00-10.54 3.91c-.07-2.54-1.77-4.23-3.48-4.23-2.62 0-4.37 1.75-4.37 4.37 0 1.14.75 2.26 1.99 2.92a67.21 67.21 0 00-9.12 6.35c-.46-1.93-2.02-3.16-4.21-3.16-1.75 0-3.49 1.75-3.49 4.37 0 1.49 1.27 2.97 2.73 3.38-.33.33-.67.65-.99.99a64.389 64.389 0 00-6.67 7.33c-.71-1.3-2.05-2.09-3.8-2.09s-3.49 1.75-3.49 4.37c0 1.67 1.59 3.32 3.26 3.46a70.123 70.123 0 00-5.21 9.99c-.77-.73-1.9-1.22-3.29-1.22-1.74 0-3.49 1.74-3.49 3.49 0 2.62 1.75 4.37 3.49 4.37.31 0 .6-.03.88-.08a75.12 75.12 0 00-2.2 8.81h-.42l.39.2-.27 1.54c-.72-.54-1.65-.86-2.74-.86-1.75 0-3.49 1.74-3.49 4.36 0 .61.22 1.22.57 1.75H432.89l7.86 16.6h-7.86v97.83h-6.98V221h-5.73l.49-34.94h-6.11V69.01h-4.36v-5.24s3.49-2.62 2.62-4.37c-.87-1.75-2.62-.87-2.62-.87l-22.69 10.48V59.4H362.2v9.61l-22.69-10.48s-1.75-.88-2.62.87c-.87 1.75 3.49 4.37 3.49 4.37v5.24h-5.24V221h-7.85v-87.35h-28.8v15.72h-37.53v53.28h-8.73v-82.98h3.49V83.86H243.5v-13.1h4.37c-.88-1.75-2.62-3.5-4.37-4.37V48.05l3.49.87c-.87-1.75-1.74-2.62-3.49-3.5V28.83h2.62c-1.74-3.5-5.24-6.12-9.6-6.99L235.65 0h-1.75l-.87 21.84c-4.36.87-7.86 3.49-9.6 6.99h2.62v16.59c-1.75.88-2.62 1.75-3.49 3.5l3.49-.87v18.34c-1.75.87-3.49 2.62-4.37 4.37h4.37v13.1h-12.22v35.81h3.49v82.98H205.1V62.02h-39.27v20.09c-9.6-13.1-23.57-19.21-41.9-20.09v135.39h-12.21v20.09h-5.24v-36.68H56.73v36.68H42.77v23.59H0v12.23h857.93v-12.23h-42.77z" fill="#030404"/></svg>
