<?xml version="1.0" encoding="UTF-8" standalone="no"?><!DOCTYPE svg PUBLIC "-//W3C//DTD SVG 1.1//EN" "http://www.w3.org/Graphics/SVG/1.1/DTD/svg11.dtd"><svg style="fill:#CCC;"  width="100%" height="100%" viewBox="0 0 32 26" version="1.1" xmlns="http://www.w3.org/2000/svg" xmlns:xlink="http://www.w3.org/1999/xlink" xml:space="preserve" xmlns:serif="http://www.serif.com/" style="fill-rule:evenodd;clip-rule:evenodd;stroke-linejoin:round;stroke-miterlimit:2;"><path d="M29,0l-26,0c-1.65,0 -3,1.35 -3,3l0,20c0,1.65 1.35,3 3,3l26,0c1.65,0 3,-1.35 3,-3l0,-20c0,-1.65 -1.35,-3 -3,-3Zm-16.539,13.199l-8.461,6.59l0,-15.676l8.461,9.086Zm-6.949,-9.199l20.976,0l-10.488,7.875l-10.488,-7.875Zm7.278,9.553l3.21,3.447l3.21,-3.447l6.58,8.447l-19.579,0l6.58,-8.447l-0.001,0Zm6.749,-0.354l8.461,-9.086l0,15.676l-8.461,-6.59Z" style="fill-rule:nonzero;"/></svg>
