<svg viewBox="0 0 214 263" xmlns="http://www.w3.org/2000/svg" fill-rule="evenodd" clip-rule="evenodd" stroke-linecap="round" stroke-linejoin="round" stroke-miterlimit="1.5"><ellipse cx="133.756" cy="230.149" rx="65.5" ry="8.5" fill="#f2f2f2" stroke="#f0f0f0" stroke-width="2"/><g fill-rule="nonzero"><path d="M97.816 158.788l21.546 38.772c.206.371.6.601 1.024.599L147 198.04c.406-.002.777-.211.989-.557l24.421-39.899a1.165 1.165 0 00-1.988-1.217l-24.082 39.346-25.276.113-21.211-38.169a1.166 1.166 0 00-2.037 1.131z" fill="#1651a4"/><path d="M134.786 196.93l-.156-35.084a1.166 1.166 0 00-2.33.011l.156 35.084a1.165 1.165 0 002.33-.011z" fill="#1651a4"/><path d="M213.834 72.903c.121 27.163-15.618 58.391-39.098 81.681-11.491 11.399-67.099 11.85-78.775.352-23.486-23.131-39.34-54.308-39.461-81.331C56.32 33.148 112.653.1 134.84 0c22.186-.098 78.813 32.446 78.994 72.903z" fill="#6a6964"/><path d="M134.84 0C112.653.1 56.319 33.148 56.5 73.605c.121 27.023 15.975 58.2 39.461 81.331 2.317 2.281 6.368 4.091 11.456 5.438-14.299-17.931-33.689-49.094-33.857-86.401C73.297 14.829 134.84 0 134.84 0zM134.84 0c22.186-.098 78.813 32.446 78.994 72.903.12 27.023-15.454 58.341-38.734 81.679-2.297 2.303-6.331 4.148-11.406 5.541 14.137-18.058 33.249-49.393 33.083-86.699C196.513 14.279 134.84 0 134.84 0z" fill="#fff"/><path d="M118.882 162.471c8.875 1.047 18.94 1.151 28.167.336C178.648 43.626 134.84 0 134.84 0s-50.531 51.2-15.958 162.471z" fill="#fff"/><path d="M106.846 160.224l-.002-.001.002.001zm1.395.366l.069.017-.069-.017zm.551.135l.176.042-.176-.042zm.282.067c6.669 1.572 14.869 2.414 23.232 2.54-8.365-.126-16.562-.967-23.232-2.54zm-13.06-5.805l-.053-.051c-14.529-14.308-26.137-31.696-32.906-49.275 6.769 17.579 18.377 34.967 32.906 49.275l.053.051zM134.637 163.349c10.595-.008 21.251-1.155 29.201-3.411-7.95 2.256-18.606 3.403-29.201 3.411z" fill="#f9c4d6"/><path d="M132.306 163.332z" fill="#5a479d"/><path d="M106.846 160.224l-.002-.001c-4.784-1.321-8.593-3.063-10.83-5.236l-.053-.051c2.23 2.196 6.066 3.954 10.886 5.285.189.052.378.103.57.153-10.721-13.443-24.304-34.328-30.501-59.661a107.482 107.482 0 007.903-3.703c4.372 2.215 9.16 4.033 14.296 5.451a95.032 95.032 0 008.257 1.881c1.287 17.152 4.791 36.504 11.51 58.129 8.875 1.047 18.94 1.151 28.167.336 5.97-22.521 9.249-42.34 10.639-59.68 15.495-3.42 28.998-9.651 38.559-18.434-3.156 32.193-19.738 59.018-32.409 75.245-7.95 2.256-18.606 3.403-29.201 3.411-.778 0-1.555-.005-2.331-.017-8.363-.126-16.563-.968-23.232-2.54l-.106-.025-.176-.042a30.905 30.905 0 01-.482-.118l-.069-.017c-.474-.118-.94-.241-1.395-.366z" fill="#6a6964"/><path d="M106.847 160.221c-4.82-1.331-8.656-3.089-10.886-5.285-14.529-14.308-26.137-31.696-32.906-49.275a.848.848 0 00.393-.595c.86-.044 1.645-.166 2.339-.372a108.569 108.569 0 0011.129-3.981c6.197 25.333 19.78 46.218 30.501 59.661-.192-.05-.381-.101-.57-.153z" fill="#ededed"/><path d="M163.838 159.938c12.671-16.227 29.253-43.052 32.409-75.245 8.112-7.452 13.388-16.74 14.635-27.702 1.849 5.078 2.91 10.358 2.951 15.781v.005l.001.056v.008.215l.001.005-.001.473v.003l-.001.153v.006l-.001.076v.065.019l-.001.053v.027l-.001.051v.028l-.001.051v.076l-.001.033-.001.043v.037l-.001.038-.001.042v.031l-.001.051v.023l-.001.056-.001.023v.058l-.001.017-.001.064-.001.007c-.545 26.744-16.109 57.13-39.083 79.919-2.21 2.192-6.051 3.979-10.898 5.354z" fill="#d8d8d8"/><path d="M118.882 162.471c-6.719-21.625-10.223-40.977-11.51-58.129 8.345 1.523 17.417 2.109 26.957 1.731 8.099-.321 15.956-1.313 23.359-2.946-1.39 17.34-4.669 37.159-10.639 59.68-9.227.815-19.292.711-28.167-.336z" fill="#e9e9e9"/><path d="M89.367 148.006s18.882 5.719 44.061 5.606c25.179-.112 50.518-8.721 50.518-8.721l-13.18 19.121s-19.267 6.929-37.26 7.008c-17.995.081-33.181-7.519-33.181-7.519l-10.958-15.495z" fill="#494949"/><path d="M150.43 227.075l-31.909.142-3.815-28.615 37.845-.169-2.121 28.642z" fill="#6a6964"/><path d="M154.501 201.88l-40.276.179a1.8 1.8 0 01-1.809-1.793l-.015-3.307a1.8 1.8 0 011.793-1.809l40.276-.18a1.8 1.8 0 011.81 1.793l.015 3.308a1.801 1.801 0 01-1.794 1.809z" fill="#494949"/><path d="M118.589 198.585c-3.883.017-8.329 12.191 1.225 12.113 9.554-.078 2.658-12.13-1.225-12.113zM133.25 198.997c-3.883.018-8.329 12.191 1.225 12.114 9.553-.078 2.658-12.131-1.225-12.114zM149.068 198.379c-3.883.018-8.328 12.192 1.225 12.114 9.553-.078 2.658-12.131-1.225-12.114zM150.044 230.531l-32.545.146a1.801 1.801 0 01-1.809-1.793l-.014-3.308a1.8 1.8 0 011.793-1.809l32.544-.145a1.8 1.8 0 011.809 1.793l.015 3.308a1.8 1.8 0 01-1.793 1.808z" fill="#494949"/><path d="M117.836 67.706l.004-.008-.004.008zM117.863 67.66l.007-.013-.007.013zM117.887 67.618a.51.51 0 00.014-.024l-.014.024zM117.913 67.574l.017-.031-.017.031zM117.939 67.529l.021-.036-.021.036zM117.967 67.48c.007-.013.015-.024.022-.039a1.36 1.36 0 01-.022.039zM117.992 67.436zM118.02 67.389z" fill="#d8b23e"/><path d="M118.769 66.042l.007-.013-.007.013zm.021-.039l.008-.015-.008.015zm.022-.041l.006-.01a.088.088 0 00-.006.01zm.022-.041l.004-.009-.004.009zm.022-.043l.002-.003-.002.003z" fill="#f1c5be"/></g><g><ellipse cx="56.5" cy="254.502" rx="55.5" ry="6.5" fill="#f2f2f2" stroke="#f0f0f0" stroke-width="2"/><path d="M36.306 216.162s.359.311.483.602c.099.229.428.533.583.707.156.174.736.987.82 1.213.033.093-.012.732.08.913.092.182.329.529.15.594-.18.065-.488-.195-.488-.195s.073.169-.065.27c-.266.195-.465.116-.465.116s-.053.216-.187.272c-.297.125-.486.044-.486.044s-.105.137-.322.18c-.279.054-.465-.137-.465-.137s-.331.14-.478.014c-.149-.127-.182-.289-.267-.414-.084-.126-.434-1.347-.253-2.32.18-.973-.66-1.702-.66-1.702l2.02-.157z" fill="#eea886" fill-rule="nonzero"/><path d="M34.631 219.966c-.155 0-.281.113-.281.254v2.649c0 .14.126.255.281.255h4.643c.155 0 .281-.115.281-.255v-2.649c0-.141-.126-.254-.281-.254h-4.643zm4.643 3.677h-4.643c-.472 0-.855-.347-.855-.774v-2.649c0-.426.383-.773.855-.773h4.643c.472 0 .855.347.855.773v2.649c0 .427-.383.774-.855.774z" fill="#0e1e2b" fill-rule="nonzero"/><path fill="#54281a" fill-rule="nonzero" d="M28.243 222.505h17.419v11.291H28.243z"/><path d="M29.553 192.292s-.892.011-1.272 2.425c-.381 2.413.341 3.422.426 4.427.086 1.004 1.389 7.491 1.424 7.779.035.286.21 3.738.718 4.655.507.916 4.241 6.109 4.29 6.368.051.259 1.813-.905 1.813-.905s-2.933-5.554-3.102-6.187c-.17-.635-1.351-3.871-1.165-4.858.188-.988-.522-6.437-.453-7.044.068-.606-.969-6.292-2.679-6.66z" fill="#eea886" fill-rule="nonzero"/><path d="M29.553 192.292s-.892.011-1.272 2.425c-.381 2.413-.037 3.282.193 4.329.218.988.958 7.032.994 7.319.035.287.92 3.931 1.381 5.213.35.974 3.678 6.077 3.729 6.336.049.26 2.588-1.192 2.588-1.192s-3.255-5.745-3.425-6.378c-.17-.634-.721-2.827-.739-3.83-.021-1.177-.839-6.955-.77-7.562.068-.606-.189-5.835-2.679-6.66z" fill="#285173" fill-rule="nonzero"/><path d="M37.948 219.871s-.312-1.097-.701-1.26c-.39-.163-.302.237-.302.237s-.08-.398-.442-.375c-.362.022-.232.487-.232.487s-.151-.287-.496-.148c-.343.141-.137.504-.137.504s-.465-.3-.576.11c-.19.689.38 1.328.38 1.328s.178.176.498.02c0 0 .378.37.801-.045 0 0 .628.148.687-.317 0 0 .707.076.52-.541z" fill="#db9c7c" fill-rule="nonzero"/><path d="M40.354 251.509s1.912 2.327 1.65 2.696c-.263.369-2.272.422-3.496 0-1.223-.421-1.253-3.149-1.806-4.322-.232-.491.264-1.94.961-2.044.698-.106 1.456.203 1.456.203s-.723 1.652 1.235 3.467z" fill="#1d3b54" fill-rule="nonzero"/><path d="M39.132 248.023s.402.992.548 1.938c.123.785 1.362 2.452 1.304 2.663-.058.212-1.631.402-2.272-.142-.641-.543-1.054-2.124-1.194-3.07-.132-.88-.298-1.315-.298-1.315s1.3-.654 1.912-.074z" fill="#eea886" fill-rule="nonzero"/><path d="M23.717 251.548s1.843 2.288 1.58 2.657c-.262.369-2.271.422-3.495 0-1.224-.421-1.253-3.149-1.806-4.322-.232-.491.264-1.94.961-2.044.697-.106 1.515.226 1.515.226s-.714 1.667 1.245 3.483z" fill="#1d3b54" fill-rule="nonzero"/><path d="M22.472 248.065s.146 1.08.379 1.845c.233.764 1.486 2.503 1.427 2.714-.059.212-1.631.402-2.272-.142-.641-.543-1.136-2.117-1.195-3.07-.058-.952.146-1.573.146-1.573s.903-.354 1.515.226z" fill="#eea886" fill-rule="nonzero"/><path d="M31.679 210.164s1.64 6.903 2.017 8.641c.377 1.738 1.432 10.156 1.544 11.588.114 1.43 1.712 6.824 1.637 7.335-.076.511 2.369 10.78 2.369 10.78s-.835.608-1.715.055c-.452-.285-5.366-9.613-5.366-12.169 0-3.533-2.945-8.032-3.317-8.823-3.462-7.342-2.722-9.702-3.174-10.179-.452-.477-.492.296-.755 1.352-.265 1.057-.829 10.19-1.168 11.348-.339 1.159-.076 5.079-.264 7.055-.188 1.977-1.015 10.918-1.015 10.918s-.641.907-1.539.023c-.193-.19-1.551-9.96-1.589-12.311-.038-2.351-.078-5.594-.151-6.612-.698-9.744-2.413-11.136.289-18.032 5.058-12.913 12.197-.969 12.197-.969z" fill="#eea886" fill-rule="nonzero"/><path d="M21.01 208.235s-5.04 7.868-2.871 24.607c0 0 11.957 1.814 18.362-2.098 0 0-2.649-17.258-3.609-19.943-.959-2.686-11.882-2.566-11.882-2.566zM36.65 249.679v2.436H37v-1.883l-.35-.553zM19.944 249.679v2.436h.35v-1.883l-.35-.553z" fill="#1d3b54" fill-rule="nonzero"/><path d="M26.936 191.422s1.721.735 2.319.844c.597.107 2.916 2.833 3.323 3.828.406.995 0 2.488-.837 4.24-.837 1.753-.048 2.336-.43 4.089-.383 1.752-.718 5.461-.646 6.435.072.974-9.671 1.157-11.894-.617 0 0 2.235-3.028 2.521-3.461.288-.432.049-2.79-.214-3.396-.264-.606-2.014-5.757-2.014-5.757s-1.432-3.955-.139-4.864c1.124-.79 4.187-1.072 4.737-1.244.55-.173 2.15-.248 3.274-.097z" fill="#eddad3" fill-rule="nonzero"/><path d="M27.485 194.894l1.046-1.109-.908-2.917s-.306 1.625-.138 4.026z" fill="#d6c5be" fill-rule="nonzero"/><path d="M24.763 180.368c1.023-.326 4.781-1.125 5.666 3.223.885 4.348-1.768 7.441-4.208 6.62-2.439-.822-3.945-3.829-4.089-6.122-.143-2.293 1.34-3.31 2.631-3.721z" fill="#eea886" fill-rule="nonzero"/><path d="M30.429 183.591s.185-3.72-3.904-3.85c-4.089-.13-5.188 2.915-4.854 5.135.335 2.219 2.028 3.391 2.028 3.391s-.148-1.796.646-2.263c.793-.466 3.974-1.396 5.36-3.559 0 0 .642.682.724 1.146z" fill="#252e3b" fill-rule="nonzero"/><path d="M24.666 183.496c.076 1.559-1.084 2.871-2.59 2.93-1.505.06-2.787-1.156-2.862-2.713-.076-1.558 1.084-2.87 2.589-2.93 1.505-.06 2.787 1.156 2.863 2.713z" fill="#252e3b" fill-rule="nonzero"/><path d="M27.757 189.625s-.343 2.856-.272 3.787c0 0-1.789 1.622-3.823-1.893 0 0 .855-1.449.212-3.423-.644-1.974 3.883 1.529 3.883 1.529z" fill="#eea886" fill-rule="nonzero"/><path d="M27.485 193.412v1.482l-2.059-1.392 2.059-.09z" fill="#eea886" fill-rule="nonzero"/><path d="M27.485 194.894l-.854-.958-2.88-2.596-.931.812 4.665 2.742z" fill="#d6c5be" fill-rule="nonzero"/><path d="M23.351 191.589s2.416 3.317 2.532 4.777c.116 1.46-.897 12.382-1.709 15.893-.812 3.511-6.675-.395-6.675-.395s3.94-5.77 2.428-10.391c-1.513-4.62-2.063-6.467-2.063-6.467s.52-2.573 2.365-2.935c1.617-.318 3.122-.482 3.122-.482zM32.738 196.537s.435 1.395-1.263 4.479c0 0 .027 3.947.075 5.18.048 1.234 1.012 5.667 1.012 5.667l-2.32 1.118c-.338.179-.758-.07-.71-.422.476-3.548 2.022-17.008-1.319-20.625l1.34.358s2.382 1.763 3.185 4.245z" fill="#285173" fill-rule="nonzero"/><path d="M24.755 185.218c-.148-.341-.644-.437-.932-.242-.286.194-.454.778 0 1.536.455.757 2.056 1.284.932-1.294z" fill="#eea886" fill-rule="nonzero"/><path d="M28.531 193.785l1.318.33-2.226-3.247.908 2.917zM26.631 193.936l-1.205 1.428-2.459-3.729.784-.295 2.88 2.596z" fill="#fae6de" fill-rule="nonzero"/><path d="M27.686 190.253l-.063.563s-1.418.252-3.278-1.802c0 0 1.318 1.455 3.341 1.239z" fill="#a77860" fill-rule="nonzero"/><path d="M31.875 200.243s.08 4.927-.252 7.303l-.148-6.53.4-.773z" fill="#1d3b54" fill-rule="nonzero"/><path d="M28.98 205.613s.298-1.233.237-1.518c-.061-.285.375-.487.43.215.056.701.082 1.145.082 1.145l-.749.158z" fill="#eea886" fill-rule="nonzero"/><path d="M31.813 208.802h-2.844l-.444-5.698h3.688l-.4 5.698z" fill="#8e4f3a" fill-rule="nonzero"/><path d="M28.067 206.293s-.023-.436.916-.799c1.248-.483 2.905-.96 3.178-.811.392.214.173.483-.611.685-.784.203-1.042.267-1.042.267s1.519-.075 1.851.101c.332.177.334.556.082.608-.25.054-.837.07-.837.07s.641.046.695.281c.039.175.052.423-.561.503 0 0 .394.428-.236.67-.63.242-1.759.443-2.325.506-1.176.13-3.393-.217-3.393-.217l.743-1.498s.629.17 1.055.019c.552-.196.485-.385.485-.385z" fill="#eea886" fill-rule="nonzero"/><path d="M20.552 192.292c-.606-.178-2.365.231-2.666 1.88-.3 1.648-.42 3.478-.701 4.366-.28.887-1.611 5.402-1.011 5.727.601.327 1.83.677 3.244 1.348 1.352.642 7.929 3.141 7.929 3.141l.512-2.626s-1.261-.271-2.403-.778c-1.142-.508-3.9-1.952-6.002-3.129 0 0 1.316-3.194 1.596-3.883.281-.688 2.225-5.25-.498-6.046z" fill="#285173" fill-rule="nonzero"/><path fill="#ad9f9a" fill-rule="nonzero" d="M28.403 202.764h3.932v.679h-3.932z"/><path d="M26.225 184.473s-.9 1.267-.611 2.073c.324.906-.734 2.284-.734 2.284s.486-1.664.142-2.264c-.345-.598.057-1.533.057-1.533l1.146-.56z" fill="#252e3b" fill-rule="nonzero"/><path d="M79.22 249.542s.61 1.03 1.009 1.439c.398.409 1.926 1.14 1.935 2.355.008 1.317-2.576.951-3.586.903-1.01-.048-1.087-.751-1.512-1.497-.425-.746-.855-.62-.934-1.222-.08-.601.411-1.978.411-1.978h2.677zM63.839 249.422s-1.246 1.257-2.51 1.521c-1.264.264-2.148.599-2.157 1.322-.01.721 3.637 1.196 5.084.469 2.159-1.086 2.379-.759 2.617-1.302.239-.543-.287-1.993-.271-2.166.019-.214-2.763.156-2.763.156z" fill="#202338" fill-rule="nonzero"/><path d="M63.978 248.82s-.164.589-.139.602c.024.012 2.848.316 2.763-.156-.069-.383-.168-.8-.168-.8l-2.456.354zM76.578 249.144s-.117.562-.095.575c.024.014 2.864.473 2.849.006-.014-.37-.262-.802-.262-.802l-2.492.221z" fill="#81807e" fill-rule="nonzero"/><path d="M66.546 213.55s-1.027 9.024-1.561 12.113c-.625 3.612-.836 6.596-1.011 8.466-.218 2.351-.261 13.916-.414 14.603-.154.688 3.402.191 3.402.191s1.749-15.112 2.402-17.617c.607-2.331 2.862-12.37 3.415-11.733.556.637 1.242 11.714 1.653 13.553.411 1.839 1.659 16.236 1.659 16.236s2.83.51 3.582-.066c0 0 .342-12.408.081-15.854-.1-1.315 1.702-15.755-.608-21.568-1.221-3.072-12.6 1.676-12.6 1.676z" fill="#292c47" fill-rule="nonzero"/><path d="M75.765 211.55s-.685-.937-1.411-1.058c-.725-.12 9.996-4.809 9.968-6.485-.022-1.358-3.861-3.612-3.861-3.612l-.001.005-.002.005-.001.006c-.081.269-1.19 3.992-1.228 5.78-.041 1.856.122 8.242.122 8.242l-2.748.666-8.778.074-2.003-.74s.218-2.053.3-3.495c.05-.917.247-2.559.197-4.157 0 0 .032-1.685-.154-2.411a118.283 118.283 0 00-.234-6.375 93.15 93.15 0 01-.248-4.077c.387-.186.852-.403 1.225-.562 1.153-.497 2.76-1.166 3.791-1.593.604-.252 1.194-.435 1.194-.435s4.12-.357 4.455-.339c.106.007.621.169 1.296.402 1.461.502 4.278 1.523 4.727 1.814.658.426 4.964 10.735 5.027 11.443.113 1.277-11.633 6.902-11.633 6.902z" fill="#dbd8e3" fill-rule="nonzero"/><path d="M66.086 213.755s6.03.465 11.31 0v1.568s-7.863.679-11.574-.299l.264-1.269z" fill="#1d2033" fill-rule="nonzero"/><path d="M65.587 193.895c.046 1.288.115 2.669.237 4.148 0 0 .113 3.612.343 7.039.078.491.118.993.073 1.506-.056.67-.137 1.401-.234 2.165l-.003.029-.072.547-.001.008c-.512 3.818-1.381 8.197-1.833 9.522-.096.277.234.532.469.729l1.649.941s.68-5.663.906-7.585c.218-1.855.903-4.342 1.203-6.767.381-3.075.906-6.088 1.188-7.876.736-4.661 1.717-6.746 1.717-6.746-.469.128-5.642 2.34-5.642 2.34zM83.091 203.535c.715 1.418-6.562 3.946-6.399 4.297.394.839 2 2.55 2 2.55s9.582-4.288 9.476-5.261c-.079-.708-4.568-11.41-5.226-11.835-.379-.248-3.194-1.15-4.575-1.642-.252-.091-1.114-.383-1.34-.46-.293.294-2.312 2.31-3.025 9.926-.12 1.284.259 4.003.513 6.221.271 2.368.57 4.215.789 6.195.432 3.9.735 7.003.735 7.003l4.29-1.728c.695-.314 1.895-1.134 1.635-1.796-.993-2.513-2.481-7.276-2.483-9.482 0 0 .702-6.086 1.081-7.272 0 0 1.73 1.698 2.529 3.284z" fill="#323657" fill-rule="nonzero"/><path d="M75.968 191.386s.028-1.28.574-3.868c.145-.693-4.447 1.823-4.447 1.823s.013.243.023.57a14.785 14.785 0 01.003.774 5.75 5.75 0 01-.03.508 2.213 2.213 0 01-.154.499c-.189.395 2.484.695 4.031-.306z" fill="#eea987" fill-rule="nonzero"/><path d="M73.101 192.727l-.762.926s.447.54 1.238.141l-.476-1.067z" fill="#e8734d" fill-rule="nonzero"/><path d="M72.543 193.689s-2.887 10.059-2.292 17.888l.971 1.549.91-1.623s.249-14.004 1.041-17.837l-.63.023z" fill="#e8734d" fill-rule="nonzero"/><path d="M72.286 191.865l.815.862s1.309-.23 1.692-.848c.384-.618-2.507-.014-2.507-.014z" fill="#eea987" fill-rule="nonzero"/><path d="M72.099 191.109s.095.658 1.002 1.618l-.991 1.204-.536-2.498.525-.324zM76.055 190.377s-1.632 1.877-2.954 2.35l.615 1.376 2.811-3.073-.472-.653z" fill="#c4c1cc" fill-rule="nonzero"/><path d="M48.802 204.291s-3.024.319-3.194.494c-.17.176-.131.323.155.305.285-.02 2.938-.232 2.938-.232s-3.467.927-3.644 1.041c-.103.066-.044.357.111.359.155.003 3.663-.734 3.663-.734s-3.235.871-3.348 1.008c-.099.119.029.378.275.329.246-.05 3.312-.701 3.312-.701s-2.301.77-2.316.942c-.01.104.029.357.614.141s2.036-.59 2.036-.59l-.602-2.362z" fill="#eea886" fill-rule="nonzero"/><path d="M52.379 204.419s-1.007.048-1.315-.413c-.262-.391-.901-.747-1.098-.856-.263-.147-.905-.858-1.09-.572-.186.285.999 1.213 1.208 1.45.209.237-1.243.151-1.508.323-.265.172-.12 2.345.875 2.301.996-.044 1.982-.689 2.161-.665.179.024.728-.006.728-.006l.039-1.562z" fill="#eea886" fill-rule="nonzero"/><path d="M51.959 206.568s7.42-.94 9.067-1.306c.761-.17 1.764-1.12 2.717-2.239.314-.367.622-.754.915-1.136l.001-.002c1.169-1.527 2.085-2.991 2.085-2.991s3.456-3.663.683-5.296c0 0-1.189-.024-1.84.297-.67.329-2.1 3.029-2.343 3.507-.242.477-2.868 4.917-3.044 5.017-.176.099-2.796.615-3.965.835-1.692.32-4.871.917-4.871.917l.595 2.397z" fill="#323657" fill-rule="nonzero"/><path fill="#3a4066" fill-rule="nonzero" d="M70.532 213.839h2.82v1.935h-2.82z"/><path d="M75.243 211.665s.351-.012.501-.086c0 0 .262-.152.456-.25.062-.031.116-.056.153-.069.155-.056.513-.136.843-.364.331-.228 1.407-1.139 1.407-1.139l-.696-.967-.32-.958s-2.51.226-2.845.405c-.032.018-.064.036-.092.056-.267.178-.384.411-.512.518-.048.04-.485.463-.46.635.034.238.164.391.328.463 0 0 .088.465.353.672 0 0 .066.431.477.604 0 0 .122.429.407.48z" fill="#efaa88" fill-rule="nonzero"/><path d="M78.692 210.382s-1.395-1.037-2.151-2.55l4.282-2.122 1.59 2.928-3.721 1.744z" fill="#323657" fill-rule="nonzero"/><path d="M69.675 182.97s-1.009 1.692-.509 1.956c.414.218-.483 1.878-.601 2.15-.117.271.748.468.933.643.183.174.729 2.324 1.442 2.388.713.065 3.926-.946 4.801-1.769s1.593-4.541 1.009-6.109c-.583-1.568-5.294-2.216-7.075.741z" fill="#eea886" fill-rule="nonzero"/><path d="M69.474 183.337s-1.03-1.828.841-3.184 5.32 1.024 5.71 1.115c.388.091 2.595.228 1.481 3.733-.957 3.008-1.091 3.135-1.091 3.135s-.714-1.743-1.118-2.009c-.632-.415-2.017-.315-2.017-.315s.66-1.585-.371-1.81c-1.032-.224-2.392-1.015-3.435-.665z" fill="#16202e" fill-rule="nonzero"/><path d="M74.379 184.904c.091-.217.385-1.152 1.272-.604.886.549-.553 2.311-.707 2.334-.154.023-1.331.1-.565-1.73z" fill="#eea886" fill-rule="nonzero"/><path d="M72.124 190.478c0 .069-.001.139-.003.207 2.628-.797 3.136-1.998 3.136-1.998-.82.524-3.139 1.224-3.139 1.224.005.174.008.37.006.567z" fill="#a77860" fill-rule="nonzero"/></g></svg>
