<?xml version="1.0" encoding="UTF-8" standalone="no"?><!DOCTYPE svg PUBLIC "-//W3C//DTD SVG 1.1//EN" "http://www.w3.org/Graphics/SVG/1.1/DTD/svg11.dtd"><svg width="100%" height="100%" viewBox="0 0 450 150" version="1.1" xmlns="http://www.w3.org/2000/svg" xmlns:xlink="http://www.w3.org/1999/xlink" xml:space="preserve" xmlns:serif="http://www.serif.com/" style="fill-rule:evenodd;clip-rule:evenodd;stroke-linejoin:round;stroke-miterlimit:2;"><rect x="0" y="0" width="450" height="150" style="fill:#fff;"/><path id="Back" d="M451.912,252.419l0,-189.589l3.136,0l-0.157,-0.243l0.003,0l-0.346,-0.535l-0.001,-0.003l-2.242,-3.481l0.004,0l-0.322,-0.501l-0.003,0.004l-0.642,-0.999l-0.192,0l0.004,-0.007l-0.606,0l-0.004,0.007l-2.343,0l-0.001,-0.007l-0.609,0l0.003,0.007l-1.922,0l0.006,-0.007l-0.609,0l0,0.007l-2.348,0l-0.003,-0.007l-0.603,0l0.005,0.007l-1.922,0l0,-0.007l-0.606,0l-0.004,0.007l-2.342,0l-0.002,-0.007l-0.603,0l0,0.007l-1.92,0l0.004,-0.007l-0.608,0l-0.002,0.007l-2.34,0l-0.004,-0.007l-0.608,0l0.005,0.007l-1.924,0l0.003,-0.007l-0.602,0l-0.008,0.007l-2.336,0l-0.002,-0.007l-0.608,0l0.004,0.007l-1.845,0l0,-22.462l0,-1.727l0.468,0.289l0.005,0l1.644,1.008l0.031,-0.078l0.233,-0.529l-0.004,-0.004l1.104,-2.583l-0.189,-0.122l0.007,0.002l-0.873,-0.557l0.002,0.004l-1.982,-1.269l-0.218,-0.137l-0.944,-0.607l-0.424,-0.269l-4.521,-2.888l-0.218,-0.144l-0.653,-0.415l-0.21,-0.136l-2.908,-1.858l-0.359,-0.23l-1.268,-0.812l-0.333,-0.21l-4.359,-2.788l-0.257,-0.167l-1.183,-0.754l-0.847,-0.539l0,-0.003l-0.001,0.003l-0.005,-0.009l-0.008,0.021l-1.021,0.654l-0.26,0.165l0,0.002l-0.992,0.635l-0.267,0.168l0.003,0l-4.478,2.863l-0.06,0.037l-4.337,2.771l-0.317,0.203l-0.659,0.42l-0.02,0.016l-5.096,3.253l-0.047,0.032l0.001,0l-3.218,2.057l0.005,-0.004l-0.406,0.258l-0.557,0.358l0.517,1.209l0.005,0.017l0.565,1.324l0.226,0.536l0.05,0.11l1.818,-1.11l0.282,-0.174l0,-0.002l0.014,-0.01l0,24.182l-1.875,0l0.002,-0.007l-0.61,0l-0.002,0.007l-2.336,0l-0.002,-0.007l-0.609,0l0.004,0.007l-1.921,0l0.008,-0.007l-0.61,0l-0.004,0.007l-2.338,0l-0.003,-0.007l-0.602,0l0,0.007l-1.919,0l0.002,-0.007l-0.608,0l-0.005,0.007l-2.334,0l-0.007,-0.007l-0.603,0l0.003,0.007l-1.919,0l0,-0.007l-0.602,0l-0.004,0.007l-2.339,0l-0.005,-0.007l-0.603,0l0.004,0.007l-1.921,0l0.007,-0.007l-0.614,0l-0.004,0.007l-2.333,0l-0.005,-0.007l-0.608,0l0.005,0.007l-0.178,0l-0.601,0.939l0,-12.889l0,-1.49l2.86,1.123l1.839,-2.765l-29.351,-12.007l-0.001,0l-0.01,-0.006l-0.009,0.02l-10.25,4.189l0,-3.983l0,-0.876l0.741,0l0,-2.417l-11.816,0l0,2.417l0.743,0l0,9.085l-8.757,3.583l1.837,2.76l2.862,-1.121l0,12.629l-11.759,0l0,2.731l0.845,0l0,2.038l-9.961,-8.391l-0.015,-0.021l-0.006,0.006l-0.004,0l-20.889,17.605l0,-15.703l0,-1.685l4.256,0l-0.468,-0.747l0,-0.002l-0.161,-0.261l-0.004,0.005l-0.299,-0.484l-0.178,-0.279l-0.332,-0.531l0,-0.003l-0.167,-0.262l-0.662,-1.057l0.005,0.004l-0.819,-1.306l-0.379,-0.596l-0.783,0l0,-0.004l-0.378,0l0,0.004l-1.26,0l0,-0.004l-0.376,0l0,0.004l-1.404,0l0.004,-0.004l-0.378,0l-0.003,0.004l-1.258,0l0,-0.004l-0.382,0l0.003,0.004l-1.404,0l0,-0.004l-0.378,0l0,0.004l-1.263,0l0,-0.004l-0.376,0l0.003,0.004l-1.405,0l0,-0.004l-0.374,0l-0.006,0.004l-1.26,0l0,-0.004l-0.377,0l0,0.004l-1.405,0l0.002,-0.004l-0.375,0l-0.002,0.004l-1.261,0l-0.001,-0.004l-0.378,0l0,0.004l-1.401,0l0,-0.004l-0.381,0l0,0.004l-1.258,0l0,-0.004l-0.375,0l0,0.004l-1.406,0l0,-0.004l-0.375,0l0,0.004l-1.263,0l0,-0.004l-0.376,0l0,0.004l-1.407,0l0.005,-0.004l-0.378,0l0,0.004l-1.263,0l0,-0.004l-0.375,0l0,0.004l-1.404,0l0,-0.004l-0.376,0l-0.006,0.004l-1.256,0l-0.002,-0.004l-0.377,0l0,0.004l-0.439,0l0,-3.445l0,-0.966l0.635,0l0,-0.391l0,-0.888l0,-0.404l0,-0.886l0,-0.213l-0.288,0l-0.445,0l-0.502,0l-1.967,0l-0.503,0l-0.444,0l-0.504,0l-1.969,0l-0.501,0l-0.446,0l-0.508,0l-1.964,0l-0.506,0l-0.441,0l-0.51,0l-1.466,0l0,2.782l0.634,0l0,4.411l-1.157,0l0,-0.004l-0.375,0l0,0.004l-0.85,0l-0.626,0.995l-0.594,0.959l-0.619,0.975l0,-0.002l-0.161,0.267l-0.319,0.501l-0.177,0.284l0.001,0.003l-0.313,0.498l0,-0.001l-0.163,0.261l0,0.003l-0.487,0.776l4.253,0l0,19.063l-1.999,0l-0.001,-0.004l-0.609,0l0.004,0.004l-1.923,0l0.003,-0.004l-0.603,0l-0.004,0.004l-2.343,0l-0.001,-0.004l-0.604,0l0.006,0.004l-1.924,0l0.004,-0.004l-0.606,0l-0.003,0.004l-2.335,0l-0.004,-0.004l-0.61,0l0.004,0.004l-1.92,0l0.004,-0.004l-0.606,0l-0.004,0.004l-2.339,0l-0.002,-0.004l-0.607,0l0.001,0.004l-1.916,0l0.004,-0.004l-0.608,0l-0.005,0.004l-2.336,0l-0.003,-0.004l-0.606,0l0.002,0.004l-1.879,0l0,-22.459l0,-1.721l0.017,0.007l0.298,0.184l1.801,1.104l0.101,-0.234l0.176,-0.41l0,-0.004l0.46,-1.081l0.114,-0.259l0,-0.002l0.514,-1.203l-0.235,-0.15l0.007,0.003l-0.736,-0.473l0.007,0.004l-2.071,-1.32l0,-0.004l-0.453,-0.284l-0.695,-0.445l-0.272,-0.175l-17.277,-11.048l-0.012,-0.021l-0.005,0.009l-0.003,0l-0.844,0.538l-0.418,0.272l-0.758,0.487l-0.005,0l-0.488,0.314l-1.341,0.858l0,-0.003l-0.964,0.618l-1.823,1.165l-0.417,0.263l0.002,0l-1.187,0.761l-0.002,0l-1.097,0.702l-1.893,1.21l-0.485,0.31l-0.651,0.414l-0.42,0.271l-5.618,3.591l-0.287,0.184l0,0.001l-1.989,1.269l0.004,-0.003l-0.871,0.559l0.002,-0.003l-0.181,0.117l0.596,1.405l0.125,0.301l0.638,1.49l2.119,-1.295l0,24.186l-1.845,0l0.007,-0.004l-0.608,0l-0.004,0.004l-2.338,0l-0.009,-0.004l-0.6,0l0.001,0.004l-1.922,0l0.005,-0.004l-0.608,0l-0.004,0.004l-2.338,0l0,-0.004l-0.612,0l0.004,0.004l-1.923,0l0.005,-0.004l-0.604,0l-0.004,0.004l-2.342,0l0,-0.004l-0.608,0l0.002,0.004l-1.922,0l0.003,-0.004l-0.607,0l-0.005,0.004l-2.341,0l-0.001,-0.004l-0.608,0l0.002,0.004l-1.921,0l0.004,-0.004l-0.606,0l-0.005,0.004l-2.34,0l-0.006,-0.004l-0.603,0l0.003,0.004l-0.192,0l-0.578,0.897l0,-3.438l0,-1.691l4.258,0l-0.49,-0.775l-0.163,-0.264l-0.311,-0.492l0,-0.005l-0.179,-0.283l-0.321,-0.502l0.006,-0.002l-0.165,-0.262l-0.617,-0.982l-0.799,-1.272l-0.424,-0.675l-0.848,0l-0.379,0l-1.152,0l0,-3.45l0,-0.966l0.631,0l0,-0.435l0,-0.4l0,-0.893l0,-0.403l0,-0.65l-1.468,0l-0.506,0l-0.445,0l-0.505,0l-1.963,0l-0.504,0l-0.446,0l-0.509,0l-1.964,0l-0.506,0l-0.441,0l-0.504,0l-1.965,0l-0.504,0l-0.446,0l-0.285,0l0,2.781l0.632,0l0,4.416l-0.44,0l-0.375,0l-1.26,0l-0.003,0l-0.378,0l0.002,0l-1.404,0l-0.378,0l-1.26,0l-0.002,0l-0.375,0l-1.402,0l-0.376,0l-1.265,0l-0.373,0l-1.407,0l-0.374,0l-1.262,0l-0.375,0l-1.404,0l-0.377,0l-0.002,0l-1.262,0l-0.379,0l0.006,0l-1.409,0l-0.374,0l-1.262,0l-0.003,0l-0.378,0l-1.403,0l-0.372,0l-0.003,0l-1.262,0l-0.377,0l-1.404,0l-0.376,0l-0.002,0l-1.257,0l-0.004,0l-0.375,0l-1.407,0l-0.371,0l-0.004,0l-1.262,0l-0.359,0l0,-2.2l0,-1.488l2.858,1.121l1.837,-2.762l-8.748,-3.579l0,-8.215l0,-0.874l0.737,0l0,-2.415l-11.814,0l0,2.415l0.743,0l0,4.86l-10.253,-4.193l-0.013,-0.02l-0.005,0.007l-0.003,0l-29.351,12.01l1.843,2.763l2.858,-1.124l0,26.418l-20.671,-17.421l-0.004,-0.004l0,0.004l-0.005,-0.01l-0.016,0.023l-9.96,8.393l0,-1.049l0,-0.989l0.843,0l0,-2.733l-13.368,0l0,2.733l0.842,0l0,11.886l-4.556,3.844l2.079,3.12l3.233,-2.772l0,162.484l451.767,0.026Z" style="fill:url(#_Linear1);"/><text x="31.618px" y="130.827px" style="font-family:'HelveticaNeue', 'Helvetica Neue';font-size:48px;fill:#fff;">Letting Application</text><text id="Logo" x="3.412px" y="33.305px" style="font-family:'Data70Plain', 'Data 70';font-weight:500;font-size:36px;fill:#56bbd5;">BCS</text><rect x="276.212" y="14.621" width="120.763" height="120.763" style="fill:none;"/><defs><linearGradient id="_Linear1" x1="0" y1="0" x2="1" y2="0" gradientUnits="userSpaceOnUse" gradientTransform="matrix(-1.0287e-05,-235.339,235.339,-1.0287e-05,224.941,252.419)"><stop offset="0" style="stop-color:#007c96;stop-opacity:1"/><stop offset="0.2" style="stop-color:#00809b;stop-opacity:1"/><stop offset="0.7" style="stop-color:#60c0da;stop-opacity:1"/><stop offset="1" style="stop-color:#78d0e9;stop-opacity:1"/></linearGradient></defs></svg>