<svg viewBox="0 0 130 47" xmlns="http://www.w3.org/2000/svg" fill-rule="evenodd" clip-rule="evenodd" stroke-linejoin="round" stroke-miterlimit="2"><path d="M129.169 42.268L1.085 46.651 0 10.689 128.375 0l.794 42.268z" fill="#3eb650" fill-rule="nonzero"/><path d="M114.981 16.034c2.304.07 4.083 3.177 3.969 6.934-.113 3.757-2.077 6.751-4.382 6.681-2.304-.069-4.083-3.177-3.969-6.934.114-3.757 2.077-6.751 4.382-6.681zM97.981 16.518c2.304.069 4.083 3.177 3.969 6.934-.113 3.757-2.077 6.751-4.382 6.681-2.304-.07-4.083-3.177-3.969-6.934.114-3.757 2.077-6.751 4.382-6.681zM77.571 17.034c2.304.07 4.083 3.177 3.969 6.934-.114 3.757-2.077 6.751-4.382 6.681-2.305-.069-4.083-3.177-3.97-6.934.114-3.757 2.078-6.751 4.383-6.681zM56.237 18.053c2.306.017 4.155 3.083 4.127 6.842-.028 3.759-1.923 6.797-4.228 6.779-2.306-.017-4.155-3.082-4.127-6.841.028-3.759 1.922-6.797 4.228-6.78z" fill="#f8fafb" fill-opacity=".97"/><path d="M25.329 13.493l18.927 10.634-16.849 13.691L8.48 27.184l16.849-13.691z" fill="#f5f4e5"/></svg>
