<?xml version="1.0" encoding="UTF-8" standalone="no"?>
<!DOCTYPE svg PUBLIC "-//W3C//DTD SVG 1.1//EN" "http://www.w3.org/Graphics/SVG/1.1/DTD/svg11.dtd">
<svg width="100%" height="100%" viewBox="0 0 158 232" version="1.1" xmlns="http://www.w3.org/2000/svg" xmlns:xlink="http://www.w3.org/1999/xlink" xml:space="preserve" xmlns:serif="http://www.serif.com/" style="fill-rule:evenodd;clip-rule:evenodd;stroke-linejoin:round;stroke-miterlimit:2;">
    <g transform="matrix(1,0,0,1,-374.277,-4254.23)">
        <g id="flash-mesage-ballon" transform="matrix(0.238089,0,0,0.238089,239.988,3999.13)">
            <g transform="matrix(3.31804,0.916127,-0.916127,3.31804,-732.29,176.669)">
                <path d="M532.362,323.694L570.295,362.3C570.657,362.669 571.195,362.812 571.693,362.672L602.958,353.889C603.434,353.755 603.803,353.388 603.94,352.913L619.706,298.053C619.922,297.298 619.486,296.511 618.732,296.294C617.977,296.077 617.19,296.513 616.973,297.268L601.426,351.366L571.733,359.708L534.39,321.702C533.84,321.142 532.94,321.134 532.38,321.684C531.82,322.234 531.812,323.134 532.362,323.694Z" style="fill:rgb(22,81,164);fill-rule:nonzero;"/>
            </g>
            <g transform="matrix(3.31804,0.916127,-0.916127,3.31804,-732.29,176.669)">
                <path d="M588.231,356.55L576.654,315.336C576.442,314.581 575.657,314.14 574.901,314.352C574.146,314.565 573.705,315.349 573.917,316.105L585.494,357.319C585.707,358.075 586.491,358.515 587.247,358.303C588.003,358.091 588.443,357.306 588.231,356.55Z" style="fill:rgb(22,81,164);fill-rule:nonzero;"/>
            </g>
            <g transform="matrix(3.31804,0.916127,-0.916127,3.31804,-732.29,176.669)">
                <path d="M640.928,185.001C649.892,216.911 641.521,258.751 621.468,293.77C611.654,310.908 546.396,329.498 528.929,319.766C493.793,300.187 465.021,268.666 456.104,236.921C442.753,189.395 498.279,132.23 524.342,124.908C550.405,117.587 627.577,137.476 640.928,185.001Z" style="fill:rgb(106,105,100);fill-rule:nonzero;"/>
            </g>
            <g transform="matrix(3.31804,0.916127,-0.916127,3.31804,-732.29,176.669)">
                <path d="M524.342,124.908C498.279,132.23 442.752,189.395 456.104,236.921C465.021,268.666 493.793,300.187 528.929,319.766C532.395,321.696 537.747,322.509 544.169,322.442C521.528,305.995 488.601,275.639 476.289,231.814C456.772,162.335 524.342,124.908 524.342,124.908Z" style="fill:white;fill-rule:nonzero;"/>
            </g>
            <g transform="matrix(3.31804,0.916127,-0.916127,3.31804,-732.29,176.669)">
                <path d="M524.342,124.908C550.405,117.587 627.577,137.476 640.928,185.001C649.845,216.746 641.697,258.639 621.895,293.649C619.942,297.104 615.796,300.584 610.279,303.871C621.043,278.04 633.346,234.978 621.035,191.153C601.517,121.674 524.342,124.908 524.342,124.908Z" style="fill:white;fill-rule:nonzero;"/>
            </g>
            <g transform="matrix(3.31804,0.916127,-0.916127,3.31804,-732.29,176.669)">
                <path d="M558.335,321.184C569.113,319.534 580.986,316.388 591.573,312.433C590.036,161.993 524.342,124.908 524.342,124.908C524.342,124.908 481.536,201.538 558.335,321.184Z" style="fill:white;fill-rule:nonzero;"/>
            </g>
            <g transform="matrix(3.31804,0.916127,-0.916127,3.31804,-732.29,176.669)">
                <path d="M543.448,322.45L543.446,322.45L543.448,322.45ZM545.208,322.428C545.238,322.427 545.265,322.427 545.295,322.426C545.265,322.427 545.238,322.427 545.208,322.428ZM545.9,322.408C545.975,322.405 546.046,322.403 546.121,322.4C546.046,322.403 545.975,322.405 545.9,322.408ZM546.254,322.395C554.608,322.078 564.526,320.405 574.404,317.838C564.524,320.406 554.609,322.079 546.254,322.395ZM529.008,319.809C528.982,319.795 528.955,319.78 528.929,319.766C507.194,307.655 487.894,290.973 474.223,272.496C487.894,290.973 507.194,307.655 528.929,319.766C528.955,319.78 528.982,319.795 529.008,319.809Z" style="fill:rgb(249,196,214);fill-rule:nonzero;"/>
            </g>
            <g transform="matrix(3.31804,0.916127,-0.916127,3.31804,-732.29,176.669)">
                <path d="M577.15,317.101C589.61,313.651 601.771,308.841 610.389,303.606C601.771,308.841 589.61,313.651 577.15,317.101Z" style="fill:rgb(249,196,214);fill-rule:nonzero;"/>
            </g>
            <g transform="matrix(3.31804,0.916127,-0.916127,3.31804,-732.29,176.669)">
                <path d="M574.404,317.838C575.32,317.6 576.236,317.354 577.15,317.101C576.236,317.354 575.32,317.6 574.404,317.838Z" style="fill:rgb(90,71,157);fill-rule:nonzero;"/>
            </g>
            <g transform="matrix(3.31804,0.916127,-0.916127,3.31804,-732.29,176.669)">
                <path d="M543.448,322.45L543.446,322.45C537.39,322.45 532.344,321.638 529.008,319.809C528.982,319.795 528.955,319.78 528.929,319.766C532.265,321.624 537.347,322.446 543.449,322.446C543.688,322.446 543.927,322.445 544.169,322.442C527.194,310.111 504.435,289.958 488.919,262.175C491.722,259.968 494.426,257.654 497.013,255.253C502.874,256.438 509.096,257.022 515.597,257.022C518.968,257.022 522.412,256.865 525.92,256.552C533.003,276.308 543.41,297.932 558.335,321.184C569.113,319.534 580.986,316.388 591.573,312.433C591.282,284.005 588.702,259.63 584.706,238.783C601.82,229.729 615.678,218.015 624.071,204.58C630.814,243.47 620.022,280.405 610.389,303.606C601.771,308.841 589.61,313.651 577.15,317.101C576.236,317.354 575.32,317.6 574.404,317.838C564.526,320.405 554.608,322.078 546.254,322.395C546.211,322.397 546.164,322.399 546.121,322.4C546.046,322.403 545.975,322.405 545.9,322.408C545.698,322.415 545.494,322.421 545.295,322.426C545.265,322.427 545.238,322.427 545.208,322.428C544.613,322.443 544.025,322.45 543.448,322.45Z" style="fill:rgb(106,105,100);fill-rule:nonzero;"/>
            </g>
            <g transform="matrix(3.31804,0.916127,-0.916127,3.31804,-732.29,176.669)">
                <path d="M543.449,322.446C537.347,322.446 532.265,321.624 528.929,319.766C507.194,307.655 487.894,290.973 474.223,272.496C474.438,272.265 474.527,271.961 474.492,271.669C475.49,271.337 476.373,270.939 477.123,270.471C481.207,267.921 485.152,265.143 488.919,262.175C504.435,289.958 527.194,310.111 544.169,322.442C543.927,322.445 543.688,322.446 543.449,322.446Z" style="fill:rgb(237,237,237);fill-rule:nonzero;"/>
            </g>
            <g transform="matrix(3.31804,0.916127,-0.916127,3.31804,-732.29,176.669)">
                <path d="M610.389,303.606C620.022,280.405 630.814,243.47 624.071,204.58C631.193,193.181 634.382,180.543 632.289,167.244C636.112,172.617 639.075,178.482 640.885,184.848C640.885,184.851 640.885,184.85 640.886,184.853C640.892,184.875 640.898,184.897 640.905,184.919C640.905,184.922 640.907,184.926 640.908,184.929C640.914,184.953 640.921,184.977 640.928,185.001C640.945,185.061 640.961,185.12 640.978,185.181C640.979,185.183 640.979,185.185 640.98,185.187C641.031,185.372 641.083,185.559 641.133,185.744L641.134,185.747C641.15,185.807 641.166,185.866 641.182,185.927C641.183,185.929 641.184,185.932 641.184,185.934C641.192,185.964 641.201,185.995 641.208,186.024L641.209,186.028C641.216,186.053 641.222,186.076 641.229,186.101C641.23,186.107 641.233,186.117 641.235,186.123C641.24,186.144 641.246,186.164 641.251,186.186C641.254,186.196 641.257,186.207 641.26,186.217C641.265,186.239 641.27,186.257 641.276,186.278C641.279,186.288 641.282,186.301 641.285,186.311C641.29,186.332 641.295,186.349 641.3,186.371C641.303,186.383 641.306,186.393 641.309,186.405C641.315,186.425 641.319,186.441 641.324,186.46C641.327,186.472 641.331,186.488 641.334,186.5C641.338,186.515 641.343,186.534 641.347,186.55C641.351,186.564 641.355,186.581 641.359,186.594C641.362,186.608 641.367,186.625 641.37,186.639C641.374,186.654 641.379,186.673 641.383,186.689C641.386,186.701 641.39,186.714 641.393,186.725C641.398,186.747 641.403,186.763 641.408,186.785C641.411,186.795 641.413,186.802 641.415,186.812C641.421,186.836 641.426,186.855 641.432,186.879C641.435,186.889 641.437,186.897 641.439,186.906C641.446,186.93 641.451,186.951 641.457,186.974C641.459,186.982 641.46,186.986 641.462,186.994C641.468,187.019 641.475,187.045 641.481,187.07C641.482,187.072 641.483,187.076 641.483,187.078C649.526,218.711 641.089,259.505 621.468,293.77C619.58,297.066 615.643,300.415 610.389,303.606Z" style="fill:rgb(216,216,216);fill-rule:nonzero;"/>
            </g>
            <g transform="matrix(3.31804,0.916127,-0.916127,3.31804,-732.29,176.669)">
                <path d="M558.335,321.184C543.41,297.932 533.003,276.308 525.92,256.552C536.23,255.634 547.09,253.377 558.188,249.834C567.61,246.826 576.529,243.108 584.706,238.783C588.702,259.63 591.282,284.005 591.573,312.433C580.986,316.388 569.113,319.534 558.335,321.184Z" style="fill:rgb(233,233,233);fill-rule:nonzero;"/>
            </g>
            <g transform="matrix(3.3022,0.971663,-1.02857,3.4956,-690.305,95.6041)">
                <path d="M518.922,313.756C518.922,313.756 542.988,314.351 572.566,306.041C602.145,297.732 629.153,279.378 629.153,279.378L619.86,306.148C619.86,306.148 599.449,320.554 578.311,326.491C557.173,332.43 536.843,328.423 536.843,328.423L518.922,313.756Z" style="fill:rgb(73,73,73);fill-rule:nonzero;"/>
            </g>
            <g id="message" transform="matrix(1.56227,-0.0777675,0.0946042,1.9005,565.413,851.491)">
                <g transform="matrix(1.9587,0.468475,-0.615209,1.34338,-747.732,-209.468)">
                    <path d="M519.157,316.595C519.157,316.595 542.051,314.081 572.121,304.744C599.892,296.121 622.261,283.129 622.261,283.129L617.019,303.381C617.019,303.381 599.084,319.453 578.311,326.491C568.56,329.795 558.909,331.467 550.457,331.509C539.419,331.564 531.46,329.942 532.141,329.104L519.157,316.595Z" style="fill:rgb(62,182,80);fill-rule:nonzero;"/>
                </g>
                <g transform="matrix(1.67379,-0.958953,1.17991,0.834549,-1618.85,777.47)">
                    <path d="M730.811,473.38L742.832,486.804L730.811,500.228L718.789,486.804L730.811,473.38Z" style="fill:white;"/>
                </g>
            </g>
            <g id="basket">
                <g transform="matrix(3.68393,1.08459,-1.13727,3.86288,-863.521,-118.997)">
                    <path d="M616.421,386.925L578.936,397.455L565.157,365.037L609.614,352.549L616.421,386.925Z" style="fill:rgb(106,105,100);fill-rule:nonzero;"/>
                </g>
                <g id="message1" serif:id="message" transform="matrix(1.7857,0.0405991,-0.0608912,2.67822,-5.22072,615.603)">
                    <g transform="matrix(5.46139,-5.51564e-17,7.71811e-17,3.60857,-2212.33,-592.32)">
                        <rect x="500.149" y="297.918" width="6.889" height="6.889" style="fill:rgb(252,193,51);fill-rule:nonzero;"/>
                    </g>
                    <g transform="matrix(1.39438,1.41125e-17,4.84698e-17,0.9297,0.417985,199.382)">
                        <circle cx="386.776" cy="318.03" r="8.453" style="fill:rgb(248,250,251);fill-opacity:0.97;"/>
                    </g>
                    <g transform="matrix(1.77326,1.35068,-1.21071,1.5897,-226.381,-500.123)">
                        <path d="M521.539,169.941L527.634,174.06L532.699,170.195L531.052,176.324L536.762,179.902L529.956,180.276L528.275,186.649L525.859,180.453L520.167,181.138L524.424,176.612L521.539,169.941Z" style="fill:white;fill-rule:nonzero;stroke:rgb(16,12,0);stroke-width:0.75px;"/>
                    </g>
                </g>
                <g transform="matrix(3.52707,0.973842,-0.916127,3.31804,-853.93,144.243)">
                    <path d="M613.027,355.969L565.713,369.26C564.545,369.589 563.332,368.907 563.003,367.738L561.912,363.853C561.583,362.685 562.265,361.471 563.433,361.143L610.747,347.852C611.916,347.523 613.129,348.204 613.458,349.373L614.549,353.259C614.877,354.428 614.196,355.641 613.027,355.969Z" style="fill:rgb(73,73,73);fill-rule:nonzero;"/>
                </g>
                <g transform="matrix(3.70424,1.02276,-0.916127,3.31804,-958.549,115.357)">
                    <path d="M617.089,391.116L578.858,401.856C577.69,402.185 576.477,401.503 576.148,400.335L575.057,396.449C574.729,395.28 575.41,394.066 576.578,393.738L614.809,382.999C615.977,382.671 617.191,383.352 617.519,384.521L618.611,388.406C618.939,389.575 618.258,390.788 617.089,391.116Z" style="fill:rgb(73,73,73);fill-rule:nonzero;"/>
                </g>
            </g>
            <g transform="matrix(3.31804,0.916127,-0.916127,3.31804,-732.29,176.669)">
                <path d="M526.33,210.064C526.331,210.059 526.331,210.057 526.332,210.053C526.332,210.055 526.33,210.061 526.33,210.064Z" style="fill:rgb(216,178,62);fill-rule:nonzero;"/>
            </g>
            <g transform="matrix(3.31804,0.916127,-0.916127,3.31804,-732.29,176.669)">
                <path d="M526.346,210.001C526.348,209.995 526.35,209.988 526.351,209.983C526.349,209.99 526.348,209.994 526.346,210.001Z" style="fill:rgb(216,178,62);fill-rule:nonzero;"/>
            </g>
            <g transform="matrix(3.31804,0.916127,-0.916127,3.31804,-732.29,176.669)">
                <path d="M526.361,209.944C526.364,209.933 526.367,209.923 526.37,209.911C526.367,209.921 526.364,209.934 526.361,209.944Z" style="fill:rgb(216,178,62);fill-rule:nonzero;"/>
            </g>
            <g transform="matrix(3.31804,0.916127,-0.916127,3.31804,-732.29,176.669)">
                <path d="M526.377,209.884C526.381,209.87 526.384,209.856 526.388,209.842C526.384,209.856 526.381,209.87 526.377,209.884Z" style="fill:rgb(216,178,62);fill-rule:nonzero;"/>
            </g>
            <g transform="matrix(3.31804,0.916127,-0.916127,3.31804,-732.29,176.669)">
                <path d="M526.393,209.822C526.398,209.806 526.402,209.789 526.406,209.773C526.402,209.79 526.398,209.804 526.393,209.822Z" style="fill:rgb(216,178,62);fill-rule:nonzero;"/>
            </g>
            <g transform="matrix(3.31804,0.916127,-0.916127,3.31804,-732.29,176.669)">
                <path d="M526.411,209.756C526.415,209.738 526.42,209.722 526.424,209.703C526.42,209.72 526.415,209.739 526.411,209.756Z" style="fill:rgb(216,178,62);fill-rule:nonzero;"/>
            </g>
            <g transform="matrix(3.31804,0.916127,-0.916127,3.31804,-732.29,176.669)">
                <path d="M526.426,209.696C526.432,209.676 526.437,209.654 526.442,209.634C526.437,209.654 526.432,209.676 526.426,209.696Z" style="fill:rgb(216,178,62);fill-rule:nonzero;"/>
            </g>
            <g transform="matrix(3.31804,0.916127,-0.916127,3.31804,-732.29,176.669)">
                <path d="M526.443,209.631C526.596,209.04 526.74,208.448 526.875,207.857C526.74,208.448 526.596,209.04 526.443,209.631Z" style="fill:rgb(216,178,62);fill-rule:nonzero;"/>
            </g>
            <g transform="matrix(3.31804,0.916127,-0.916127,3.31804,-732.29,176.669)">
                <path d="M526.887,207.804C526.888,207.798 526.89,207.792 526.891,207.786C526.89,207.792 526.888,207.798 526.887,207.804ZM526.899,207.751C526.9,207.744 526.902,207.738 526.903,207.731C526.902,207.738 526.901,207.744 526.899,207.751ZM526.911,207.696C526.913,207.689 526.913,207.688 526.915,207.682C526.914,207.686 526.912,207.691 526.911,207.696ZM526.924,207.64C526.925,207.636 526.925,207.633 526.926,207.629C526.925,207.633 526.925,207.636 526.924,207.64ZM526.936,207.583C526.937,207.58 526.937,207.581 526.937,207.579C526.937,207.58 526.937,207.581 526.936,207.583Z" style="fill:rgb(241,197,190);fill-rule:nonzero;"/>
            </g>
        </g>
    </g>
</svg>
