<svg viewBox="0 0 158 232" xmlns="http://www.w3.org/2000/svg" fill-rule="evenodd" clip-rule="evenodd" stroke-linejoin="round" stroke-miterlimit="2"><path d="M41.317 158.796l21.546 38.773c.205.37.599.6 1.023.598l26.615-.119c.405-.002.777-.211.988-.556l24.421-39.9a1.166 1.166 0 00-1.987-1.217L89.84 195.721l-25.277.114-21.21-38.17a1.165 1.165 0 00-2.037 1.131z" fill="#1651a4" fill-rule="nonzero"/><path d="M78.286 196.938l-.156-35.084a1.166 1.166 0 00-2.33.011l.156 35.084a1.165 1.165 0 002.33-.01z" fill="#1651a4" fill-rule="nonzero"/><path d="M157.334 72.91c.122 27.164-15.617 58.392-39.097 81.682-11.492 11.399-67.1 11.85-78.775.352C15.975 131.814.12 100.636 0 73.614-.18 33.155 56.154.107 78.34.007c22.186-.098 78.812 32.446 78.993 72.903z" fill="#6a6964" fill-rule="nonzero"/><path d="M78.34.008C56.154.108-.18 33.156 0 73.613c.12 27.023 15.975 58.2 39.462 81.331 2.317 2.281 6.367 4.09 11.455 5.439-14.298-17.932-33.69-49.095-33.856-86.402C16.797 14.837 78.34.008 78.34.008zM78.34.008c22.187-.098 78.813 32.446 78.994 72.903.12 27.023-15.454 58.34-38.734 81.679-2.296 2.303-6.33 4.148-11.406 5.542 14.138-18.059 33.25-49.394 33.083-86.7C140.013 14.287 78.34.008 78.34.008z" fill="#fff" fill-rule="nonzero"/><path d="M62.383 162.479c8.874 1.047 18.94 1.151 28.166.336C122.15 43.635 78.34.008 78.34.008s-50.53 51.2-15.957 162.47z" fill="#fff" fill-rule="nonzero"/><path d="M50.346 160.232h-.002.002zm1.395.366c.024.006.045.012.07.017-.025-.005-.046-.011-.07-.017zm.551.135l.176.042-.176-.042zm.283.067c6.668 1.572 14.868 2.414 23.232 2.54-8.365-.126-16.563-.967-23.232-2.54zm-13.06-5.804l-.053-.052c-14.53-14.308-26.137-31.696-32.907-49.275 6.77 17.579 18.378 34.967 32.907 49.275l.053.052zM78.137 163.357c10.596-.008 21.252-1.155 29.202-3.41-7.95 2.255-18.606 3.402-29.202 3.41z" fill="#f9c4d6" fill-rule="nonzero"/><path d="M75.807 163.34z" fill="#5a479d" fill-rule="nonzero"/><path d="M50.346 160.232h-.002c-4.784-1.322-8.593-3.064-10.83-5.236l-.052-.052c2.23 2.196 6.065 3.954 10.886 5.285.188.052.377.103.57.154-10.721-13.444-24.305-34.33-30.502-59.662a107.7 107.7 0 007.904-3.703c4.371 2.215 9.16 4.033 14.295 5.451a95.23 95.23 0 008.258 1.88c1.286 17.153 4.79 36.505 11.51 58.13 8.874 1.047 18.94 1.151 28.166.336 5.97-22.521 9.25-42.34 10.64-59.68 15.494-3.42 28.997-9.651 38.558-18.434-3.156 32.194-19.738 59.018-32.408 75.245-7.95 2.256-18.606 3.403-29.202 3.411-.777 0-1.555-.005-2.33-.017-8.364-.126-16.564-.968-23.232-2.54a4.843 4.843 0 01-.107-.025l-.176-.042a52.4 52.4 0 01-.482-.118l-.069-.017c-.473-.118-.94-.24-1.395-.366z" fill="#6a6964" fill-rule="nonzero"/><path d="M50.348 160.229c-4.82-1.331-8.656-3.09-10.886-5.285-14.53-14.308-26.137-31.696-32.907-49.275a.844.844 0 00.393-.594c.86-.045 1.645-.167 2.34-.373a108.448 108.448 0 0011.128-3.98c6.197 25.332 19.78 46.217 30.501 59.66-.192-.05-.38-.101-.57-.153z" fill="#ededed" fill-rule="nonzero"/><path d="M107.339 159.946c12.67-16.227 29.252-43.051 32.408-75.245 8.113-7.452 13.389-16.74 14.636-27.702 1.848 5.078 2.91 10.358 2.95 15.781v.005l.001.056v.863c-.001.025 0 .052-.002.076v.164a.89.89 0 00-.001.051v.028c-.001.018 0 .033-.002.051v.109l-.001.043v.037l-.002.038V74.374c-.001.019 0 .032-.002.05a.22.22 0 010 .024l-.001.056v.023l-.001.058v.017l-.002.064a.02.02 0 010 .007c-.546 26.744-16.11 57.13-39.083 79.92-2.21 2.191-6.052 3.978-10.898 5.353z" fill="#d8d8d8" fill-rule="nonzero"/><path d="M62.383 162.479c-6.72-21.625-10.224-40.977-11.51-58.13 8.345 1.524 17.416 2.11 26.956 1.732 8.1-.321 15.957-1.313 23.36-2.946-1.39 17.34-4.67 37.159-10.64 59.68-9.226.815-19.292.711-28.166-.336z" fill="#e9e9e9" fill-rule="nonzero"/><path d="M32.506 148.839s18.776 6.062 44.066 5.989c25.29-.073 51.019-9.1 51.019-9.1l-13.862 20.13s-19.576 7.268-37.649 7.319c-18.073.052-33.076-7.986-33.076-7.986L32.506 148.84z" fill="#494949" fill-rule="nonzero"/><path d="M38.332 153.969s17.42 2.466 41.499 1.968c22.238-.46 41.351-4.575 41.351-4.575l-7.896 11.62s-16.447 6.801-33.198 7.51c-7.863.332-15.329-.329-21.584-1.788-8.17-1.905-13.73-4.308-13.06-4.707l-7.112-10.028z" fill="#3eb650" fill-rule="nonzero"/><path d="M71.554 158.06l13.368-.813-1.08 10.365-13.369.813 1.081-10.365z" fill="#fff"/><path d="M96.013 231.604l-35.73.005-3.307-33.373 42.374-.005-3.337 33.373z" fill="#6a6964" fill-rule="nonzero"/><path fill="#fcc133" fill-rule="nonzero" d="M78.201 204.307l15.996.364-.36 15.851-15.996-.363z"/><circle cx="386.776" cy="318.03" r="8.453" fill="#f8fafb" fill-opacity=".97" transform="matrix(.59283 .01348 -.01348 .59283 -138.245 18.61)"/><path d="M521.539 169.941l6.095 4.119 5.065-3.865-1.647 6.129 5.71 3.578-6.806.374-1.681 6.373-2.416-6.196-5.692.685 4.257-4.526-2.885-6.671z" fill="#fff" fill-rule="nonzero" stroke="#100c00" stroke-width=".75" transform="matrix(.73433 .8784 -.53779 1.00198 -224.529 -429.626)"/><path d="M99.55 202.591l-42.632-.47c-1.053-.011-1.922-.831-1.944-1.83l-.069-3.323c-.021-.999.816-1.8 1.869-1.788l42.631.47c1.054.011 1.924.83 1.945 1.83l.068 3.323c.02 1-.816 1.8-1.869 1.788zM96.416 231.609l-36.06-.826c-1.102-.024-2.023-.858-2.059-1.861l-.114-3.336c-.035-1.003.83-1.796 1.932-1.77l36.06.825c1.102.025 2.024.859 2.058 1.862l.116 3.335c.034 1.004-.83 1.796-1.933 1.77z" fill="#494949" fill-rule="nonzero"/><path d="M61.337 67.714l.003-.008-.003.008zM61.363 67.668a.137.137 0 00.008-.013l-.008.013zM61.387 67.626c.005-.008.01-.015.014-.024l-.014.024z" fill="#d8b23e" fill-rule="nonzero"/><g><path d="M61.413 67.582l.018-.03-.018.03z" fill="#d8b23e" fill-rule="nonzero"/></g><g><path d="M61.44 67.537l.02-.036-.02.036z" fill="#d8b23e" fill-rule="nonzero"/></g><g><path d="M61.468 67.488l.022-.039-.022.04z" fill="#d8b23e" fill-rule="nonzero"/></g><g><path d="M61.493 67.444l.026-.045-.026.045z" fill="#d8b23e" fill-rule="nonzero"/></g><g><path d="M61.52 67.397z" fill="#d8b23e" fill-rule="nonzero"/></g><g><path d="M62.27 66.05l.007-.013-.008.013zm.02-.039l.008-.015a.116.116 0 01-.007.015zm.022-.04l.006-.011-.006.01zm.022-.042l.004-.008-.004.008zm.022-.043c.002-.002.002-.001.002-.003 0 .001 0 .002-.002.003z" fill="#f1c5be" fill-rule="nonzero"/></g></svg>
