<svg viewBox="0 0 478 909" xmlns="http://www.w3.org/2000/svg" fill-rule="evenodd" clip-rule="evenodd" stroke-linejoin="round" stroke-miterlimit="2"><path d="M270.243 897.292l-91.806.456-10.973-91.628 108.881-.539-6.102 91.711z" fill="#666" fill-rule="nonzero"/><path d="M273.355 866.507l-68.75-1.563.539-23.718 68.75 1.563-.539 23.718z" fill="#fcc133" fill-rule="nonzero"/><path d="M246.899 847.228c2.601.059 4.643 3.158 4.557 6.916-.085 3.758-2.266 6.761-4.866 6.702-2.601-.059-4.642-3.158-4.557-6.916.085-3.758 2.266-6.761 4.866-6.702zm14.314.325c2.6.059 4.642 3.158 4.557 6.916-.086 3.758-2.266 6.761-4.867 6.702-2.6-.059-4.642-3.158-4.557-6.916.086-3.758 2.266-6.761 4.867-6.702zm-30.255-.688c2.6.059 4.642 3.159 4.556 6.917-.085 3.758-2.266 6.761-4.866 6.701-2.6-.059-4.642-3.158-4.557-6.916.086-3.758 2.266-6.761 4.867-6.702zm-14.753-.335c2.601.059 4.643 3.158 4.557 6.916-.085 3.758-2.266 6.761-4.866 6.702-2.601-.059-4.643-3.158-4.557-6.916.085-3.758 2.266-6.761 4.866-6.702z" fill="#f8fafb" fill-opacity=".97"/><path d="M188.91 836.822l3.268 10.774 9.502.209-7.627 5.779 3.322 9.757-8.28-6.064-7.894 6.04 2.955-9.747-7.272-4.625 9.176-1.358 2.85-10.765z" fill="#fff" fill-rule="nonzero" stroke="#100c00"/><path d="M281.955 816.616l-115.878.575c-2.861.016-5.19-2.556-5.204-5.743l-.042-10.589c-.015-3.185 2.297-5.779 5.158-5.793l115.878-.575c2.864-.016 5.193 2.554 5.207 5.74l.041 10.592c.012 3.187-2.297 5.779-5.16 5.793zm-12.824 91.744l-93.633.466c-2.861.017-5.19-2.556-5.205-5.74l-.041-10.592c-.011-3.186 2.298-5.782 5.159-5.795l93.632-.464c2.861-.014 5.193 2.557 5.204 5.743l.044 10.59c.012 3.186-2.297 5.779-5.16 5.792z" fill="#494949" fill-rule="nonzero"/><g fill="#494949" fill-rule="nonzero"><path d="M118.87 678.634l61.989 124.151c.591 1.186 1.724 1.924 2.944 1.917l76.573-.38c1.166-.007 2.234-.678 2.844-1.783l70.261-127.762c.965-1.759.468-4.055-1.11-5.13-1.58-1.076-3.642-.523-4.609 1.235l-69.285 125.987-72.723.364-61.024-122.222c-.899-1.8-2.94-2.449-4.558-1.449-1.617 1-2.2 3.271-1.302 5.072z"/><path d="M225.233 800.767l-.449-112.34c-.008-2.058-1.515-3.722-3.367-3.714-1.849.012-3.344 1.687-3.336 3.747l.449 112.341c.01 2.061 1.516 3.721 3.367 3.713 1.851-.008 3.344-1.687 3.336-3.747z"/></g><path d="M452.66 403.624c.349 86.98-44.933 186.971-112.487 261.549-33.06 36.498-193.048 37.945-226.64 1.127C45.96 592.233.347 492.403.001 405.873c-.52-129.546 161.556-235.369 225.388-235.688 63.832-.315 226.751 103.895 227.271 233.439z" fill="#6a6964" fill-rule="nonzero"/><path d="M225.389 170.185C161.557 170.504-.521 276.326.001 405.873c.346 86.53 45.959 186.36 113.532 260.427 6.666 7.303 18.32 13.098 32.958 17.413-41.138-57.417-96.926-157.203-97.407-276.661-.758-189.385 176.305-236.867 176.305-236.867zm0 0c63.832-.315 226.751 103.895 227.271 233.439.346 86.529-44.463 186.811-111.44 261.541-6.607 7.376-18.214 13.283-32.816 17.745 40.675-57.824 95.661-158.161 95.182-277.618-.76-189.386-178.197-235.107-178.197-235.107z" fill="#fff" fill-rule="nonzero"/><path d="M179.478 690.425c25.532 3.354 54.492 3.688 81.037 1.078 90.914-381.625-35.126-521.318-35.126-521.318s-145.38 163.946-45.911 520.24z" fill="#fff" fill-rule="nonzero" stroke="#fff"/><path d="M144.852 683.221c-13.869-4.262-24.903-9.891-31.319-16.921-41.801-45.816-75.198-101.495-94.675-157.782.634-.434 1.027-1.141 1.13-1.904 2.477-.143 4.734-.533 6.732-1.193a291.82 291.82 0 0 0 32.017-12.747c17.83 81.117 56.911 147.991 87.754 191.039-.552-.161-1.095-.325-1.639-.492z" fill="#ededed" fill-rule="nonzero"/><path d="M308.82 682.316c36.454-51.961 84.161-137.854 93.24-240.939 23.341-23.861 38.52-53.602 42.109-88.705 5.317 16.262 8.371 33.167 8.49 50.535-.002.007-.001.005-.001.013 0 .06 0 .12.002.18-.002.008 0 .019 0 .028v.196c.002.163.001.324.001.49l.001.016c0 .504.001 1.013-.002 1.516v.009l-.003.488a.067.067 0 0 1 0 .02c-.001.081 0 .166-.002.244v.011l-.001.198a.6.6 0 0 0 0 .06l-.003.171.001.085c-.002.059-.002.108-.002.165v.09c-.002.056-.001.103-.004.162l-.001.092v.15a3.89 3.89 0 0 0-.002.108l-.002.136c0 .038-.002.084-.001.119-.002.038-.001.084-.003.122l-.002.135v.098l-.003.163c0 .027.001.046-.001.073l-.003.181-.001.073-.002.185-.002.054-.004.206a.05.05 0 0 1-.001.021c-1.57 85.636-46.346 182.936-112.445 255.908-6.359 7.019-17.409 12.741-31.353 17.143z" fill="#d8d8d8" fill-rule="nonzero"/><path d="M179.478 690.425c-19.331-69.242-29.414-131.21-33.115-186.132 24.009 4.879 50.109 6.754 77.556 5.543 23.303-1.028 45.907-4.204 67.207-9.433-4 55.525-13.433 118.986-30.611 191.1-26.545 2.61-55.505 2.276-81.037-1.078z" fill="#e9e9e9" fill-rule="nonzero"/><path d="M94.56 644.108s54.325 18.314 126.766 17.951c72.443-.359 145.346-27.924 145.346-27.924l-37.921 61.226s-55.432 22.186-107.201 22.441c-51.77.259-95.463-24.076-95.463-24.076L94.56 644.108z" fill="#494949" fill-rule="nonzero"/><path d="M135.638 666.284s37.821 7.217 89.933 6.867c48.128-.322 89.336-10.429 89.336-10.429l-16.609 30.389s-35.324 17.312-71.562 18.51c-17.009.563-33.201-1.481-46.805-5.588-17.766-5.363-29.907-11.936-28.472-12.965l-15.821-26.784z" fill="#3eb650" fill-rule="nonzero"/><path d="M288.546 676.574a5.993 5.993 0 0 1 6.287 5.691 6.01 6.01 0 0 1-5.698 6.294 5.994 5.994 0 0 1-6.287-5.69 6.013 6.013 0 0 1 5.698-6.295zm-23.859 5.478c3.504-.177 6.49 2.56 6.664 6.107.175 3.547-2.528 6.57-6.032 6.747-3.504.177-6.491-2.56-6.665-6.107-.175-3.547 2.529-6.571 6.033-6.747zm-27.493 2c3.816-.192 7.069 2.798 7.259 6.672.191 3.875-2.753 7.177-6.569 7.369-3.816.193-7.069-2.797-7.26-6.672-.19-3.874 2.754-7.176 6.57-7.369zm-24.973 0c3.816-.192 7.069 2.798 7.259 6.672.191 3.875-2.753 7.177-6.569 7.369-3.816.193-7.069-2.797-7.259-6.672-.191-3.874 2.753-7.176 6.569-7.369z" fill="#f8fafb" fill-opacity=".97"/><path d="M183.312 677.446l13.875 11.445-13.924 11.45-13.876-11.445 13.925-11.45z" fill="#fff"/><ellipse cx="84.464" cy="69.18" rx="18.497" ry="7.41" fill="#ecf1f4"/><ellipse cx="29.163" cy="87.597" rx="18.497" ry="7.41" fill="#edf1f4"/><path d="M96.457 81.149c-7.867.938-8.35-14.285-45.854-14.451-7.864-.035-14.319 6.321-14.407 14.184-.087 7.864 6.227 14.276 14.091 14.311 37.504.165 40.72-11.636 46.17-14.044z" fill="#eaeff2" fill-opacity=".97" stroke="#cbdde8" stroke-linecap="round" stroke-miterlimit="1.5"/><path d="M84.464 92.263c6.584-1.339 6.84-27.569 38.335-27.708 7.833-.035 14.262 6.296 14.349 14.127.087 7.832-6.202 14.218-14.034 14.253-31.495.139-34.473-.547-38.65-.672z" fill="#f2f5f7" stroke="#cbdde8" stroke-linecap="round" stroke-miterlimit="1.5"/><path d="M56.58 80.855c7.499.936 7.952-14.226 43.697-14.383 7.832-.035 14.262 6.295 14.348 14.127.087 7.832-6.201 14.218-14.033 14.253-35.745.157-38.92-11.596-44.012-13.997z" fill="#edf1f4" stroke="#cbdde8" stroke-linecap="round" stroke-miterlimit="1.5"/><ellipse cx="148.141" cy="87.895" rx="18.497" ry="7.41" fill="#f3f6f8"/><path d="M84.271 94.449c10.821-1.225 28.901-23.15 59.996-23.047 6.415.021 11.579 5.247 11.526 11.661-.053 6.415-5.305 11.605-11.72 11.584l-59.802-.198z" fill="#eef1f2" fill-opacity=".93"/><path d="M84.464 94.55c-11.547-1.184-26.758-20.53-55.987-20.659-5.875-.026-10.698 4.723-10.763 10.597A10.565 10.565 0 0 0 28.241 95.18c29.229.129 46.85-.491 56.223-.63z" fill="#f3f6f8" fill-opacity=".87"/><g><ellipse cx="382.372" cy="8.007" rx="21.441" ry="8.007" fill="#ecf1f4"/><ellipse cx="318.267" cy="27.908" rx="21.441" ry="8.007" fill="#edf0f3"/><path d="M396.275 20.94c-9.311 1.013-9.887-15.437-54.274-15.619-8.498-.035-15.479 6.835-15.58 15.332-.101 8.496 6.716 15.423 15.213 15.458 44.387.183 47.94-12.57 54.641-15.171z" fill="#eaeff2" fill-opacity=".97" stroke="#cbdde8" stroke-linecap="round" stroke-miterlimit="1.5"/><path d="M382.372 32.95c7.822-1.448 8.135-29.791 45.553-29.945 8.464-.035 15.417 6.807 15.518 15.27.1 8.463-6.689 15.362-15.153 15.397-37.418.154-40.696-.588-45.918-.722z" fill="#f2f5f7" stroke="#cbdde8" stroke-linecap="round" stroke-miterlimit="1.5"/><path d="M350.049 20.623c8.883 1.011 9.424-15.373 51.769-15.547 8.463-.035 15.416 6.807 15.517 15.27.101 8.463-6.689 15.362-15.153 15.397-42.344.174-45.85-12.527-52.133-15.12z" fill="#edf1f4" stroke="#cbdde8" stroke-linecap="round" stroke-miterlimit="1.5"/><ellipse cx="456.186" cy="28.23" rx="21.441" ry="8.007" fill="#f3f6f8"/><path d="M382.148 35.312c12.709-1.323 33.941-25.014 70.46-24.901 6.932.022 12.51 5.666 12.448 12.598-.062 6.931-5.74 12.542-12.672 12.52l-70.236-.217z" fill="#eef1f2" fill-opacity=".93"/><path d="M382.372 35.421c-13.557-1.28-31.42-22.186-65.736-22.327-6.349-.026-11.564 5.107-11.64 11.455a11.402 11.402 0 0 0 11.367 11.55c34.316.141 54.8-.529 66.009-.678z" fill="#f3f6f8" fill-opacity=".87"/></g></svg>