<svg viewBox="0 0 300 15" xmlns="http://www.w3.org/2000/svg" fill-rule="evenodd" clip-rule="evenodd" stroke-linejoin="round" stroke-miterlimit="2"><path fill="#fcc133" d="M5.022 2.455h291.729v9.529H5.022z"/><path d="M290.153 2.455c4.805 0 8.706 2.551 8.706 5.693 0 3.141-3.901 5.692-8.706 5.692-3.604-.474-6.529-2.862-6.529-5.692 0-2.831 2.925-5.218 6.529-5.693z" fill="#fcc133"/><path d="M284.376 13.01c4.429.886 11.442 2.139 13.914-2.446.889-1.648 1.531-5.164.228-6.743-1.531-1.855-5.865-1.641-8.001-1.338-.868.123-.512 1.317.352 1.194 2.17-.307 6.581-.472 6.781 2.133.175 2.276-.05 4.722-2.456 6.016-2.91 1.566-7.36.613-10.442-.003-.858-.172-1.237 1.015-.376 1.187z" fill="#7a6b1c" fill-rule="nonzero"/><path d="M276.566 11.742c0 1.195 1.791 2.165 3.996 2.165s3.995-.97 3.995-2.165h-7.991z" fill="#fcc133"/><path d="M276.566 12.825c.643 1.413 2.92 1.701 4.384 1.637 2.141-.095 3.798-1.04 4.971-2.638 1.402-1.908 1.757-4.235 2.943-6.232 1.643-2.769 5.161-3.617 7.998-1.62.696.489 1.389-.577.702-1.06-2.646-1.862-6.636-1.718-8.825.613-1.326 1.412-1.883 3.206-2.576 4.907-.575 1.41-1.228 2.994-2.61 3.926-.714.482-5.028 1.766-5.609.488-.33-.725-1.712-.757-1.378-.021z" fill="#7a6b1c" fill-rule="nonzero"/><path d="M268.575 10.994c0 1.619 1.791 2.933 3.996 2.933s3.995-1.314 3.995-2.933c-.932.486-2.401.88-3.995.88-1.594 0-3.063-.394-3.996-.88z" fill="#fcc133"/><path d="M268.3 13.162c.643 1.413 2.866 1.364 4.33 1.3 2.141-.095 3.798-1.04 4.971-2.638 1.402-1.908 1.757-4.235 2.943-6.232 1.643-2.769 5.451-4.158 8.288-2.161.696.489 1.536-.765.849-1.249-2.646-1.862-7.073-.988-9.262 1.343-1.326 1.412-1.883 3.206-2.576 4.907-.575 1.41-1.228 2.994-2.61 3.926-.714.482-5.252 1.381-5.833.103-.33-.725-1.435-.035-1.1.701z" fill="#7a6b1c" fill-rule="nonzero"/><path d="M260.47 11.274c0 1.773 1.79 3.213 3.995 3.213 2.206 0 3.996-1.44 3.996-3.213h-7.991z" fill="#fcc133"/><path d="M260.524 13.162c.642 1.413 2.866 1.364 4.329 1.3 2.141-.095 3.799-1.04 4.972-2.638 1.402-1.908 1.756-4.235 2.942-6.232 1.644-2.769 5.182-3.95 8.019-1.953.696.489 1.492-.586.805-1.07-2.646-1.862-6.76-1.375-8.949.956-1.325 1.412-1.883 3.206-2.575 4.907-.575 1.41-1.228 2.994-2.611 3.926-.713.482-5.028 1.766-5.609.488-.329-.725-1.658-.42-1.323.316z" fill="#7a6b1c" fill-rule="nonzero"/><path d="M252.875 11.742c0 1.195 1.791 2.165 3.996 2.165s3.996-.97 3.996-2.165h-7.992z" fill="#fcc133"/><path d="M252.929 13.162c.643 1.413 2.866 1.364 4.33 1.3 2.141-.095 3.799-1.04 4.972-2.638 1.401-1.908 1.756-4.235 2.942-6.232 1.643-2.769 5.423-4.196 8.13-2.056.313.248 1.082-.867.821-1.081-2.483-2.036-6.887-1.261-9.076 1.07-1.326 1.412-1.883 3.206-2.576 4.907-.574 1.41-1.228 2.994-2.61 3.926-.714.482-5.028 1.766-5.609.488-.33-.725-1.659-.42-1.324.316z" fill="#7a6b1c" fill-rule="nonzero"/><path d="M244.884 11.742c0 1.195 1.791 2.165 3.996 2.165s3.995-.97 3.995-2.165h-7.991z" fill="#fcc133"/><path d="M244.938 13.162c.933 1.275 2.866 1.364 4.33 1.3 2.141-.095 3.798-1.04 4.971-2.638 1.402-1.908 1.757-4.235 2.943-6.232 1.643-2.769 5.391-4.061 8.229-2.063.695.489 1.421-.59.734-1.074-2.646-1.862-6.899-1.261-9.088 1.07-1.326 1.412-1.883 3.206-2.576 4.907-.575 1.41-1.228 2.994-2.61 3.926-.714.482-4.854 1.69-5.61.488-.555-.883-2.074-.711-1.323.316z" fill="#7a6b1c" fill-rule="nonzero"/><path d="M236.893 11.83c0 1.321 1.791 2.393 3.996 2.393s3.995-1.072 3.995-2.393h-7.991z" fill="#fcc133"/><path d="M236.556 12.936c.811 1.342 2.866 1.365 4.33 1.3 2.141-.094 3.799-1.039 4.972-2.637 1.401-1.909 1.756-4.235 2.942-6.233 1.643-2.769 5.763-3.889 8.601-1.892.695.489 1.564-.535.877-1.019-2.646-1.862-7.414-1.487-9.603.844-1.326 1.412-1.883 3.206-2.576 4.907-.574 1.411-1.228 2.994-2.61 3.927-.714.482-4.934 1.727-5.609.488-.489-.898-1.976-.765-1.324.315z" fill="#7a6b1c" fill-rule="nonzero"/><path d="M228.157 11.991c0 1.375 1.791 2.491 3.996 2.491s3.995-1.116 3.995-2.491h-7.991z" fill="#fcc133"/><path d="M228.184 13.442c.757 1.367 2.866 1.365 4.329 1.3 2.141-.095 3.799-1.039 4.972-2.637 1.402-1.909 1.756-4.235 2.942-6.233 1.644-2.769 5.67-4.567 8.41-2.462.443.341 1.473-.612 1.025-.955-2.561-1.957-7.371-.981-9.56 1.35-1.326 1.412-1.883 3.206-2.575 4.907-.575 1.411-1.228 2.994-2.611 3.927-.713.481-4.939 1.73-5.609.487-.469-.869-1.83-.598-1.323.316z" fill="#7a6b1c" fill-rule="nonzero"/><path d="M221.139 10.952c0 1.261 1.79 2.285 3.995 2.285 2.206 0 3.996-1.024 3.996-2.285h-7.991z" fill="#fcc133"/><path d="M221.184 12.442c.642 1.414 2.866 1.365 4.329 1.3 2.141-.095 3.799-1.039 4.972-2.637 1.402-1.909 1.63-4.301 2.942-6.233 1.655-2.437 5.15-3.098 7.999-1.62.764.397 1.636-.613.949-1.096-2.646-1.862-6.884-1.682-9.073.649-1.326 1.412-1.883 3.206-2.575 4.907-.575 1.411-1.228 2.994-2.611 3.927-.454.306-2.368.938-3.849 1.027-.845.051-1.549-.075-1.76-.54-.33-.725-1.658-.42-1.323.316z" fill="#7a6b1c" fill-rule="nonzero"/><path d="M214.13 11.482c0 1.261 1.79 2.285 3.995 2.285 2.206 0 3.996-1.024 3.996-2.285h-7.991z" fill="#fcc133"/><path d="M214.184 12.442c.642 1.414 2.866 1.365 4.329 1.3 2.141-.095 3.799-1.039 4.972-2.637 1.402-1.909 1.756-4.235 2.942-6.233.948-1.596 2.558-2.274 4.262-2.417 1.252-.104 2.706-.216 3.737.797.446.438 1.123-.631.702-1.06-2.226-2.265-6.637-1.718-8.826.613-1.326 1.412-1.883 3.206-2.575 4.907-.575 1.411-1.228 2.994-2.611 3.927-.713.481-5.028 1.765-5.609.487-.33-.725-1.658-.42-1.323.316z" fill="#7a6b1c" fill-rule="nonzero"/><path d="M207.069 11.984c0 .928 1.419 1.681 3.168 1.681s3.168-.753 3.168-1.681h-6.336z" fill="#fcc133"/><path d="M206.463 12.735c.643 1.414 2.866 1.365 4.33 1.3 2.14-.095 3.798-1.039 4.971-2.637 1.402-1.909 1.757-4.235 2.942-6.233 1.644-2.769 5.162-3.617 7.999-1.62.696.49 1.389-.576.702-1.06-2.646-1.862-6.636-1.718-8.825.613-1.326 1.412-1.883 3.206-2.576 4.907-.575 1.411-1.228 2.994-2.61 3.927-.714.481-5.029 1.766-5.61.487-.329-.725-1.658-.42-1.323.316z" fill="#7a6b1c" fill-rule="nonzero"/><path d="M199.363 11.984c0 .928 1.594 1.681 3.558 1.681 1.965 0 3.559-.753 3.559-1.681h-7.117zm4.593-7.848c0-.928 1.419-1.681 3.168-1.681 1.748 0 3.168.753 3.168 1.681h-6.336z" fill="#fcc133"/><path d="M198.602 12.78c.643 1.414 2.866 1.365 4.33 1.3 2.14-.095 3.798-1.04 4.971-2.637 1.402-1.909 1.757-4.235 2.942-6.233 1.644-2.769 5.162-3.617 7.999-1.62.696.489 1.389-.576.702-1.06-2.646-1.862-6.636-1.718-8.825.613-1.326 1.412-1.883 3.206-2.576 4.907-.575 1.411-1.228 2.994-2.61 3.927-.714.481-5.029 1.765-5.61.487-.329-.725-1.658-.42-1.323.316z" fill="#7a6b1c" fill-rule="nonzero"/><path d="M191.171 11.984c0 .928 1.42 1.681 3.169 1.681 1.748 0 3.168-.753 3.168-1.681h-6.337zm5.772-8.388c0-.927 1.419-1.68 3.168-1.68 1.748 0 3.168.753 3.168 1.68h-6.336z" fill="#fcc133"/><path d="M190.465 12.897c.643 1.414 2.866 1.365 4.33 1.3 2.14-.094 3.798-1.039 4.971-2.637 1.402-1.909 1.757-4.235 2.942-6.233 1.644-2.768 5.162-3.616 7.999-1.619.696.489 1.389-.577.702-1.06-2.646-1.862-6.637-1.718-8.825.613-1.326 1.411-1.883 3.206-2.576 4.907-.575 1.41-1.228 2.994-2.61 3.926-.714.482-5.029 1.766-5.61.488-.329-.725-1.658-.421-1.323.315z" fill="#7a6b1c" fill-rule="nonzero"/><path d="M190.406 11.798c.025 1.043-1.513 1.928-3.434 1.975-1.921.047-3.502-.761-3.527-1.804.864-.282 2.118-.525 3.469-.558 1.35-.033 2.615.148 3.492.387zm-1.523-8.202c0-.927 1.42-1.68 3.168-1.68 1.749 0 3.168.753 3.168 1.68h-6.336z" fill="#fcc133"/><path d="M183.545 12.662c.643 1.413 2.866 1.364 4.33 1.3 2.14-.095 3.798-1.04 4.971-2.638 1.402-1.908 1.757-4.235 2.942-6.232 1.644-2.769 5.162-3.617 7.999-1.62.696.489 1.389-.577.702-1.06-2.646-1.862-6.636-1.718-8.825.613-1.326 1.412-1.883 3.206-2.576 4.907-.575 1.41-1.228 2.994-2.61 3.926-.714.482-5.029 1.766-5.61.488-.329-.725-1.658-.42-1.323.316z" fill="#7a6b1c" fill-rule="nonzero"/><path d="M175.573 11.5c0 1.195 1.791 2.165 3.996 2.165s3.996-.97 3.996-2.165h-7.992zm-7.991-.59c0 1.195 1.791 2.165 3.996 2.165s3.995-.97 3.995-2.165h-7.991z" fill="#fcc133"/><path d="M175.545 12.662c.643 1.413 2.866 1.364 4.33 1.3 2.14-.095 3.798-1.04 4.971-2.638 1.402-1.908 1.757-4.235 2.942-6.232 1.644-2.769 5.162-3.617 7.999-1.62.696.489 1.389-.577.702-1.06-2.646-1.862-6.636-1.718-8.825.613-1.326 1.412-1.883 3.206-2.576 4.907-.575 1.41-1.228 2.994-2.61 3.926-.714.482-5.029 1.766-5.61.488-.329-.725-1.658-.42-1.323.316z" fill="#7a6b1c" fill-rule="nonzero"/><path d="M181.165 2.814c0-.928 1.42-1.681 3.168-1.681 1.749 0 3.168.753 3.168 1.681h-6.336z" fill="#fcc133"/><path d="M167.636 12.248c.643 1.413 2.866 1.364 4.33 1.3 2.141-.095 3.798-1.04 4.971-2.638 1.402-1.908 1.757-4.235 2.943-6.232 1.643-2.769 5.161-3.617 7.998-1.62.696.489 1.389-.577.702-1.06-2.646-1.862-6.636-1.718-8.825.613-1.326 1.412-1.883 3.206-2.576 4.907-.575 1.41-1.228 2.994-2.61 3.926-.714.482-5.228 1.818-5.809.54-.33-.725-1.459-.472-1.124.264z" fill="#7a6b1c" fill-rule="nonzero"/><path d="M159.514 10.917c0 1.195 1.79 2.165 3.996 2.165 2.205 0 3.995-.97 3.995-2.165h-7.991zm13.424-7.687c0-.928 1.42-1.681 3.168-1.681 1.749 0 3.168.753 3.168 1.681h-6.336z" fill="#fcc133"/><path d="M159.268 12.44c.643 1.414 3.166 1.453 4.629 1.388 2.141-.095 3.799-1.04 4.972-2.637 1.402-1.909 1.756-4.235 2.942-6.233 1.644-2.769 5.162-3.617 7.999-1.62.695.489 1.389-.576.702-1.06-2.646-1.862-6.637-1.718-8.826.613-1.325 1.412-1.882 3.206-2.575 4.907-.575 1.41-1.228 2.994-2.611 3.927-.713.481-5.028 1.765-5.609.487-.329-.725-1.958-.508-1.623.228z" fill="#7a6b1c" fill-rule="nonzero"/><path d="M150.438 11.688c0 1.195 1.79 2.165 3.996 2.165 2.205 0 3.995-.97 3.995-2.165h-7.991z" fill="#fcc133"/><path d="M150.847 12.821c.643 1.414 2.866 1.365 4.33 1.3 2.141-.095 3.798-1.039 4.971-2.637 1.402-1.909 1.757-4.235 2.942-6.233 1.644-2.769 5.162-3.617 7.999-1.62.696.49 1.389-.576.702-1.06-2.646-1.862-6.636-1.718-8.825.613-1.326 1.412-1.883 3.206-2.576 4.907-.575 1.411-1.228 2.994-2.61 3.927-.714.481-5.029 1.765-5.61.487-.329-.725-1.658-.42-1.323.316z" fill="#7a6b1c" fill-rule="nonzero"/><path d="M144.266 11.906c0 1.068 1.419 1.934 3.168 1.934 1.748 0 3.168-.866 3.168-1.934h-6.336z" fill="#fcc133"/><path d="M143.847 12.821c.643 1.414 2.866 1.365 4.33 1.3 2.141-.095 3.798-1.039 4.971-2.637 1.402-1.909 1.757-4.235 2.942-6.233 1.644-2.769 5.388-3.854 7.999-1.62.323.277 1.017-.789.702-1.06-2.429-2.088-6.636-1.718-8.825.613-1.326 1.412-1.883 3.206-2.576 4.907-.575 1.411-1.228 2.994-2.61 3.927-.714.481-5.029 1.765-5.61.487-.329-.725-1.658-.42-1.323.316z" fill="#7a6b1c" fill-rule="nonzero"/><path d="M137.31 12c0 .927 1.419 1.68 3.168 1.68 1.748 0 3.168-.753 3.168-1.68h-6.336zm6.055-9.027c0-.928 1.469-1.681 3.278-1.681 1.81 0 3.279.753 3.279 1.681h-6.557z" fill="#fcc133"/><path d="M136.655 12.687c.643 1.414 3.033 1.499 4.497 1.434 2.141-.095 3.798-1.039 4.971-2.637 1.402-1.909 1.757-4.235 2.942-6.233 1.644-2.769 5.052-3.483 7.999-1.62.562.355 1.266-.7.702-1.06-2.739-1.748-6.636-1.718-8.825.613-1.326 1.412-1.883 3.206-2.576 4.907-.575 1.411-1.228 2.994-2.61 3.927-.714.481-5.029 1.765-5.61.487-.329-.725-1.824-.554-1.49.182z" fill="#7a6b1c" fill-rule="nonzero"/><path d="M136.335 2.703c0-.927 1.419-1.68 3.168-1.68 1.748 0 3.168.753 3.168 1.68h-6.336z" fill="#fcc133"/><path d="M129.847 11.821c.643 1.414 2.866 1.365 4.33 1.3 2.141-.095 3.798-1.039 4.971-2.637 1.402-1.909 1.757-4.235 2.942-6.233 1.644-2.769 5.162-3.617 7.999-1.62.696.49 1.389-.576.702-1.06-2.646-1.862-6.636-1.718-8.825.613-1.326 1.412-1.883 3.206-2.576 4.907-.575 1.411-1.228 2.994-2.61 3.927-.714.481-5.029 1.765-5.61.487-.329-.725-1.658-.42-1.323.316z" fill="#7a6b1c" fill-rule="nonzero"/><path d="M129.074 2.973c0-.928 1.492-1.681 3.33-1.681 1.839 0 3.331.753 3.331 1.681h-6.661z" fill="#fcc133"/><path d="M122.984 11.703c.643 1.414 2.866 1.365 4.33 1.3 2.141-.094 3.798-1.039 4.971-2.637 1.402-1.909 1.757-4.235 2.943-6.233 1.643-2.769 4.737-2.989 7.998-1.619.422.177 1.159-.84.702-1.06-2.958-1.429-6.636-1.719-8.825.612-1.326 1.412-1.883 3.206-2.576 4.907-.575 1.411-1.228 2.995-2.61 3.927-.714.482-5.028 1.766-5.609.488-.33-.725-1.659-.421-1.324.315z" fill="#7a6b1c" fill-rule="nonzero"/><path d="M117.96 10.226c0 .927 1.419 1.68 3.168 1.68 1.748 0 3.168-.753 3.168-1.68h-6.336zm3.3-7.576c0-1.076 1.515-1.949 3.382-1.949 1.866 0 3.382.873 3.382 1.949h-6.764z" fill="#fcc133"/><path d="M115.428 11.984c.643 1.414 3.285 1.202 4.749 1.137 2.141-.095 3.798-1.039 4.971-2.637 1.402-1.909 1.757-4.235 2.942-6.233 1.644-2.769 5.281-3.747 7.999-1.62.287.224 1.071-.782.702-1.06-2.579-1.937-6.636-1.718-8.825.613-1.326 1.412-1.883 3.206-2.576 4.907-.575 1.411-1.228 2.994-2.61 3.927-.714.481-5.457 1.73-6.038.452-.33-.725-1.648-.222-1.314.514z" fill="#7a6b1c" fill-rule="nonzero"/><path d="M113.514 2.382c0-.928 1.435-1.681 3.203-1.681 1.769 0 3.204.753 3.204 1.681-.801.231-1.961.42-3.204.42s-2.402-.189-3.203-.42z" fill="#fcc133"/><path d="M107.322 11.73c.643 1.414 3.471 1.22 4.935 1.155 2.141-.094 3.798-1.039 4.971-2.637 1.402-1.909 1.757-4.235 2.943-6.233 1.643-2.769 5.161-3.616 7.998-1.619.696.489 1.389-.577.702-1.06-2.646-1.863-6.636-1.719-8.825.612-1.326 1.412-1.883 3.206-2.576 4.907-.575 1.411-1.228 2.994-2.61 3.927-.714.482-5.179 1.889-5.76.611-.329-.725-2.113-.399-1.778.337z" fill="#7a6b1c" fill-rule="nonzero"/><path d="M104.705 3.296c0-.928 1.42-1.681 3.168-1.681 1.749 0 3.168.753 3.168 1.681h-6.336z" fill="#fcc133"/><path d="M99.723 11.984c.643 1.414 3.07.966 4.534.901 2.141-.094 3.798-1.039 4.971-2.637 1.402-1.909 1.757-4.235 2.943-6.233 1.643-2.769 5.161-3.616 7.998-1.619.696.489 1.389-.577.702-1.06-2.646-1.863-6.636-1.719-8.825.612-1.326 1.412-1.883 3.206-2.576 4.907-.575 1.411-1.228 2.994-2.61 3.927-.714.482-5.412 1.875-5.993.597-.329-.725-1.479-.131-1.144.605z" fill="#7a6b1c" fill-rule="nonzero"/><path d="M91.079 11.599c0 1.195 1.791 2.165 3.996 2.165s3.995-.97 3.995-2.165h-7.991zm5.533-8.303c0-.928 1.473-1.681 3.287-1.681 1.814 0 3.287.753 3.287 1.681h-6.574z" fill="#fcc133"/><path d="M90.927 12.585c.643 1.414 2.866 1.365 4.33 1.3 2.141-.094 3.798-1.039 4.971-2.637 1.402-1.909 1.757-4.235 2.943-6.233 1.643-2.769 5.161-3.616 7.998-1.619.696.489 1.389-.577.702-1.06-2.646-1.863-6.636-1.719-8.825.612-1.326 1.412-1.883 3.206-2.576 4.907-.575 1.411-1.228 2.994-2.61 3.927-.714.482-5.028 1.766-5.609.487-.33-.724-1.659-.42-1.324.316z" fill="#7a6b1c" fill-rule="nonzero"/><path d="M83.088 10.828c0 1.195 1.791 2.165 3.996 2.165s3.995-.97 3.995-2.165h-7.991zm5.944-7.532c0-.928 1.472-1.681 3.287-1.681 1.814 0 3.287.753 3.287 1.681h-6.574z" fill="#fcc133"/><path d="M83.142 12.438c.643 1.414 2.866 1.365 4.33 1.3 2.14-.094 3.798-1.039 4.971-2.637 1.402-1.908 1.757-4.235 2.942-6.232 1.644-2.769 5.162-3.617 7.999-1.62.696.489 1.389-.577.702-1.06-2.646-1.862-6.636-1.718-8.825.613-1.326 1.412-1.883 3.206-2.576 4.907-.575 1.41-1.228 2.994-2.61 3.926-.714.482-5.029 1.766-5.61.488-.329-.725-1.658-.42-1.323.315z" fill="#7a6b1c" fill-rule="nonzero"/><path d="M75.088 11.599c0 1.195 1.791 2.165 3.996 2.165s3.995-.97 3.995-2.165h-7.991zm5.432-8.303c0-.928 1.473-1.681 3.287-1.681 1.815 0 3.287.753 3.287 1.681H80.52z" fill="#fcc133"/><path d="M75.142 12.438c.643 1.414 2.866 1.365 4.33 1.3 2.14-.094 3.798-1.039 4.971-2.637 1.402-1.908 1.757-4.235 2.942-6.232 1.644-2.769 5.162-3.617 7.999-1.62.696.489 1.389-.577.702-1.06C93.44.327 89.45.471 87.261 2.802c-1.326 1.412-1.883 3.206-2.576 4.907-.575 1.41-1.228 2.994-2.61 3.926-.714.482-5.029 1.766-5.61.488-.329-.725-1.658-.42-1.323.315z" fill="#7a6b1c" fill-rule="nonzero"/><g><path d="M67.088 10.828c0 1.195 1.791 2.165 3.996 2.165s3.995-.97 3.995-2.165h-7.991z" fill="#fcc133"/><path d="M67.012 12.438c.643 1.414 2.996 1.365 4.46 1.3 2.14-.094 3.798-1.039 4.971-2.637 1.402-1.908 1.757-4.235 2.942-6.232 1.644-2.769 5.162-3.617 7.999-1.62.696.489 1.389-.577.702-1.06C85.44.327 81.45.471 79.261 2.802c-1.326 1.412-1.883 3.206-2.576 4.907-.575 1.41-1.228 2.994-2.61 3.926-.714.482-5.029 1.766-5.61.488-.329-.725-1.788-.42-1.453.315z" fill="#7a6b1c" fill-rule="nonzero"/></g><g><path d="M58.012 11.599c0 1.195 1.791 2.165 3.996 2.165s3.995-.97 3.995-2.165h-7.991z" fill="#fcc133"/><path d="M58.421 12.732c.643 1.413 2.867 1.364 4.33 1.3 2.141-.095 3.799-1.04 4.972-2.638 1.401-1.908 1.756-4.235 2.942-6.232 1.643-2.769 5.161-3.617 7.999-1.62.695.489 1.388-.577.701-1.06C76.719.62 72.729.764 70.54 3.095c-1.326 1.412-1.883 3.206-2.576 4.907-.574 1.41-1.228 2.994-2.61 3.926-.714.482-5.028 1.766-5.609.488-.33-.725-1.659-.42-1.324.316z" fill="#7a6b1c" fill-rule="nonzero"/></g><g><path d="M51.84 11.817c0 1.067 1.419 1.934 3.168 1.934 1.748 0 3.168-.867 3.168-1.934H51.84z" fill="#fcc133"/><path d="M51.421 12.732c.643 1.413 2.867 1.364 4.33 1.3 2.141-.095 3.799-1.04 4.972-2.638 1.401-1.908 1.701-4.262 2.942-6.232 1.687-2.682 5.497-3.617 7.999-1.62.369.295 1.041-.766.701-1.06-2.423-2.095-6.636-1.718-8.825.613-1.326 1.412-1.883 3.206-2.576 4.907-.574 1.41-1.228 2.994-2.61 3.926-.714.482-5.028 1.766-5.609.488-.33-.725-1.659-.42-1.324.316z" fill="#7a6b1c" fill-rule="nonzero"/></g><g><path d="M44.884 11.91c0 .928 1.419 1.681 3.168 1.681 1.748 0 3.168-.753 3.168-1.681h-6.336zm6.1-9.026c0-.928 1.473-1.681 3.288-1.681 1.814 0 3.287.753 3.287 1.681h-6.575z" fill="#fcc133"/><path d="M44.325 12.5c.642 1.414 2.963 1.596 4.426 1.532 2.141-.095 3.799-1.04 4.972-2.638 1.401-1.908 1.756-4.235 2.942-6.232 1.643-2.769 5.238-3.702 7.999-1.62.541.409 1.047-.755.701-1.06-2.402-2.114-6.636-1.718-8.825.613-1.326 1.412-1.883 3.206-2.576 4.907-.574 1.41-1.228 2.994-2.61 3.926-.714.482-5.028 1.766-5.609.488-.33-.725-1.755-.652-1.42.084z" fill="#7a6b1c" fill-rule="nonzero"/></g><g><path d="M44.027 2.631c0-.928 1.481-1.681 3.305-1.681 1.823 0 3.304.753 3.304 1.681h-6.609z" fill="#fcc133"/><path d="M37.421 11.732c.643 1.413 2.867 1.364 4.33 1.3 2.141-.095 3.799-1.04 4.972-2.638 1.401-1.908 1.756-4.235 2.942-6.232 1.643-2.769 5.161-3.617 7.999-1.62.695.489 1.388-.577.701-1.06-2.646-1.862-6.636-1.718-8.825.613-1.326 1.412-1.883 3.206-2.576 4.907-.574 1.41-1.228 2.994-2.61 3.926-.714.482-5.028 1.766-5.609.488-.33-.725-1.659-.42-1.324.316z" fill="#7a6b1c" fill-rule="nonzero"/></g><g><path d="M36.648 2.884c0-.928 1.42-1.681 3.168-1.681 1.749 0 3.168.753 3.168 1.681h-6.336z" fill="#fcc133"/><path d="M30.431 11.984c.643 1.414 2.994.995 4.457.93 2.141-.094 3.799-1.039 4.972-2.637 1.401-1.909 1.756-4.235 2.942-6.233 1.644-2.769 5.475-3.934 7.999-1.62.381.35 1.144-.685.701-1.06-2.447-2.071-6.636-1.718-8.825.613-1.326 1.412-1.883 3.206-2.575 4.907-.575 1.411-1.229 2.994-2.611 3.927-.714.481-5.028 1.766-5.609.487-.33-.725-1.786-.05-1.451.686z" fill="#7a6b1c" fill-rule="nonzero"/></g><g><path d="M29.082 2.884c0-.928 1.521-1.681 3.395-1.681s3.395.753 3.395 1.681h-6.79z" fill="#fcc133"/><path d="M22.744 11.984c-.537 1.447 3.086.999 4.55.934 2.141-.094 3.799-1.039 4.972-2.637 1.401-1.909 1.756-4.235 2.942-6.233 1.643-2.769 5.161-3.617 7.999-1.619.695.489 1.388-.577.701-1.061-2.646-1.862-6.636-1.718-8.825.613-1.326 1.412-1.883 3.206-2.576 4.907-.574 1.411-1.228 2.994-2.61 3.927-.714.482-6.039 1.812-5.609.487.178-.55-1.34.132-1.544.682z" fill="#7a6b1c" fill-rule="nonzero"/></g><g><path d="M22.199 2.537c0-.736 1.4-1.334 3.123-1.334 1.724 0 3.123.598 3.123 1.334h-6.246z" fill="#fcc133"/><path d="M15.421 11.732c.533 1.45 2.867 1.364 4.33 1.3 2.141-.095 3.799-1.04 4.972-2.638 1.401-1.908 1.756-4.235 2.942-6.232 1.643-2.769 5.161-3.617 7.999-1.62.695.489 1.388-.577.701-1.06-2.646-1.862-6.636-1.718-8.825.613-1.326 1.412-1.883 3.206-2.576 4.907-.574 1.41-1.228 2.994-2.61 3.926-.714.482-5.103 1.792-5.609.488-.201-.517-1.5-.164-1.324.316z" fill="#7a6b1c" fill-rule="nonzero"/></g><g><path d="M10.49 11.633c.582 1.413 2.645 1.362 3.972 1.296 1.94-.096 3.443-1.043 4.508-2.642 1.272-1.909 1.595-4.236 2.672-6.235 1.492-2.77 4.772-3.732 7.25-1.627.342.291.981-.77.637-1.06-2.314-1.961-6.013-1.713-7.998.62-1.203 1.413-1.71 3.208-2.339 4.91-.522 1.411-1.116 2.995-2.369 3.929-.648.482-4.559 1.77-5.085.492-.298-.724-1.55-.419-1.248.317z" fill="#7a6b1c" fill-rule="nonzero"/></g><path d="M8.749 13.44c2.314-.875 3.302-4.063 4.184-6.007.835-1.84 1.377-3.408 3.645-4.11 1.502-.465 3.072-.414 4.557.061.833.266 1.204-.923.376-1.188-2.346-.75-5.223-.545-7.253.832-1.037.703-1.54 1.61-2.034 2.66-.834 1.771-1.922 5.834-4.156 6.678-.81.307-.123 1.378.681 1.074z" fill="#7a6b1c" fill-rule="nonzero"/><g><path d="M8.98 2.089C4.175 2.089.274 4.62.274 7.738c0 3.117 3.901 5.649 8.706 5.649V2.089z" fill="#fcc133"/><path d="M14.88 2.942C10.452 2.057 3.439.804.967 5.389.078 7.037-.564 10.553.739 12.131c1.531 1.856 5.865 1.642 8.001 1.339.868-.123 1.151-1.774.286-1.652-2.17.308-7.219.929-7.419-1.675-.175-2.276.05-4.722 2.455-6.016 2.911-1.566 7.36-.613 10.443.003.858.172 1.237-1.015.375-1.188z" fill="#7a6b1c" fill-rule="nonzero"/></g></svg>