<?xml version="1.0" encoding="UTF-8" standalone="no"?><!DOCTYPE svg PUBLIC "-//W3C//DTD SVG 1.1//EN" "http://www.w3.org/Graphics/SVG/1.1/DTD/svg11.dtd"><svg width="100%" height="100%" viewBox="0 0 600 200" version="1.1" xmlns="http://www.w3.org/2000/svg" xmlns:xlink="http://www.w3.org/1999/xlink" xml:space="preserve" xmlns:serif="http://www.serif.com/" style="fill-rule:evenodd;clip-rule:evenodd;stroke-linejoin:round;stroke-miterlimit:2;"><rect x="0" y="0" width="600" height="200" style="fill:#3eb650;"/><text id="Title" x="2.823px" y="52.852px" style="font-family:'Data70Plain', 'Data 70';font-weight:500;font-size:67.596px;fill:#fff;">BCS.io</text><g><rect x="368.283" y="19.495" width="161.017" height="161.017" style="fill:none;"/><g><g><path d="M415.504,186.09c-0.298,0 -0.62,-0.075 -0.843,-0.377l-9.567,-12.582l0,12.834l-2.182,0l0,-15.803c0,-0.629 0.521,-1.132 1.116,-1.132c0.347,0 0.644,0.1 0.867,0.402l9.543,12.557l0,-12.783l2.181,0l0,15.777c0,0.655 -0.52,1.107 -1.115,1.107" style="fill:#1a1918;fill-rule:nonzero;"/><path d="M433.55,186.241c-2.181,0 -4.462,-0.453 -6.594,-1.258l0.521,-1.812c1.958,0.63 4.09,1.082 6.073,1.082c2.751,0 4.189,-0.981 4.189,-2.365c0,-1.258 -1.116,-1.887 -4.958,-3.699c-3.842,-1.812 -5.353,-2.969 -5.353,-5.234c0,-2.843 2.181,-4.001 6.295,-4.001c1.71,0 4.338,0.352 5.85,0.805l-0.347,1.862c-1.661,-0.402 -3.743,-0.679 -5.453,-0.679c-2.9,0 -4.09,0.553 -4.09,1.938c0,1.358 0.867,1.937 4.932,3.825c4.289,1.987 5.379,2.994 5.379,5.057c0,2.995 -2.826,4.479 -6.444,4.479" style="fill:#1a1918;fill-rule:nonzero;"/><rect x="450.331" y="169.206" width="2.256" height="16.759" style="fill:#1a1918;fill-rule:nonzero;"/><path d="M471.772,178.365l-5.602,0l0,5.688l5.602,0c1.909,0 3.074,-1.208 3.074,-2.895c0,-1.585 -1.215,-2.793 -3.074,-2.793m-1.091,-7.247l-4.511,0l0,5.36l4.511,0c1.81,0 3.124,-1.158 3.124,-2.768c0,-1.585 -1.141,-2.592 -3.124,-2.592m1.116,14.847l-6.742,0c-0.644,0 -1.14,-0.504 -1.14,-1.133l0,-14.494c0,-0.604 0.496,-1.132 1.14,-1.132l5.577,0c3.421,0 5.453,1.686 5.453,4.328c0,1.434 -0.843,2.768 -2.132,3.548c1.909,0.579 3.197,2.164 3.197,4.076c0,2.668 -2.205,4.807 -5.353,4.807" style="fill:#1a1918;fill-rule:nonzero;"/><path d="M487.983,185.965c-0.619,0 -1.115,-0.529 -1.115,-1.133l0,-15.626l2.255,0l0,14.721l8.973,0l0,2.038l-10.113,0Z" style="fill:#1a1918;fill-rule:nonzero;"/><path d="M513.472,186.241c-4.611,0 -7.387,-1.711 -7.387,-5.158c0,-1.636 0.918,-3.196 2.702,-3.926c-1.437,-0.905 -2.181,-2.189 -2.181,-3.598c0,-3.12 2.405,-4.605 6.916,-4.605c1.512,0 3.643,0.176 5.428,0.579l-0.248,1.862c-1.883,-0.302 -3.644,-0.478 -5.354,-0.478c-2.925,0 -4.487,0.805 -4.487,2.743c0,1.535 1.438,2.743 3.347,2.743l3.866,0c0.546,0 0.967,0.427 0.967,0.956c0,0.553 -0.421,0.981 -0.967,0.981l-4.163,0c-2.182,0 -3.569,1.082 -3.569,2.743c0,2.441 2.255,3.17 5.081,3.17c1.537,0 3.618,-0.2 5.303,-0.603l0.323,1.837c-1.611,0.453 -3.718,0.754 -5.577,0.754" style="fill:#1a1918;fill-rule:nonzero;"/><path d="M386.127,172.349l3.95,9.897l-5.966,-4.771l2.016,-5.126Zm7.018,12.178l-6.076,-14.846c-0.174,-0.428 -0.521,-0.654 -0.942,-0.654c-0.422,0 -0.793,0.226 -0.967,0.654l-6.669,16.284l2.281,0l2.641,-6.714l7.877,6.462c0.317,0.26 0.546,0.377 0.844,0.377c0.594,0 1.115,-0.452 1.115,-1.107c0,-0.106 -0.038,-0.275 -0.104,-0.456Z" style="fill:#1a1918;fill-rule:nonzero;"/></g><g><path d="M519.169,83.727c0,38.776 -31.43,70.206 -70.206,70.206c-38.772,0 -70.206,-31.43 -70.206,-70.206c0,-38.772 31.434,-70.206 70.206,-70.206c38.776,0 70.206,31.434 70.206,70.206" style="fill:#1a1918;fill-rule:nonzero;"/><path d="M450.145,56.409l18.168,44.84l-27.443,-21.616l9.275,-23.224Zm32.275,55.17l-27.946,-67.254c-0.798,-1.94 -2.393,-2.966 -4.329,-2.966c-1.94,0 -3.651,1.026 -4.449,2.966l-30.673,73.769l10.493,0l12.142,-30.415l36.235,29.273c1.457,1.178 2.508,1.711 3.875,1.711c2.738,0 5.13,-2.052 5.13,-5.014c0,-0.482 -0.17,-1.247 -0.478,-2.07Z" style="fill:#fff;fill-rule:nonzero;"/></g></g></g></svg>