<?xml version="1.0" encoding="UTF-8" standalone="no"?><!DOCTYPE svg PUBLIC "-//W3C//DTD SVG 1.1//EN" "http://www.w3.org/Graphics/SVG/1.1/DTD/svg11.dtd"><svg width="100%" height="100%" viewBox="0 0 600 200" version="1.1" xmlns="http://www.w3.org/2000/svg" xmlns:xlink="http://www.w3.org/1999/xlink" xml:space="preserve" xmlns:serif="http://www.serif.com/" style="fill-rule:evenodd;clip-rule:evenodd;stroke-linejoin:round;stroke-miterlimit:2;"><rect x="0" y="0" width="600" height="200" style="fill:#fcc133;"/><text id="Title" x="2.823px" y="52.852px" style="font-family:'Data70Plain', 'Data 70';font-weight:500;font-size:67.596px;fill:#fff;">BCS.io</text><g><rect x="368.283" y="19.495" width="161.017" height="161.017" style="fill:none;"/><g><path d="M509.424,52.391l-50.821,-30.191c-6.069,-3.617 -13.554,-3.617 -19.624,0l-50.821,30.191c-6.069,3.585 -9.812,10.252 -9.812,17.454l0,60.35c0,7.201 3.743,13.869 9.812,17.454l50.821,30.159c3.02,1.792 6.416,2.705 9.812,2.705c3.397,0 6.762,-0.913 9.812,-2.705l50.821,-30.159c6.07,-3.617 9.812,-10.253 9.812,-17.454l0,-60.35c0,-7.202 -3.742,-13.869 -9.812,-17.454Z" style="fill:#fff;fill-rule:nonzero;"/><path d="M509.424,52.391l-50.821,-30.191c-3.019,-1.793 -6.415,-2.705 -9.812,-2.705c-3.396,0 -6.761,0.912 -9.812,2.705l-50.821,30.191c-6.069,3.585 -9.812,10.252 -9.812,17.454l0,60.35c0,7.201 3.743,13.869 9.812,17.454l50.821,30.159c3.02,1.792 6.416,2.705 9.812,2.705c3.397,0 6.762,-0.913 9.812,-2.705l50.821,-30.159c6.07,-3.617 9.812,-10.253 9.812,-17.454l0,-60.35c0,-7.202 -3.742,-13.869 -9.812,-17.454Zm-68.652,122.335l-50.821,-30.159c-4.969,-2.956 -8.051,-8.46 -8.051,-14.372l0,-60.35c0,-5.913 3.082,-11.416 8.051,-14.372l50.821,-30.16c2.453,-1.446 5.221,-2.201 8.019,-2.201c2.799,0 5.598,0.755 8.02,2.201l50.821,30.16c4.183,2.484 7.013,6.793 7.799,11.636c-1.698,-3.586 -5.472,-4.592 -9.906,-1.982l-48.085,29.719c-6.007,3.491 -10.41,7.454 -10.41,14.655l0,59.25c0,4.34 1.73,7.139 4.435,7.956c-0.881,0.157 -1.762,0.252 -2.674,0.252c-2.798,-0.032 -5.597,-0.786 -8.019,-2.233Z" style="fill:#283037;fill-rule:nonzero;"/><path d="M496.122,136.013l-12.674,7.579c-0.346,0.188 -0.598,0.409 -0.598,0.817l0,3.303c0,0.408 0.283,0.566 0.598,0.377l12.862,-7.799c0.346,-0.189 0.378,-0.566 0.378,-0.975l0,-2.925c0.031,-0.409 -0.252,-0.566 -0.566,-0.377Z" style="fill:#4da825;fill-rule:nonzero;"/><path d="M469.17,108.149c0.409,-0.22 0.755,0.063 0.755,0.598l0.031,4.371c1.824,-0.723 3.428,-0.912 4.875,-0.598c0.314,0.095 0.44,0.504 0.314,1.007l-0.975,3.868c-0.062,0.283 -0.251,0.598 -0.44,0.786c-0.094,0.095 -0.157,0.157 -0.251,0.189c-0.126,0.063 -0.252,0.094 -0.378,0.063c-0.66,-0.157 -2.233,-0.503 -4.686,0.755c-2.578,1.32 -3.49,3.553 -3.459,5.22c0.031,1.981 1.038,2.61 4.56,2.642c4.686,0.063 6.73,2.138 6.762,6.856c0.062,4.654 -2.422,9.623 -6.227,12.705l0.094,4.34c0,0.534 -0.346,1.132 -0.755,1.321l-2.578,1.478c-0.409,0.22 -0.755,-0.032 -0.755,-0.566l-0.032,-4.277c-2.201,0.912 -4.434,1.132 -5.849,0.566c-0.283,-0.095 -0.378,-0.504 -0.283,-0.944l0.943,-3.931c0.063,-0.314 0.252,-0.629 0.472,-0.818c0.094,-0.062 0.157,-0.125 0.252,-0.188c0.157,-0.063 0.283,-0.095 0.408,-0.032c1.541,0.504 3.491,0.283 5.378,-0.692c2.39,-1.226 3.994,-3.648 3.963,-6.101c-0.032,-2.201 -1.227,-3.113 -4.12,-3.144c-3.68,0 -7.139,-0.724 -7.202,-6.164c-0.031,-4.466 2.296,-9.121 5.975,-12.077l-0.031,-4.371c0,-0.535 0.314,-1.132 0.755,-1.352l2.484,-1.51Z" style="fill:#fff;fill-rule:nonzero;"/></g></g></svg>