<?xml version="1.0" encoding="UTF-8" standalone="no"?><!DOCTYPE svg PUBLIC "-//W3C//DTD SVG 1.1//EN" "http://www.w3.org/Graphics/SVG/1.1/DTD/svg11.dtd"><svg width="100%" height="100%" viewBox="0 0 600 200" version="1.1" xmlns="http://www.w3.org/2000/svg" xmlns:xlink="http://www.w3.org/1999/xlink" xml:space="preserve" xmlns:serif="http://www.serif.com/" style="fill-rule:evenodd;clip-rule:evenodd;stroke-linecap:round;stroke-linejoin:round;stroke-miterlimit:1.5;"><rect x="0" y="0" width="600" height="200" style="fill:#e7535d;stroke:#f00;stroke-width:1px;"/><g id="ballon"><path d="M373.416,141.848l13.899,25.012c0.133,0.239 0.387,0.387 0.66,0.386l17.169,-0.077c0.262,-0.001 0.501,-0.136 0.638,-0.359l15.754,-25.739c0.216,-0.354 0.105,-0.817 -0.249,-1.033c-0.354,-0.217 -0.817,-0.106 -1.034,0.248l-15.534,25.382l-16.306,0.073l-13.683,-24.623c-0.202,-0.362 -0.659,-0.493 -1.022,-0.292c-0.363,0.202 -0.493,0.659 -0.292,1.022Z" style="fill:#1651a4;fill-rule:nonzero;"/><path d="M397.265,166.453l-0.101,-22.632c-0.002,-0.415 -0.34,-0.75 -0.755,-0.748c-0.415,0.002 -0.75,0.34 -0.748,0.755l0.101,22.632c0.002,0.415 0.339,0.75 0.755,0.748c0.415,-0.002 0.749,-0.34 0.748,-0.755Z" style="fill:#1651a4;fill-rule:nonzero;"/><path d="M448.258,86.444c0.078,17.523 -10.075,37.668 -25.222,52.692c-7.412,7.353 -43.285,7.645 -50.817,0.227c-15.151,-14.921 -25.378,-35.033 -25.456,-52.466c-0.116,-26.098 36.224,-47.418 50.537,-47.482c14.312,-0.063 50.841,20.931 50.958,47.029Z" style="fill:#6a6964;fill-rule:nonzero;"/><path d="M397.3,39.415c-14.313,0.064 -50.654,21.383 -50.537,47.482c0.078,17.433 10.305,37.545 25.456,52.466c1.495,1.472 4.108,2.639 7.39,3.508c-9.224,-11.567 -21.733,-31.67 -21.84,-55.736c-0.17,-38.154 39.531,-47.72 39.531,-47.72Z" style="fill:#fff;fill-rule:nonzero;"/><path d="M397.3,39.415c14.312,-0.063 50.841,20.931 50.958,47.029c0.078,17.432 -9.969,37.635 -24.987,52.691c-1.481,1.486 -4.084,2.676 -7.358,3.575c9.12,-11.65 21.449,-31.864 21.342,-55.93c-0.171,-38.154 -39.955,-47.365 -39.955,-47.365Z" style="fill:#fff;fill-rule:nonzero;"/><path d="M387.006,144.224c5.724,0.675 12.218,0.743 18.169,0.217c20.385,-76.883 -7.875,-105.026 -7.875,-105.026c0,0 -32.597,33.029 -10.294,104.809Z" style="fill:#fff;fill-rule:nonzero;"/><path d="M379.241,142.774l-0.001,0l0.001,0Zm0.9,0.236c0.015,0.004 0.029,0.008 0.044,0.012c-0.015,-0.004 -0.029,-0.008 -0.044,-0.012Zm0.355,0.088c0.039,0.009 0.075,0.018 0.114,0.027c-0.039,-0.009 -0.075,-0.018 -0.114,-0.027Zm0.182,0.043c4.302,1.014 9.592,1.557 14.987,1.638c-5.396,-0.081 -10.684,-0.624 -14.987,-1.638Zm-8.425,-3.745c-0.011,-0.01 -0.022,-0.022 -0.034,-0.033c-9.372,-9.23 -16.86,-20.447 -21.228,-31.787c4.368,11.34 11.856,22.557 21.228,31.787c0.012,0.011 0.023,0.023 0.034,0.033Z" style="fill:#f9c4d6;fill-rule:nonzero;"/><path d="M397.168,144.79c6.836,-0.005 13.71,-0.745 18.838,-2.2c-5.128,1.455 -12.002,2.195 -18.838,2.2Z" style="fill:#f9c4d6;fill-rule:nonzero;"/><path d="M395.665,144.779c0.501,0.008 1.002,0.012 1.503,0.011c-0.501,0.001 -1.002,-0.003 -1.503,-0.011Z" style="fill:#5a479d;fill-rule:nonzero;"/><path d="M379.241,142.774l-0.001,0c-3.087,-0.852 -5.544,-1.976 -6.987,-3.378c-0.011,-0.01 -0.022,-0.022 -0.034,-0.033c1.439,1.417 3.913,2.551 7.023,3.409c0.122,0.034 0.244,0.067 0.367,0.099c-6.915,-8.672 -15.678,-22.145 -19.676,-38.487c1.739,-0.73 3.443,-1.529 5.099,-2.388c2.82,1.428 5.909,2.601 9.222,3.516c1.718,0.474 3.495,0.879 5.327,1.213c0.829,11.065 3.09,23.549 7.425,37.499c5.724,0.675 12.218,0.743 18.169,0.217c3.852,-14.529 5.967,-27.313 6.864,-38.5c9.996,-2.206 18.706,-6.225 24.874,-11.891c-2.036,20.768 -12.733,38.072 -20.907,48.54c-5.128,1.455 -12.002,2.195 -18.838,2.2c-0.501,0.001 -1.002,-0.003 -1.503,-0.011c-5.395,-0.081 -10.685,-0.624 -14.987,-1.638c-0.022,-0.005 -0.046,-0.011 -0.068,-0.016c-0.039,-0.009 -0.075,-0.018 -0.114,-0.027c-0.104,-0.025 -0.209,-0.051 -0.311,-0.076c-0.015,-0.004 -0.029,-0.008 -0.044,-0.012c-0.306,-0.076 -0.606,-0.155 -0.9,-0.236Z" style="fill:#6a6964;fill-rule:nonzero;"/><path d="M379.242,142.772c-3.11,-0.858 -5.584,-1.992 -7.023,-3.409c-9.372,-9.23 -16.86,-20.447 -21.228,-31.787c0.143,-0.087 0.231,-0.23 0.254,-0.383c0.555,-0.029 1.061,-0.108 1.509,-0.241c2.44,-0.725 4.842,-1.585 7.179,-2.568c3.998,16.342 12.761,29.815 19.676,38.487c-0.123,-0.032 -0.245,-0.065 -0.367,-0.099Z" style="fill:#ededed;fill-rule:nonzero;"/><path d="M416.006,142.59c8.174,-10.468 18.871,-27.772 20.907,-48.54c5.233,-4.807 8.636,-10.799 9.441,-17.871c1.192,3.276 1.877,6.682 1.904,10.181c-0.001,0.002 -0.001,0.001 0,0.003c0,0.012 -0.001,0.024 0,0.036c0,0.002 0,0.004 0,0.006c0,0.013 0,0.026 0,0.039c0,0.033 0,0.065 0,0.099c0.001,0.001 0,0.002 0,0.003c0,0.102 0.001,0.204 0,0.306l0,0.001c0,0.033 0,0.065 -0.001,0.099c0,0.001 0.001,0.003 0,0.004c0,0.016 0,0.033 0,0.049l0,0.002c0,0.014 0,0.026 0,0.04c-0.001,0.003 0,0.009 0,0.012c-0.001,0.011 0,0.022 -0.001,0.034c0,0.006 0,0.012 0,0.017c0,0.012 0,0.022 0,0.034c0,0.005 0,0.012 0,0.018c-0.001,0.011 -0.001,0.021 -0.001,0.033c0,0.006 0,0.012 0,0.018c0,0.011 0,0.02 0,0.03c-0.001,0.007 -0.001,0.016 -0.001,0.022c0,0.008 0,0.019 0,0.027c0,0.008 -0.001,0.017 0,0.025c-0.001,0.007 -0.001,0.016 -0.001,0.024c0,0.008 0,0.019 -0.001,0.027c0,0.007 0.001,0.014 0.001,0.02c-0.001,0.012 -0.001,0.021 -0.001,0.033c0,0.005 0,0.009 -0.001,0.015c0,0.013 0,0.023 0,0.036c0,0.006 0,0.01 -0.001,0.015c0.001,0.013 0,0.024 0,0.037c0,0.004 0,0.007 0,0.011c-0.001,0.013 -0.001,0.028 -0.001,0.041c0,0.001 0,0.004 0,0.005c-0.352,17.252 -10.392,36.854 -25.213,51.555c-1.426,1.414 -3.903,2.567 -7.03,3.454Z" style="fill:#d8d8d8;fill-rule:nonzero;"/><path d="M387.006,144.224c-4.335,-13.95 -6.596,-26.434 -7.425,-37.499c5.383,0.983 11.235,1.361 17.389,1.117c5.225,-0.207 10.293,-0.847 15.069,-1.901c-0.897,11.187 -3.012,23.971 -6.864,38.5c-5.951,0.526 -12.445,0.458 -18.169,-0.217Z" style="fill:#e9e9e9;fill-rule:nonzero;"/><path d="M367.733,135.425c0,0 12.111,3.911 28.426,3.863c16.314,-0.047 32.912,-5.87 32.912,-5.87l-8.942,12.986c0,0 -12.628,4.688 -24.287,4.721c-11.659,0.034 -21.337,-5.151 -21.337,-5.151l-6.772,-10.549Z" style="fill:#494949;fill-rule:nonzero;"/><g id="message"><path d="M371.49,138.734c0,0 11.238,1.591 26.771,1.269c14.346,-0.296 26.676,-2.951 26.676,-2.951l-5.094,7.496c0,0 -10.61,4.388 -21.416,4.844c-5.073,0.215 -9.888,-0.211 -13.924,-1.152c-5.269,-1.229 -8.856,-2.78 -8.424,-3.037l-4.589,-6.469Z" style="fill:#3eb650;fill-rule:nonzero;"/><path d="M392.922,141.373l8.624,-0.524l-0.697,6.686l-8.624,0.524l0.697,-6.686Z" style="fill:#fff;"/></g><g id="basket"><path d="M408.7,188.816l-23.049,0.003l-2.134,-21.529l27.336,-0.003l-2.153,21.529Z" style="fill:#6a6964;fill-rule:nonzero;"/><g id="message1" serif:id="message"><path d="M407.529,171.441l-10.319,-0.234l-0.233,10.226l10.319,0.234l0.233,-10.226Z" style="fill:#fcc133;"/><path d="M402.805,173.169c1.784,0.04 3.2,1.522 3.159,3.306c-0.04,1.784 -1.522,3.199 -3.306,3.159c-1.784,-0.041 -3.2,-1.522 -3.159,-3.306c0.04,-1.784 1.522,-3.2 3.306,-3.159Z" style="fill:#f8fafb;fill-opacity:0.97;"/><path d="M390.023,167.638l1.459,6.116l3.74,0.372l-2.907,3.029l1.464,5.548l-3.354,-3.615l-3.007,3.167l1.005,-5.374l-2.934,-2.783l3.587,-0.513l0.947,-5.947Z" style="fill:#fff;fill-rule:nonzero;stroke:#100c00;stroke-width:0.65px;stroke-linecap:butt;stroke-miterlimit:2;"/></g><path d="M410.981,170.1l-27.501,-0.304c-0.679,-0.007 -1.24,-0.536 -1.254,-1.181l-0.044,-2.143c-0.014,-0.644 0.526,-1.161 1.205,-1.153l27.501,0.303c0.68,0.008 1.241,0.536 1.255,1.181l0.044,2.144c0.013,0.644 -0.526,1.161 -1.206,1.153Z" style="fill:#494949;fill-rule:nonzero;"/><path d="M408.96,188.819l-23.262,-0.532c-0.711,-0.016 -1.305,-0.554 -1.328,-1.201l-0.074,-2.152c-0.022,-0.647 0.536,-1.159 1.247,-1.143l23.262,0.533c0.711,0.016 1.305,0.554 1.328,1.201l0.074,2.152c0.022,0.647 -0.536,1.158 -1.247,1.142Z" style="fill:#494949;fill-rule:nonzero;"/></g><path d="M386.331,83.092c0.001,-0.003 0.001,-0.004 0.002,-0.006c0,0.001 -0.002,0.004 -0.002,0.006Z" style="fill:#d8b23e;fill-rule:nonzero;"/><path d="M386.348,83.062c0.002,-0.003 0.004,-0.006 0.005,-0.009c-0.002,0.004 -0.003,0.006 -0.005,0.009Z" style="fill:#d8b23e;fill-rule:nonzero;"/><path d="M386.363,83.035c0.003,-0.005 0.006,-0.01 0.01,-0.016c-0.003,0.005 -0.007,0.011 -0.01,0.016Z" style="fill:#d8b23e;fill-rule:nonzero;"/><path d="M386.38,83.007c0.004,-0.007 0.007,-0.014 0.011,-0.02c-0.004,0.006 -0.007,0.013 -0.011,0.02Z" style="fill:#d8b23e;fill-rule:nonzero;"/><path d="M386.397,82.977c0.005,-0.007 0.009,-0.015 0.013,-0.023c-0.004,0.008 -0.008,0.015 -0.013,0.023Z" style="fill:#d8b23e;fill-rule:nonzero;"/><path d="M386.415,82.946c0.005,-0.008 0.01,-0.016 0.014,-0.025c-0.004,0.008 -0.009,0.017 -0.014,0.025Z" style="fill:#d8b23e;fill-rule:nonzero;"/><path d="M386.431,82.918c0.006,-0.01 0.012,-0.02 0.017,-0.03c-0.005,0.01 -0.011,0.02 -0.017,0.03Z" style="fill:#d8b23e;fill-rule:nonzero;"/><path d="M386.449,82.887c0.161,-0.28 0.318,-0.561 0.47,-0.843c-0.152,0.282 -0.309,0.563 -0.47,0.843Z" style="fill:#d8b23e;fill-rule:nonzero;"/><path d="M386.933,82.018c0.001,-0.002 0.003,-0.005 0.004,-0.008c-0.001,0.003 -0.003,0.006 -0.004,0.008Zm0.013,-0.025c0.002,-0.003 0.003,-0.006 0.005,-0.01c-0.002,0.004 -0.003,0.007 -0.005,0.01Zm0.014,-0.026c0.002,-0.004 0.002,-0.004 0.004,-0.007c-0.001,0.002 -0.003,0.004 -0.004,0.007Zm0.014,-0.027c0.002,-0.002 0.002,-0.003 0.003,-0.005c-0.001,0.002 -0.001,0.003 -0.003,0.005Zm0.015,-0.027c0.001,-0.002 0,-0.001 0.001,-0.002c0,0 -0.001,0.001 -0.001,0.002Z" style="fill:#f1c5be;fill-rule:nonzero;"/><g><ellipse cx="299.439" cy="153.252" rx="10.236" ry="3.823" style="fill:#ecf1f4;"/><ellipse cx="268.836" cy="162.753" rx="10.236" ry="3.823" style="fill:#edf0f3;"/><path d="M306.076,159.426c-4.445,0.484 -4.72,-7.369 -25.91,-7.456c-4.057,-0.017 -7.39,3.263 -7.438,7.319c-0.048,4.056 3.206,7.363 7.263,7.38c21.19,0.087 22.886,-6.001 26.085,-7.243Z" style="fill:#eaeff2;fill-opacity:0.97;stroke:#cbdde8;stroke-width:1px;"/><path d="M299.439,165.16c3.734,-0.691 3.884,-14.223 21.747,-14.296c4.04,-0.017 7.36,3.25 7.408,7.29c0.048,4.04 -3.193,7.334 -7.234,7.35c-17.863,0.074 -19.428,-0.28 -21.921,-0.344Z" style="fill:#f2f5f7;stroke:#cbdde8;stroke-width:1px;"/><path d="M284.008,159.275c4.241,0.482 4.499,-7.339 24.714,-7.422c4.041,-0.017 7.36,3.25 7.408,7.29c0.048,4.04 -3.193,7.333 -7.234,7.35c-20.215,0.083 -21.888,-5.98 -24.888,-7.218Z" style="fill:#edf1f4;stroke:#cbdde8;stroke-width:1px;"/><ellipse cx="334.677" cy="162.906" rx="10.236" ry="3.823" style="fill:#f3f6f8;"/><path id="_-Tear-" serif:id="(Tear)" d="M299.332,166.287c6.067,-0.631 16.203,-11.941 33.638,-11.887c3.309,0.01 5.972,2.705 5.942,6.014c-0.03,3.309 -2.74,5.987 -6.05,5.977c-17.434,-0.054 -28.552,-0.088 -33.53,-0.104Z" style="fill:#eef1f2;fill-opacity:0.93;"/><path d="M299.439,166.339c-6.472,-0.611 -15,-10.591 -31.382,-10.658c-3.031,-0.013 -5.521,2.438 -5.557,5.468c-0.036,3.031 2.395,5.501 5.426,5.514c16.383,0.067 26.162,-0.252 31.513,-0.324Z" style="fill:#f3f6f8;fill-opacity:0.87;"/></g><g><ellipse cx="463.754" cy="137.582" rx="4.554" ry="1.825" style="fill:#ecf1f4;"/><ellipse cx="450.138" cy="142.117" rx="4.554" ry="1.825" style="fill:#edf1f4;"/><path d="M466.707,140.529c-1.937,0.231 -2.056,-3.517 -11.29,-3.558c-1.937,-0.008 -3.526,1.556 -3.547,3.492c-0.022,1.937 1.533,3.515 3.469,3.524c9.234,0.041 10.026,-2.865 11.368,-3.458Z" style="fill:#eaeff2;fill-opacity:0.97;stroke:#cbdde8;stroke-width:1px;"/><path d="M463.754,143.265c1.621,-0.329 1.684,-6.787 9.438,-6.822c1.929,-0.008 3.512,1.551 3.533,3.479c0.021,1.928 -1.527,3.5 -3.455,3.509c-7.755,0.034 -8.488,-0.135 -9.516,-0.166Z" style="fill:#f2f5f7;stroke:#cbdde8;stroke-width:1px;"/><path d="M456.888,140.457c1.847,0.23 1.958,-3.503 10.759,-3.542c1.928,-0.008 3.511,1.55 3.533,3.479c0.021,1.928 -1.527,3.5 -3.455,3.509c-8.801,0.039 -9.583,-2.855 -10.837,-3.446Z" style="fill:#edf1f4;stroke:#cbdde8;stroke-width:1px;"/><ellipse cx="479.432" cy="142.19" rx="4.554" ry="1.825" style="fill:#f3f6f8;"/><path id="_-Tear-1" serif:id="(Tear)" d="M463.706,143.804c2.665,-0.302 7.116,-5.7 14.772,-5.675c1.579,0.006 2.851,1.292 2.838,2.871c-0.013,1.58 -1.306,2.858 -2.886,2.853c-7.656,-0.026 -12.579,-0.042 -14.724,-0.049Z" style="fill:#eef1f2;fill-opacity:0.93;"/><path d="M463.754,143.829c-2.843,-0.292 -6.589,-5.055 -13.785,-5.087c-1.446,-0.006 -2.634,1.163 -2.65,2.609c-0.016,1.447 1.145,2.626 2.592,2.633c7.196,0.031 11.535,-0.121 13.843,-0.155Z" style="fill:#f3f6f8;fill-opacity:0.87;"/></g></g><text id="Title" x="14.823px" y="58.326px" style="font-family:'Data70Plain', 'Data 70';font-weight:500;font-size:67.596px;fill:#fff;">BCS.io</text></svg>