<?xml version="1.0" encoding="UTF-8" standalone="no"?><!DOCTYPE svg PUBLIC "-//W3C//DTD SVG 1.1//EN" "http://www.w3.org/Graphics/SVG/1.1/DTD/svg11.dtd"><svg width="100%" height="100%" viewBox="0 0 451 151" version="1.1" xmlns="http://www.w3.org/2000/svg" xmlns:xlink="http://www.w3.org/1999/xlink" xml:space="preserve" xmlns:serif="http://www.serif.com/" style="fill-rule:evenodd;clip-rule:evenodd;stroke-linecap:round;stroke-linejoin:round;stroke-miterlimit:1.5;"><rect x="0.375" y="0.375" width="450" height="150" style="fill:#fff;stroke:#ededed;stroke-width:0.75px;"/><text id="Title" x="11.492px" y="44.12px" style="font-family:'Data70Plain', 'Data 70';font-weight:500;font-size:50.697px;">BCS.io</text><clipPath id="_clip1"><rect x="125.76" y="69.863" width="314.115" height="75.576"/></clipPath><g clip-path="url(#_clip1)"><path d="M222.947,79.739l0,-4.059l-3.769,0l0,4.059l-1.834,0l0,-9.738l1.897,0l0,4.084l3.769,0l0,-4.084l1.897,0l0,9.738l-1.96,0Zm8.796,0l-1.508,0l-0.138,-0.478c-0.639,0.411 -1.378,0.637 -2.136,0.654c-1.332,0 -1.91,-0.88 -1.91,-2.086c0,-1.432 0.641,-1.973 2.136,-1.973l1.759,0l0,-0.779c0,-0.779 -0.226,-1.055 -1.395,-1.055c-0.679,0.006 -1.357,0.078 -2.023,0.213l-0.251,-1.331c0.82,-0.216 1.665,-0.326 2.513,-0.327c2.299,0 2.978,0.779 2.978,2.513l-0.025,4.649Zm-1.797,-2.651l-1.357,0c-0.603,0 -0.767,0.163 -0.767,0.691c0,0.527 0.164,0.703 0.742,0.703c0.483,-0.007 0.958,-0.132 1.382,-0.364l0,-1.03Zm5.666,2.827c-0.852,-0.014 -1.698,-0.149 -2.512,-0.402l0.251,-1.345c0.708,0.194 1.439,0.296 2.174,0.302c0.816,0 0.929,-0.176 0.929,-0.704c0,-0.528 -0.088,-0.653 -1.256,-0.917c-1.784,-0.415 -1.998,-0.854 -1.998,-2.211c0,-1.357 0.616,-2.074 2.714,-2.074c0.74,0.003 1.477,0.087 2.199,0.252l-0.176,1.394c-0.664,-0.117 -1.336,-0.184 -2.01,-0.201c-0.792,0 -0.93,0.176 -0.93,0.603c0,0.428 0,0.604 1.03,0.855c2.048,0.515 2.237,0.779 2.237,2.224c0,1.445 -0.44,2.224 -2.652,2.224Zm8.394,-0.139l0,-4.887c0,-0.377 -0.164,-0.566 -0.591,-0.566c-0.667,0.064 -1.316,0.256 -1.91,0.566l0,4.85l-1.834,0l0,-9.876l1.834,0.276l0,3.104c0.835,-0.41 1.747,-0.642 2.677,-0.679c1.256,0 1.658,0.817 1.658,2.074l0,5.101l-1.834,0.037Zm3.367,-8.016l0,-1.759l1.834,0l0,1.722l-1.834,0.037Zm0,8.016l0,-7.061l1.834,0l0,7.024l-1.834,0.037Zm3.292,-6.96c0,-1.759 1.068,-2.79 3.556,-2.79c0.913,-0.001 1.824,0.105 2.714,0.314l-0.214,1.571c-0.809,-0.149 -1.628,-0.233 -2.45,-0.251c-1.257,0 -1.721,0.427 -1.721,1.457l0,3.657c0,1.017 0.414,1.457 1.721,1.457c0.822,-0.018 1.641,-0.102 2.45,-0.251l0.214,1.57c-0.89,0.21 -1.801,0.315 -2.714,0.314c-2.513,0 -3.556,-1.017 -3.556,-2.789l0,-4.259Zm10.328,7.099c-2.513,0 -3.179,-1.332 -3.179,-2.765l0,-1.809c0,-1.445 0.679,-2.764 3.179,-2.764c2.5,0 3.179,1.332 3.179,2.764l0,1.772c0.012,1.445 -0.666,2.802 -3.179,2.802Zm0,-5.818c-0.98,0 -1.357,0.415 -1.357,1.257l0,1.884c0,0.792 0.377,1.257 1.357,1.257c0.98,0 1.357,-0.415 1.357,-1.257l0,-1.96c0,-0.791 -0.377,-1.206 -1.357,-1.206l0,0.025Zm8.343,0.113c-0.67,0.291 -1.317,0.631 -1.935,1.018l0,4.523l-1.835,0l0,-7.036l1.546,0l0.126,0.779c0.598,-0.387 1.245,-0.695 1.922,-0.917l0.176,1.633Zm7.325,3.192c0.02,0.117 0.029,0.236 0.029,0.356c0,1.192 -0.981,2.173 -2.173,2.173c-0.09,0 -0.179,-0.005 -0.268,-0.016c-0.654,-0.007 -1.306,-0.074 -1.948,-0.201l0,2.839l-1.834,0.277l0,-10.052l1.457,0l0.176,0.591c0.674,-0.484 1.483,-0.743 2.312,-0.742c1.47,0 2.249,0.842 2.249,2.438l0,2.337Zm-4.372,0.791c0.532,0.115 1.075,0.178 1.62,0.189c0.666,0 0.918,-0.302 0.918,-0.943l0,-2.512c0,-0.578 -0.227,-0.893 -0.905,-0.893c-0.601,0.022 -1.178,0.249 -1.633,0.641l0,3.518Zm-43.776,16.221l-11.169,0l0,-6.672l29.916,0l0,6.672l-11.183,0l0,33.334l-7.538,0l-0.026,-33.334Z" style="fill-rule:nonzero;"/><path d="M254.158,122.345c3.034,-0.015 6.049,-0.481 8.946,-1.382l1.143,5.529c-3.449,1.242 -7.089,1.872 -10.755,1.859c-9.185,0 -12.376,-4.259 -12.376,-11.308l0,-7.727c0,-6.182 2.764,-11.409 12.137,-11.409c9.373,0 11.472,5.466 11.472,11.773l0,6.282l-16.334,0l0,1.508c0.062,3.493 1.319,4.875 5.767,4.875Zm-5.705,-12.275l9.311,0l0,-1.483c0,-2.764 -0.842,-4.687 -4.448,-4.687c-3.606,0 -4.863,1.923 -4.863,4.687l0,1.483Zm35.86,-5.441c-2.699,1.217 -5.299,2.641 -7.778,4.26l0,18.847l-7.325,0l0,-29.238l6.182,0l0.477,3.241c2.384,-1.613 4.969,-2.906 7.69,-3.844l0.754,6.734Zm17.892,0c-2.69,1.218 -5.282,2.642 -7.753,4.26l0,18.847l-7.325,0l0,-29.238l6.182,0l0.478,3.241c2.383,-1.613 4.968,-2.906 7.689,-3.844l0.729,6.734Zm24.513,23.119l-6.006,0l-0.54,-1.985c-2.591,1.686 -5.616,2.585 -8.707,2.588c-5.34,0 -7.627,-3.669 -7.627,-8.707c0,-5.943 2.588,-8.23 8.532,-8.23l7.023,0l0,-3.066c0,-3.241 -0.904,-4.385 -5.591,-4.385c-2.725,0.031 -5.44,0.334 -8.104,0.905l-0.905,-5.591c3.274,-0.906 6.655,-1.371 10.052,-1.382c9.184,0 11.898,3.241 11.898,10.566l-0.025,19.287Zm-7.325,-11.057l-5.403,0c-2.399,0 -3.065,0.666 -3.065,2.878c0,2.211 0.666,2.94 2.94,2.94c1.94,-0.03 3.842,-0.549 5.528,-1.508l0,-4.31Zm29.841,-24.865c-1.384,-0.297 -2.794,-0.457 -4.209,-0.478c-2.877,0 -3.305,1.257 -3.305,3.481l0,3.669l7.451,0l-0.414,5.83l-7.024,0l0,23.42l-7.325,0l0,-23.42l-4.687,0l0,-5.83l4.687,0l0,-4.084c0,-6.068 2.827,-9.071 9.31,-9.071c2.123,-0.008 4.237,0.275 6.282,0.841l-0.766,5.642Zm14.299,36.525c-10.052,0 -12.728,-5.528 -12.728,-11.534l0,-7.388c0,-6.006 2.701,-11.534 12.728,-11.534c10.026,0 12.727,5.528 12.727,11.534l0,7.388c0.013,6.006 -2.701,11.534 -12.727,11.534Zm0,-24.212c-3.908,0 -5.403,1.747 -5.403,5.026l0,7.865c0,3.305 1.508,5.026 5.403,5.026c3.895,0 5.402,-1.746 5.402,-5.026l0,-7.84c0,-3.304 -1.495,-5.051 -5.402,-5.051Zm31.587,0.49c-2.69,1.218 -5.282,2.642 -7.752,4.26l0,18.847l-7.326,0l0,-29.238l6.182,0l0.478,3.241c2.383,-1.613 4.968,-2.906 7.689,-3.844l0.729,6.734Zm20.128,23.119l0,-20.417c0,-1.558 -0.666,-2.337 -2.337,-2.337c-2.684,0.319 -5.278,1.173 -7.626,2.513l0,20.241l-7.325,0l0,-29.25l5.591,0l0.716,2.513c3.651,-1.847 7.649,-2.909 11.735,-3.116c2.311,-0.218 4.525,1.035 5.529,3.128c3.655,-1.873 7.67,-2.94 11.773,-3.128c4.862,0 6.609,3.417 6.609,8.644l0,21.209l-7.325,0l0,-20.417c0,-1.558 -0.666,-2.337 -2.337,-2.337c-2.69,0.296 -5.288,1.152 -7.627,2.513l0,20.241l-7.376,0Z" style="fill-rule:nonzero;"/><path d="M171.495,95.243l0,23.785l20.606,-11.886l0,-23.81l-20.606,11.911Z" style="fill:#4040b2;fill-rule:nonzero;"/><path d="M148.628,83.332l20.606,11.911l0,23.785l-20.606,-11.898l0,-23.798Z" style="fill:#5c4ee5;fill-rule:nonzero;"/><path d="M125.76,70.051l0,23.798l20.606,11.898l0,-23.797l-20.606,-11.899Zm22.868,63.489l20.606,11.899l0,-23.797l-20.606,-11.899l0,23.797Z" style="fill:#5c4ee5;fill-rule:nonzero;"/></g></svg>