<?xml version="1.0" encoding="UTF-8" standalone="no"?><!DOCTYPE svg PUBLIC "-//W3C//DTD SVG 1.1//EN" "http://www.w3.org/Graphics/SVG/1.1/DTD/svg11.dtd"><svg width="100%" height="100%" viewBox="0 0 214 263" version="1.1" xmlns="http://www.w3.org/2000/svg" xmlns:xlink="http://www.w3.org/1999/xlink" xml:space="preserve" xmlns:serif="http://www.serif.com/" style="fill-rule:evenodd;clip-rule:evenodd;stroke-linecap:round;stroke-linejoin:round;stroke-miterlimit:1.5;"><g id="hand-shake"><g id="small-balloon" serif:id="small balloon"><ellipse cx="133.756" cy="230.149" rx="65.5" ry="8.5" style="fill:#f2f2f2;stroke:#f0f0f0;stroke-width:2px;"/><g id="balloon"><path d="M97.816,158.788l21.546,38.772c0.206,0.371 0.6,0.601 1.024,0.599l26.614,-0.119c0.406,-0.002 0.777,-0.211 0.989,-0.557l24.421,-39.899c0.335,-0.55 0.163,-1.267 -0.386,-1.602c-0.549,-0.337 -1.266,-0.164 -1.602,0.385l-24.082,39.346l-25.276,0.113l-21.211,-38.169c-0.312,-0.562 -1.022,-0.765 -1.584,-0.453c-0.562,0.313 -0.765,1.022 -0.453,1.584Z" style="fill:#1651a4;fill-rule:nonzero;"/><path d="M134.786,196.93l-0.156,-35.084c-0.003,-0.642 -0.527,-1.162 -1.171,-1.159c-0.642,0.003 -1.162,0.526 -1.159,1.17l0.156,35.084c0.003,0.643 0.527,1.162 1.17,1.159c0.644,-0.002 1.162,-0.526 1.16,-1.17Z" style="fill:#1651a4;fill-rule:nonzero;"/><path d="M213.834,72.903c0.121,27.163 -15.618,58.391 -39.098,81.681c-11.491,11.399 -67.099,11.85 -78.775,0.352c-23.486,-23.131 -39.34,-54.308 -39.461,-81.331c-0.18,-40.457 56.153,-73.505 78.34,-73.605c22.186,-0.098 78.813,32.446 78.994,72.903Z" style="fill:#6a6964;fill-rule:nonzero;"/><path d="M134.84,0c-22.187,0.1 -78.521,33.148 -78.34,73.605c0.121,27.023 15.975,58.2 39.461,81.331c2.317,2.281 6.368,4.091 11.456,5.438c-14.299,-17.931 -33.689,-49.094 -33.857,-86.401c-0.263,-59.144 61.28,-73.973 61.28,-73.973Z" style="fill:#fff;fill-rule:nonzero;"/><path d="M134.84,0c22.186,-0.098 78.813,32.446 78.994,72.903c0.12,27.023 -15.454,58.341 -38.734,81.679c-2.297,2.303 -6.331,4.148 -11.406,5.541c14.137,-18.058 33.249,-49.393 33.083,-86.699c-0.264,-59.145 -61.937,-73.424 -61.937,-73.424Z" style="fill:#fff;fill-rule:nonzero;"/><path d="M118.882,162.471c8.875,1.047 18.94,1.151 28.167,0.336c31.599,-119.181 -12.209,-162.807 -12.209,-162.807c0,0 -50.531,51.2 -15.958,162.471Z" style="fill:#fff;fill-rule:nonzero;"/><path d="M106.846,160.224l-0.002,-0.001l0.002,0.001Zm1.395,0.366c0.024,0.006 0.045,0.012 0.069,0.017c-0.024,-0.005 -0.045,-0.011 -0.069,-0.017Zm0.551,0.135c0.06,0.014 0.116,0.028 0.176,0.042c-0.06,-0.014 -0.116,-0.028 -0.176,-0.042Zm0.282,0.067c6.669,1.572 14.869,2.414 23.232,2.54c-8.365,-0.126 -16.562,-0.967 -23.232,-2.54Zm-13.06,-5.805c-0.017,-0.016 -0.035,-0.034 -0.053,-0.051c-14.529,-14.308 -26.137,-31.696 -32.906,-49.275c6.769,17.579 18.377,34.967 32.906,49.275c0.018,0.017 0.036,0.035 0.053,0.051Z" style="fill:#f9c4d6;fill-rule:nonzero;"/><path d="M134.637,163.349c10.595,-0.008 21.251,-1.155 29.201,-3.411c-7.95,2.256 -18.606,3.403 -29.201,3.411Z" style="fill:#f9c4d6;fill-rule:nonzero;"/><path d="M132.306,163.332c0.776,0.012 1.553,0.017 2.331,0.017c-0.778,0 -1.555,-0.005 -2.331,-0.017Z" style="fill:#5a479d;fill-rule:nonzero;"/><path d="M106.846,160.224l-0.002,-0.001c-4.784,-1.321 -8.593,-3.063 -10.83,-5.236c-0.017,-0.016 -0.035,-0.034 -0.053,-0.051c2.23,2.196 6.066,3.954 10.886,5.285c0.189,0.052 0.378,0.103 0.57,0.153c-10.721,-13.443 -24.304,-34.328 -30.501,-59.661c2.695,-1.132 5.336,-2.37 7.903,-3.703c4.372,2.215 9.16,4.033 14.296,5.451c2.663,0.736 5.418,1.363 8.257,1.881c1.287,17.152 4.791,36.504 11.51,58.129c8.875,1.047 18.94,1.151 28.167,0.336c5.97,-22.521 9.249,-42.34 10.639,-59.68c15.495,-3.42 28.998,-9.651 38.559,-18.434c-3.156,32.193 -19.738,59.018 -32.409,75.245c-7.95,2.256 -18.606,3.403 -29.201,3.411c-0.778,0 -1.555,-0.005 -2.331,-0.017c-8.363,-0.126 -16.563,-0.968 -23.232,-2.54c-0.034,-0.008 -0.072,-0.016 -0.106,-0.025c-0.06,-0.014 -0.116,-0.028 -0.176,-0.042c-0.161,-0.038 -0.324,-0.078 -0.482,-0.118c-0.024,-0.005 -0.045,-0.011 -0.069,-0.017c-0.474,-0.118 -0.94,-0.241 -1.395,-0.366Z" style="fill:#6a6964;fill-rule:nonzero;"/><path d="M106.847,160.221c-4.82,-1.331 -8.656,-3.089 -10.886,-5.285c-14.529,-14.308 -26.137,-31.696 -32.906,-49.275c0.22,-0.136 0.356,-0.356 0.393,-0.595c0.86,-0.044 1.645,-0.166 2.339,-0.372c3.783,-1.124 7.505,-2.458 11.129,-3.981c6.197,25.333 19.78,46.218 30.501,59.661c-0.192,-0.05 -0.381,-0.101 -0.57,-0.153Z" style="fill:#ededed;fill-rule:nonzero;"/><path d="M163.838,159.938c12.671,-16.227 29.253,-43.052 32.409,-75.245c8.112,-7.452 13.388,-16.74 14.635,-27.702c1.849,5.078 2.91,10.358 2.951,15.781c0,0.003 0,0.002 0,0.005c0,0.018 0,0.037 0.001,0.056c-0.001,0.002 0,0.006 0,0.008c-0.001,0.021 0,0.041 0,0.062c0,0.051 0,0.101 0,0.153c0.001,0.002 0,0.003 0.001,0.005c-0.001,0.157 0,0.316 -0.001,0.473l0,0.003c0,0.051 -0.001,0.101 -0.001,0.153c0,0.001 0,0.004 0,0.006c0,0.025 0,0.052 -0.001,0.076l0,0.003c0,0.022 0,0.041 0,0.062c-0.001,0.005 0,0.014 0,0.019c-0.001,0.018 0,0.035 -0.001,0.053c0,0.009 0,0.018 0,0.027c-0.001,0.018 -0.001,0.034 -0.001,0.051c0.001,0.009 0,0.02 0,0.028c0,0.018 0,0.033 -0.001,0.051c0,0.01 0,0.019 0,0.029c0,0.017 0,0.031 0,0.047c-0.001,0.01 -0.001,0.023 -0.001,0.033c0,0.013 -0.001,0.029 -0.001,0.043c0,0.012 0,0.026 0,0.037c-0.001,0.012 0,0.026 -0.001,0.038c0,0.013 0,0.029 -0.001,0.042c0,0.011 0,0.022 0,0.031c-0.001,0.019 0,0.032 -0.001,0.051c0,0.008 0,0.014 0,0.023c-0.001,0.02 -0.001,0.036 -0.001,0.056c0,0.009 0,0.016 -0.001,0.023c0,0.021 0,0.038 0,0.058c-0.001,0.007 -0.001,0.01 -0.001,0.017c-0.001,0.021 -0.001,0.043 -0.001,0.064c0,0.002 0,0.005 -0.001,0.007c-0.545,26.744 -16.109,57.13 -39.083,79.919c-2.21,2.192 -6.051,3.979 -10.898,5.354Z" style="fill:#d8d8d8;fill-rule:nonzero;"/><path d="M118.882,162.471c-6.719,-21.625 -10.223,-40.977 -11.51,-58.129c8.345,1.523 17.417,2.109 26.957,1.731c8.099,-0.321 15.956,-1.313 23.359,-2.946c-1.39,17.34 -4.669,37.159 -10.639,59.68c-9.227,0.815 -19.292,0.711 -28.167,-0.336Z" style="fill:#e9e9e9;fill-rule:nonzero;"/><path d="M89.367,148.006c0,0 18.882,5.719 44.061,5.606c25.179,-0.112 50.518,-8.721 50.518,-8.721l-13.18,19.121c0,0 -19.267,6.929 -37.26,7.008c-17.995,0.081 -33.181,-7.519 -33.181,-7.519l-10.958,-15.495Z" style="fill:#494949;fill-rule:nonzero;"/><path d="M150.43,227.075l-31.909,0.142l-3.815,-28.615l37.845,-0.169l-2.121,28.642Z" style="fill:#6a6964;fill-rule:nonzero;"/><path d="M154.501,201.88l-40.276,0.179c-0.995,0.005 -1.804,-0.798 -1.809,-1.793l-0.015,-3.307c-0.005,-0.995 0.799,-1.805 1.793,-1.809l40.276,-0.18c0.996,-0.005 1.805,0.798 1.81,1.793l0.015,3.308c0.004,0.995 -0.799,1.805 -1.794,1.809Z" style="fill:#494949;fill-rule:nonzero;"/><path d="M118.589,198.585c-3.883,0.017 -8.329,12.191 1.225,12.113c9.554,-0.078 2.658,-12.13 -1.225,-12.113Z" style="fill:#494949;fill-rule:nonzero;"/><path d="M133.25,198.997c-3.883,0.018 -8.329,12.191 1.225,12.114c9.553,-0.078 2.658,-12.131 -1.225,-12.114Z" style="fill:#494949;fill-rule:nonzero;"/><path d="M149.068,198.379c-3.883,0.018 -8.328,12.192 1.225,12.114c9.553,-0.078 2.658,-12.131 -1.225,-12.114Z" style="fill:#494949;fill-rule:nonzero;"/><path d="M150.044,230.531l-32.545,0.146c-0.994,0.005 -1.804,-0.798 -1.809,-1.793l-0.014,-3.308c-0.004,-0.995 0.798,-1.805 1.793,-1.809l32.544,-0.145c0.994,-0.005 1.805,0.798 1.809,1.793l0.015,3.308c0.004,0.995 -0.798,1.804 -1.793,1.808Z" style="fill:#494949;fill-rule:nonzero;"/><path d="M117.836,67.706c0.002,-0.004 0.003,-0.005 0.004,-0.008c0,0.001 -0.003,0.006 -0.004,0.008Z" style="fill:#d8b23e;fill-rule:nonzero;"/><path d="M117.863,67.66c0.002,-0.004 0.006,-0.01 0.007,-0.013c-0.003,0.005 -0.004,0.008 -0.007,0.013Z" style="fill:#d8b23e;fill-rule:nonzero;"/><path d="M117.887,67.618c0.005,-0.008 0.009,-0.015 0.014,-0.024c-0.004,0.007 -0.01,0.017 -0.014,0.024Z" style="fill:#d8b23e;fill-rule:nonzero;"/><path d="M117.913,67.574c0.006,-0.01 0.011,-0.02 0.017,-0.031c-0.006,0.011 -0.011,0.021 -0.017,0.031Z" style="fill:#d8b23e;fill-rule:nonzero;"/><path d="M117.939,67.529c0.007,-0.012 0.014,-0.024 0.021,-0.036c-0.007,0.012 -0.013,0.023 -0.021,0.036Z" style="fill:#d8b23e;fill-rule:nonzero;"/><path d="M117.967,67.48c0.007,-0.013 0.015,-0.024 0.022,-0.039c-0.007,0.013 -0.015,0.027 -0.022,0.039Z" style="fill:#d8b23e;fill-rule:nonzero;"/><path d="M117.992,67.436c0.009,-0.014 0.018,-0.03 0.026,-0.045c-0.008,0.015 -0.017,0.031 -0.026,0.045Z" style="fill:#d8b23e;fill-rule:nonzero;"/><path d="M118.02,67.389c0.25,-0.434 0.493,-0.87 0.728,-1.308c-0.235,0.438 -0.478,0.874 -0.728,1.308Z" style="fill:#d8b23e;fill-rule:nonzero;"/><path d="M118.769,66.042c0.002,-0.004 0.005,-0.009 0.007,-0.013c-0.002,0.004 -0.005,0.009 -0.007,0.013Zm0.021,-0.039c0.003,-0.005 0.005,-0.01 0.008,-0.015c-0.003,0.005 -0.005,0.01 -0.008,0.015Zm0.022,-0.041c0.003,-0.005 0.003,-0.006 0.006,-0.01c-0.002,0.003 -0.004,0.006 -0.006,0.01Zm0.022,-0.041c0.002,-0.003 0.002,-0.006 0.004,-0.009c-0.002,0.003 -0.002,0.006 -0.004,0.009Zm0.022,-0.043c0.002,-0.002 0.001,-0.001 0.002,-0.003c0,0.001 -0.001,0.002 -0.002,0.003Z" style="fill:#f1c5be;fill-rule:nonzero;"/></g></g><g id="Shaking"><ellipse cx="56.5" cy="254.502" rx="55.5" ry="6.5" style="fill:#f2f2f2;stroke:#f0f0f0;stroke-width:2px;"/><path d="M36.306,216.162c0,0 0.359,0.311 0.483,0.602c0.099,0.229 0.428,0.533 0.583,0.707c0.156,0.174 0.736,0.987 0.82,1.213c0.033,0.093 -0.012,0.732 0.08,0.913c0.092,0.182 0.329,0.529 0.15,0.594c-0.18,0.065 -0.488,-0.195 -0.488,-0.195c0,0 0.073,0.169 -0.065,0.27c-0.266,0.195 -0.465,0.116 -0.465,0.116c0,0 -0.053,0.216 -0.187,0.272c-0.297,0.125 -0.486,0.044 -0.486,0.044c0,0 -0.105,0.137 -0.322,0.18c-0.279,0.054 -0.465,-0.137 -0.465,-0.137c0,0 -0.331,0.14 -0.478,0.014c-0.149,-0.127 -0.182,-0.289 -0.267,-0.414c-0.084,-0.126 -0.434,-1.347 -0.253,-2.32c0.18,-0.973 -0.66,-1.702 -0.66,-1.702l2.02,-0.157Z" style="fill:#eea886;fill-rule:nonzero;"/><path d="M34.631,219.966c-0.155,0 -0.281,0.113 -0.281,0.254l0,2.649c0,0.14 0.126,0.255 0.281,0.255l4.643,0c0.155,0 0.281,-0.115 0.281,-0.255l0,-2.649c0,-0.141 -0.126,-0.254 -0.281,-0.254l-4.643,0Zm4.643,3.677l-4.643,0c-0.472,0 -0.855,-0.347 -0.855,-0.774l0,-2.649c0,-0.426 0.383,-0.773 0.855,-0.773l4.643,0c0.472,0 0.855,0.347 0.855,0.773l0,2.649c0,0.427 -0.383,0.774 -0.855,0.774Z" style="fill:#0e1e2b;fill-rule:nonzero;"/><rect x="28.243" y="222.505" width="17.419" height="11.291" style="fill:#54281a;fill-rule:nonzero;"/><path d="M29.553,192.292c0,0 -0.892,0.011 -1.272,2.425c-0.381,2.413 0.341,3.422 0.426,4.427c0.086,1.004 1.389,7.491 1.424,7.779c0.035,0.286 0.21,3.738 0.718,4.655c0.507,0.916 4.241,6.109 4.29,6.368c0.051,0.259 1.813,-0.905 1.813,-0.905c0,0 -2.933,-5.554 -3.102,-6.187c-0.17,-0.635 -1.351,-3.871 -1.165,-4.858c0.188,-0.988 -0.522,-6.437 -0.453,-7.044c0.068,-0.606 -0.969,-6.292 -2.679,-6.66Z" style="fill:#eea886;fill-rule:nonzero;"/><path d="M29.553,192.292c0,0 -0.892,0.011 -1.272,2.425c-0.381,2.413 -0.037,3.282 0.193,4.329c0.218,0.988 0.958,7.032 0.994,7.319c0.035,0.287 0.92,3.931 1.381,5.213c0.35,0.974 3.678,6.077 3.729,6.336c0.049,0.26 2.588,-1.192 2.588,-1.192c0,0 -3.255,-5.745 -3.425,-6.378c-0.17,-0.634 -0.721,-2.827 -0.739,-3.83c-0.021,-1.177 -0.839,-6.955 -0.77,-7.562c0.068,-0.606 -0.189,-5.835 -2.679,-6.66Z" style="fill:#285173;fill-rule:nonzero;"/><path d="M37.948,219.871c0,0 -0.312,-1.097 -0.701,-1.26c-0.39,-0.163 -0.302,0.237 -0.302,0.237c0,0 -0.08,-0.398 -0.442,-0.375c-0.362,0.022 -0.232,0.487 -0.232,0.487c0,0 -0.151,-0.287 -0.496,-0.148c-0.343,0.141 -0.137,0.504 -0.137,0.504c0,0 -0.465,-0.3 -0.576,0.11c-0.19,0.689 0.38,1.328 0.38,1.328c0,0 0.178,0.176 0.498,0.02c0,0 0.378,0.37 0.801,-0.045c0,0 0.628,0.148 0.687,-0.317c0,0 0.707,0.076 0.52,-0.541Z" style="fill:#db9c7c;fill-rule:nonzero;"/><path d="M40.354,251.509c0,0 1.912,2.327 1.65,2.696c-0.263,0.369 -2.272,0.422 -3.496,0c-1.223,-0.421 -1.253,-3.149 -1.806,-4.322c-0.232,-0.491 0.264,-1.94 0.961,-2.044c0.698,-0.106 1.456,0.203 1.456,0.203c0,0 -0.723,1.652 1.235,3.467Z" style="fill:#1d3b54;fill-rule:nonzero;"/><path d="M39.132,248.023c0,0 0.402,0.992 0.548,1.938c0.123,0.785 1.362,2.452 1.304,2.663c-0.058,0.212 -1.631,0.402 -2.272,-0.142c-0.641,-0.543 -1.054,-2.124 -1.194,-3.07c-0.132,-0.88 -0.298,-1.315 -0.298,-1.315c0,0 1.3,-0.654 1.912,-0.074Z" style="fill:#eea886;fill-rule:nonzero;"/><path d="M23.717,251.548c0,0 1.843,2.288 1.58,2.657c-0.262,0.369 -2.271,0.422 -3.495,0c-1.224,-0.421 -1.253,-3.149 -1.806,-4.322c-0.232,-0.491 0.264,-1.94 0.961,-2.044c0.697,-0.106 1.515,0.226 1.515,0.226c0,0 -0.714,1.667 1.245,3.483Z" style="fill:#1d3b54;fill-rule:nonzero;"/><path d="M22.472,248.065c0,0 0.146,1.08 0.379,1.845c0.233,0.764 1.486,2.503 1.427,2.714c-0.059,0.212 -1.631,0.402 -2.272,-0.142c-0.641,-0.543 -1.136,-2.117 -1.195,-3.07c-0.058,-0.952 0.146,-1.573 0.146,-1.573c0,0 0.903,-0.354 1.515,0.226Z" style="fill:#eea886;fill-rule:nonzero;"/><path d="M31.679,210.164c0,0 1.64,6.903 2.017,8.641c0.377,1.738 1.432,10.156 1.544,11.588c0.114,1.43 1.712,6.824 1.637,7.335c-0.076,0.511 2.369,10.78 2.369,10.78c0,0 -0.835,0.608 -1.715,0.055c-0.452,-0.285 -5.366,-9.613 -5.366,-12.169c0,-3.533 -2.945,-8.032 -3.317,-8.823c-3.462,-7.342 -2.722,-9.702 -3.174,-10.179c-0.452,-0.477 -0.492,0.296 -0.755,1.352c-0.265,1.057 -0.829,10.19 -1.168,11.348c-0.339,1.159 -0.076,5.079 -0.264,7.055c-0.188,1.977 -1.015,10.918 -1.015,10.918c0,0 -0.641,0.907 -1.539,0.023c-0.193,-0.19 -1.551,-9.96 -1.589,-12.311c-0.038,-2.351 -0.078,-5.594 -0.151,-6.612c-0.698,-9.744 -2.413,-11.136 0.289,-18.032c5.058,-12.913 12.197,-0.969 12.197,-0.969Z" style="fill:#eea886;fill-rule:nonzero;"/><path d="M21.01,208.235c0,0 -5.04,7.868 -2.871,24.607c0,0 11.957,1.814 18.362,-2.098c0,0 -2.649,-17.258 -3.609,-19.943c-0.959,-2.686 -11.882,-2.566 -11.882,-2.566Z" style="fill:#1d3b54;fill-rule:nonzero;"/><path d="M36.65,249.679l0,2.436l0.35,0l0,-1.883l-0.35,-0.553Z" style="fill:#1d3b54;fill-rule:nonzero;"/><path d="M19.944,249.679l0,2.436l0.35,0l0,-1.883l-0.35,-0.553Z" style="fill:#1d3b54;fill-rule:nonzero;"/><path d="M26.936,191.422c0,0 1.721,0.735 2.319,0.844c0.597,0.107 2.916,2.833 3.323,3.828c0.406,0.995 0,2.488 -0.837,4.24c-0.837,1.753 -0.048,2.336 -0.43,4.089c-0.383,1.752 -0.718,5.461 -0.646,6.435c0.072,0.974 -9.671,1.157 -11.894,-0.617c0,0 2.235,-3.028 2.521,-3.461c0.288,-0.432 0.049,-2.79 -0.214,-3.396c-0.264,-0.606 -2.014,-5.757 -2.014,-5.757c0,0 -1.432,-3.955 -0.139,-4.864c1.124,-0.79 4.187,-1.072 4.737,-1.244c0.55,-0.173 2.15,-0.248 3.274,-0.097Z" style="fill:#eddad3;fill-rule:nonzero;"/><path d="M27.485,194.894l1.046,-1.109l-0.908,-2.917c0,0 -0.306,1.625 -0.138,4.026Z" style="fill:#d6c5be;fill-rule:nonzero;"/><path d="M24.763,180.368c1.023,-0.326 4.781,-1.125 5.666,3.223c0.885,4.348 -1.768,7.441 -4.208,6.62c-2.439,-0.822 -3.945,-3.829 -4.089,-6.122c-0.143,-2.293 1.34,-3.31 2.631,-3.721Z" style="fill:#eea886;fill-rule:nonzero;"/><path d="M30.429,183.591c0,0 0.185,-3.72 -3.904,-3.85c-4.089,-0.13 -5.188,2.915 -4.854,5.135c0.335,2.219 2.028,3.391 2.028,3.391c0,0 -0.148,-1.796 0.646,-2.263c0.793,-0.466 3.974,-1.396 5.36,-3.559c0,0 0.642,0.682 0.724,1.146Z" style="fill:#252e3b;fill-rule:nonzero;"/><path d="M24.666,183.496c0.076,1.559 -1.084,2.871 -2.59,2.93c-1.505,0.06 -2.787,-1.156 -2.862,-2.713c-0.076,-1.558 1.084,-2.87 2.589,-2.93c1.505,-0.06 2.787,1.156 2.863,2.713Z" style="fill:#252e3b;fill-rule:nonzero;"/><path d="M27.757,189.625c0,0 -0.343,2.856 -0.272,3.787c0,0 -1.789,1.622 -3.823,-1.893c0,0 0.855,-1.449 0.212,-3.423c-0.644,-1.974 3.883,1.529 3.883,1.529Z" style="fill:#eea886;fill-rule:nonzero;"/><path d="M27.485,193.412l0,1.482l-2.059,-1.392l2.059,-0.09Z" style="fill:#eea886;fill-rule:nonzero;"/><path d="M27.485,194.894l-0.854,-0.958l-2.88,-2.596l-0.931,0.812l4.665,2.742Z" style="fill:#d6c5be;fill-rule:nonzero;"/><path d="M23.351,191.589c0,0 2.416,3.317 2.532,4.777c0.116,1.46 -0.897,12.382 -1.709,15.893c-0.812,3.511 -6.675,-0.395 -6.675,-0.395c0,0 3.94,-5.77 2.428,-10.391c-1.513,-4.62 -2.063,-6.467 -2.063,-6.467c0,0 0.52,-2.573 2.365,-2.935c1.617,-0.318 3.122,-0.482 3.122,-0.482Z" style="fill:#285173;fill-rule:nonzero;"/><path d="M32.738,196.537c0,0 0.435,1.395 -1.263,4.479c0,0 0.027,3.947 0.075,5.18c0.048,1.234 1.012,5.667 1.012,5.667l-2.32,1.118c-0.338,0.179 -0.758,-0.07 -0.71,-0.422c0.476,-3.548 2.022,-17.008 -1.319,-20.625l1.34,0.358c0,0 2.382,1.763 3.185,4.245Z" style="fill:#285173;fill-rule:nonzero;"/><path d="M24.755,185.218c-0.148,-0.341 -0.644,-0.437 -0.932,-0.242c-0.286,0.194 -0.454,0.778 0,1.536c0.455,0.757 2.056,1.284 0.932,-1.294Z" style="fill:#eea886;fill-rule:nonzero;"/><path d="M28.531,193.785l1.318,0.33l-2.226,-3.247l0.908,2.917Z" style="fill:#fae6de;fill-rule:nonzero;"/><path d="M26.631,193.936l-1.205,1.428l-2.459,-3.729l0.784,-0.295l2.88,2.596Z" style="fill:#fae6de;fill-rule:nonzero;"/><path d="M27.686,190.253l-0.063,0.563c0,0 -1.418,0.252 -3.278,-1.802c0,0 1.318,1.455 3.341,1.239Z" style="fill:#a77860;fill-rule:nonzero;"/><path d="M31.875,200.243c0,0 0.08,4.927 -0.252,7.303l-0.148,-6.53l0.4,-0.773Z" style="fill:#1d3b54;fill-rule:nonzero;"/><path d="M28.98,205.613c0,0 0.298,-1.233 0.237,-1.518c-0.061,-0.285 0.375,-0.487 0.43,0.215c0.056,0.701 0.082,1.145 0.082,1.145l-0.749,0.158Z" style="fill:#eea886;fill-rule:nonzero;"/><path d="M31.813,208.802l-2.844,0l-0.444,-5.698l3.688,0l-0.4,5.698Z" style="fill:#8e4f3a;fill-rule:nonzero;"/><path d="M28.067,206.293c0,0 -0.023,-0.436 0.916,-0.799c1.248,-0.483 2.905,-0.96 3.178,-0.811c0.392,0.214 0.173,0.483 -0.611,0.685c-0.784,0.203 -1.042,0.267 -1.042,0.267c0,0 1.519,-0.075 1.851,0.101c0.332,0.177 0.334,0.556 0.082,0.608c-0.25,0.054 -0.837,0.07 -0.837,0.07c0,0 0.641,0.046 0.695,0.281c0.039,0.175 0.052,0.423 -0.561,0.503c0,0 0.394,0.428 -0.236,0.67c-0.63,0.242 -1.759,0.443 -2.325,0.506c-1.176,0.13 -3.393,-0.217 -3.393,-0.217l0.743,-1.498c0,0 0.629,0.17 1.055,0.019c0.552,-0.196 0.485,-0.385 0.485,-0.385Z" style="fill:#eea886;fill-rule:nonzero;"/><path d="M20.552,192.292c-0.606,-0.178 -2.365,0.231 -2.666,1.88c-0.3,1.648 -0.42,3.478 -0.701,4.366c-0.28,0.887 -1.611,5.402 -1.011,5.727c0.601,0.327 1.83,0.677 3.244,1.348c1.352,0.642 7.929,3.141 7.929,3.141l0.512,-2.626c0,0 -1.261,-0.271 -2.403,-0.778c-1.142,-0.508 -3.9,-1.952 -6.002,-3.129c0,0 1.316,-3.194 1.596,-3.883c0.281,-0.688 2.225,-5.25 -0.498,-6.046Z" style="fill:#285173;fill-rule:nonzero;"/><rect x="28.403" y="202.764" width="3.932" height="0.679" style="fill:#ad9f9a;fill-rule:nonzero;"/><path d="M26.225,184.473c0,0 -0.9,1.267 -0.611,2.073c0.324,0.906 -0.734,2.284 -0.734,2.284c0,0 0.486,-1.664 0.142,-2.264c-0.345,-0.598 0.057,-1.533 0.057,-1.533l1.146,-0.56Z" style="fill:#252e3b;fill-rule:nonzero;"/><path d="M79.22,249.542c0,0 0.61,1.03 1.009,1.439c0.398,0.409 1.926,1.14 1.935,2.355c0.008,1.317 -2.576,0.951 -3.586,0.903c-1.01,-0.048 -1.087,-0.751 -1.512,-1.497c-0.425,-0.746 -0.855,-0.62 -0.934,-1.222c-0.08,-0.601 0.411,-1.978 0.411,-1.978l2.677,0Z" style="fill:#202338;fill-rule:nonzero;"/><path d="M63.839,249.422c0,0 -1.246,1.257 -2.51,1.521c-1.264,0.264 -2.148,0.599 -2.157,1.322c-0.01,0.721 3.637,1.196 5.084,0.469c2.159,-1.086 2.379,-0.759 2.617,-1.302c0.239,-0.543 -0.287,-1.993 -0.271,-2.166c0.019,-0.214 -2.763,0.156 -2.763,0.156Z" style="fill:#202338;fill-rule:nonzero;"/><path d="M63.978,248.82c0,0 -0.164,0.589 -0.139,0.602c0.024,0.012 2.848,0.316 2.763,-0.156c-0.069,-0.383 -0.168,-0.8 -0.168,-0.8l-2.456,0.354Z" style="fill:#81807e;fill-rule:nonzero;"/><path d="M76.578,249.144c0,0 -0.117,0.562 -0.095,0.575c0.024,0.014 2.864,0.473 2.849,0.006c-0.014,-0.37 -0.262,-0.802 -0.262,-0.802l-2.492,0.221Z" style="fill:#81807e;fill-rule:nonzero;"/><path d="M66.546,213.55c0,0 -1.027,9.024 -1.561,12.113c-0.625,3.612 -0.836,6.596 -1.011,8.466c-0.218,2.351 -0.261,13.916 -0.414,14.603c-0.154,0.688 3.402,0.191 3.402,0.191c0,0 1.749,-15.112 2.402,-17.617c0.607,-2.331 2.862,-12.37 3.415,-11.733c0.556,0.637 1.242,11.714 1.653,13.553c0.411,1.839 1.659,16.236 1.659,16.236c0,0 2.83,0.51 3.582,-0.066c0,0 0.342,-12.408 0.081,-15.854c-0.1,-1.315 1.702,-15.755 -0.608,-21.568c-1.221,-3.072 -12.6,1.676 -12.6,1.676Z" style="fill:#292c47;fill-rule:nonzero;"/><path d="M75.765,211.55c0,0 -0.685,-0.937 -1.411,-1.058c-0.725,-0.12 9.996,-4.809 9.968,-6.485c-0.022,-1.358 -3.861,-3.612 -3.861,-3.612l-0.001,0.005l-0.002,0.005l-0.001,0.006c-0.081,0.269 -1.19,3.992 -1.228,5.78c-0.041,1.856 0.122,8.242 0.122,8.242l-2.748,0.666l-8.778,0.074l-2.003,-0.74c0,0 0.218,-2.053 0.3,-3.495c0.05,-0.917 0.247,-2.559 0.197,-4.157c0,0 0.032,-1.685 -0.154,-2.411c-0.019,-3.202 -0.234,-6.375 -0.234,-6.375c-0.118,-1.452 -0.201,-2.81 -0.248,-4.077c0.387,-0.186 0.852,-0.403 1.225,-0.562c1.153,-0.497 2.76,-1.166 3.791,-1.593c0.604,-0.252 1.194,-0.435 1.194,-0.435c0,0 4.12,-0.357 4.455,-0.339c0.106,0.007 0.621,0.169 1.296,0.402c1.461,0.502 4.278,1.523 4.727,1.814c0.658,0.426 4.964,10.735 5.027,11.443c0.113,1.277 -11.633,6.902 -11.633,6.902Z" style="fill:#dbd8e3;fill-rule:nonzero;"/><path d="M66.086,213.755c0,0 6.03,0.465 11.31,0l0,1.568c0,0 -7.863,0.679 -11.574,-0.299l0.264,-1.269Z" style="fill:#1d2033;fill-rule:nonzero;"/><path d="M65.587,193.895c0.046,1.288 0.115,2.669 0.237,4.148c0,0 0.113,3.612 0.343,7.039c0.078,0.491 0.118,0.993 0.073,1.506c-0.056,0.67 -0.137,1.401 -0.234,2.165c-0.001,0.009 -0.002,0.02 -0.003,0.029c-0.023,0.181 -0.047,0.364 -0.072,0.547l-0.001,0.008c-0.512,3.818 -1.381,8.197 -1.833,9.522c-0.096,0.277 0.234,0.532 0.469,0.729l1.649,0.941c0,0 0.68,-5.663 0.906,-7.585c0.218,-1.855 0.903,-4.342 1.203,-6.767l0,0c0.381,-3.075 0.906,-6.088 1.188,-7.876c0.736,-4.661 1.717,-6.746 1.717,-6.746c-0.469,0.128 -5.642,2.34 -5.642,2.34Z" style="fill:#323657;fill-rule:nonzero;"/><path d="M83.091,203.535c0.715,1.418 -6.562,3.946 -6.399,4.297c0.394,0.839 2,2.55 2,2.55c0,0 9.582,-4.288 9.476,-5.261c-0.079,-0.708 -4.568,-11.41 -5.226,-11.835c-0.379,-0.248 -3.194,-1.15 -4.575,-1.642c-0.252,-0.091 -1.114,-0.383 -1.34,-0.46c-0.293,0.294 -2.312,2.31 -3.025,9.926c-0.12,1.284 0.259,4.003 0.513,6.221c0.271,2.368 0.57,4.215 0.789,6.195c0.432,3.9 0.735,7.003 0.735,7.003l4.29,-1.728c0.695,-0.314 1.895,-1.134 1.635,-1.796c-0.993,-2.513 -2.481,-7.276 -2.483,-9.482c0,0 0.702,-6.086 1.081,-7.272c0,0 1.73,1.698 2.529,3.284Z" style="fill:#323657;fill-rule:nonzero;"/><path d="M75.968,191.386c0,0 0.028,-1.28 0.574,-3.868c0.145,-0.693 -4.447,1.823 -4.447,1.823c0,0 0.013,0.243 0.023,0.57c0.005,0.174 0.008,0.37 0.006,0.567c0,0.069 -0.001,0.139 -0.003,0.207c-0.004,0.183 -0.013,0.359 -0.03,0.508c-0.018,0.154 -0.118,0.425 -0.154,0.499c-0.189,0.395 2.484,0.695 4.031,-0.306Z" style="fill:#eea987;fill-rule:nonzero;"/><path d="M73.101,192.727l-0.762,0.926c0,0 0.447,0.54 1.238,0.141l-0.476,-1.067Z" style="fill:#e8734d;fill-rule:nonzero;"/><path d="M72.543,193.689c0,0 -2.887,10.059 -2.292,17.888l0.971,1.549l0.91,-1.623c0,0 0.249,-14.004 1.041,-17.837l-0.63,0.023Z" style="fill:#e8734d;fill-rule:nonzero;"/><path d="M72.286,191.865l0.815,0.862c0,0 1.309,-0.23 1.692,-0.848c0.384,-0.618 -2.507,-0.014 -2.507,-0.014Z" style="fill:#eea987;fill-rule:nonzero;"/><path d="M72.099,191.109c0,0 0.095,0.658 1.002,1.618l-0.991,1.204l-0.536,-2.498l0.525,-0.324Z" style="fill:#c4c1cc;fill-rule:nonzero;"/><path d="M76.055,190.377c0,0 -1.632,1.877 -2.954,2.35l0.615,1.376l2.811,-3.073l-0.472,-0.653Z" style="fill:#c4c1cc;fill-rule:nonzero;"/><path d="M48.802,204.291c0,0 -3.024,0.319 -3.194,0.494c-0.17,0.176 -0.131,0.323 0.155,0.305c0.285,-0.02 2.938,-0.232 2.938,-0.232c0,0 -3.467,0.927 -3.644,1.041c-0.103,0.066 -0.044,0.357 0.111,0.359c0.155,0.003 3.663,-0.734 3.663,-0.734c0,0 -3.235,0.871 -3.348,1.008c-0.099,0.119 0.029,0.378 0.275,0.329c0.246,-0.05 3.312,-0.701 3.312,-0.701c0,0 -2.301,0.77 -2.316,0.942c-0.01,0.104 0.029,0.357 0.614,0.141c0.585,-0.216 2.036,-0.59 2.036,-0.59l-0.602,-2.362Z" style="fill:#eea886;fill-rule:nonzero;"/><path d="M52.379,204.419c0,0 -1.007,0.048 -1.315,-0.413c-0.262,-0.391 -0.901,-0.747 -1.098,-0.856c-0.263,-0.147 -0.905,-0.858 -1.09,-0.572c-0.186,0.285 0.999,1.213 1.208,1.45c0.209,0.237 -1.243,0.151 -1.508,0.323c-0.265,0.172 -0.12,2.345 0.875,2.301c0.996,-0.044 1.982,-0.689 2.161,-0.665c0.179,0.024 0.728,-0.006 0.728,-0.006l0.039,-1.562Z" style="fill:#eea886;fill-rule:nonzero;"/><path d="M51.959,206.568c0,0 7.42,-0.94 9.067,-1.306c0.761,-0.17 1.764,-1.12 2.717,-2.239c0.314,-0.367 0.622,-0.754 0.915,-1.136l0.001,-0.002c1.169,-1.527 2.085,-2.991 2.085,-2.991c0,0 3.456,-3.663 0.683,-5.296c0,0 -1.189,-0.024 -1.84,0.297c-0.67,0.329 -2.1,3.029 -2.343,3.507c-0.242,0.477 -2.868,4.917 -3.044,5.017c-0.176,0.099 -2.796,0.615 -3.965,0.835c-1.692,0.32 -4.871,0.917 -4.871,0.917l0.595,2.397Z" style="fill:#323657;fill-rule:nonzero;"/><rect x="70.532" y="213.839" width="2.82" height="1.935" style="fill:#3a4066;fill-rule:nonzero;"/><path d="M75.243,211.665c0,0 0.351,-0.012 0.501,-0.086c0,0 0.262,-0.152 0.456,-0.25c0.062,-0.031 0.116,-0.056 0.153,-0.069c0.155,-0.056 0.513,-0.136 0.843,-0.364c0.331,-0.228 1.407,-1.139 1.407,-1.139l-0.696,-0.967l-0.32,-0.958c0,0 -2.51,0.226 -2.845,0.405c-0.032,0.018 -0.064,0.036 -0.092,0.056c-0.267,0.178 -0.384,0.411 -0.512,0.518c-0.048,0.04 -0.485,0.463 -0.46,0.635c0.034,0.238 0.164,0.391 0.328,0.463c0,0 0.088,0.465 0.353,0.672c0,0 0.066,0.431 0.477,0.604c0,0 0.122,0.429 0.407,0.48Z" style="fill:#efaa88;fill-rule:nonzero;"/><path d="M78.692,210.382c0,0 -1.395,-1.037 -2.151,-2.55l4.282,-2.122l1.59,2.928l-3.721,1.744Z" style="fill:#323657;fill-rule:nonzero;"/><path d="M69.675,182.97c0,0 -1.009,1.692 -0.509,1.956c0.414,0.218 -0.483,1.878 -0.601,2.15c-0.117,0.271 0.748,0.468 0.933,0.643c0.183,0.174 0.729,2.324 1.442,2.388c0.713,0.065 3.926,-0.946 4.801,-1.769c0.875,-0.823 1.593,-4.541 1.009,-6.109c-0.583,-1.568 -5.294,-2.216 -7.075,0.741Z" style="fill:#eea886;fill-rule:nonzero;"/><path d="M69.474,183.337c0,0 -1.03,-1.828 0.841,-3.184c1.871,-1.356 5.32,1.024 5.71,1.115c0.388,0.091 2.595,0.228 1.481,3.733c-0.957,3.008 -1.091,3.135 -1.091,3.135c0,0 -0.714,-1.743 -1.118,-2.009c-0.632,-0.415 -2.017,-0.315 -2.017,-0.315c0,0 0.66,-1.585 -0.371,-1.81c-1.032,-0.224 -2.392,-1.015 -3.435,-0.665Z" style="fill:#16202e;fill-rule:nonzero;"/><path d="M74.379,184.904c0.091,-0.217 0.385,-1.152 1.272,-0.604c0.886,0.549 -0.553,2.311 -0.707,2.334c-0.154,0.023 -1.331,0.1 -0.565,-1.73Z" style="fill:#eea886;fill-rule:nonzero;"/><path d="M72.124,190.478c0,0.069 -0.001,0.139 -0.003,0.207c2.628,-0.797 3.136,-1.998 3.136,-1.998c-0.82,0.524 -3.139,1.224 -3.139,1.224c0.005,0.174 0.008,0.37 0.006,0.567Z" style="fill:#a77860;fill-rule:nonzero;"/></g></g></svg>