<svg viewBox="0 0 506 90" xmlns="http://www.w3.org/2000/svg" fill-rule="evenodd" clip-rule="evenodd" stroke-linecap="round" stroke-linejoin="round" stroke-miterlimit="1.5"><ellipse cx="87.677" cy="8.139" rx="21.975" ry="8.139" fill="#ecf1f4"/><ellipse cx="21.975" cy="28.366" rx="21.975" ry="8.139" fill="#e1e8ed"/><path d="M101.926 21.283c-9.566 1.03-10.158-15.69-55.757-15.876-8.637-.035-15.734 6.948-15.837 15.584-.104 8.636 6.824 15.676 15.461 15.711 45.6.186 49.22-12.775 56.133-15.419z" fill="#eaeff2" fill-opacity=".97" stroke="#cbdde8"/><path d="M87.677 33.49c8.039-1.472 8.362-30.28 46.819-30.437 8.602-.035 15.67 6.92 15.773 15.521.103 8.602-6.797 15.614-15.399 15.649-38.457.157-41.796-.597-47.193-.733z" fill="#f2f5f7" stroke="#cbdde8"/><path d="M54.549 20.961c9.126 1.027 9.683-15.625 53.189-15.803 8.602-.035 15.67 6.92 15.773 15.521.103 8.602-6.797 15.614-15.4 15.649-43.505.177-47.078-12.732-53.562-15.367z" fill="#edf1f4" stroke="#cbdde8"/><ellipse cx="163.329" cy="28.692" rx="21.975" ry="8.139" fill="#f3f6f8"/><path d="M87.447 35.89c13.046-1.344 34.838-25.423 72.323-25.308 7.045.022 12.714 5.759 12.65 12.804-.063 7.045-5.835 12.747-12.88 12.726l-72.093-.222z" fill="#eef1f2" fill-opacity=".93"/><path d="M87.677 36.001C73.762 34.7 55.427 13.452 20.206 13.308c-6.453-.026-11.755 5.191-11.832 11.643A11.586 11.586 0 0 0 19.925 36.69c35.222.143 56.224-.537 67.752-.689z" fill="#f3f6f8" fill-opacity=".87"/><ellipse cx="382.444" cy="41.653" rx="27.624" ry="13.517" fill="#ecf1f4"/><ellipse cx="299.854" cy="75.248" rx="27.624" ry="13.517" fill="#eaeff2"/><path d="M400.355 63.485c-10.945 1.716-11.6-26.053-63.771-26.334-14.344-.078-26.095 11.505-26.226 25.848-.13 14.344 11.41 26.052 25.754 26.129 52.171.282 57.712-21.241 64.243-25.643z" fill="#f8fafb" fill-opacity=".97" stroke="#cbdde8"/><path d="M382.444 83.759c9.031-2.439 9.347-50.285 52.56-50.518 14.287-.077 25.991 11.459 26.121 25.745.129 14.286-11.364 25.947-25.651 26.024-43.213.233-48.395-1.014-53.03-1.251z" fill="#f2f5f7" stroke="#cbdde8"/><path d="M340.8 62.95c10.398 1.712 11.008-25.945 60.568-26.213 14.287-.077 25.991 11.459 26.12 25.745.13 14.286-11.363 25.947-25.65 26.024-49.56.268-55.036-21.169-61.038-25.556z" fill="#edf1f4" stroke="#cbdde8"/><ellipse cx="477.542" cy="75.791" rx="27.624" ry="13.517" fill="#f3f6f8"/><path d="M382.155 87.746c15.467-2.237 41.318-42.235 85.758-42.055 11.702.047 21.137 9.585 21.057 21.286-.08 11.701-9.644 21.163-21.346 21.115l-85.469-.346z" fill="#eef1f2" fill-opacity=".93"/><path d="M382.444 87.93c-16.522-2.155-38.273-37.439-80.094-37.665-10.717-.058-19.497 8.596-19.594 19.312-.097 10.717 8.524 19.464 19.241 19.522 41.821.226 67.897-.907 80.447-1.169z" fill="#f3f6f8" fill-opacity=".87"/></svg>