<svg viewBox="0 0 231 49" xmlns="http://www.w3.org/2000/svg" fill-rule="evenodd" clip-rule="evenodd" stroke-linejoin="round" stroke-miterlimit="2"><path d="M120.041 3.318c.434-.345.632-.679.575-.967-.179-.908-2.789-1.158-5.824-.558-3.036.599-5.355 1.822-5.176 2.729.057.289.367.522.899.677l9.526-1.881z" fill="#fcc133"/><path fill="#fcc133" d="M107.478 3.378h21.649v17.473h-21.649z"/><path d="M131.15 12.456c1.543-1.42.458-5.111-2.42-8.237-2.879-3.125-6.468-4.51-8.01-3.09-.726.668-.896 1.882-.475 3.385l1.815 6.482 6.126 1.805c1.269.373 2.316.252 2.964-.345z" fill="#fcc133"/><path d="M128.281 22.494c3.522-1.776 5.225-5.511 3.801-8.334-1.424-2.824-5.44-3.673-8.962-1.896a8.83 8.83 0 0 0-1.511.965l-7.166 5.638 6.88 3.781c1.948 1.086 4.618 1.027 6.958-.154zm-31.307 8.535h35.061l-9.716 12.236H104.1l-7.126-12.236z" fill="#fcc133"/><path fill="#fcc133" d="M5.022 21.674h222.14v9.529H5.022z"/><path d="M221.199 20.842c4.805 0 8.706 2.551 8.706 5.692 0 3.142-3.901 5.693-8.706 5.693-3.604-.474-6.529-2.862-6.529-5.693 0-2.83 2.925-5.218 6.529-5.692z" fill="#fcc133"/><path d="M215.422 31.397c4.429.885 11.442 2.139 13.914-2.446.889-1.648 1.531-5.164.228-6.743-1.531-1.855-5.865-1.641-8.001-1.339-.868.124-.512 1.318.352 1.195 2.17-.308 6.581-.472 6.781 2.133.175 2.276-.05 4.722-2.455 6.016-2.911 1.566-7.36.613-10.443-.003-.858-.172-1.237 1.015-.376 1.187z" fill="#7a6b1c" fill-rule="nonzero"/><path d="M207.612 30.129c0 1.195 1.791 2.165 3.996 2.165s3.996-.97 3.996-2.165h-7.992z" fill="#fcc133"/><path d="M207.612 31.211c.643 1.414 2.92 1.702 4.384 1.637 2.141-.094 3.799-1.039 4.972-2.637 1.401-1.908 1.756-4.235 2.942-6.232 1.643-2.769 5.161-3.617 7.999-1.62.695.489 1.388-.577.701-1.06-2.646-1.862-6.636-1.718-8.825.613-1.326 1.412-1.883 3.206-2.576 4.907-.574 1.41-1.228 2.994-2.61 3.926-.714.482-5.028 1.766-5.609.488-.33-.725-1.712-.758-1.378-.022z" fill="#7a6b1c" fill-rule="nonzero"/><path d="M199.363 31.203c0 .927 1.594 1.681 3.558 1.681 1.965 0 3.559-.754 3.559-1.681h-7.117zm4.593-7.848c0-.928 1.419-1.681 3.168-1.681 1.748 0 3.168.753 3.168 1.681h-6.336z" fill="#fcc133"/><path d="M198.602 31.998c.643 1.414 2.866 1.365 4.33 1.3 2.14-.094 3.798-1.039 4.971-2.637 1.402-1.908 1.757-4.235 2.942-6.232 1.644-2.769 5.162-3.617 7.999-1.62.696.489 1.389-.577.702-1.06-2.646-1.862-6.636-1.718-8.825.613-1.326 1.412-1.883 3.206-2.576 4.907-.575 1.41-1.228 2.994-2.61 3.926-.714.482-5.029 1.766-5.61.488-.329-.725-1.658-.421-1.323.315z" fill="#7a6b1c" fill-rule="nonzero"/><path d="M191.171 31.203c0 .927 1.42 1.681 3.169 1.681 1.748 0 3.168-.754 3.168-1.681h-6.337zm5.772-8.388c0-.927 1.419-1.681 3.168-1.681 1.748 0 3.168.754 3.168 1.681h-6.336z" fill="#fcc133"/><path d="M190.465 32.116c.643 1.414 2.866 1.365 4.33 1.3 2.14-.094 3.798-1.039 4.971-2.637 1.402-1.909 1.757-4.235 2.942-6.233 1.644-2.769 5.162-3.616 7.999-1.619.696.489 1.389-.577.702-1.06-2.646-1.863-6.637-1.719-8.825.612-1.326 1.412-1.883 3.206-2.576 4.907-.575 1.411-1.228 2.994-2.61 3.927-.714.482-5.029 1.766-5.61.488-.329-.725-1.658-.421-1.323.315z" fill="#7a6b1c" fill-rule="nonzero"/><path d="M190.406 31.017c.025 1.043-1.513 1.928-3.434 1.975-1.921.047-3.502-.761-3.527-1.804.864-.282 2.118-.525 3.469-.558 1.35-.033 2.615.147 3.492.387zm-1.523-8.202c0-.927 1.42-1.681 3.168-1.681 1.749 0 3.168.754 3.168 1.681h-6.336z" fill="#fcc133"/><path d="M183.545 31.88c.643 1.414 2.866 1.365 4.33 1.3 2.14-.094 3.798-1.039 4.971-2.637 1.402-1.909 1.757-4.235 2.942-6.233 1.644-2.768 5.162-3.616 7.999-1.619.696.489 1.389-.577.702-1.06-2.646-1.863-6.636-1.719-8.825.612-1.326 1.412-1.883 3.207-2.576 4.908-.575 1.41-1.228 2.994-2.61 3.926-.714.482-5.029 1.766-5.61.488-.329-.725-1.658-.421-1.323.315z" fill="#7a6b1c" fill-rule="nonzero"/><path d="M175.573 30.719c0 1.195 1.791 2.165 3.996 2.165s3.996-.97 3.996-2.165h-7.992zm-7.991-.59c0 1.195 1.791 2.165 3.996 2.165s3.995-.97 3.995-2.165h-7.991z" fill="#fcc133"/><path d="M175.545 31.88c.643 1.414 2.866 1.365 4.33 1.3 2.14-.094 3.798-1.039 4.971-2.637 1.402-1.909 1.757-4.235 2.942-6.233 1.644-2.768 5.162-3.616 7.999-1.619.696.489 1.389-.577.702-1.06-2.646-1.863-6.636-1.719-8.825.612-1.326 1.412-1.883 3.207-2.576 4.908-.575 1.41-1.228 2.994-2.61 3.926-.714.482-5.029 1.766-5.61.488-.329-.725-1.658-.421-1.323.315z" fill="#7a6b1c" fill-rule="nonzero"/><path d="M181.165 22.033c0-.928 1.42-1.681 3.168-1.681 1.749 0 3.168.753 3.168 1.681h-6.336z" fill="#fcc133"/><path d="M167.636 31.466c.643 1.414 2.866 1.365 4.33 1.3 2.141-.094 3.798-1.039 4.971-2.637 1.402-1.909 1.757-4.235 2.943-6.233 1.643-2.768 5.161-3.616 7.998-1.619.696.489 1.389-.577.702-1.06-2.646-1.863-6.636-1.719-8.825.612-1.326 1.412-1.883 3.207-2.576 4.908-.575 1.41-1.228 2.994-2.61 3.926-.714.482-5.228 1.818-5.809.54-.33-.725-1.459-.473-1.124.263z" fill="#7a6b1c" fill-rule="nonzero"/><path d="M159.514 30.136c0 1.195 1.79 2.165 3.996 2.165 2.205 0 3.995-.97 3.995-2.165h-7.991zm13.424-7.688c0-.927 1.42-1.68 3.168-1.68 1.749 0 3.168.753 3.168 1.68h-6.336z" fill="#fcc133"/><path d="M159.268 31.659c.643 1.414 3.166 1.452 4.629 1.387 2.141-.094 3.799-1.039 4.972-2.637 1.402-1.908 1.756-4.235 2.942-6.232 1.644-2.769 5.162-3.617 7.999-1.62.695.489 1.389-.577.702-1.06-2.646-1.862-6.637-1.718-8.826.613-1.325 1.412-1.882 3.206-2.575 4.907-.575 1.41-1.228 2.994-2.611 3.926-.713.482-5.028 1.766-5.609.488-.329-.725-1.958-.508-1.623.228z" fill="#7a6b1c" fill-rule="nonzero"/><path d="M150.438 30.907c0 1.195 1.79 2.165 3.996 2.165 2.205 0 3.995-.97 3.995-2.165h-7.991z" fill="#fcc133"/><path d="M150.847 32.04c.643 1.413 2.866 1.364 4.33 1.3 2.141-.095 3.798-1.04 4.971-2.638 1.402-1.908 1.757-4.235 2.942-6.232 1.644-2.769 5.162-3.617 7.999-1.62.696.489 1.389-.577.702-1.06-2.646-1.862-6.636-1.718-8.825.613-1.326 1.412-1.883 3.206-2.576 4.907-.575 1.41-1.228 2.994-2.61 3.926-.714.482-5.029 1.766-5.61.488-.329-.725-1.658-.42-1.323.316z" fill="#7a6b1c" fill-rule="nonzero"/><path d="M144.266 31.125c0 1.067 1.419 1.934 3.168 1.934 1.748 0 3.168-.867 3.168-1.934h-6.336z" fill="#fcc133"/><path d="M143.847 32.04c.643 1.413 2.866 1.364 4.33 1.3 2.141-.095 3.798-1.04 4.971-2.638 1.402-1.908 1.757-4.235 2.942-6.232 1.644-2.769 5.388-3.854 7.999-1.62.323.276 1.017-.79.702-1.06-2.429-2.089-6.636-1.718-8.825.613-1.326 1.412-1.883 3.206-2.576 4.907-.575 1.41-1.228 2.994-2.61 3.926-.714.482-5.029 1.766-5.61.488-.329-.725-1.658-.42-1.323.316z" fill="#7a6b1c" fill-rule="nonzero"/><path d="M137.31 31.218c0 .928 1.419 1.681 3.168 1.681 1.748 0 3.168-.753 3.168-1.681h-6.336zm6.055-9.026c0-.928 1.469-1.681 3.278-1.681 1.81 0 3.279.753 3.279 1.681h-6.557z" fill="#fcc133"/><path d="M136.655 31.905c.643 1.414 3.033 1.499 4.497 1.435 2.141-.095 3.798-1.04 4.971-2.638 1.402-1.908 1.757-4.235 2.942-6.232 1.644-2.769 5.052-3.483 7.999-1.62.562.355 1.266-.7.702-1.06-2.739-1.749-6.636-1.718-8.825.613-1.326 1.412-1.883 3.206-2.576 4.907-.575 1.41-1.228 2.994-2.61 3.926-.714.482-5.029 1.766-5.61.488-.329-.725-1.824-.555-1.49.181z" fill="#7a6b1c" fill-rule="nonzero"/><path d="M136.335 21.922c0-.927 1.419-1.681 3.168-1.681 1.748 0 3.168.754 3.168 1.681h-6.336z" fill="#fcc133"/><path d="M129.847 31.04c.643 1.413 2.866 1.364 4.33 1.3 2.141-.095 3.798-1.04 4.971-2.638 1.402-1.908 1.757-4.235 2.942-6.232 1.644-2.769 5.162-3.617 7.999-1.62.696.489 1.389-.577.702-1.06-2.646-1.862-6.636-1.718-8.825.613-1.326 1.412-1.883 3.206-2.576 4.907-.575 1.41-1.228 2.994-2.61 3.926-.714.482-5.029 1.766-5.61.488-.329-.725-1.658-.42-1.323.316z" fill="#7a6b1c" fill-rule="nonzero"/><path d="M129.074 22.192c0-.928 1.492-1.681 3.33-1.681 1.839 0 3.331.753 3.331 1.681h-6.661z" fill="#fcc133"/><path d="M122.984 30.922c.643 1.414 2.866 1.365 4.33 1.3 2.141-.095 3.798-1.039 4.971-2.637 1.402-1.909 1.757-4.235 2.943-6.233 1.643-2.769 4.737-2.989 7.998-1.62.422.177 1.159-.839.702-1.06-2.958-1.428-6.636-1.718-8.825.613-1.326 1.412-1.883 3.206-2.576 4.907-.575 1.411-1.228 2.994-2.61 3.927-.714.481-5.028 1.766-5.609.487-.33-.725-1.659-.42-1.324.316z" fill="#7a6b1c" fill-rule="nonzero"/><path d="M117.96 29.444c0 .928 1.419 1.681 3.168 1.681 1.748 0 3.168-.753 3.168-1.681h-6.336zm3.3-7.575c0-1.076 1.515-1.95 3.382-1.95 1.866 0 3.382.874 3.382 1.95h-6.764z" fill="#fcc133"/><path d="M115.428 31.203c.643 1.414 3.285 1.201 4.749 1.137 2.141-.095 3.798-1.04 4.971-2.638 1.402-1.908 1.757-4.235 2.942-6.232 1.644-2.769 5.281-3.747 7.999-1.62.287.224 1.071-.783.702-1.06-2.579-1.937-6.636-1.718-8.825.613-1.326 1.412-1.883 3.206-2.576 4.907-.575 1.41-1.228 2.994-2.61 3.926-.714.482-5.457 1.731-6.038.453-.33-.725-1.648-.222-1.314.514z" fill="#7a6b1c" fill-rule="nonzero"/><path d="M113.514 21.6c0-.927 1.435-1.681 3.203-1.681 1.769 0 3.204.754 3.204 1.681-.801.232-1.961.42-3.204.42s-2.402-.188-3.203-.42z" fill="#fcc133"/><path d="M107.322 30.949c.643 1.414 3.471 1.22 4.935 1.155 2.141-.095 3.798-1.04 4.971-2.637 1.402-1.909 1.757-4.235 2.943-6.233 1.643-2.769 5.161-3.617 7.998-1.62.696.489 1.389-.576.702-1.06-2.646-1.862-6.636-1.718-8.825.613-1.326 1.412-1.883 3.206-2.576 4.907-.575 1.411-1.228 2.994-2.61 3.927-.714.481-5.179 1.889-5.76.611-.329-.725-2.113-.399-1.778.337z" fill="#7a6b1c" fill-rule="nonzero"/><path d="M104.705 22.514c0-.927 1.42-1.68 3.168-1.68 1.749 0 3.168.753 3.168 1.68h-6.336z" fill="#fcc133"/><path d="M99.723 31.203c.643 1.414 3.07.966 4.534.901 2.141-.095 3.798-1.04 4.971-2.637 1.402-1.909 1.757-4.235 2.943-6.233 1.643-2.769 5.161-3.617 7.998-1.62.696.489 1.389-.576.702-1.06-2.646-1.862-6.636-1.718-8.825.613-1.326 1.412-1.883 3.206-2.576 4.907-.575 1.411-1.228 2.994-2.61 3.927-.714.481-5.412 1.875-5.993.597-.329-.725-1.479-.131-1.144.605z" fill="#7a6b1c" fill-rule="nonzero"/><path d="M91.079 30.818c0 1.195 1.791 2.165 3.996 2.165s3.995-.97 3.995-2.165h-7.991zm5.533-8.304c0-.927 1.473-1.68 3.287-1.68 1.814 0 3.287.753 3.287 1.68h-6.574z" fill="#fcc133"/><path d="M90.927 31.804c.643 1.414 2.866 1.365 4.33 1.3 2.141-.095 3.798-1.04 4.971-2.637 1.402-1.909 1.757-4.235 2.943-6.233 1.643-2.769 5.161-3.617 7.998-1.62.696.489 1.389-.576.702-1.06-2.646-1.862-6.636-1.718-8.825.613-1.326 1.412-1.883 3.206-2.576 4.907-.575 1.411-1.228 2.994-2.61 3.927-.714.481-5.028 1.765-5.609.487-.33-.725-1.659-.42-1.324.316z" fill="#7a6b1c" fill-rule="nonzero"/><path d="M83.088 30.047c0 1.195 1.791 2.165 3.996 2.165s3.995-.97 3.995-2.165h-7.991zm5.944-7.533c0-.927 1.472-1.68 3.287-1.68 1.814 0 3.287.753 3.287 1.68h-6.574z" fill="#fcc133"/><path d="M83.142 31.657c.643 1.414 2.866 1.365 4.33 1.3 2.14-.094 3.798-1.039 4.971-2.637 1.402-1.909 1.757-4.235 2.942-6.233 1.644-2.769 5.162-3.616 7.999-1.619.696.489 1.389-.577.702-1.06-2.646-1.863-6.636-1.719-8.825.612-1.326 1.412-1.883 3.206-2.576 4.908-.575 1.41-1.228 2.994-2.61 3.926-.714.482-5.029 1.766-5.61.488-.329-.725-1.658-.421-1.323.315z" fill="#7a6b1c" fill-rule="nonzero"/><path d="M75.088 30.818c0 1.195 1.791 2.165 3.996 2.165s3.995-.97 3.995-2.165h-7.991zm5.432-8.304c0-.927 1.473-1.68 3.287-1.68 1.815 0 3.287.753 3.287 1.68H80.52z" fill="#fcc133"/><path d="M75.142 31.657c.643 1.414 2.866 1.365 4.33 1.3 2.14-.094 3.798-1.039 4.971-2.637 1.402-1.909 1.757-4.235 2.942-6.233 1.644-2.769 5.162-3.616 7.999-1.619.696.489 1.389-.577.702-1.06-2.646-1.863-6.636-1.719-8.825.612-1.326 1.412-1.883 3.206-2.576 4.908-.575 1.41-1.228 2.994-2.61 3.926-.714.482-5.029 1.766-5.61.488-.329-.725-1.658-.421-1.323.315z" fill="#7a6b1c" fill-rule="nonzero"/><path d="M67.088 30.047c0 1.195 1.791 2.165 3.996 2.165s3.995-.97 3.995-2.165h-7.991z" fill="#fcc133"/><path d="M67.012 31.657c.643 1.414 2.996 1.365 4.46 1.3 2.14-.094 3.798-1.039 4.971-2.637 1.402-1.909 1.757-4.235 2.942-6.233 1.644-2.769 5.162-3.616 7.999-1.619.696.489 1.389-.577.702-1.06-2.646-1.863-6.636-1.719-8.825.612-1.326 1.412-1.883 3.206-2.576 4.908-.575 1.41-1.228 2.994-2.61 3.926-.714.482-5.029 1.766-5.61.488-.329-.725-1.788-.421-1.453.315z" fill="#7a6b1c" fill-rule="nonzero"/><path d="M58.012 30.818c0 1.195 1.791 2.165 3.996 2.165s3.995-.97 3.995-2.165h-7.991z" fill="#fcc133"/><path d="M58.421 31.95c.643 1.414 2.867 1.365 4.33 1.3 2.141-.094 3.799-1.039 4.972-2.637 1.401-1.909 1.756-4.235 2.942-6.233 1.643-2.768 5.161-3.616 7.999-1.619.695.489 1.388-.577.701-1.06-2.646-1.863-6.636-1.719-8.825.612-1.326 1.412-1.883 3.207-2.576 4.908-.574 1.41-1.228 2.994-2.61 3.926-.714.482-5.028 1.766-5.609.488-.33-.725-1.659-.421-1.324.315z" fill="#7a6b1c" fill-rule="nonzero"/><path d="M51.84 31.036c0 1.067 1.419 1.934 3.168 1.934 1.748 0 3.168-.867 3.168-1.934H51.84z" fill="#fcc133"/><path d="M51.421 31.95c.643 1.414 2.867 1.365 4.33 1.3 2.141-.094 3.799-1.039 4.972-2.637 1.401-1.909 1.701-4.262 2.942-6.233 1.687-2.681 5.497-3.617 7.999-1.619.369.295 1.041-.766.701-1.06-2.423-2.095-6.636-1.719-8.825.612-1.326 1.412-1.883 3.207-2.576 4.908-.574 1.41-1.228 2.994-2.61 3.926-.714.482-5.028 1.766-5.609.488-.33-.725-1.659-.421-1.324.315z" fill="#7a6b1c" fill-rule="nonzero"/><g><path d="M44.884 31.129c0 .928 1.419 1.681 3.168 1.681 1.748 0 3.168-.753 3.168-1.681h-6.336zm6.1-9.026c0-.928 1.473-1.681 3.288-1.681 1.814 0 3.287.753 3.287 1.681h-6.575z" fill="#fcc133"/><path d="M44.325 31.719c.642 1.413 2.963 1.596 4.426 1.531 2.141-.094 3.799-1.039 4.972-2.637 1.401-1.909 1.756-4.235 2.942-6.233 1.643-2.768 5.238-3.702 7.999-1.619.541.409 1.047-.756.701-1.06-2.402-2.115-6.636-1.719-8.825.612-1.326 1.412-1.883 3.207-2.576 4.908-.574 1.41-1.228 2.994-2.61 3.926-.714.482-5.028 1.766-5.609.488-.33-.725-1.755-.652-1.42.084z" fill="#7a6b1c" fill-rule="nonzero"/></g><g><path d="M44.027 21.85c0-.928 1.481-1.681 3.305-1.681 1.823 0 3.304.753 3.304 1.681h-6.609z" fill="#fcc133"/><path d="M37.421 30.95c.643 1.414 2.867 1.365 4.33 1.3 2.141-.094 3.799-1.039 4.972-2.637 1.401-1.909 1.756-4.235 2.942-6.233 1.643-2.768 5.161-3.616 7.999-1.619.695.489 1.388-.577.701-1.06-2.646-1.863-6.636-1.719-8.825.612-1.326 1.412-1.883 3.207-2.576 4.908-.574 1.41-1.228 2.994-2.61 3.926-.714.482-5.028 1.766-5.609.488-.33-.725-1.659-.421-1.324.315z" fill="#7a6b1c" fill-rule="nonzero"/></g><g><path d="M36.648 22.103c0-.928 1.42-1.681 3.168-1.681 1.749 0 3.168.753 3.168 1.681h-6.336z" fill="#fcc133"/><path d="M30.431 31.203c.643 1.414 2.994.994 4.457.93 2.141-.095 3.799-1.04 4.972-2.638 1.401-1.908 1.756-4.235 2.942-6.232 1.644-2.769 5.475-3.934 7.999-1.62.381.35 1.144-.685.701-1.06-2.447-2.071-6.636-1.718-8.825.613-1.326 1.412-1.883 3.206-2.575 4.907-.575 1.41-1.229 2.994-2.611 3.926-.714.482-5.028 1.766-5.609.488-.33-.725-1.786-.05-1.451.686z" fill="#7a6b1c" fill-rule="nonzero"/></g><g><path d="M29.082 22.103c0-.928 1.521-1.681 3.395-1.681s3.395.753 3.395 1.681h-6.79z" fill="#fcc133"/><path d="M22.744 31.203c-.537 1.447 3.086.998 4.55.934 2.141-.095 3.799-1.04 4.972-2.638 1.401-1.908 1.756-4.234 2.942-6.232 1.643-2.769 5.161-3.617 7.999-1.62.695.489 1.388-.576.701-1.06-2.646-1.862-6.636-1.718-8.825.613-1.326 1.412-1.883 3.206-2.576 4.907-.574 1.41-1.228 2.994-2.61 3.927-.714.481-6.039 1.811-5.609.487.178-.55-1.34.131-1.544.682z" fill="#7a6b1c" fill-rule="nonzero"/></g><g><path d="M22.199 21.756c0-.736 1.4-1.334 3.123-1.334 1.724 0 3.123.598 3.123 1.334h-6.246z" fill="#fcc133"/><path d="M15.421 30.95c.533 1.451 2.867 1.365 4.33 1.3 2.141-.094 3.799-1.039 4.972-2.637 1.401-1.909 1.756-4.235 2.942-6.233 1.643-2.768 5.161-3.616 7.999-1.619.695.489 1.388-.577.701-1.06-2.646-1.863-6.636-1.719-8.825.612-1.326 1.412-1.883 3.207-2.576 4.908-.574 1.41-1.228 2.994-2.61 3.926-.714.482-5.103 1.791-5.609.488-.201-.517-1.5-.165-1.324.315z" fill="#7a6b1c" fill-rule="nonzero"/></g><g><path d="M10.49 30.852c.582 1.413 2.645 1.362 3.972 1.296 1.94-.096 3.443-1.043 4.508-2.642 1.272-1.91 1.595-4.236 2.672-6.235 1.492-2.77 4.772-3.733 7.25-1.627.342.291.981-.77.637-1.061-2.314-1.96-6.013-1.712-7.998.621-1.203 1.413-1.71 3.208-2.339 4.91-.522 1.41-1.116 2.995-2.369 3.928-.648.483-4.559 1.771-5.085.493-.298-.724-1.55-.419-1.248.317z" fill="#7a6b1c" fill-rule="nonzero"/></g><path d="M8.749 32.659c2.314-.875 3.302-4.063 4.184-6.007.835-1.84 1.377-3.408 3.645-4.111 1.502-.464 3.072-.413 4.557.062.833.266 1.204-.923.376-1.188-2.346-.751-5.223-.545-7.253.831-1.037.704-1.54 1.611-2.034 2.661-.834 1.771-1.922 5.834-4.156 6.678-.81.307-.123 1.378.681 1.074z" fill="#7a6b1c" fill-rule="nonzero"/><g><path d="M8.98 21.308c-4.805 0-8.706 2.531-8.706 5.648 0 3.118 3.901 5.649 8.706 5.649V21.308z" fill="#fcc133"/><path d="M14.88 22.161c-4.428-.885-11.441-2.138-13.913 2.446-.889 1.649-1.531 5.164-.228 6.743 1.531 1.855 5.865 1.642 8.001 1.339.868-.123 1.151-1.775.286-1.652-2.17.308-7.219.929-7.419-1.675-.175-2.276.05-4.722 2.455-6.017 2.911-1.565 7.36-.612 10.443.004.858.171 1.237-1.016.375-1.188z" fill="#7a6b1c" fill-rule="nonzero"/></g><g><path d="M123.423 40.667c1.427 1.033 3.54.833 5.382-.511l2.79-3.854c.7-2.17.23-4.24-1.197-5.273l-6.975 9.638zm-15.803-5.953c-3.997 0-7.237 2.602-7.237 5.812 0 3.208 3.243 5.813 7.237 5.813 3.997 0 7.238-2.603 7.238-5.813h-7.238v-5.812z" fill="#fcc133"/><path d="M107.62 41.748c.507 3.688 4.316 6.21 8.507 5.634 4.189-.576 7.178-4.035 6.672-7.719-.507-3.688-4.316-6.21-8.507-5.634l.918 6.677-7.59 1.042zM95.749 13.952h15.965v12.163H95.749z" fill="#fcc133"/><path d="M112.025 18.998c.655-1.469.999-3.136.999-4.832 0-5.334-3.34-9.665-7.455-9.665-4.114 0-7.455 4.331-7.455 9.665 0 1.696.345 3.363.999 4.832h12.912z" fill="#fcc133"/><path d="M109.251 4.914c3.254-1.985 7.35-2.885 11.807-2.674 2.179.104 2.193-2.104.021-2.207-5.316-.252-10.351.943-14.211 3.297-1.589.969.796 2.552 2.383 1.584z" fill="#7a6b1c" fill-rule="nonzero"/><path d="M113.038 19.733c4.39.144 5.117-3.209 5.553-6.715.315-2.538-.09-5.14.687-7.638.473-1.522 3.094-3.827 5.307-3.759.895.027 3.122 1.562 4.412 3.54 1.347 2.064 1.712 4.731 2.327 5.468.271.325.941 2.014.552.203-.085-.391.102-.515-.103-1.788-.167-1.034-.707-3.244-.938-3.613-.508-.814-2.556-3.196-3.066-3.798-2.73-3.223-7.533-1.107-9.158 2.086-.646 1.27-.947 8.595-1.298 10.67-.054.316-.079 1.826-1.367 2.994-.627.568-1.301.83-2.908 1.268-.784.213-.812 1.056 0 1.082z" fill="#7a6b1c" fill-rule="nonzero"/><path d="M113.544 19.686c3.934-.676 6.999-3.079 8.397-5.904 1.086-2.196 3.482-4.362 6.785-3.77 2.546.457 3.724 6.937 2.798 9.256-.469 1.177.667 1.509 1.279 0 .239-.591.003-3.052.056-3.941.218-3.66-2.26-7.205-6.956-6.066-2.169.526-3.739 1.925-4.661 3.535-.744 1.298-1.105 2.655-2.313 3.752-1.189 1.08-3.606 2.087-5.347 2.386-.7.12-.738.872-.038.752zm-3.435 12.868c3.993 1.273 6.79 3.533 9.522 6.61 1.54 1.734 3.332 3.334 5.874 3.101 4.985-.457 7.043-5.863 7.577-10.186.124-1.01-1.39-1.133-1.515-.117a22.714 22.714 0 0 1-.402 2.335c-.327 1.412-.835 2.817-1.659 3.975-2.794 3.925-6.577 2.158-8.932-.492a34.953 34.953 0 0 0-.856-.928c-2.548-2.658-5.336-4.624-8.979-5.785-.914-.291-1.551 1.194-.63 1.487zm3.643-20.44c-.879-2.273-2.137-6.848-4.476-8.046-2.692-1.379-5.978-.717-8.165 1.251-.359.323-.683.623-.973.901-1.844 1.765-2.332 4.118-2.012 4.275.42.205 2.232-2.294 4.202-4.057 3.122-2.796 7.909-1.445 9.38 2.354.366.945 2.414 4.277 2.044 3.322z" fill="#7a6b1c" fill-rule="nonzero"/><path d="M114.269 14.013c-2.481-11.224-17.842-8.877-18.74 1.76-.104 1.228 1.686 1.238 1.789.017.721-8.538 13.186-11.05 15.192-1.98.265 1.199 2.025 1.403 1.759.203z" fill="#7a6b1c" fill-rule="nonzero"/><path d="M113.444 13.532c-4.22-2.75-10.584-4.313-15.187-1.472-3.919 2.421-3.511 6.938-2.549 10.626.255.981 1.933.583 1.677-.4-.845-3.243-1.369-7.354 2.439-9.257 1.143-.571 2.366-.871 3.611-.955 3.187-.215 6.491 1.021 9.023 2.674 1.593 1.039 2.614-.155.986-1.216z" fill="#7a6b1c" fill-rule="nonzero"/><path d="M112.752 14.41c-2.818 5.268-11.115 3.058-15.446 6.672-3.182 2.654-3.707 7.013-1.628 10.357.547.88 2.054.107 1.506-.775-1.421-2.286-1.41-5.067.212-7.282 1.441-1.967 3.787-2.671 6.192-3.137.388-.075.777-.144 1.165-.212 3.739-.646 7.692-1.458 9.49-4.818.483-.902-1.006-1.712-1.491-.805z" fill="#7a6b1c" fill-rule="nonzero"/><path d="M112.391 15.692c.323 3.81-2.792 6.593-6.755 8.159-2.635 1.041-5.388 1.576-7.061 3.732-2.761 3.561-1.897 8.371 2.176 10.517.567.298.995-1.364.781-1.471-2.332-1.168-2.982-3.218-2.566-5.745.492-2.983 2.859-4.033 5.596-5.059.633-.238 1.286-.474 1.939-.732.301-.119.597-.245.888-.377 4.059-1.848 7.079-5 6.74-9.007-.077-.912-1.815-.937-1.738-.017z" fill="#7a6b1c" fill-rule="nonzero"/><path d="M110.427 22.786c2.808 6.918-9.892 10.389-10.041 17.174-.11 5.046 2.744 6.031 7.92 6.479 1.112.095 1.186-1.206.08-1.301-3.143-.272-4.692.226-5.919-2.501-1.675-3.723 1.111-6.893 3.866-9.428 3.202-2.948 7.635-6.499 5.839-10.922-.38-.938-2.131-.45-1.745.499z" fill="#7a6b1c" fill-rule="nonzero"/><path d="M108.653 29.869c1.445 4.19 1.284 5.491.378 9.745-.51 2.397-1.775 5.28.012 7.267.43.478 2.399 1.554 4.284 1.991.697.162 2.14.044 3.162-.445 1.522-.728 7.376-6.139 7.526-6.139.538 0-.39-.305-.928-.682-.263-.183-5.462 4.628-6.895 5.467-.443.259-2.505.361-3.606-.028-1.607-.567-2.885-1.685-2.934-2.489-.092-1.51.468-3.187.775-4.63.92-4.332 1.137-6.425-.331-10.681-.331-.959-1.777-.342-1.443.624z" fill="#7a6b1c" fill-rule="nonzero"/></g></svg>