<svg viewBox="0 0 242 97" xmlns="http://www.w3.org/2000/svg" fill-rule="evenodd" clip-rule="evenodd" stroke-linejoin="round" stroke-miterlimit="2"><path d="M74.454 50.519c0-10.175-.286-10.749-5.159-12.755-4.73-1.863-5.16-2.867-5.16-10.606V12.826C64.135 2.793 61.555.5 50.089.5H15.692C2.793.5.5 2.507.5 13.542v69.082c0 11.179 2.293 13.472 13.759 13.472h47.296c10.463 0 12.899-2.437 12.899-13.329V50.519zM42.35 37.764H23.861c-10.175 0-11.322-1.147-11.322-11.753 0-12.325 1.003-13.472 11.609-13.472H42.35c8.313 0 9.746 2.007 9.746 12.899 0 10.463-1.577 12.326-9.746 12.326zm8.599 46.293H32.891c-9.173 0-10.033-1.29-10.033-15.049v-1.577l.144-8.169c.286-8.313 1.576-9.603 10.605-9.603h18.059c10.176 0 10.749 1.004 10.749 16.483 0 10.749-.287 13.615-1.72 15.622-1.433 1.863-3.153 2.293-9.746 2.293zm105.772-14.476c0-6.163-1.72-8.456-6.019-8.456-4.3 0-6.02 2.293-6.02 8.026 0 14.189-.717 15.049-13.042 15.049h-9.89c-12.755 0-13.472-.86-13.472-16.052V50.233c0-5.733-.143-6.736-.573-8.456-.43-1.863-1.29-2.58-5.59-4.587-3.726-1.719-4.299-3.296-4.299-11.179 0-11.895 1.29-13.472 11.752-13.472h22.072c11.465 0 12.899 1.003 13.185 9.459.144 5.877 1.72 8.026 6.02 8.026 4.156 0 5.876-2.436 5.876-8.169l.143-5.733v-.86C156.864 2.65 155.001.5 143.249.5H98.962C88.5.5 85.92 3.08 85.92 13.399v68.938c0 11.752 2.15 13.759 14.332 13.759h41.994c11.465 0 14.475-2.293 14.475-11.323V69.581zm84.703-18.632c0-11.322-2.149-13.185-14.188-13.185h-36.691c-10.032 0-11.179-1.433-11.179-12.756 0-10.462 1.433-12.469 9.746-12.469h29.238c8.742 0 10.319 1.147 10.749 8.026l.143 2.293c.287 4.873 2.15 7.023 6.02 7.023 4.156 0 6.162-2.723 6.162-8.456v-9.889C241.424 2.793 238.415.5 227.379.5h-46.437c-11.035 0-13.615 2.436-13.615 12.756V36.76c0 10.606 2.436 13.043 12.899 13.043h26.514c10.893 0 12.326 1.146 12.326 10.749v11.609c0 10.319-1.29 11.752-9.889 11.752h-19.205c-8.886 0-10.606-1.719-10.606-10.462v-4.873c0-5.303-1.863-7.596-5.876-7.596-4.157 0-6.163 2.293-6.163 7.309v13.903c0 10.892 2.58 13.902 12.039 13.902h47.01c12.612 0 15.048-2.007 15.048-12.899V50.949z" fill-rule="nonzero" stroke="#ebebeb"/></svg>
