<?xml version="1.0" encoding="UTF-8" standalone="no"?><!DOCTYPE svg PUBLIC "-//W3C//DTD SVG 1.1//EN" "http://www.w3.org/Graphics/SVG/1.1/DTD/svg11.dtd"><svg width="100%" height="100%" viewBox="0 0 130 47" version="1.1" xmlns="http://www.w3.org/2000/svg" xmlns:xlink="http://www.w3.org/1999/xlink" xml:space="preserve" xmlns:serif="http://www.serif.com/" style="fill-rule:evenodd;clip-rule:evenodd;stroke-linejoin:round;stroke-miterlimit:2;"><g id="message"><path d="M129.169,42.268l-128.084,4.383l-1.085,-35.962l128.375,-10.689l0.794,42.268Z" style="fill:#3eb650;fill-rule:nonzero;"/><path d="M114.981,16.034c2.304,0.07 4.083,3.177 3.969,6.934c-0.113,3.757 -2.077,6.751 -4.382,6.681c-2.304,-0.069 -4.083,-3.177 -3.969,-6.934c0.114,-3.757 2.077,-6.751 4.382,-6.681Z" style="fill:#f8fafb;fill-opacity:0.97;"/><path d="M97.981,16.518c2.304,0.069 4.083,3.177 3.969,6.934c-0.113,3.757 -2.077,6.751 -4.382,6.681c-2.304,-0.07 -4.083,-3.177 -3.969,-6.934c0.114,-3.757 2.077,-6.751 4.382,-6.681Z" style="fill:#f8fafb;fill-opacity:0.97;"/><path d="M77.571,17.034c2.304,0.07 4.083,3.177 3.969,6.934c-0.114,3.757 -2.077,6.751 -4.382,6.681c-2.305,-0.069 -4.083,-3.177 -3.97,-6.934c0.114,-3.757 2.078,-6.751 4.383,-6.681Z" style="fill:#f8fafb;fill-opacity:0.97;"/><path d="M56.237,18.053c2.306,0.017 4.155,3.083 4.127,6.842c-0.028,3.759 -1.923,6.797 -4.228,6.779c-2.306,-0.017 -4.155,-3.082 -4.127,-6.841c0.028,-3.759 1.922,-6.797 4.228,-6.78Z" style="fill:#f8fafb;fill-opacity:0.97;"/><path d="M25.329,13.493l18.927,10.634l-16.849,13.691l-18.927,-10.634l16.849,-13.691Z" style="fill:#f5f4e5;"/></g></svg>