<?xml version="1.0" encoding="UTF-8" standalone="no"?><!DOCTYPE svg PUBLIC "-//W3C//DTD SVG 1.1//EN" "http://www.w3.org/Graphics/SVG/1.1/DTD/svg11.dtd"><svg style="fill:#CCC;"  width="100%" height="100%" viewBox="0 0 30 30" version="1.1" xmlns="http://www.w3.org/2000/svg" xmlns:xlink="http://www.w3.org/1999/xlink" xml:space="preserve" xmlns:serif="http://www.serif.com/" style="fill-rule:evenodd;clip-rule:evenodd;stroke-linejoin:round;stroke-miterlimit:2;"><path d="M22,18c-2,2 -2,4 -4,4c-2,0 -4,-2 -6,-4c-2,-2 -4,-4 -4,-6c0,-2 2,-2 4,-4c2,-2 -4,-8 -6,-8c-2,0 -6,6 -6,6c0,4 4.109,12.109 8,16c3.891,3.891 12,8 16,8c0,0 6,-4 6,-6c0,-2 -6,-8 -8,-6Z" style="fill-rule:nonzero;"/></svg>
