<svg viewBox="0 0 467 96" xmlns="http://www.w3.org/2000/svg" fill-rule="evenodd" clip-rule="evenodd" stroke-linecap="round" stroke-linejoin="round" stroke-miterlimit="1.5"><ellipse cx="73.798" cy="69.18" rx="18.497" ry="7.41" fill="#ecf1f4"/><ellipse cx="18.497" cy="87.597" rx="18.497" ry="7.41" fill="#edf1f4"/><path d="M85.791 81.149c-7.867.938-8.35-14.285-45.854-14.451-7.864-.035-14.319 6.321-14.407 14.184-.087 7.864 6.227 14.276 14.091 14.311 37.504.165 40.72-11.636 46.17-14.044z" fill="#eaeff2" fill-opacity=".97" stroke="#cbdde8"/><path d="M73.798 92.263c6.583-1.339 6.84-27.569 38.335-27.708 7.833-.035 14.262 6.296 14.349 14.127.087 7.832-6.202 14.218-14.034 14.253-31.495.139-34.474-.547-38.65-.672z" fill="#f2f5f7" stroke="#cbdde8"/><path d="M45.914 80.855c7.499.936 7.952-14.226 43.697-14.383 7.832-.035 14.262 6.295 14.348 14.127.087 7.832-6.201 14.218-14.033 14.253-35.746.157-38.92-11.596-44.012-13.997z" fill="#edf1f4" stroke="#cbdde8"/><ellipse cx="137.475" cy="87.895" rx="18.497" ry="7.41" fill="#f3f6f8"/><path d="M73.605 94.449c10.821-1.225 28.901-23.15 59.996-23.047 6.415.021 11.579 5.247 11.526 11.661-.053 6.415-5.305 11.605-11.72 11.584l-59.802-.198z" fill="#eef1f2" fill-opacity=".93"/><path d="M73.798 94.55C62.251 93.366 47.04 74.02 17.811 73.891c-5.875-.026-10.698 4.723-10.763 10.597A10.565 10.565 0 0 0 17.575 95.18c29.228.129 46.85-.491 56.223-.63z" fill="#f3f6f8" fill-opacity=".87"/><ellipse cx="371.706" cy="8.007" rx="21.441" ry="8.007" fill="#ecf1f4"/><ellipse cx="307.601" cy="27.908" rx="21.441" ry="8.007" fill="#edf0f3"/><path d="M385.609 20.94c-9.311 1.013-9.887-15.437-54.274-15.619-8.498-.035-15.479 6.835-15.58 15.332-.101 8.496 6.716 15.423 15.213 15.458 44.387.183 47.94-12.57 54.641-15.171z" fill="#eaeff2" fill-opacity=".97" stroke="#cbdde8"/><path d="M371.706 32.95c7.822-1.448 8.135-29.791 45.553-29.945 8.464-.035 15.417 6.807 15.518 15.27.1 8.463-6.689 15.362-15.153 15.397-37.418.154-40.696-.588-45.918-.722z" fill="#f2f5f7" stroke="#cbdde8"/><path d="M339.383 20.623c8.883 1.011 9.424-15.373 51.769-15.547 8.463-.035 15.416 6.807 15.517 15.27.1 8.463-6.689 15.362-15.153 15.397-42.344.174-45.85-12.527-52.133-15.12z" fill="#edf1f4" stroke="#cbdde8"/><ellipse cx="445.52" cy="28.23" rx="21.441" ry="8.007" fill="#f3f6f8"/><path d="M371.482 35.312c12.709-1.323 33.941-25.014 70.46-24.901 6.932.022 12.51 5.666 12.448 12.598-.062 6.931-5.74 12.542-12.672 12.52l-70.236-.217z" fill="#eef1f2" fill-opacity=".93"/><path d="M371.706 35.421c-13.557-1.28-31.42-22.186-65.736-22.327-6.349-.026-11.564 5.107-11.64 11.455a11.402 11.402 0 0 0 11.367 11.55c34.316.141 54.8-.529 66.009-.678z" fill="#f3f6f8" fill-opacity=".87"/></svg>