<svg viewBox="0 0 453 740" xmlns="http://www.w3.org/2000/svg" fill-rule="evenodd" clip-rule="evenodd" stroke-linejoin="round" stroke-miterlimit="2"><path d="M270.243 727.607l-91.806.456-10.973-91.628 108.881-.54-6.102 91.712z" fill="#666" fill-rule="nonzero"/><path d="M273.355 696.822l-68.75-1.563.539-23.719 68.75 1.564-.539 23.718z" fill="#fcc133" fill-rule="nonzero"/><path d="M246.899 677.542c2.601.06 4.643 3.159 4.557 6.917-.085 3.758-2.266 6.761-4.866 6.701-2.601-.059-4.642-3.158-4.557-6.916.085-3.758 2.266-6.761 4.866-6.702zm14.314.326c2.6.059 4.642 3.158 4.557 6.916-.086 3.758-2.266 6.761-4.867 6.702-2.6-.059-4.642-3.158-4.557-6.916.086-3.758 2.266-6.761 4.867-6.702zm-30.255-.688c2.6.059 4.642 3.158 4.556 6.916-.085 3.758-2.266 6.761-4.866 6.702-2.6-.059-4.642-3.158-4.557-6.916.086-3.758 2.266-6.761 4.867-6.702zm-14.753-.335c2.601.059 4.643 3.158 4.557 6.916-.085 3.758-2.266 6.761-4.866 6.702-2.601-.059-4.643-3.159-4.557-6.917.085-3.758 2.266-6.761 4.866-6.701z" fill="#f8fafb" fill-opacity=".97"/><path d="M188.91 667.136l3.268 10.775 9.502.208-7.627 5.779 3.322 9.758-8.28-6.064-7.894 6.039 2.955-9.747-7.272-4.624 9.176-1.358 2.85-10.766z" fill="#fff" fill-rule="nonzero" stroke="#100c00"/><path d="M281.955 646.93l-115.878.575c-2.861.017-5.19-2.556-5.204-5.742l-.042-10.59c-.015-3.184 2.297-5.779 5.158-5.793l115.878-.575c2.864-.016 5.193 2.554 5.207 5.741l.041 10.592c.012 3.186-2.297 5.779-5.16 5.792zm-12.824 91.745l-93.633.466c-2.861.016-5.19-2.556-5.205-5.74l-.041-10.592c-.011-3.187 2.298-5.782 5.159-5.796l93.632-.463c2.861-.014 5.193 2.556 5.204 5.742l.044 10.591c.012 3.186-2.297 5.779-5.16 5.792z" fill="#494949" fill-rule="nonzero"/><g fill="#494949" fill-rule="nonzero"><path d="M118.87 508.949L180.859 633.1c.591 1.186 1.724 1.923 2.944 1.917l76.573-.381c1.166-.006 2.234-.677 2.844-1.783l70.261-127.762c.965-1.759.468-4.054-1.11-5.129-1.58-1.077-3.642-.523-4.609 1.235l-69.285 125.987-72.723.363-61.024-122.221c-.899-1.801-2.94-2.449-4.558-1.449-1.617 1-2.2 3.271-1.302 5.072z"/><path d="M225.233 631.082l-.449-112.341c-.008-2.058-1.515-3.721-3.367-3.713-1.849.011-3.344 1.687-3.336 3.747l.449 112.34c.01 2.061 1.516 3.722 3.367 3.714 1.851-.009 3.344-1.687 3.336-3.747z"/></g><path d="M452.66 233.938c.349 86.98-44.933 186.972-112.487 261.55-33.06 36.497-193.048 37.944-226.64 1.127C45.96 422.548.347 322.717.001 236.187-.519 106.641 161.557.818 225.389.5 289.221.184 452.14 104.395 452.66 233.938z" fill="#6a6964" fill-rule="nonzero"/><path d="M225.389.5C161.557.818-.521 106.641.001 236.187c.346 86.53 45.959 186.361 113.532 260.428 6.666 7.303 18.32 13.097 32.958 17.413-41.138-57.417-96.926-157.203-97.407-276.661C48.326 47.982 225.389.5 225.389.5zm0 0C289.221.184 452.14 104.395 452.66 233.938c.346 86.53-44.463 186.811-111.44 261.542-6.607 7.376-18.214 13.283-32.816 17.744 40.675-57.824 95.661-158.16 95.182-277.618C402.826 46.221 225.389.5 225.389.5z" fill="#fff" fill-rule="nonzero"/><path d="M179.478 520.74c25.532 3.354 54.492 3.688 81.037 1.078C351.429 140.193 225.389.5 225.389.5s-145.38 163.945-45.911 520.24z" fill="#fff" fill-rule="nonzero" stroke="#fff"/><path d="M144.852 513.535c-13.869-4.262-24.903-9.89-31.319-16.92-41.801-45.817-75.198-101.495-94.675-157.783.634-.434 1.027-1.141 1.13-1.904 2.477-.142 4.734-.533 6.732-1.193a291.814 291.814 0 0 0 32.017-12.746c17.83 81.116 56.911 147.991 87.754 191.039-.552-.161-1.095-.326-1.639-.493z" fill="#ededed" fill-rule="nonzero"/><path d="M308.82 512.631c36.454-51.961 84.161-137.854 93.24-240.939 23.341-23.861 38.52-53.603 42.109-88.705 5.317 16.261 8.371 33.167 8.49 50.534-.002.008-.001.005-.001.014 0 .059 0 .119.002.18-.002.007 0 .019 0 .027v.196c.002.164.001.324.001.491l.001.016c0 .504.001 1.013-.002 1.516v.008l-.003.489a.06.06 0 0 1 0 .019c-.001.082 0 .166-.002.245v.01l-.001.199a.6.6 0 0 0 0 .06c-.002.056-.001.111-.003.17l.001.085c-.002.059-.002.108-.002.166v.089c-.002.057-.001.103-.004.163l-.001.092v.149a3.963 3.963 0 0 0-.002.109l-.002.135c0 .038-.002.084-.001.12-.002.037-.001.084-.003.121l-.002.136v.098l-.003.162c0 .028.001.047-.001.073l-.003.182-.001.073-.002.185-.002.054-.004.205a.054.054 0 0 1-.001.022c-1.57 85.636-46.346 182.935-112.445 255.908-6.359 7.019-17.409 12.74-31.353 17.143z" fill="#d8d8d8" fill-rule="nonzero"/><path d="M179.478 520.74c-19.331-69.242-29.414-131.211-33.115-186.132 24.009 4.878 50.109 6.754 77.556 5.543 23.303-1.029 45.907-4.204 67.207-9.434-4 55.526-13.433 118.986-30.611 191.101-26.545 2.61-55.505 2.276-81.037-1.078z" fill="#e9e9e9" fill-rule="nonzero"/><path d="M94.56 474.423s54.325 18.313 126.766 17.951c72.443-.36 145.346-27.925 145.346-27.925l-37.921 61.227s-55.432 22.185-107.201 22.44c-51.77.26-95.463-24.075-95.463-24.075L94.56 474.423z" fill="#494949" fill-rule="nonzero"/><path d="M135.638 496.599s37.821 7.216 89.933 6.867c48.128-.323 89.336-10.429 89.336-10.429l-16.609 30.388s-35.324 17.312-71.562 18.511c-17.009.563-33.201-1.481-46.805-5.588-17.766-5.364-29.907-11.937-28.472-12.966l-15.821-26.783z" fill="#3eb650" fill-rule="nonzero"/><path d="M288.546 506.889a5.993 5.993 0 0 1 6.287 5.69 6.011 6.011 0 0 1-5.698 6.295 5.994 5.994 0 0 1-6.287-5.691 6.012 6.012 0 0 1 5.698-6.294zm-23.859 5.477c3.504-.176 6.49 2.56 6.664 6.107.175 3.548-2.528 6.571-6.032 6.748-3.504.176-6.491-2.56-6.665-6.108-.175-3.547 2.529-6.57 6.033-6.747zm-27.493 2.001c3.816-.192 7.069 2.797 7.259 6.672.191 3.875-2.753 7.177-6.569 7.369-3.816.192-7.069-2.797-7.26-6.672-.19-3.875 2.754-7.177 6.57-7.369zm-24.973 0c3.816-.192 7.069 2.797 7.259 6.672.191 3.875-2.753 7.177-6.569 7.369-3.816.192-7.069-2.797-7.259-6.672-.191-3.875 2.753-7.177 6.569-7.369z" fill="#f8fafb" fill-opacity=".97"/><path d="M183.312 507.761l13.875 11.444-13.924 11.45-13.876-11.444 13.925-11.45z" fill="#fff"/></svg>